<svg xmlns="http://www.w3.org/2000/svg" data-name="Layer 1" viewBox="0 0 24 24"><path d="M11,22a4,4,0,0,1-3.46-6,1,1,0,0,1,1.36-.37A1,1,0,0,1,9.27,17,2,2,0,0,0,9,18a2,2,0,0,0,2,2,2,2,0,0,0,1.73-1l3.56-7.43A5.07,5.07,0,0,0,17,9,5,5,0,0,0,7,9a5.07,5.07,0,0,0,.17,1.29,1,1,0,1,1-1.93.52A6.92,6.92,0,0,1,5,9,7,7,0,0,1,19,9a6.93,6.93,0,0,1-.94,3.5L14.5,19.93A4,4,0,0,1,11,22Z"/><path d="M12,6A3,3,0,0,0,9,9a3,3,0,0,0,.51,1.68,3.5,3.5,0,0,0,.47.54l.2.22a1,1,0,0,1,0,1.11,1,1,0,0,0,.25,1.39,1,1,0,0,0,.57.18,1,1,0,0,0,.82-.43,3,3,0,0,0,0-3.39,6.88,6.88,0,0,0-.49-.56,1.37,1.37,0,0,1-.16-.18A1,1,0,0,1,11,9a1,1,0,0,1,2,0,1,1,0,0,0,2,0A3,3,0,0,0,12,6Z"/></svg>