<svg xmlns="http://www.w3.org/2000/svg" viewBox="0 0 24 24"><path d="M21.71,2.29a1,1,0,0,0-1.42,0L14.12,8.46a1,1,0,0,0,0,1.42,1,1,0,0,0,.71.29,1,1,0,0,0,.71-.29l6.17-6.17A1,1,0,0,0,21.71,2.29ZM9.88,8.46A1,1,0,0,0,8.46,9.88l5.66,5.66a1,1,0,0,0,.71.29,1,1,0,0,0,.71-.29,1,1,0,0,0,0-1.42ZM8.46,14.12,4,18.59V17a1,1,0,0,0-2,0v4a1,1,0,0,0,.08.38,1,1,0,0,0,.54.54A1,1,0,0,0,3,22H7a1,1,0,0,0,0-2H5.41l4.47-4.46a1,1,0,1,0-1.42-1.42Z"/><path d="M21,8a1,1,0,0,1-1-1V4H17a1,1,0,0,1,0-2h4a1,1,0,0,1,1,1V7A1,1,0,0,1,21,8Z"/></svg>