<svg xmlns="http://www.w3.org/2000/svg" data-name="Layer 1" viewBox="0 0 24 24"><path d="M12,7a5,5,0,1,0,5,5A5,5,0,0,0,12,7Zm0,8a3,3,0,1,1,3-3A3,3,0,0,1,12,15Zm5-9a1,1,0,1,0,1,1A1,1,0,0,0,17,6Zm4.94,2.24a7.51,7.51,0,0,0-.48-2.5,5.56,5.56,0,0,0-3.2-3.2,7.51,7.51,0,0,0-2.5-.48C14.79,2,14.47,2,12,2s-2.79,0-3.76.06a7.51,7.51,0,0,0-2.5.48,5.56,5.56,0,0,0-3.2,3.2,7.51,7.51,0,0,0-.48,2.5C2,9.22,2,9.54,2,12s0,2.78.06,3.76a7.51,7.51,0,0,0,.48,2.5,5.56,5.56,0,0,0,3.2,3.2,7.51,7.51,0,0,0,2.5.48c1,0,1.29.06,3.76.06s2.79,0,3.76-.06a7.51,7.51,0,0,0,2.5-.48,5.56,5.56,0,0,0,3.2-3.2,7.51,7.51,0,0,0,.48-2.5c0-1,.06-1.3.06-3.76S22,9.22,21.94,8.24Zm-2,7.43a6,6,0,0,1-.35,1.86,3.4,3.4,0,0,1-.82,1.25,3.26,3.26,0,0,1-1.25.81,5.75,5.75,0,0,1-1.87.36c-.94,0-1.23.05-3.66.05S9.28,20,8.34,20a6,6,0,0,1-1.87-.35,3.4,3.4,0,0,1-1.25-.82,3.26,3.26,0,0,1-.81-1.25,5.74,5.74,0,0,1-.36-1.86c0-1,0-1.25,0-3.67s0-2.71,0-3.67a5.86,5.86,0,0,1,.36-1.87,3.3,3.3,0,0,1,.81-1.24,3.26,3.26,0,0,1,1.25-.81,5.75,5.75,0,0,1,1.87-.36C9.28,4,9.57,4,12,4s2.72,0,3.66,0a5.87,5.87,0,0,1,1.88.36,3.3,3.3,0,0,1,1.24.81,3.26,3.26,0,0,1,.81,1.25A5.74,5.74,0,0,1,20,8.33c0,1,.05,1.25.05,3.67S20,14.71,20,15.67Z"/></svg>