<svg xmlns="http://www.w3.org/2000/svg" data-name="Layer 1" viewBox="0 0 24 24"><path d="M12.12,21.39h-.25a4.45,4.45,0,0,1-2.69-1.06,3.94,3.94,0,0,0-1.53-.79,5.73,5.73,0,0,0-.81-.06,5.87,5.87,0,0,0-1.12.12,1.91,1.91,0,0,1-.43.06A.28.28,0,0,1,5,19.43,4.48,4.48,0,0,1,4.86,19c-.08-.37-.14-.6-.28-.62-1.49-.23-2.37-.57-2.55-1a.31.31,0,0,1,0-.13A.24.24,0,0,1,2.2,17a5.17,5.17,0,0,0,3.13-1.87A6.36,6.36,0,0,0,6.4,13.46h0a1.06,1.06,0,0,0,.1-.9c-.19-.45-.83-.65-1.25-.79L5,11.67c-.38-.15-1-.46-.91-.89a.83.83,0,0,1,.81-.54.66.66,0,0,1,.25,0,2.39,2.39,0,0,0,1,.27.83.83,0,0,0,.58-.18l0-.6a9.91,9.91,0,0,1,.24-4,5.23,5.23,0,0,1,4.86-3.13h.41a5.26,5.26,0,0,1,4.87,3.14,10.11,10.11,0,0,1,.24,4v.06c0,.19,0,.36,0,.53a.78.78,0,0,0,.53.18,2.51,2.51,0,0,0,1-.27.77.77,0,0,1,.31-.06.86.86,0,0,1,.36.07h0c.3.11.5.32.5.54s-.15.53-.91.83l-.28.09c-.42.14-1.06.34-1.25.79a1.06,1.06,0,0,0,.1.9h0c.06.13,1.34,3.05,4.21,3.53a.24.24,0,0,1,.2.25.61.61,0,0,1,0,.13c-.18.41-1.06.75-2.55,1-.14,0-.2.24-.28.62,0,.15-.07.3-.12.46a.27.27,0,0,1-.29.22h0a2.08,2.08,0,0,1-.42-.06,5.8,5.8,0,0,0-1.12-.11,5.52,5.52,0,0,0-.81.06,3.87,3.87,0,0,0-1.53.79,4.45,4.45,0,0,1-2.7,1.06"/><path fill="none" d="M2,2H22V22H2Z"/></svg>