<svg xmlns="http://www.w3.org/2000/svg" data-name="Layer 1" viewBox="0 0 24 24"><path d="M15.4,11.16,10.5,8a1,1,0,0,0-1,0A1,1,0,0,0,9,8.84v6.32a1,1,0,0,0,.52.87.94.94,0,0,0,.48.13A1.1,1.1,0,0,0,10.5,16l4.9-3.16a1,1,0,0,0,0-1.68ZM11,13.32V10.68L13,12Zm8.38-8.81-1.55-.2a47.56,47.56,0,0,0-11.56,0l-1.55.2A3.05,3.05,0,0,0,2,7.53v8.94a3.05,3.05,0,0,0,2.67,3l1.55.19A46.6,46.6,0,0,0,12,20a46.6,46.6,0,0,0,5.78-.36l1.55-.19a3.05,3.05,0,0,0,2.67-3V7.53A3.05,3.05,0,0,0,19.33,4.51Zm.67,12a1,1,0,0,1-.92,1l-1.55.19a44.49,44.49,0,0,1-11.06,0l-1.55-.19a1,1,0,0,1-.92-1V7.53a1.06,1.06,0,0,1,.92-1L6.47,6.3a45.14,45.14,0,0,1,11.06,0l1.55.19a1.06,1.06,0,0,1,.92,1Z"/></svg>