<svg xmlns="http://www.w3.org/2000/svg" data-name="Layer 1" viewBox="0 0 24 24"><path d="M16.60779,13.98511c-.24762-.124-1.46509-.723-1.69208-.80567s-.39209-.1239-.55719.124-.63959.80566-.78412.97094-.28888.186-.53644.06195a6.76052,6.76052,0,0,1-1.99139-1.22906A7.46389,7.46389,0,0,1,9.669,11.39178c-.14441-.24786-.01539-.38189.10858-.50537.11145-.111.24768-.28924.37146-.43383a1.689,1.689,0,0,0,.24762-.41309.456.456,0,0,0-.02063-.43384c-.06189-.124-.55713-1.34289-.76349-1.83874-.201-.48279-.40515-.41742-.55713-.42505-.14429-.0072-.30957-.00873-.47461-.00873a.9097.9097,0,0,0-.6604.30988A2.77757,2.77757,0,0,0,7.05371,9.7088a4.81676,4.81676,0,0,0,1.01111,2.56171A11.03909,11.03909,0,0,0,12.295,16.00958a14.22958,14.22958,0,0,0,1.41175.52167,3.392,3.392,0,0,0,1.55969.09808A2.55038,2.55038,0,0,0,16.938,15.452a2.07,2.07,0,0,0,.14435-1.17762C17.02051,14.17108,16.85541,14.10907,16.60779,13.98511Z"/><path d="M19.1,4.90643a9.91287,9.91287,0,0,0-15.59833,11.958L2.0957,22l5.25373-1.37817a9.90143,9.90143,0,0,0,4.736,1.20629h.00409A9.91482,9.91482,0,0,0,19.1,4.90643Zm-7.0105,15.24793h-.00336a8.224,8.224,0,0,1-4.1925-1.1482l-.30079-.17846-3.11767.81781.83215-3.03968-.19586-.3117a8.23719,8.23719,0,1,1,6.978,3.86023Z"/></svg>