<svg id="Layer_1" data-name="Layer 1" xmlns="http://www.w3.org/2000/svg" viewBox="0 0 24 24"><path d="M16.55994,13.98511c-.24762-.1239-1.46509-.7229-1.69208-.80567-.227-.08258-.39209-.12384-.55713.124s-.63971.80572-.78412.97094-.28888.186-.53656.062a6.76131,6.76131,0,0,1-1.99133-1.22912,7.4615,7.4615,0,0,1-1.37757-1.71546c-.14447-.24786-.01544-.38189.10853-.50537.11145-.111.24768-.28924.37146-.43383a1.68756,1.68756,0,0,0,.24761-.41309.45576.45576,0,0,0-.02063-.43384c-.06188-.1239-.55712-1.34283-.76348-1.83874-.201-.48279-.40516-.41736-.55719-.42505-.14423-.00714-.30951-.00867-.47455-.00867a.90983.90983,0,0,0-.6604.30982,2.77762,2.77762,0,0,0-.86664,2.06585A4.81645,4.81645,0,0,0,8.017,12.27051a11.03787,11.03787,0,0,0,4.23028,3.73913,14.203,14.203,0,0,0,1.41169.52161,3.39291,3.39291,0,0,0,1.55969.09814A2.55,2.55,0,0,0,16.89008,15.452a2.06958,2.06958,0,0,0,.1444-1.17762C16.97266,14.17108,16.80756,14.10913,16.55994,13.98511Zm2.49225-9.07862A9.91287,9.91287,0,0,0,3.4538,16.86444L2.04785,22l5.25372-1.37811a9.90142,9.90142,0,0,0,4.736,1.20623h.00409a9.91482,9.91482,0,0,0,7.0105-16.92163ZM12.04163,20.15442h-.0033a8.22476,8.22476,0,0,1-4.19257-1.14819l-.30084-.17853-3.11755.81781.83209-3.03968-.1958-.31164a8.23716,8.23716,0,1,1,6.978,3.86023Z"/><rect x="-639.01271" y="-518.56844" width="1280.23999" height="1066.85999" style="fill:none"/></svg>