<svg xmlns="http://www.w3.org/2000/svg" data-name="Layer 1" viewBox="0 0 24 24"><circle cx="12" cy="12" r="11" class="uim-tertiary"/><path class="uim-primary" d="M22 3H21V2a1 1 0 0 0-2 0V3H18a1 1 0 0 0 0 2h1V6a1 1 0 0 0 2 0V5h1a1 1 0 0 0 0-2zM12.5 18h-1a3.00328 3.00328 0 0 1-3-3V9a3.00328 3.00328 0 0 1 3-3h1a3.00328 3.00328 0 0 1 3 3v6A3.00328 3.00328 0 0 1 12.5 18zm-1-10a1.001 1.001 0 0 0-1 1v6a1.001 1.001 0 0 0 1 1h1a1.001 1.001 0 0 0 1-1V9a1.001 1.001 0 0 0-1-1z"/><path class="uim-primary" d="M12,23A11,11,0,0,1,12,1a11.11966,11.11966,0,0,1,2.19873.21973,1.0004,1.0004,0,0,1-.39746,1.96093,8.991,8.991,0,1,0,7.01855,7.01954,1.00023,1.00023,0,0,1,1.96-.4004A11.00925,11.00925,0,0,1,12,23Z"/></svg>