<svg xmlns="http://www.w3.org/2000/svg" data-name="Layer 1" viewBox="0 0 24 24"><path class="uim-tertiary" d="M19.5 22h-2a1 1 0 0 1 0-2h2a1 1 0 0 1 0 2zM11.5 16.00049a1.00045 1.00045 0 0 1-.93945-1.3418l2.17968-6a.99953.99953 0 1 1 1.87891.68262l-2.17969 6A.99987.99987 0 0 1 11.5 16.00049z"/><path class="uim-tertiary" d="M17.5 22a.99974.99974 0 0 1-1-1V16h-5a1 1 0 0 1 0-2h6a.99974.99974 0 0 1 1 1v6A.99974.99974 0 0 1 17.5 22zM13.67871 10a.99443.99443 0 0 1-.499-.13379L8.71 7.28613a1.00016 1.00016 0 1 1 1-1.73242l4.46973 2.58008A1 1 0 0 1 13.67871 10z"/><path class="uim-tertiary" d="M6.48145,9a.99994.99994,0,0,1-.502-1.86523L8.709,5.55469a.99981.99981,0,1,1,1.002,1.73047L6.98145,8.86523A.99416.99416,0,0,1,6.48145,9Z"/><circle cx="16" cy="5" r="2" class="uim-tertiary"/><path class="uim-primary" d="M9.5,22a5.9954,5.9954,0,0,1-.667-11.9541.99993.99993,0,1,1,.21484,1.98828A3.99549,3.99549,0,0,0,9.5,20a4.02911,4.02911,0,0,0,3.20117-1.60107.99971.99971,0,1,1,1.59766,1.20214A6.03691,6.03691,0,0,1,9.5,22Z"/></svg>