<svg xmlns="http://www.w3.org/2000/svg" viewBox="0 0 24 24"><path class="uim-quaternary" d="M14.25,22A7.75,7.75,0,1,1,22,14.25,7.75868,7.75868,0,0,1,14.25,22Z"/><path class="uim-quaternary" d="M9.75,17.5A7.75,7.75,0,1,1,17.5,9.75,7.75868,7.75868,0,0,1,9.75,17.5Z"/><path class="uim-tertiary" d="M6.5,14.25a7.69548,7.69548,0,0,0,.5097,2.74023,7.72974,7.72974,0,0,0,9.9806-9.98046A7.72967,7.72967,0,0,0,6.5,14.25Z"/><path class="uim-primary" d="M7.07837 11.32251l5.59912 5.59912a7.7392 7.7392 0 0 0 1.79071-1.03735L8.11578 9.53174A7.74355 7.74355 0 0 0 7.07837 11.32251zM9.5318 8.11572l6.35242 6.35254a7.74355 7.74355 0 0 0 1.03741-1.79077L11.32251 7.07837A7.7392 7.7392 0 0 0 9.5318 8.11572z"/></svg>