<svg xmlns="http://www.w3.org/2000/svg" viewBox="0 0 24 24"><path class="uim-tertiary" d="M12,3a9,9,0,0,1,0,18"/><path class="uim-primary" d="M12,22a.99943.99943,0,0,1-1-1V3a.99943.99943,0,0,1,1-1,10.01631,10.01631,0,0,1,8.791,5.23633c.01464.02734.02734.05469.03906.082a9.98536,9.98536,0,0,1-8.55371,14.67187A2.34161,2.34161,0,0,1,12,22ZM13,4.06152V19.92871A7.9813,7.9813,0,0,0,19.03418,8.20215a.99858.99858,0,0,1-.04492-.0918A8.03041,8.03041,0,0,0,13,4.06152Z"/><path class="uim-primary" d="M11.999 13.84961a.99991.99991 0 0 1-.86523-1.5l4.86035-8.41992a1.00016 1.00016 0 1 1 1.73242 1l-4.86035 8.41992A1.00114 1.00114 0 0 1 11.999 13.84961zM12.249 21.99023a.9999.9999 0 0 1-.86523-1.5L19.02539 7.252a.999.999 0 0 1 1.88477.458 1.035 1.035 0 0 1-.13379.50977l-7.66016 13.2705A1.00111 1.00111 0 0 1 12.249 21.99023z"/></svg>