<svg xmlns="http://www.w3.org/2000/svg" viewBox="0 0 24 24"><path class="uim-tertiary" d="M12,3a9,9,0,0,1,0,18"/><path class="uim-primary" d="M12 21A9 9 0 0 1 12 3M12 22A10 10 0 1 1 22 12 10.01177 10.01177 0 0 1 12 22zM12 4a8 8 0 1 0 8 8A8.00917 8.00917 0 0 0 12 4z"/><path class="uim-primary" d="M17.36035 3.56342a1.0001 1.0001 0 0 0-1.36621.36621l-1.419 2.45825-.00091.001L9.71392 14.80878a1.00016 1.00016 0 0 0 1.73243 1l1.41857-2.45752.00129-.00171 4.86035-8.41992A.99988.99988 0 0 0 17.36035 3.56342zM12.249 21.99023a.9999.9999 0 0 1-.86523-1.5L19.02539 7.252a.999.999 0 0 1 1.88477.458 1.035 1.035 0 0 1-.13379.50977l-7.66016 13.2705A1.00111 1.00111 0 0 1 12.249 21.99023z"/></svg>