<svg xmlns="http://www.w3.org/2000/svg" data-name="Layer 1" viewBox="0 0 24 24"><path class="uim-quaternary" d="M22.89,11.53,20.4,8.2A3.01223,3.01223,0,0,0,18,7H15a1.003,1.003,0,0,0-1,1v9a1.003,1.003,0,0,0,1,1h7a1.003,1.003,0,0,0,1-1V12A1.11568,1.11568,0,0,0,22.89,11.53Z"/><path class="uim-primary" d="M22,12,19.6,8.8A2,2,0,0,0,18,8H15v4Z"/><path class="uim-primary" d="M22.89,11.53,20.4,8.2A3.01223,3.01223,0,0,0,18,7H14v6h9V12A1.11568,1.11568,0,0,0,22.89,11.53Z"/><path class="uim-tertiary" d="M7.73,17H15V6a2.00588,2.00588,0,0,0-2-2H4A2.00588,2.00588,0,0,0,2,6V17H4.27"/><path class="uim-tertiary" d="M13,3H4A3.00328,3.00328,0,0,0,1,6V17a1,1,0,0,0,1,1H15a1,1,0,0,0,1-1V6A3.00328,3.00328,0,0,0,13,3Z"/><path class="uim-primary" d="M10.5 9.5h-1v-1a1 1 0 0 0-2 0v1h-1a1 1 0 0 0 0 2h1v1a1 1 0 0 0 2 0v-1h1a1 1 0 0 0 0-2zM6 21a3 3 0 1 1 3-3A3.00328 3.00328 0 0 1 6 21zM18 21a3 3 0 1 1 3-3A3.00328 3.00328 0 0 1 18 21z"/></svg>