<svg xmlns="http://www.w3.org/2000/svg" viewBox="0 0 24 24"><path class="uim-primary" d="M9.11084 5.91992a.99772.99772 0 0 1-.8667-.5L7.13428 3.5a.99974.99974 0 1 1 1.73144-1L9.97559 4.41992a.99925.99925 0 0 1-.86475 1.5zM14.88916 5.91992a.99925.99925 0 0 1-.86475-1.5L15.13428 2.5a.99974.99974 0 1 1 1.73144 1L15.75586 5.41992A.99829.99829 0 0 1 14.88916 5.91992z"/><path class="uim-tertiary" d="M10 22a.99974.99974 0 0 1-1-1V17a1 1 0 0 1 2 0v4A.99974.99974 0 0 1 10 22zM3 15a.99974.99974 0 0 1-1-1V10a1 1 0 0 1 2 0v4A.99974.99974 0 0 1 3 15zM21 15a.99974.99974 0 0 1-1-1V10a1 1 0 0 1 2 0v4A.99974.99974 0 0 1 21 15zM14 22a.99974.99974 0 0 1-1-1V17a1 1 0 0 1 2 0v4A.99974.99974 0 0 1 14 22z"/><path class="uim-tertiary" d="M17,18H7a.99974.99974,0,0,1-1-1V9A6,6,0,0,1,18,9v8A.99974.99974,0,0,1,17,18Z"/><path class="uim-tertiary" d="M12,3A6.00657,6.00657,0,0,0,6,9v1H18V9A6.00657,6.00657,0,0,0,12,3Z"/><rect width="12" height="2" x="6" y="9" class="uim-primary"/></svg>