<svg xmlns="http://www.w3.org/2000/svg" viewBox="0 0 24 24"><path class="uim-tertiary" d="M12,22A10,10,0,1,1,22,12,10.01177,10.01177,0,0,1,12,22Z"/><path fill="none" stroke="#6563ff" stroke-linecap="round" stroke-linejoin="round" stroke-width="2" d="M9,16.09191a4.66717,4.66717,0,0,1,6,0"/><path class="uim-primary" d="M14.001 11a1 1 0 0 1-.44825-1.89453l2-1a1.00012 1.00012 0 1 1 .89454 1.78906l-2 1A1.00108 1.00108 0 0 1 14.001 11zM9.999 11a1.00108 1.00108 0 0 1-.44629-.10547l-2-1a1.00012 1.00012 0 0 1 .89454-1.78906l2 1A1 1 0 0 1 9.999 11z"/></svg>