<svg xmlns="http://www.w3.org/2000/svg" viewBox="0 0 24 24"><path class="uim-primary" d="M12,22a.99943.99943,0,0,1-1-1V13a1,1,0,0,1,2,0v8A.99943.99943,0,0,1,12,22Z"/><path class="uim-primary" d="M12,14a1,1,0,0,1-.44727-.10547C11.36719,13.80176,7,11.56543,7,7A5,5,0,0,1,17,7c0,4.56543-4.36719,6.80176-4.55273,6.89453A1,1,0,0,1,12,14ZM12,4A3.00328,3.00328,0,0,0,9,7c0,2.5791,2.06543,4.22461,3,4.83691C12.93359,11.22559,15,9.58008,15,7A3.00328,3.00328,0,0,0,12,4Z"/><path class="uim-tertiary" d="M18,14H6a1,1,0,0,1,0-2H18a1,1,0,0,1,0,2Z"/></svg>