<svg xmlns="http://www.w3.org/2000/svg" data-name="Layer 1" viewBox="0 0 24 24"><circle cx="12" cy="12" r="10" class="uim-tertiary"/><path class="uim-primary" d="M15.5 10.83594A2.9815 2.9815 0 0 1 13.37891 9.957.99989.99989 0 0 1 14.793 8.543a1.03323 1.03323 0 0 0 1.41406 0A.99989.99989 0 0 1 17.62109 9.957 2.9815 2.9815 0 0 1 15.5 10.83594zM8.5 10.83594A2.9815 2.9815 0 0 1 6.37891 9.957.99989.99989 0 0 1 7.793 8.543a1.03323 1.03323 0 0 0 1.41406 0A.99989.99989 0 0 1 10.62109 9.957 2.9815 2.9815 0 0 1 8.5 10.83594zM10.80371 17a1 1 0 0 1-.33691-1.94141l4.19629-1.5a.99988.99988 0 0 1 .67382 1.88282l-4.19629 1.5A.99528.99528 0 0 1 10.80371 17z"/></svg>