<svg xmlns="http://www.w3.org/2000/svg" viewBox="0 0 24 24"><path class="uim-quaternary" d="M20,22H4a.99943.99943,0,0,1-1-1V3A.99943.99943,0,0,1,4,2H20a.99943.99943,0,0,1,1,1V21A.99943.99943,0,0,1,20,22Z"/><path class="uim-tertiary" d="M16 22H8a.99943.99943 0 0 1-1-1V16.47168a8.19027 8.19027 0 0 1 4.55273-7.36621 1.00109 1.00109 0 0 1 .89454 0A8.19027 8.19027 0 0 1 17 16.47168V21A.99943.99943 0 0 1 16 22zM22 8H2A1 1 0 0 1 2 6H22a1 1 0 0 1 0 2z"/><path class="uim-primary" d="M22,22H2a1,1,0,0,1,0-2H22a1,1,0,0,1,0,2Z"/></svg>