<svg xmlns="http://www.w3.org/2000/svg" data-name="Layer 1" viewBox="0 0 24 24"><path class="uim-tertiary" d="M17.05524,13.49615a6.99715,6.99715,0,1,0-11.0459,1.3991,2.06394,2.06394,0,0,1,.38925,2.38086,3.9869,3.9869,0,0,0,7.09262,3.63911Z"/><path class="uim-quaternary" d="M21,11a.99943.99943,0,0,1-1-1,9.04035,9.04035,0,0,0-3.60938-7.19922,1.00039,1.00039,0,0,1,1.19922-1.60156A11.05277,11.05277,0,0,1,22,10,.99943.99943,0,0,1,21,11Z"/><circle cx="7" cy="14" r="1" class="uim-quaternary"/><circle cx="4" cy="16" r="1" class="uim-quaternary"/><path class="uim-primary" d="M9.999,15.12012a1.00017,1.00017,0,0,1-.82324-1.56543.9875.9875,0,0,0,0-1.11914,1.18416,1.18416,0,0,0-.123-.13867l-.12011-.126a2.72005,2.72005,0,0,1-.419-.49219A3,3,0,1,1,14,10a1,1,0,0,1-2,0,1,1,0,1,0-1.83008.55859,1.04053,1.04053,0,0,0,.1582.18164l.1543.15918a2.89868,2.89868,0,0,1,.33692.39747,2.98332,2.98332,0,0,1,.00488,3.38867A.9965.9965,0,0,1,9.999,15.12012Z"/></svg>