<svg xmlns="http://www.w3.org/2000/svg" data-name="Layer 1" viewBox="0 0 24 24"><path class="uim-secondary" d="M12,22c-2.85059,0-5-4.29883-5-10S9.14941,2,12,2a1,1,0,0,1,0,2c-1.22363,0-3,3.1167-3,8s1.77637,8,3,8a1,1,0,0,1,0,2Z"/><path class="uim-quaternary" d="M19.793,17.5a.99991.99991,0,0,1-.86524-1.5c.31055-.53809,0-1.56445-.81054-2.6792A15.13731,15.13731,0,0,0,13.5,9.40234,15.12135,15.12135,0,0,0,7.79785,7.36328c-1.375-.145-2.415.09912-2.72558.63672A1.00016,1.00016,0,0,1,3.33984,7C4.084,5.71289,5.7373,5.13672,8.00781,5.374A17.15251,17.15251,0,0,1,14.5,7.66992,17.14628,17.14628,0,0,1,19.73438,12.144c1.34082,1.84326,1.66894,3.56787.92578,4.856A1.00011,1.00011,0,0,1,19.793,17.5Z"/><path class="uim-tertiary" d="M4.207,17.5a1.00011,1.00011,0,0,1-.86719-.5c-.74316-1.28809-.415-3.0127.92578-4.856A17.14628,17.14628,0,0,1,9.5,7.66992,17.15251,17.15251,0,0,1,15.99219,5.374c2.26562-.23828,3.92383.33838,4.668,1.626a1.00016,1.00016,0,0,1-1.73243,1c-.31054-.53711-1.35253-.78271-2.72558-.63672A15.12135,15.12135,0,0,0,10.5,9.40234,15.13731,15.13731,0,0,0,5.88281,13.3208C5.07227,14.43555,4.76172,15.46191,5.07227,16A.99991.99991,0,0,1,4.207,17.5Z"/><circle cx="12" cy="12" r="1" class="uim-primary"/><path class="uim-tertiary" d="M7.042,18.67871c-1.77148,0-3.06836-.58154-3.70215-1.67871a1.00016,1.00016,0,0,1,1.73243-1c.30957.5376,1.35156.78174,2.72558.63672A15.12135,15.12135,0,0,0,13.5,14.59766a15.13731,15.13731,0,0,0,4.61719-3.91846c.81054-1.11475,1.12109-2.14111.81054-2.6792a1.00016,1.00016,0,0,1,1.73243-1c.74316,1.28809.415,3.0127-.92578,4.856A17.14628,17.14628,0,0,1,14.5,16.33008,17.15251,17.15251,0,0,1,8.00781,18.626,9.28117,9.28117,0,0,1,7.042,18.67871Z"/><path class="uim-quaternary" d="M16.958,18.67871a9.29545,9.29545,0,0,1-.96582-.05273A17.15251,17.15251,0,0,1,9.5,16.33008,17.14628,17.14628,0,0,1,4.26562,11.856C2.9248,10.0127,2.59668,8.28809,3.33984,7A1.00016,1.00016,0,0,1,5.07227,8c-.31055.53809,0,1.56445.81054,2.6792A15.13731,15.13731,0,0,0,10.5,14.59766a15.12135,15.12135,0,0,0,5.70215,2.03906c1.376.14551,2.416-.09912,2.72558-.63672a1.00016,1.00016,0,0,1,1.73243,1C20.02637,18.09717,18.72949,18.67871,16.958,18.67871Z"/><path class="uim-secondary" d="M12,22a1,1,0,0,1,0-2c1.22363,0,3-3.1167,3-8s-1.77637-8-3-8a1,1,0,0,1,0-2c2.85059,0,5,4.29883,5,10S14.85059,22,12,22Z"/></svg>