<svg xmlns="http://www.w3.org/2000/svg" viewBox="0 0 24 24"><path class="uim-primary" d="M15.5,15h-3a6.459,6.459,0,0,1-6.05176-4.13672c-.01172-.03027-.022-.06055-.03076-.0918L4.63623,6H3A1,1,0,0,1,3,4H5.33008a.99945.99945,0,0,1,.937.65039l2.0498,5.49023c.00733.01954.01416.03907.02.05958A4.47009,4.47009,0,0,0,12.5,13h3a4.4996,4.4996,0,0,0,4.40576-3.57617A.99912.99912,0,0,1,19,10H15a.99974.99974,0,0,1-1-1V3a.99974.99974,0,0,1,1-1h.5a6.5,6.5,0,1,1,0,13Z"/><path class="uim-tertiary" d="M21.98,8H5.38l.51,1.37012c.01.00976.01.02.02.02978L6.42,10.77l.03.08984A6.44359,6.44359,0,0,0,12.5,15h3A6.48691,6.48691,0,0,0,22,8.5C22,8.33008,21.99,8.15991,21.98,8Z"/><path class="uim-primary" d="M19 21.5A2.5 2.5 0 1 1 21.5 19 2.50273 2.50273 0 0 1 19 21.5zM9 21.5A2.5 2.5 0 1 1 11.5 19 2.50273 2.50273 0 0 1 9 21.5z"/></svg>