<svg xmlns="http://www.w3.org/2000/svg" data-name="Layer 1" viewBox="0 0 24 24"><path class="uim-primary" d="M14,8H10A1,1,0,0,1,9,7V5a3,3,0,0,1,6,0V7A1,1,0,0,1,14,8ZM11,6h2V5a1,1,0,0,0-2,0Z"/><path class="uim-secondary" d="M7,11v8H5a2,2,0,0,1-2-2V14a3,3,0,0,1,3-3Z"/><path class="uim-secondary" d="M7 20H5a3.00328 3.00328 0 0 1-3-3V14a4.00458 4.00458 0 0 1 4-4H7a1 1 0 0 1 1 1v8A1 1 0 0 1 7 20zM6 12a2.002 2.002 0 0 0-2 2v3a1.0013 1.0013 0 0 0 1 1H6zM21 14v3a2 2 0 0 1-2 2H17V11h1A3 3 0 0 1 21 14z"/><path class="uim-secondary" d="M19,20H17a1,1,0,0,1-1-1V11a1,1,0,0,1,1-1h1a4.00458,4.00458,0,0,1,4,4v3A3.00328,3.00328,0,0,1,19,20Zm-1-2h1a1.0013,1.0013,0,0,0,1-1V14a2.002,2.002,0,0,0-2-2Z"/><path class="uim-tertiary" d="M17,10v9a2,2,0,0,1-2,2H9a2,2,0,0,1-2-2V10a3,3,0,0,1,3-3h4A3,3,0,0,1,17,10Z"/><path class="uim-tertiary" d="M15,22H9a3.00328,3.00328,0,0,1-3-3V10a4.00458,4.00458,0,0,1,4-4h4a4.00458,4.00458,0,0,1,4,4v9A3.00328,3.00328,0,0,1,15,22ZM10,8a2.002,2.002,0,0,0-2,2v9a1.0013,1.0013,0,0,0,1,1h6a1.0013,1.0013,0,0,0,1-1V10a2.002,2.002,0,0,0-2-2Z"/><path class="uim-quaternary" d="M17,18v1a2,2,0,0,1-2,2H9a2,2,0,0,1-2-2V18a3,3,0,0,1,3-3h4A3,3,0,0,1,17,18Z"/><path class="uim-quaternary" d="M15,22H9a3.00328,3.00328,0,0,1-3-3V18a4.00458,4.00458,0,0,1,4-4h4a4.00458,4.00458,0,0,1,4,4v1A3.00328,3.00328,0,0,1,15,22Zm-5-6a2.002,2.002,0,0,0-2,2v1a1.0013,1.0013,0,0,0,1,1h6a1.0013,1.0013,0,0,0,1-1V18a2.002,2.002,0,0,0-2-2Z"/><path class="uim-primary" d="M13,12H11a1,1,0,0,1,0-2h2a1,1,0,0,1,0,2Z"/></svg>