<svg xmlns="http://www.w3.org/2000/svg" viewBox="0 0 24 24"><path class="uim-primary" d="M19.333,18.5166a2.66134,2.66134,0,0,1-1.332-.36035l-5.5-3.16992A.99871.99871,0,0,1,12,14.12012V9.87988a.99871.99871,0,0,1,.501-.86621l5.5-3.16992A2.66672,2.66672,0,0,1,22,8.15039v7.69922a2.67548,2.67548,0,0,1-2.667,2.667Z"/><path class="uim-tertiary" d="M11.334,18.52051A2.6622,2.6622,0,0,1,10,18.15918L3.333,14.30957a2.66728,2.66728,0,0,1,0-4.61914h0L10,5.84082a2.66651,2.66651,0,0,1,4,2.30859v7.70118a2.67588,2.67588,0,0,1-2.666,2.66992Z"/></svg>