<svg xmlns="http://www.w3.org/2000/svg" data-name="Layer 1" viewBox="0 0 24 24"><path fill="none" stroke="#b2b1ff" stroke-linecap="round" stroke-linejoin="round" stroke-width="2" d="M10,4h4a1,1,0,0,1,1,1V7a0,0,0,0,1,0,0H9A0,0,0,0,1,9,7V5A1,1,0,0,1,10,4Z"/><rect width="20" height="15" x="2" y="6" class="uim-tertiary" rx="3"/><path class="uim-quaternary" d="M19,6H5A3.00328,3.00328,0,0,0,2,9v2a1,1,0,0,0,.68359.94873l6,2A.99858.99858,0,0,0,9,14h6a.99858.99858,0,0,0,.31641-.05127l6-2A1,1,0,0,0,22,11V9A3.00328,3.00328,0,0,0,19,6Z"/><path class="uim-primary" d="M21,22a.99676.99676,0,0,1-.707-.293l-18-18A.99989.99989,0,0,1,3.707,2.293l18,18A1,1,0,0,1,21,22Z"/></svg>