<svg xmlns="http://www.w3.org/2000/svg" viewBox="0 0 24 24"><path class="uim-primary" d="M15,8.5H9a.99974.99974,0,0,1-1-1v-2a3.00328,3.00328,0,0,1,3-3h2a3.00328,3.00328,0,0,1,3,3v2A.99974.99974,0,0,1,15,8.5Zm-5-2h4v-1a1.001,1.001,0,0,0-1-1H11a1.001,1.001,0,0,0-1,1Z"/><path class="uim-quaternary" d="M19,21.5H5a3.00328,3.00328,0,0,1-3-3v-9a3.00328,3.00328,0,0,1,3-3H19a3.00328,3.00328,0,0,1,3,3v9A3.00328,3.00328,0,0,1,19,21.5Z"/><path class="uim-tertiary" d="M12,14.5a21.7605,21.7605,0,0,1-9.43018-2.14648A.9983.9983,0,0,1,2,11.45117V9.5a3.00328,3.00328,0,0,1,3-3H19a3.00328,3.00328,0,0,1,3,3v1.95215a1.0004,1.0004,0,0,1-.57031.90332A21.78894,21.78894,0,0,1,12,14.5Zm9-3.04785h0Z"/></svg>