<svg xmlns="http://www.w3.org/2000/svg" data-name="Layer 1" viewBox="0 0 24 24"><path class="uim-primary" d="M16,22H8a1,1,0,0,1,0-2h8a1,1,0,0,1,0,2Z"/><path class="uim-primary" d="M12,22a.99974.99974,0,0,1-1-1V3a1,1,0,0,1,2,0V21A.99974.99974,0,0,1,12,22Z"/><path class="uim-primary" d="M19,8a2.99766,2.99766,0,0,1-2.64258-1.58008A.917.917,0,0,0,15.54,6H8.46a.917.917,0,0,0-.81738.41992A2.99993,2.99993,0,0,1,2,5,1,1,0,0,1,4,5a1.00037,1.00037,0,0,0,1.88184.47266A2.8934,2.8934,0,0,1,8.46,4H15.54a2.8934,2.8934,0,0,1,2.57812,1.47266A1.00037,1.00037,0,0,0,20,5a1,1,0,0,1,2,0A3.00328,3.00328,0,0,1,19,8Z"/><path class="uim-quaternary" d="M22,15a.99921.99921,0,0,1-.936-.64844L19,8.85547l-2.064,5.49609a.99988.99988,0,1,1-1.87208-.70312L17.7041,6.61816a1.00061,1.00061,0,0,1,.936-.64843h.71972a1.00061,1.00061,0,0,1,.936.64843L22.936,13.64844A.99915.99915,0,0,1,22,15Z"/><path class="uim-tertiary" d="M19,18a4.00427,4.00427,0,0,1-4-4,.99974.99974,0,0,1,1-1h6a.99974.99974,0,0,1,1,1A4.00427,4.00427,0,0,1,19,18Z"/><path class="uim-quaternary" d="M8,15a.99921.99921,0,0,1-.936-.64844L5,8.85547,2.936,14.35156A.99988.99988,0,1,1,1.064,13.64844L3.7041,6.61816a1.00061,1.00061,0,0,1,.936-.64843h.71972a1.00061,1.00061,0,0,1,.936.64843L8.936,13.64844A.99915.99915,0,0,1,8,15Z"/><path class="uim-tertiary" d="M5,18a4.00427,4.00427,0,0,1-4-4,.99974.99974,0,0,1,1-1H8a.99974.99974,0,0,1,1,1A4.00427,4.00427,0,0,1,5,18Z"/></svg>