<svg xmlns="http://www.w3.org/2000/svg" data-name="Layer 1" viewBox="0 0 24 24"><path class="uim-tertiary" d="M21.94,10.96a9.98418,9.98418,0,0,0-8.88-8.9,10.3833,10.3833,0,0,0-2.01-.01,9.98435,9.98435,0,0,0-9,9,10.28039,10.28039,0,0,0,.01,2,9.98649,9.98649,0,0,0,8.88,8.89A9.42054,9.42054,0,0,0,12,22a7.40576,7.40576,0,0,0,.94-.05,9.98231,9.98231,0,0,0,9.01-9A10.1786,10.1786,0,0,0,21.94,10.96Z"/><path class="uim-primary" d="M12.07 21.01a1.00925 1.00925 0 0 0-1.12.87l-.01.06A9.42054 9.42054 0 0 0 12 22a7.40576 7.40576 0 0 0 .94-.05A1.003 1.003 0 0 0 12.07 21.01zm.41-3.2c0-.01-.04-.1-.04-.11a.9564.9564 0 0 0-1.24-.58 1.04309 1.04309 0 0 0-.62 1.3.99275.99275 0 0 0 .95.7 1.0487 1.0487 0 0 0 .3-.05A.99882.99882 0 0 0 12.48 17.81zm-2.36-3.83a1.3548 1.3548 0 0 0-.12-.12 1.00218 1.00218 0 0 0-1.34 1.49.507.507 0 0 1 .07.06.89514.89514 0 0 0 .65.28 1.019 1.019 0 0 0 .7-.29A1.037 1.037 0 0 0 10.12 13.98zM6.4 11.59c-.01 0-.12-.04-.13-.04a.95976.95976 0 0 0-1.22.62 1.05027 1.05027 0 0 0 .63 1.29 1.14774 1.14774 0 0 0 .36.07 1.00455 1.00455 0 0 0 .36-1.94zm-4.35-.54a10.28039 10.28039 0 0 0 .01 2 .27668.27668 0 0 0 .09-.01.9968.9968 0 0 0-.1-1.99zM11.05 2.05a.98832.98832 0 0 0 .88.95.48639.48639 0 0 0 .12.01 1.01186 1.01186 0 0 0 1-.88l.01-.07A10.3833 10.3833 0 0 0 11.05 2.05zm2.38 3.54a.99777.99777 0 1 0-1.9.61c0 .00995.03.11.03.11a.9293.9293 0 0 0 .9.64 1.07375 1.07375 0 0 0 .35-.06A1.039 1.039 0 0 0 13.43 5.59zM15.28 8.6a.96058.96058 0 0 0-1.38.03 1.0329 1.0329 0 0 0 .03 1.44c.01.00995.02.03.04.04a.90089.90089 0 0 0 .63.25 1.01547 1.01547 0 0 0 .68-1.76zm3.03 1.94a.99905.99905 0 1 0-.73 1.86c.02.01.12.04.13.05005a1.17748 1.17748 0 0 0 .31.05.97889.97889 0 0 0 .91-.67A1.04041 1.04041 0 0 0 18.31 10.54zm3.63.42h-.08A.99577.99577 0 0 0 21.92 12.95h.03A10.1786 10.1786 0 0 0 21.94 10.96z"/></svg>