<svg xmlns="http://www.w3.org/2000/svg" data-name="Layer 1" viewBox="0 0 24 24"><rect width="22" height="14" x="1" y="2" class="uim-quaternary" rx="3"/><path class="uim-primary" d="M14,8H10a1,1,0,0,1,0-2h4a1,1,0,0,1,0,2Z"/><path class="uim-tertiary" d="M16 16H8a1 1 0 0 1 0-2h8a1 1 0 0 1 0 2zM16 20H8a1 1 0 0 1 0-2h8a1 1 0 0 1 0 2z"/><path class="uim-tertiary" d="M8 22a.99943.99943 0 0 1-1-1V12H6a1 1 0 0 1 0-2H8a.99943.99943 0 0 1 1 1V21A.99943.99943 0 0 1 8 22zM12 22a.99943.99943 0 0 1-1-1V11a1 1 0 0 1 2 0V21A.99943.99943 0 0 1 12 22zM16 22a.99943.99943 0 0 1-1-1V11a.99943.99943 0 0 1 1-1h2a1 1 0 0 1 0 2H17v9A.99943.99943 0 0 1 16 22z"/><path class="uim-primary" d="M18,12H6a1,1,0,0,1,0-2H18a1,1,0,0,1,0,2Z"/></svg>