<svg xmlns="http://www.w3.org/2000/svg" data-name="Layer 1" viewBox="0 0 24 24"><path class="uim-primary" d="M6 22a.99943.99943 0 0 1-1-1V19a1 1 0 0 1 2 0v2A.99943.99943 0 0 1 6 22zM18 22a.99943.99943 0 0 1-1-1V19a1 1 0 0 1 2 0v2A.99943.99943 0 0 1 18 22z"/><path class="uim-quaternary" d="M4,16a.99943.99943,0,0,1-1-1V6.41016A3.99881,3.99881,0,0,1,9.1416,3.0293a1.00037,1.00037,0,1,1-1.084,1.68164A1.949,1.949,0,0,0,6.04,4.65137,1.97474,1.97474,0,0,0,5,6.41016V15A.99943.99943,0,0,1,4,16Z"/><path class="uim-tertiary" d="M10.14644,3.14645h0a2.5,2.5,0,0,1,2.5,2.5v.5a1,1,0,0,1-1,1h-3a1,1,0,0,1-1-1v-.5a2.5,2.5,0,0,1,2.5-2.5Z" transform="rotate(-45 10.146 5.146)"/><path class="uim-tertiary" d="M18,20H6a3.00328,3.00328,0,0,1-3-3V13a.99943.99943,0,0,1,1-1H20a.99943.99943,0,0,1,1,1v4A3.00328,3.00328,0,0,1,18,20Z"/><path class="uim-primary" d="M22,14H2a1,1,0,0,1,0-2H22a1,1,0,0,1,0,2Z"/></svg>