<svg xmlns="http://www.w3.org/2000/svg" viewBox="0 0 24 24"><path class="uim-tertiary" d="M22,13.5H2a.99974.99974,0,0,1-1-1v-6a3.00328,3.00328,0,0,1,3-3H20a3.00328,3.00328,0,0,1,3,3v6A.99974.99974,0,0,1,22,13.5Z"/><path class="uim-quaternary" d="M6 12.5v-2a2 2 0 0 1 2-2h2a2 2 0 0 1 2 2v2M12 12.5v-2a2 2 0 0 1 2-2h2a2 2 0 0 1 2 2v2"/><path class="uim-primary" d="M22,20.5H18a.99963.99963,0,0,1-.832-.44531L15.46484,17.5H8.53516L6.832,20.05469A.99963.99963,0,0,1,6,20.5H2a.99974.99974,0,0,1-1-1v-7a.99974.99974,0,0,1,1-1H22a.99974.99974,0,0,1,1,1v7A.99974.99974,0,0,1,22,20.5Z"/></svg>