<svg xmlns="http://www.w3.org/2000/svg" viewBox="0 0 24 24"><path class="uim-tertiary" d="M12,15.5a.99943.99943,0,0,1-1-1v-7a.99943.99943,0,0,1,1-1h8a3.00328,3.00328,0,0,1,3,3v5a.99943.99943,0,0,1-1,1Z"/><path class="uim-primary" d="M22,19.5a.99943.99943,0,0,1-1-1v-3H3v3a1,1,0,0,1-2,0v-4a.99943.99943,0,0,1,1-1H22a.99943.99943,0,0,1,1,1v4A.99943.99943,0,0,1,22,19.5Z"/><path class="uim-primary" d="M2,15.5a.99943.99943,0,0,1-1-1v-9a1,1,0,0,1,2,0v9A.99943.99943,0,0,1,2,15.5Z"/><path class="uim-quaternary" d="M7,12.5a3,3,0,1,1,3-3A3.00328,3.00328,0,0,1,7,12.5Z"/></svg>