<svg xmlns="http://www.w3.org/2000/svg" data-name="Layer 1" viewBox="0 0 24 24"><path class="uim-primary" d="M14.999,17.97021a1,1,0,0,1-.08789-1.99609,4.49266,4.49266,0,0,0,3.06055-7.335.9996.9996,0,1,1,1.53711-1.27832,6.49175,6.49175,0,0,1-4.41992,10.60547C15.05859,17.96875,15.02832,17.97021,14.999,17.97021Z"/><path class="uim-tertiary" d="M13,21H5a3.00328,3.00328,0,0,1-3-3V17a3.00328,3.00328,0,0,1,3-3h8a3.00328,3.00328,0,0,1,3,3v1A3.00328,3.00328,0,0,1,13,21Z"/><path class="uim-quaternary" d="M9,17a7,7,0,1,1,7-7A7.00818,7.00818,0,0,1,9,17Z"/><circle cx="9" cy="10" r="1" class="uim-tertiary"/><circle cx="19" cy="8" r="2" class="uim-tertiary"/></svg>