<svg xmlns="http://www.w3.org/2000/svg" data-name="Layer 1" viewBox="0 0 24 24"><path class="uim-primary" d="M12,6a.99943.99943,0,0,1-1-1V3a1,1,0,0,1,2,0V5A.99943.99943,0,0,1,12,6Z"/><path class="uim-tertiary" d="M17,15H7a.99943.99943,0,0,1-1-1V10a6,6,0,0,1,12,0v4A.99943.99943,0,0,1,17,15Z"/><path class="uim-primary" d="M12,22a4.004,4.004,0,0,1-4-4,.99943.99943,0,0,1,1-1h6a.99943.99943,0,0,1,1,1A4.004,4.004,0,0,1,12,22Z"/><path class="uim-tertiary" d="M19,19H5a.99943.99943,0,0,1-1-1V16a3.00328,3.00328,0,0,1,3-3H17a3.00328,3.00328,0,0,1,3,3v2A.99943.99943,0,0,1,19,19Z"/></svg>