<svg xmlns="http://www.w3.org/2000/svg" data-name="Layer 1" viewBox="0 0 24 24"><path class="uim-tertiary" d="M18,20V3a.99975.99975,0,0,0-1.49707-.86719L13.5,3.85352,10.49707,2.13281a.99978.99978,0,0,0-.99414,0L6.5,3.85352,3.49707,2.13281A.99975.99975,0,0,0,2,3V20a2,2,0,0,0,2,2H20A2,2,0,0,1,18,20Z"/><path class="uim-primary" d="M21.999 14v6a2 2 0 0 1-2 2h0a2 2 0 0 1-2-2V12h2A2 2 0 0 1 21.999 14zM10.5 16.5H8a1 1 0 0 1 0-2h2.5a.5.5 0 0 0 0-1h-1a2.5 2.5 0 0 1 0-5H12a1 1 0 0 1 0 2H9.5a.5.5 0 0 0 0 1h1a2.5 2.5 0 0 1 0 5z"/><path class="uim-primary" d="M10 10.5a.99943.99943 0 0 1-1-1V8a1 1 0 0 1 2 0V9.5A.99943.99943 0 0 1 10 10.5zM10 18a.99943.99943 0 0 1-1-1V15.5a1 1 0 0 1 2 0V17A.99943.99943 0 0 1 10 18z"/></svg>