<svg xmlns="http://www.w3.org/2000/svg" viewBox="0 0 24 24"><circle cx="12" cy="12" r="10" class="uim-primary"/><path class="uim-tertiary" d="M16.358,10.57538c.19678-1.33057-.80493-2.0459-2.17468-2.52307l.44433-1.80249-1.0849-.27344-.43255,1.755c-.28522-.0719-.57813-.13971-.8692-.2069l.43567-1.76655L11.59241,5.4845l-.44464,1.80188c-.23609-.05439-.46784-.10816-.69275-.16468l.00122-.00567-1.4961-.37781L8.67151,7.9101s.80493.18658.788.19812a.583.583,0,0,1,.5055.63812l-1.21741,4.9378a.39446.39446,0,0,1-.49719.26062c.0108.01593-.78852-.19909-.78852-.19909l-.53857,1.25592,1.41174.356c.26264.06653.52.13623.77344.20185l-.449,1.82312,1.08362.27343.44464-1.80371c.296.08124.58338.15625.86457.22687l-.44312,1.79529,1.08484.27344.449-1.81971c1.84991.35407,3.241.21125,3.82653-1.48089a1.93285,1.93285,0,0,0-.99682-2.66089A1.74286,1.74286,0,0,0,16.358,10.57538ZM13.87921,14.0907c-.3352,1.36249-2.60351.62591-3.33893.44122l.59577-2.41528C11.8714,12.30225,14.22961,12.66974,13.87921,14.0907Zm.33557-3.535c-.30591,1.23931-2.19378.60968-2.80621.45526l.5401-2.19056C12.5611,8.97479,14.53339,9.26294,14.21478,10.55573Z"/></svg>