<svg xmlns="http://www.w3.org/2000/svg" viewBox="0 0 24 24"><g data-name="Brand Logos"><circle cx="12" cy="12" r="10" class="uim-primary"/><path class="uim-tertiary" d="M7.18842 13.35193H5.2699l.52319-2.41455H7.63135c1.19464 0 1.47912.5852 1.47912 1.04974C9.11047 12.64435 8.68286 13.35193 7.18842 13.35193zM7.84918 9.71484h-1.913l.51947-2.41632H8.29578c1.19378 0 1.47918.587 1.47918 1.05152C9.7749 9.0072 9.34723 9.71484 7.84918 9.71484zM11.60327 17.14032H9.68481l.5221-2.41815h1.84021c1.19287 0 1.47565.5888 1.47565 1.05334C13.52277 16.43445 13.09778 17.14032 11.60327 17.14032zM12.31091 13.35193H10.397l.52124-2.41455h1.83924c1.19378 0 1.47644.5852 1.47644 1.04974C14.23389 12.64435 13.809 13.35193 12.31091 13.35193zM12.97534 9.71484H11.0614l.52216-2.41632H13.4201c1.19556 0 1.48005.587 1.48005 1.05152C14.90021 9.0072 14.47339 9.71484 12.97534 9.71484zM16.72229 15.32H14.80652l.52215-2.41809h1.83838c1.19373 0 1.47821.59051 1.47821 1.05328C18.64526 14.6123 18.22034 15.32 16.72229 15.32zM17.4353 11.87732H15.51953l.52222-2.41638h1.84009c1.19378 0 1.4765.587 1.4765 1.05157C19.35834 11.16974 18.93335 11.87732 17.4353 11.87732z"/></g></svg>