<svg xmlns="http://www.w3.org/2000/svg" viewBox="0 0 24 24"><path class="uim-tertiary" d="M20,23H4a3.00328,3.00328,0,0,1-3-3V4A3.00328,3.00328,0,0,1,4,1H20a3.00328,3.00328,0,0,1,3,3V20A3.00328,3.00328,0,0,1,20,23Z"/><path class="uim-primary" d="M16.00293,10.002H16V9a4.004,4.004,0,0,0-4-4H10a5.00588,5.00588,0,0,0-5,5v4a5.00588,5.00588,0,0,0,5,5h4a5.00588,5.00588,0,0,0,5-5V13A3.00036,3.00036,0,0,0,16.00293,10.002ZM10,9h1a1,1,0,0,1,0,2H10a1,1,0,0,1,0-2Zm4,6H10a1,1,0,0,1,0-2h4a1,1,0,0,1,0,2Z"/></svg>