<svg xmlns="http://www.w3.org/2000/svg" viewBox="0 0 24 24"><rect width="20" height="20" x="2" y="2" class="uim-primary" rx="2.5"/><path class="uim-tertiary" fill-rule="evenodd" d="M18.33264,10.92169,18.22382,10.7l-.1789-.13983c-.23486-.1839-1.42285.01111-1.74219-.27844-.22723-.20819-.26269-.58386-.33007-1.08936a3.15449,3.15449,0,0,0-.36182-1.36767A4.45942,4.45942,0,0,0,12.49054,5.625H9.66681A4.05258,4.05258,0,0,0,5.625,9.65576V14.3501A4.04926,4.04926,0,0,0,9.66681,18.375h4.639a4.0515,4.0515,0,0,0,4.03857-4.02179l.01965-2.67548.00458-.57843ZM9.71844,8.91663h2.23877a.77084.77084,0,1,1,0,1.54168H9.71844a.77084.77084,0,1,1,0-1.54168Zm4.54865,6.125H9.71844a.75035.75035,0,1,1,0-1.5h4.54865a.75024.75024,0,1,1,0,1.5Z"/></svg>