<svg xmlns="http://www.w3.org/2000/svg" viewBox="0 0 24 24"><path class="uim-tertiary" d="M9.31934 22A.99969.99969 0 0 1 8.354 20.74121L10.15723 14H6.31982A1.00008 1.00008 0 0 1 5.354 12.74121L6.76416 7.47168A.99989.99989 0 0 1 8.437 7.02344l7.1499 7.14941a1.0003 1.0003 0 0 1 .03321 1.37988l-5.56006 6.12012A1.00129 1.00129 0 0 1 9.31934 22zM17.58008 12.91016a1.00012 1.00012 0 0 1-.707-.293L8.22314 3.9668A.99992.99992 0 0 1 7.96436 3l.06982-.25977A1.00065 1.00065 0 0 1 9 2h7a1.00007 1.00007 0 0 1 .96582 1.25879L15.69482 8H20.23a.99973.99973 0 0 1 .73926 1.67285L18.31934 12.583a1.00251 1.00251 0 0 1-.71582.32715z"/><path class="uim-primary" d="M21,22a.99676.99676,0,0,1-.707-.293l-18-18A.99989.99989,0,0,1,3.707,2.293l18,18A1,1,0,0,1,21,22Z"/></svg>