<svg xmlns="http://www.w3.org/2000/svg" viewBox="0 0 24 24"><path class="uim-primary" d="M16.28027,12.12109H7.71973a1.00039,1.00039,0,0,1-.85938-1.51171,5.98542,5.98542,0,0,1,10.2793,0,1.00039,1.00039,0,0,1-.85938,1.51171Z"/><path class="uim-quaternary" d="M12,9.69531a3.85693,3.85693,0,1,1,3.85742-3.85644A3.86163,3.86163,0,0,1,12,9.69531Z"/><path class="uim-tertiary" d="M6,9.98a11.91089,11.91089,0,0,0-2.18.21.99614.99614,0,0,0-.82.98v8.25a.99236.99236,0,0,0,.36.77,1.0082,1.0082,0,0,0,.82.22A9.76374,9.76374,0,0,1,6,20.23a9.89322,9.89322,0,0,1,5.45,1.62988A1.09442,1.09442,0,0,0,12,22.02V11.6001A11.8939,11.8939,0,0,0,6,9.98Z"/><path class="uim-quaternary" d="M20.18,10.18994A11.78945,11.78945,0,0,0,12,11.6001V22.02a1.09442,1.09442,0,0,0,.55-.16016A9.89322,9.89322,0,0,1,18,20.23a9.76374,9.76374,0,0,1,1.82.17993,1.0082,1.0082,0,0,0,.82-.22.99236.99236,0,0,0,.36-.77v-8.25A.99614.99614,0,0,0,20.18,10.18994Z"/></svg>