<svg xmlns="http://www.w3.org/2000/svg" viewBox="0 0 24 24"><path class="uim-primary" d="M12,22.1333a.99947.99947,0,0,1-.58447-.18848A10.916,10.916,0,0,0,5,19.8667a11.008,11.008,0,0,0-1.83447.166,1.00012,1.00012,0,1,1-.33106-1.97265A13.03355,13.03355,0,0,1,5,17.8667a12.88317,12.88317,0,0,1,7,2.05713,12.88317,12.88317,0,0,1,7-2.05713,13.03355,13.03355,0,0,1,2.16553.19336,1.00012,1.00012,0,1,1-.33106,1.97265,10.7842,10.7842,0,0,0-8.25,1.91211A.99947.99947,0,0,1,12,22.1333Z"/><path class="uim-tertiary" d="M12.58447,17.94482a10.7842,10.7842,0,0,1,8.25-1.91211A1.00038,1.00038,0,0,0,22,15.04639v-12a1.0006,1.0006,0,0,0-.83447-.98633A13.03355,13.03355,0,0,0,19,1.8667a12.88317,12.88317,0,0,0-7,2.05713V18.1333A.99947.99947,0,0,0,12.58447,17.94482Z"/><path class="uim-primary" d="M5,1.8667a13.03355,13.03355,0,0,0-2.16553.19336A1.0006,1.0006,0,0,0,2,3.04639v12a1.00038,1.00038,0,0,0,1.16553.98632A11.008,11.008,0,0,1,5,15.8667a10.916,10.916,0,0,1,6.41553,2.07812A.99947.99947,0,0,0,12,18.1333V3.92383A12.88317,12.88317,0,0,0,5,1.8667Z"/><path class="uim-tertiary" d="M21.16553,18.06006A13.03355,13.03355,0,0,0,19,17.8667a12.88317,12.88317,0,0,0-7,2.05713V22.1333a.99947.99947,0,0,0,.58447-.18848,10.7842,10.7842,0,0,1,8.25-1.91211,1.00012,1.00012,0,1,0,.33106-1.97265Z"/></svg>