<svg xmlns="http://www.w3.org/2000/svg" data-name="Layer 1" viewBox="0 0 24 24"><path class="uim-tertiary" d="M5,3H17a2,2,0,0,1,2,2V19a2,2,0,0,1-2,2H5a0,0,0,0,1,0,0V3A0,0,0,0,1,5,3Z"/><path class="uim-tertiary" d="M17,22H5a1,1,0,0,1-1-1V3A1,1,0,0,1,5,2H17a3.00328,3.00328,0,0,1,3,3V19A3.00328,3.00328,0,0,1,17,22ZM6,20H17a1.0013,1.0013,0,0,0,1-1V5a1.0013,1.0013,0,0,0-1-1H6Z"/><rect width="6" height="4" x="9" y="7" class="uim-primary"/><path class="uim-primary" d="M15,12H9a1,1,0,0,1-1-1V7A1,1,0,0,1,9,6h6a1,1,0,0,1,1,1v4A1,1,0,0,1,15,12Zm-5-2h4V8H10Z"/></svg>