<svg xmlns="http://www.w3.org/2000/svg" viewBox="0 0 24 24"><path class="uim-quaternary" d="M6.5,21.374h-4a.99973.99973,0,0,1-1-1v-16a.99974.99974,0,0,1,1-1h4a.99974.99974,0,0,1,1,1v16A.99973.99973,0,0,1,6.5,21.374Z"/><path class="uim-tertiary" d="M1.5 16.37012v4a.99666.99666 0 0 0 1 1h4a.99666.99666 0 0 0 1-1v-4zM6.5 3.37012h-4a1.00291 1.00291 0 0 0-1 1v4h6v-4A1.00291 1.00291 0 0 0 6.5 3.37012zM22.76173 20.54965L18.898 21.58493a.99975.99975 0 0 1-1.22475-.70711L13.53218 5.423a.99974.99974 0 0 1 .7071-1.22475L18.103 3.163a.99973.99973 0 0 1 1.22474.7071l4.14111 15.45482A.99974.99974 0 0 1 22.76173 20.54965z"/><path class="uim-primary" d="M16.637 17.01034l1.03528 3.86371a.99665.99665 0 0 0 1.22474.7071l3.86371-1.03527a.99667.99667 0 0 0 .7071-1.22475l-1.03527-3.8637zM18.102 3.15921l-3.8637 1.03528a1.00292 1.00292 0 0 0-.70711 1.22474l1.03528 3.86371L20.362 7.73l-1.03528-3.8637A1.00292 1.00292 0 0 0 18.102 3.15921z"/><path class="uim-tertiary" d="M12.5,21.374h-4a.99973.99973,0,0,1-1-1v-16a.99974.99974,0,0,1,1-1h4a.99974.99974,0,0,1,1,1v16A.99973.99973,0,0,1,12.5,21.374Z"/><path class="uim-quaternary" d="M7.5 16.37012v4a.99666.99666 0 0 0 1 1h4a.99666.99666 0 0 0 1-1v-4zM12.5 3.37012h-4a1.00291 1.00291 0 0 0-1 1v4h6v-4A1.00291 1.00291 0 0 0 12.5 3.37012z"/></svg>