<svg xmlns="http://www.w3.org/2000/svg" viewBox="0 0 24 24"><path class="uim-quaternary" d="M20.23,7.24,12,12,3.77,7.24A1.98084,1.98084,0,0,1,4.47,6.53L11,2.76a2.03581,2.03581,0,0,1,2,0l6.53,3.77A1.98084,1.98084,0,0,1,20.23,7.24Z"/><path class="uim-tertiary" d="M12,12v9.5a2.08912,2.08912,0,0,1-.91-.21L4.5,17.48a2.003,2.003,0,0,1-1-1.73V8.25a2.06026,2.06026,0,0,1,.27-1.01Z"/><path class="uim-primary" d="M20.5,8.25v7.5a2.003,2.003,0,0,1-1,1.73L12.88,21.3a2.0937,2.0937,0,0,1-.88.2V12l8.23-4.76A2.06026,2.06026,0,0,1,20.5,8.25Z"/></svg>