<svg xmlns="http://www.w3.org/2000/svg" viewBox="0 0 24 24"><path class="uim-primary" d="M10,6V5h4V6h2V5a2.00229,2.00229,0,0,0-2-2H10A2.00229,2.00229,0,0,0,8,5V6Z"/><path class="uim-quaternary" d="M9 15a.99974.99974 0 0 1-1-1V12a1 1 0 0 1 2 0v2A.99974.99974 0 0 1 9 15zM15 15a.99974.99974 0 0 1-1-1V12a1 1 0 0 1 2 0v2A.99974.99974 0 0 1 15 15z"/><path class="uim-tertiary" d="M20,6H4A2,2,0,0,0,2,8v3a2,2,0,0,0,2,2H8V12a1,1,0,0,1,2,0v1h4V12a1,1,0,0,1,2,0v1h4a2,2,0,0,0,2-2V8A2,2,0,0,0,20,6Z"/><path class="uim-primary" d="M20,13H16v1a1,1,0,0,1-2,0V13H10v1a1,1,0,0,1-2,0V13H4a2,2,0,0,1-2-2v8a2,2,0,0,0,2,2H20a2,2,0,0,0,2-2V11A2,2,0,0,1,20,13Z"/></svg>