<svg xmlns="http://www.w3.org/2000/svg" viewBox="0 0 24 24"><path class="uim-tertiary" d="M12,22a.99676.99676,0,0,1-.707-.293L8.9502,19.36426H5.63574a.99943.99943,0,0,1-1-1V15.0498L2.293,12.707a.99962.99962,0,0,1,0-1.41406L4.63574,8.9502V5.63574a.99943.99943,0,0,1,1-1H8.9502L11.293,2.293a.99962.99962,0,0,1,1.41406,0L15.0498,4.63574h3.31446a.99943.99943,0,0,1,1,1V8.9502L21.707,11.293a.99962.99962,0,0,1,0,1.41406L19.36426,15.0498v3.31446a.99943.99943,0,0,1-1,1H15.0498L12.707,21.707A.99676.99676,0,0,1,12,22Z"/></svg>