<svg xmlns="http://www.w3.org/2000/svg" viewBox="0 0 24 24"><path class="uim-quaternary" d="M9.00049,15.99316h-6a.99973.99973,0,0,1-1-1v-6a.99974.99974,0,0,1,1-1h6a.99974.99974,0,0,1,1,1v6A.99974.99974,0,0,1,9.00049,15.99316Z"/><path class="uim-tertiary" d="M21.00049,14.00684h-18a.99973.99973,0,0,0-1,1v6a.99974.99974,0,0,0,1,1h18a.99974.99974,0,0,0,1-1v-6A.99974.99974,0,0,0,21.00049,14.00684Z"/><path class="uim-primary" d="M15.00049,18.00684a.99974.99974,0,0,1-1-1v-14a1,1,0,0,1,2,0v14A.99974.99974,0,0,1,15.00049,18.00684Z"/><path class="uim-primary" d="M18.002,6.99316a.99675.99675,0,0,1-.707-.293l-2.293-2.293-2.293,2.293a.99989.99989,0,0,1-1.41406-1.41407l3-3a.99964.99964,0,0,1,1.41406,0l3,3a1,1,0,0,1-.707,1.707Z"/></svg>