<svg xmlns="http://www.w3.org/2000/svg" viewBox="0 0 24 24"><path class="uim-quaternary" d="M21.00049,16.00684h-6a.99974.99974,0,0,1-1-1v-6a.99973.99973,0,0,1,1-1h6a.99974.99974,0,0,1,1,1v6A.99974.99974,0,0,1,21.00049,16.00684Z"/><path class="uim-tertiary" d="M21.00049,1.99316h-18a.99974.99974,0,0,0-1,1v6a.99973.99973,0,0,0,1,1h18a.99974.99974,0,0,0,1-1v-6A.99974.99974,0,0,0,21.00049,1.99316Z"/><path class="uim-primary" d="M9.00049,21.99316a.99973.99973,0,0,1-1-1v-14a1,1,0,0,1,2,0v14A.99974.99974,0,0,1,9.00049,21.99316Z"/><path class="uim-primary" d="M8.99951,22.00684a.99676.99676,0,0,1-.707-.293l-3-3A.99989.99989,0,0,1,6.70654,17.2998l2.293,2.293,2.293-2.293a.99989.99989,0,0,1,1.41406,1.41407l-3,3A.99676.99676,0,0,1,8.99951,22.00684Z"/></svg>