<svg xmlns="http://www.w3.org/2000/svg" data-name="Layer 1" viewBox="0 0 24 24"><path class="uim-quaternary" d="M14.79288,8.07953a1.02537,1.02537,0,0,1-.19531-.01855,2.9977,2.9977,0,0,0-.59765-.06055h-4A3.13736,3.13736,0,0,0,9.40324,8.06a.99323.99323,0,0,1-1.126-.61719,3.95359,3.95359,0,0,1-.27734-1.44238,4,4,0,1,1,7.72461,1.43945A.99989.99989,0,0,1,14.79288,8.07953Z"/><path class="uim-primary" d="M6 14H3a1 1 0 0 1 0-2H6a1 1 0 0 1 0 2zM21 14H18a1 1 0 0 1 0-2h3a1 1 0 0 1 0 2zM6.56055 9.96973a.95576.95576 0 0 1-.10547-.00586A4.97241 4.97241 0 0 1 2 5 1 1 0 0 1 4 5 2.97826 2.97826 0 0 0 6.66406 7.97559a.99982.99982 0 0 1-.10351 1.99414zM17.43945 9.96973a.99982.99982 0 0 1-.10351-1.99414A2.97826 2.97826 0 0 0 20 5a1 1 0 0 1 2 0 4.97241 4.97241 0 0 1-4.45508 4.96387A.9692.9692 0 0 1 17.43945 9.96973zM3 22a.99943.99943 0 0 1-1-1 5.033 5.033 0 0 1 4.21484-4.93848 1.00041 1.00041 0 1 1 .31055 1.97657A3.0165 3.0165 0 0 0 4 21 .99943.99943 0 0 1 3 22zM21 22a.99943.99943 0 0 1-1-1 3.0165 3.0165 0 0 0-2.52539-2.96191 1.00041 1.00041 0 0 1 .31055-1.97657A5.033 5.033 0 0 1 22 21 .99943.99943 0 0 1 21 22z"/><path class="uim-tertiary" d="M11.99992,22.00043a7.00849,7.00849,0,0,1-7-7v-4a5.00588,5.00588,0,0,1,5-5h4a5.00589,5.00589,0,0,1,5,5v4A7.0085,7.0085,0,0,1,11.99992,22.00043Z"/><path class="uim-primary" d="M10.99992,21.92059a6.30245,6.30245,0,0,0,2,0V6.00043h-2Z"/></svg>