<svg xmlns="http://www.w3.org/2000/svg" data-name="Layer 1" viewBox="0 0 24 24"><path class="uim-quaternary" d="M19,22H5a.99943.99943,0,0,1-1-1V3A.99943.99943,0,0,1,5,2H19a.99943.99943,0,0,1,1,1V21A.99943.99943,0,0,1,19,22Z"/><path class="uim-tertiary" d="M13 21H9V15a.99943.99943 0 0 1 1-1h4a.99943.99943 0 0 1 1 1v6zM10 12H9a1 1 0 0 1 0-2h1a1 1 0 0 1 0 2zM10 8H9A1 1 0 0 1 9 6h1a1 1 0 0 1 0 2zM15 8H14a1 1 0 0 1 0-2h1a1 1 0 0 1 0 2zM15 12H14a1 1 0 0 1 0-2h1a1 1 0 0 1 0 2z"/><path class="uim-primary" d="M21,22H3a1,1,0,0,1,0-2H21a1,1,0,0,1,0,2Z"/></svg>