<svg xmlns="http://www.w3.org/2000/svg" viewBox="0 0 24 24"><path class="uim-quaternary" d="M22.55,11.66992,22.3,11.5,19.89,9.89014l-.05-.03028L19.72,9.5,18.4,5.55005A2.97832,2.97832,0,0,0,15.56,3.5H4a3.00887,3.00887,0,0,0-3,3v10a1.00291,1.00291,0,0,0,1,1H22a1.00291,1.00291,0,0,0,1-1v-4A.99519.99519,0,0,0,22.55,11.66992Z"/><path class="uim-tertiary" d="M19.89,9.89014H1V6.5a3.00887,3.00887,0,0,1,3-3H15.56a2.97832,2.97832,0,0,1,2.84,2.05L19.72,9.5l.12006.35986Z"/><path class="uim-primary" d="M19.89 9.89014H14V3.5h1.56a2.97832 2.97832 0 0 1 2.84 2.05L19.72 9.5l.12006.35986zM6 20.5a3 3 0 1 1 3-3A3.00328 3.00328 0 0 1 6 20.5zM18 20.5a3 3 0 1 1 3-3A3.00328 3.00328 0 0 1 18 20.5z"/></svg>