<svg xmlns="http://www.w3.org/2000/svg" viewBox="0 0 24 24"><path class="uim-primary" d="M6.5 22a.99974.99974 0 0 1-1-1V19a1 1 0 0 1 2 0v2A.99974.99974 0 0 1 6.5 22zM18.5 22a.99974.99974 0 0 1-1-1V19a1 1 0 0 1 2 0v2A.99974.99974 0 0 1 18.5 22z"/><path class="uim-tertiary" d="M18.5,20H6.5a3.00328,3.00328,0,0,1-3-3V5a3.00328,3.00328,0,0,1,3-3h12a3.00328,3.00328,0,0,1,3,3V17A3.00328,3.00328,0,0,1,18.5,20Z"/><path class="uim-tertiary" d="M20.5,14H4.5a.99974.99974,0,0,1-1-1V5a3.00328,3.00328,0,0,1,3-3h12a3.00328,3.00328,0,0,1,3,3v8A.99974.99974,0,0,1,20.5,14Z"/><rect width="14" height="6" x="5.5" y="7" class="uim-quaternary" rx="1"/><path class="uim-primary" d="M8.5 17a1.03759 1.03759 0 0 1-.71-.2998A.95131.95131 0 0 1 7.5 16a1.325 1.325 0 0 1 .02-.2002.63174.63174 0 0 1 .05957-.17968.762.762 0 0 1 .09033-.18067A1.53409 1.53409 0 0 1 7.79 15.29a1.00957 1.00957 0 0 1 .90967-.27051.62266.62266 0 0 1 .18017.06055.73875.73875 0 0 1 .18018.08984A1.68289 1.68289 0 0 1 9.21 15.29a1.52675 1.52675 0 0 1 .11963.14941.762.762 0 0 1 .09033.18067A.64867.64867 0 0 1 9.48 15.7998 1.39 1.39 0 0 1 9.5 16a1.00694 1.00694 0 0 1-1 1zM16.5 17a1.03759 1.03759 0 0 1-.71-.2998A.95131.95131 0 0 1 15.5 16a1.325 1.325 0 0 1 .02-.2002.63174.63174 0 0 1 .05957-.17968.762.762 0 0 1 .09033-.18067A1.53409 1.53409 0 0 1 15.79 15.29a1.00957 1.00957 0 0 1 .90967-.27051.62266.62266 0 0 1 .18017.06055.73875.73875 0 0 1 .18018.08984A1.68289 1.68289 0 0 1 17.21 15.29a1.52675 1.52675 0 0 1 .11963.14941.762.762 0 0 1 .09033.18067.64867.64867 0 0 1 .06006.17968A1.39 1.39 0 0 1 17.5 16a1.00694 1.00694 0 0 1-1 1z"/><path class="uim-tertiary" d="M12.5,15a.99974.99974,0,0,1-1-1V7a1,1,0,0,1,2,0v7A.99974.99974,0,0,1,12.5,15Z"/></svg>