<svg xmlns="http://www.w3.org/2000/svg" viewBox="0 0 24 24"><path class="uim-primary" d="M6.5 22a.99974.99974 0 0 1-1-1V19a1 1 0 0 1 2 0v2A.99974.99974 0 0 1 6.5 22zM18.5 22a.99974.99974 0 0 1-1-1V19a1 1 0 0 1 2 0v2A.99974.99974 0 0 1 18.5 22z"/><path class="uim-quaternary" d="M18.5,20H6.5a3.00328,3.00328,0,0,1-3-3V5a3.00328,3.00328,0,0,1,3-3h12a3.00328,3.00328,0,0,1,3,3V17A3.00328,3.00328,0,0,1,18.5,20Z"/><path class="uim-tertiary" d="M20.5,13H4.5a.99974.99974,0,0,1-1-1V5a3.00328,3.00328,0,0,1,3-3h12a3.00328,3.00328,0,0,1,3,3v7A.99974.99974,0,0,1,20.5,13Z"/><path class="uim-primary" d="M8.5 17a.96246.96246 0 0 1-.71-.2998A.95131.95131 0 0 1 7.5 16a1.325 1.325 0 0 1 .02-.2002.63174.63174 0 0 1 .05957-.17968.762.762 0 0 1 .09033-.18067L7.79 15.29a1.55316 1.55316 0 0 1 .1499-.12012.74467.74467 0 0 1 .17969-.08984.62276.62276 0 0 1 .18017-.06055.95554.95554 0 0 1 .58008.06055 1.03418 1.03418 0 0 1 .33008.21c.04.0498.08008.09961.11963.14941a.762.762 0 0 1 .09033.18067A.64867.64867 0 0 1 9.48 15.7998 1.39 1.39 0 0 1 9.5 16a1.00694 1.00694 0 0 1-1 1zM16.5 17a.96246.96246 0 0 1-.71-.2998A.99253.99253 0 0 1 15.5 16a1.325 1.325 0 0 1 .02-.2002.63174.63174 0 0 1 .05957-.17968.762.762 0 0 1 .09033-.18067L15.79 15.29a1.1515 1.1515 0 0 1 .32959-.21.99537.99537 0 0 1 .76025 0 1.15384 1.15384 0 0 1 .33008.21c.04.0498.08008.09961.11963.14941a.762.762 0 0 1 .09033.18067.64867.64867 0 0 1 .06006.17968A1.39 1.39 0 0 1 17.5 16a1.00694 1.00694 0 0 1-1 1zM13.5 7h-2a1 1 0 0 1 0-2h2a1 1 0 0 1 0 2z"/></svg>