<svg xmlns="http://www.w3.org/2000/svg" viewBox="0 0 24 24"><path class="uim-tertiary" d="M12,12.0001H2v-7a3,3,0,0,1,3-3h7Z"/><path class="uim-quaternary" d="M22 12.0001H12v-10h7a3 3 0 0 1 3 3zM12 22.0001H5a3 3 0 0 1-3-3v-7H12z"/><path class="uim-tertiary" d="M19,22.0001H12v-10H22v7A3,3,0,0,1,19,22.0001Z"/><path class="uim-primary" d="M8.5 6.0001H8v-.5a1 1 0 0 0-2 0v.5H5.5a1 1 0 0 0 0 2H6v.5a1 1 0 0 0 2 0v-.5h.5a1 1 0 0 0 0-2zM18.5 8.0001h-3a1 1 0 0 1 0-2h3a1 1 0 0 1 0 2zM18.5 16.5001h-3a1 1 0 0 1 0-2h3a1 1 0 0 1 0 2zM18.5 19.5001h-3a1 1 0 0 1 0-2h3a1 1 0 0 1 0 2zM8.41425 17.0001l.7069-.707A.99993.99993 0 0 0 7.707 14.879l-.70691.707-.707-.707a.99993.99993 0 0 0-1.41418 1.41406l.707.707-.707.707A.99994.99994 0 0 0 6.29309 19.1212l.707-.707.70691.707a.99994.99994 0 0 0 1.41418-1.41407z"/></svg>