<svg xmlns="http://www.w3.org/2000/svg" data-name="Layer 1" viewBox="0 0 24 24"><path class="uim-quaternary" d="M19,22H5a3.00328,3.00328,0,0,1-3-3V6A3.00328,3.00328,0,0,1,5,3H19a3.00328,3.00328,0,0,1,3,3V19A3.00328,3.00328,0,0,1,19,22Z"/><path class="uim-tertiary" d="M22,9H2V6A3,3,0,0,1,5,3H19a3,3,0,0,1,3,3Z"/><path class="uim-primary" d="M7 7A1 1 0 0 1 6 6V2A1 1 0 0 1 8 2V6A1 1 0 0 1 7 7zM17 7a1 1 0 0 1-1-1V2a1 1 0 0 1 2 0V6A1 1 0 0 1 17 7z"/><circle cx="7" cy="13" r="1" class="uim-primary"/><circle cx="17" cy="13" r="1" class="uim-primary"/><circle cx="12" cy="13" r="1" class="uim-primary"/><circle cx="12" cy="17" r="1" class="uim-primary"/><circle cx="7" cy="17" r="1" class="uim-primary"/><circle cx="17" cy="17" r="1" class="uim-primary"/></svg>