<svg xmlns="http://www.w3.org/2000/svg" data-name="Layer 1" viewBox="0 0 24 24"><path class="uim-primary" d="M12,2.39192h0a4.11774,4.11774,0,0,1,4.11774,4.11774V17.49034A4.11774,4.11774,0,0,1,12,21.60808h0a4.11775,4.11775,0,0,1-4.11775-4.11775V6.50967A4.11774,4.11774,0,0,1,12,2.39192Z" transform="rotate(45 12 12)"/><path class="uim-primary" d="M8.11768,20.99756A5.11524,5.11524,0,0,1,4.499,12.26367L12.26367,4.499A5.11755,5.11755,0,0,1,19.501,11.73633L11.73633,19.501A5.1019,5.1019,0,0,1,8.11768,20.99756ZM15.88232,5a3.0969,3.0969,0,0,0-2.20459.91309L5.91309,13.67773a3.118,3.118,0,0,0,0,4.40918,3.19281,3.19281,0,0,0,4.40918,0l7.76464-7.76464A3.11768,3.11768,0,0,0,15.88232,5Z"/><path class="uim-primary" d="M14.91162,15.91162a.99676.99676,0,0,1-.707-.293L8.38135,9.79541A.99989.99989,0,0,1,9.79541,8.38135l5.82324,5.82324a1,1,0,0,1-.707,1.707Z"/><path class="uim-tertiary" d="M14.91168,14.91168,18.794,11.02942a4.11774,4.11774,0,1,0-5.82337-5.82337L9.08832,9.08832Z"/><path class="uim-tertiary" d="M14.91162,16.32568l-7.2373-7.2373L12.26367,4.499A5.11755,5.11755,0,0,1,19.501,11.73633Zm-4.40918-7.2373,4.40918,4.40918,3.17529-3.17529a3.11776,3.11776,0,0,0-4.40918-4.40918Z"/></svg>