<svg xmlns="http://www.w3.org/2000/svg" viewBox="0 0 24 24"><path class="uim-primary" d="M12,16a4,4,0,1,1,4-4A4.00427,4.00427,0,0,1,12,16Z"/><path class="uim-tertiary" d="M8 22H5a3.00328 3.00328 0 0 1-3-3V16a1 1 0 0 1 2 0v3a1.001 1.001 0 0 0 1 1H8a1 1 0 0 1 0 2zM3 9A.99974.99974 0 0 1 2 8V5A3.00328 3.00328 0 0 1 5 2H8A1 1 0 0 1 8 4H5A1.001 1.001 0 0 0 4 5V8A.99974.99974 0 0 1 3 9zM21 9a.99974.99974 0 0 1-1-1V5a1.001 1.001 0 0 0-1-1H16a1 1 0 0 1 0-2h3a3.00328 3.00328 0 0 1 3 3V8A.99974.99974 0 0 1 21 9zM19 22H16a1 1 0 0 1 0-2h3a1.001 1.001 0 0 0 1-1V16a1 1 0 0 1 2 0v3A3.00328 3.00328 0 0 1 19 22z"/></svg>