<svg xmlns="http://www.w3.org/2000/svg" viewBox="0 0 24 24"><path class="uim-quaternary" d="M18,11.5H6a1,1,0,0,1-.98047-1.19629l.67822-3.39258A3.00742,3.00742,0,0,1,8.63965,4.5H14.646a2.9861,2.9861,0,0,1,2.78515,1.88477l1.49756,3.74414A1.00012,1.00012,0,0,1,18,11.5Z"/><path class="uim-tertiary" d="M21,16.5H3a.99974.99974,0,0,1-1-1v-3a3.00328,3.00328,0,0,1,3-3H19a3.00328,3.00328,0,0,1,3,3v3A.99974.99974,0,0,1,21,16.5Z"/><rect width="2" height="7" x="11" y="4.5" class="uim-tertiary"/><path class="uim-primary" d="M7 19.5a3 3 0 1 1 3-3A3.00328 3.00328 0 0 1 7 19.5zM17 19.5a3 3 0 1 1 3-3A3.00328 3.00328 0 0 1 17 19.5z"/></svg>