<svg xmlns="http://www.w3.org/2000/svg" data-name="Layer 1" viewBox="0 0 24 24"><path class="uim-primary" d="M5 20a.99974.99974 0 0 1-1-1V17a1 1 0 0 1 2 0v2A.99974.99974 0 0 1 5 20zM19 20a.99974.99974 0 0 1-1-1V17a1 1 0 0 1 2 0v2A.99974.99974 0 0 1 19 20z"/><path class="uim-tertiary" d="M19,18H5a3,3,0,0,1-3-3V13a3,3,0,0,1,3-3H19a3,3,0,0,1,3,3v2A3,3,0,0,1,19,18Z"/><path class="uim-primary" d="M13 15H11a1 1 0 0 1 0-2h2a1 1 0 0 1 0 2zM17 15a.99067.99067 0 0 1-.38037-.07031A1.18589 1.18589 0 0 1 16.29 14.71.98946.98946 0 0 1 16 14a1.05 1.05 0 0 1 .29-.71 1.55316 1.55316 0 0 1 .1499-.12012.74467.74467 0 0 1 .17969-.08984.62276.62276 0 0 1 .18017-.06055.95554.95554 0 0 1 .58008.06055.93705.93705 0 0 1 .33008.21A1.05232 1.05232 0 0 1 18 14a.83792.83792 0 0 1-.08008.37988 1.17124 1.17124 0 0 1-.21.33008A.99183.99183 0 0 1 17 15zM7 15a.99067.99067 0 0 1-.38037-.07031A1.18589 1.18589 0 0 1 6.29 14.71.98946.98946 0 0 1 6 14a1.05 1.05 0 0 1 .29-.71 1.55316 1.55316 0 0 1 .1499-.12012.74467.74467 0 0 1 .17969-.08984.62276.62276 0 0 1 .18017-.06055.95554.95554 0 0 1 .58008.06055.93705.93705 0 0 1 .33008.21A1.05232 1.05232 0 0 1 8 14a.83792.83792 0 0 1-.08008.37988 1.17124 1.17124 0 0 1-.21.33008A.99183.99183 0 0 1 7 15z"/><path class="uim-quaternary" d="M10,10H5L6.54,5.37A2.00935,2.00935,0,0,1,8.44,4h7.12a2.00935,2.00935,0,0,1,1.9,1.37L19,10H10Z"/><path class="uim-primary" d="M21,22a.99676.99676,0,0,1-.707-.293l-18-18A.99989.99989,0,0,1,3.707,2.293l18,18A1,1,0,0,1,21,22Z"/></svg>