<svg xmlns="http://www.w3.org/2000/svg" viewBox="0 0 24 24"><path class="uim-primary" d="M5 23a.99943.99943 0 0 1-1-1V20a1 1 0 0 1 2 0v2A.99943.99943 0 0 1 5 23zM19 23a.99943.99943 0 0 1-1-1V20a1 1 0 0 1 2 0v2A.99943.99943 0 0 1 19 23z"/><path class="uim-tertiary" d="M19,13H5a.999.999,0,0,1-.94824-1.31641L5.5957,7.05078A2.99629,2.99629,0,0,1,8.44141,5h7.11718A2.99629,2.99629,0,0,1,18.4043,7.05078l1.54394,4.63281A.999.999,0,0,1,19,13Z"/><path class="uim-quaternary" d="M19,21H5a3.00328,3.00328,0,0,1-3-3V14a3.00328,3.00328,0,0,1,3-3H19a3.00328,3.00328,0,0,1,3,3v4A3.00328,3.00328,0,0,1,19,21Z"/><path class="uim-primary" d="M7 17a.9609.9609 0 0 1-.71-.2998A.95131.95131 0 0 1 6 16a1.39038 1.39038 0 0 1 .01953-.2002.65026.65026 0 0 1 .06055-.17968.74157.74157 0 0 1 .08984-.18067A1.61105 1.61105 0 0 1 6.29 15.29a1.02883 1.02883 0 0 1 .33008-.21A1.01591 1.01591 0 0 1 7.71 15.29l.12012.14941a.77852.77852 0 0 1 .08984.18067.6165.6165 0 0 1 .05957.17968A1.26569 1.26569 0 0 1 8 16a1.00694 1.00694 0 0 1-1 1zM17 17a.9994.9994 0 0 1-.37988-.08008A.91089.91089 0 0 1 16.29 16.7002.95131.95131 0 0 1 16 16a1.39038 1.39038 0 0 1 .01953-.2002.65026.65026 0 0 1 .06055-.17968.74157.74157 0 0 1 .08984-.18067A1.61105 1.61105 0 0 1 16.29 15.29a.99819.99819 0 0 1 .89941-.27051.59545.59545 0 0 1 .19043.06055.73594.73594 0 0 1 .17969.08984A1.61848 1.61848 0 0 1 17.71 15.29l.12012.14941a.77852.77852 0 0 1 .08984.18067.6165.6165 0 0 1 .05957.17968A1.26569 1.26569 0 0 1 18 16a1.00694 1.00694 0 0 1-1 1zM13 17H11a1 1 0 0 1 0-2h2a1 1 0 0 1 0 2zM7.5 4a1 1 0 0 1-.707-1.707l1-1A.99989.99989 0 1 1 9.207 2.707l-1 1A.99676.99676 0 0 1 7.5 4zM11.5 4a1 1 0 0 1-.707-1.707l1-1A.99989.99989 0 1 1 13.207 2.707l-1 1A.99676.99676 0 0 1 11.5 4zM15.5 4a1 1 0 0 1-.707-1.707l1-1A.99989.99989 0 1 1 17.207 2.707l-1 1A.99676.99676 0 0 1 15.5 4z"/></svg>