<svg xmlns="http://www.w3.org/2000/svg" viewBox="0 0 24 24"><path class="uim-tertiary" d="M19,11H5a.999.999,0,0,1-.94824-1.31641L5.5957,5.05078A2.99629,2.99629,0,0,1,8.44141,3h7.11718A2.99629,2.99629,0,0,1,18.4043,5.05078l1.54394,4.63281A.999.999,0,0,1,19,11Z"/><path class="uim-primary" d="M5 21a.99943.99943 0 0 1-1-1V18a1 1 0 0 1 2 0v2A.99943.99943 0 0 1 5 21zM19 21a.99943.99943 0 0 1-1-1V18a1 1 0 0 1 2 0v2A.99943.99943 0 0 1 19 21z"/><path class="uim-quaternary" d="M19,19H5a3.00328,3.00328,0,0,1-3-3V12A3.00328,3.00328,0,0,1,5,9H19a3.00328,3.00328,0,0,1,3,3v4A3.00328,3.00328,0,0,1,19,19Z"/><path class="uim-primary" d="M7 15a.98979.98979 0 0 1-.91992-1.37988.90087.90087 0 0 1 .54-.54A.99781.99781 0 0 1 7.71 13.29 1.05232 1.05232 0 0 1 8 14a.8444.8444 0 0 1-.08008.37988 1.16044 1.16044 0 0 1-.21.33008 1.16044 1.16044 0 0 1-.33008.21A.9994.9994 0 0 1 7 15zM17 15a.98979.98979 0 0 1-.91992-1.37988.90087.90087 0 0 1 .54-.54.99435.99435 0 0 1 1.08984.21A1.05232 1.05232 0 0 1 18 14a.8444.8444 0 0 1-.08008.37988.90087.90087 0 0 1-.54.54A.9994.9994 0 0 1 17 15zM13 15H11a1 1 0 0 1 0-2h2a1 1 0 0 1 0 2z"/></svg>