<svg xmlns="http://www.w3.org/2000/svg" viewBox="0 0 24 24"><path class="uim-quaternary" d="M7.5 14.917a1 1 0 0 1-.707-1.707l4-4A.99989.99989 0 0 1 12.207 10.624l-4 4A.99672.99672 0 0 1 7.5 14.917zM14.833 14.25a1 1 0 0 1-.707-1.707l4.667-4.667A.99989.99989 0 0 1 20.207 9.29L15.54 13.957A.99676.99676 0 0 1 14.833 14.25z"/><path class="uim-quaternary" d="M14.833,14.25a.99676.99676,0,0,1-.707-.293l-3.333-3.333A.99989.99989,0,0,1,12.207,9.21l3.333,3.333a1,1,0,0,1-.707,1.707Z"/><circle cx="7" cy="14.5" r="1.5" class="uim-tertiary"/><circle cx="11.5" cy="10.083" r="1.5" class="uim-tertiary"/><circle cx="14.833" cy="13.25" r="1.5" class="uim-tertiary"/><circle cx="20" cy="8" r="1.5" class="uim-tertiary"/><path class="uim-primary" d="M20.5,22H2.5a.99943.99943,0,0,1-1-1V3a1,1,0,0,1,2,0V20h17a1,1,0,0,1,0,2Z"/></svg>