<svg xmlns="http://www.w3.org/2000/svg" viewBox="0 0 24 24"><path class="uim-tertiary" d="M12,22a.99749.99749,0,0,1-.707-.293L8.58594,19H6a3.00328,3.00328,0,0,1-3-3V5A3.00328,3.00328,0,0,1,6,2H18a3.00328,3.00328,0,0,1,3,3V16a3.00328,3.00328,0,0,1-3,3H15.87012l-3.21973,2.75879A.99513.99513,0,0,1,12,22Z"/><path class="uim-primary" d="M15.67969,15H8.32031a1.00023,1.00023,0,0,1-.91992-1.39258,5.00154,5.00154,0,0,1,9.19922,0A1.00023,1.00023,0,0,1,15.67969,15Z"/><path class="uim-quaternary" d="M12,12.2852a2.99956,2.99956,0,1,1,3-2.99911A3.00317,3.00317,0,0,1,12,12.2852Z"/></svg>