<svg xmlns="http://www.w3.org/2000/svg" viewBox="0 0 24 24"><path class="uim-tertiary" d="M19,22H5a3.00328,3.00328,0,0,1-3-3V5A3.00328,3.00328,0,0,1,5,2H19a3.00328,3.00328,0,0,1,3,3V19A3.00328,3.00328,0,0,1,19,22Z"/><path class="uim-primary" d="M21.85,4.07007A2.91594,2.91594,0,0,0,20.6,2.48a.54947.54947,0,0,0-.09-.07007A2.96866,2.96866,0,0,0,19,2H5A2.996,2.996,0,0,0,2,5v5H22V5A2.83148,2.83148,0,0,0,21.85,4.07007Z"/><polygon class="uim-quaternary" points="9.92 2 2 9.92 2 7.08 7.08 2 9.92 2"/><polygon class="uim-quaternary" points="16.92 2 8.92 10 6.08 10 14.08 2 16.92 2"/><path class="uim-quaternary" d="M21.85,4.07007,15.92,10H13.08L20.6,2.48A2.91594,2.91594,0,0,1,21.85,4.07007Z"/></svg>