<svg xmlns="http://www.w3.org/2000/svg" viewBox="0 0 24 24"><path class="uim-primary" d="M17.11035,11.88965a4.37629,4.37629,0,0,1-.92187-.09277,1.00737,1.00737,0,0,1-.47461-.25l-3.18067-3a1.00713,1.00713,0,0,1-.28808-.502,5.18375,5.18375,0,0,1-.13477-1.15527,4.97434,4.97434,0,0,1,3.88574-4.86426,1.00008,1.00008,0,0,1,1.19629,1.207,2.77625,2.77625,0,0,0-.082.65723,3.00328,3.00328,0,0,0,3,3,2.73451,2.73451,0,0,0,.6543-.082,1,1,0,0,1,1.21,1.19629A4.976,4.976,0,0,1,17.11035,11.88965Z"/><path class="uim-tertiary" d="M14.6665,18H5.5a3.50038,3.50038,0,0,1-.93652-6.873A5.99782,5.99782,0,0,1,15.96973,9.542,4.32866,4.32866,0,0,1,14.6665,18Z"/><path class="uim-primary" d="M8.5 22a.99943.99943 0 0 1-1-1V15a1 1 0 0 1 2 0v6A.99943.99943 0 0 1 8.5 22zM12.5 21a.99943.99943 0 0 1-1-1V14a1 1 0 0 1 2 0v6A.99943.99943 0 0 1 12.5 21z"/></svg>