<svg xmlns="http://www.w3.org/2000/svg" viewBox="0 0 24 24"><path class="uim-tertiary" d="M16 6.167a.99942.99942 0 0 1-1-1V3.5a1 1 0 0 1 2 0V5.167A.99942.99942 0 0 1 16 6.167zM21 9.5H19.333a1 1 0 0 1 0-2H21a1 1 0 0 1 0 2zM18.3584 7.1416a1 1 0 0 1-.707-1.707l1.1748-1.1748a.99989.99989 0 1 1 1.41406 1.41406l-1.1748 1.1748A.99672.99672 0 0 1 18.3584 7.1416zM13.6416 7.1416a.99672.99672 0 0 1-.707-.293l-1.1748-1.1748a.99989.99989 0 1 1 1.41406-1.41406l1.1748 1.1748a1 1 0 0 1-.707 1.707zM19.5332 13.0332a.99672.99672 0 0 1-.707-.293l-1.1748-1.1748a.99989.99989 0 0 1 1.41406-1.41406l1.1748 1.1748a1 1 0 0 1-.707 1.707z"/><path class="uim-primary" d="M16,12.875A4.375,4.375,0,1,1,20.375,8.5,4.38,4.38,0,0,1,16,12.875Z"/><path class="uim-tertiary" d="M14.6665,18.5H5.5a3.50038,3.50038,0,0,1-.93652-6.873,5.99782,5.99782,0,0,1,11.40625-1.585A4.32866,4.32866,0,0,1,14.6665,18.5Z"/><path class="uim-primary" d="M10.5,21.5a3.00328,3.00328,0,0,1-3-3c0-2.47461,2.33789-4.09277,2.43749-4.16016a.99959.99959,0,0,1,1.1172-.00488C11.15527,14.40234,13.5,15.99609,13.5,18.5A3.00328,3.00328,0,0,1,10.5,21.5Z"/></svg>