<svg xmlns="http://www.w3.org/2000/svg" data-name="Layer 1" viewBox="0 0 24 24"><path class="uim-primary" d="M12 22a.99974.99974 0 0 1-1-1V15a1 1 0 0 1 2 0v6A.99974.99974 0 0 1 12 22zM6 22H3a1 1 0 0 1 0-2H6a1.001 1.001 0 0 0 1-1V15a1 1 0 0 1 2 0v4A3.00328 3.00328 0 0 1 6 22zM21 22H18a3.00328 3.00328 0 0 1-3-3V15a1 1 0 0 1 2 0v4a1.001 1.001 0 0 0 1 1h3a1 1 0 0 1 0 2z"/><path class="uim-tertiary" d="M17,16H6a4.00043,4.00043,0,0,1-.94434-7.8877,6.99939,6.99939,0,0,1,13.36524-1.896A4.99418,4.99418,0,0,1,17,16Z"/></svg>