<svg xmlns="http://www.w3.org/2000/svg" viewBox="0 0 24 24"><path class="uim-primary" d="M17.11035,12.80762a4.37561,4.37561,0,0,1-.92187-.09278,1.00728,1.00728,0,0,1-.47461-.25l-3.18067-3a1.00706,1.00706,0,0,1-.28808-.502,5.18375,5.18375,0,0,1-.13477-1.15527,4.9772,4.9772,0,0,1,3.88477-4.86524,1.00031,1.00031,0,0,1,1.19726,1.207,2.78414,2.78414,0,0,0-.082.65821,3.00328,3.00328,0,0,0,3,3,2.73451,2.73451,0,0,0,.6543-.082.98858.98858,0,0,1,.93847.26074.99981.99981,0,0,1,.27149.93555A4.976,4.976,0,0,1,17.11035,12.80762Z"/><path class="uim-tertiary" d="M14.6665,18.917H5.5a3.50038,3.50038,0,0,1-.93652-6.873,5.99782,5.99782,0,0,1,11.40625-1.585,4.32866,4.32866,0,0,1-1.30323,8.458Z"/><path class="uim-primary" d="M12.5,18.917h-5a1,1,0,0,1,0-2h5a1,1,0,0,1,0,2Z"/><path class="uim-primary" d="M11.251,21.083a1.00114,1.00114,0,0,1-.86719-.5l-2.5-4.33106a1.00016,1.00016,0,1,1,1.73242-1l2.5,4.33106a.99991.99991,0,0,1-.86523,1.5Z"/><path class="uim-primary" d="M8.749,21.083a.99991.99991,0,0,1-.86523-1.5l2.5-4.33106a1.00016,1.00016,0,0,1,1.73242,1l-2.5,4.33106A1.00114,1.00114,0,0,1,8.749,21.083Z"/></svg>