<svg xmlns="http://www.w3.org/2000/svg" viewBox="0 0 24 24"><path class="uim-tertiary" d="M17,16H6a4.00036,4.00036,0,0,1-.94385-7.8877A6.99757,6.99757,0,0,1,18.418,6.21484,4.99453,4.99453,0,0,1,17,16Z"/><path class="uim-primary" d="M8 19a.99974.99974 0 0 1-1-1V17a1 1 0 0 1 2 0v1A.99974.99974 0 0 1 8 19zM12 22a.99974.99974 0 0 1-1-1V20a1 1 0 0 1 2 0v1A.99974.99974 0 0 1 12 22zM16 19a.99974.99974 0 0 1-1-1V17a1 1 0 0 1 2 0v1A.99974.99974 0 0 1 16 19zM8 14a.99974.99974 0 0 1-1-1V12a1 1 0 0 1 2 0v1A.99974.99974 0 0 1 8 14zM12 17a.99974.99974 0 0 1-1-1V15a1 1 0 0 1 2 0v1A.99974.99974 0 0 1 12 17zM12 12a.99974.99974 0 0 1-1-1V10a1 1 0 0 1 2 0v1A.99974.99974 0 0 1 12 12zM16 14a.99974.99974 0 0 1-1-1V12a1 1 0 0 1 2 0v1A.99974.99974 0 0 1 16 14z"/></svg>