<svg xmlns="http://www.w3.org/2000/svg" viewBox="0 0 24 24"><path class="uim-primary" d="M17.10986,11.88965a4.37822,4.37822,0,0,1-.92138-.09277,1.00281,1.00281,0,0,1-.47461-.25l-3.17969-3a1.00122,1.00122,0,0,1-.2876-.499,5.07512,5.07512,0,0,1-.13672-1.1582,4.97478,4.97478,0,0,1,3.88623-4.86426.99953.99953,0,0,1,1.1958,1.21,2.73451,2.73451,0,0,0-.082.6543,3.00328,3.00328,0,0,0,3,3,2.72845,2.72845,0,0,0,.6543-.082,1.00015,1.00015,0,0,1,1.21045,1.19629A4.9765,4.9765,0,0,1,17.10986,11.88965Z"/><path class="uim-tertiary" d="M14.6665,18H5.5a3.50038,3.50038,0,0,1-.93652-6.873A5.99782,5.99782,0,0,1,15.96973,9.542,4.32866,4.32866,0,0,1,14.6665,18Z"/><path class="uim-primary" d="M12.5 16a.84511.84511 0 0 1-.38037-.08008 1.1515 1.1515 0 0 1-.32959-.21A.98946.98946 0 0 1 11.5 15a1.0299 1.0299 0 0 1 .29-.71.93067.93067 0 0 1 .32959-.21.95593.95593 0 0 1 .58008-.06055.62266.62266 0 0 1 .18017.06055.73875.73875 0 0 1 .18018.08984A1.68289 1.68289 0 0 1 13.21 14.29a1.05232 1.05232 0 0 1 .29.71.99147.99147 0 0 1-.29.71 1.15384 1.15384 0 0 1-.33008.21A.8444.8444 0 0 1 12.5 16zM8.5 18a.99042.99042 0 0 1-1-1 .84393.84393 0 0 1 .07959-.37988A1.14883 1.14883 0 0 1 7.79 16.29a1.01953 1.01953 0 0 1 1.08984-.21 1.03418 1.03418 0 0 1 .33008.21 1.15772 1.15772 0 0 1 .21.33008A.98919.98919 0 0 1 9.21 17.71a1.15384 1.15384 0 0 1-.33008.21A.9994.9994 0 0 1 8.5 18zM8.5 22a.99075.99075 0 0 1-.92041-1.37988A1.14883 1.14883 0 0 1 7.79 20.29a1.01953 1.01953 0 0 1 1.08984-.21.90087.90087 0 0 1 .54.54A.99013.99013 0 0 1 8.5 22zM12.5 20a.99993.99993 0 0 1-.38037-.08008 1.1515 1.1515 0 0 1-.32959-.21.99108.99108 0 0 1-.21045-1.08984.90421.90421 0 0 1 .54-.54 1.01673 1.01673 0 0 1 1.09033.21 1.15772 1.15772 0 0 1 .21.33008A.98919.98919 0 0 1 13.21 19.71a1.15384 1.15384 0 0 1-.33008.21A.9994.9994 0 0 1 12.5 20z"/></svg>