<svg xmlns="http://www.w3.org/2000/svg" data-name="Layer 1" viewBox="0 0 24 24"><path class="uim-primary" d="M13.5,16.5h-5a.99974.99974,0,0,1-1-1v-5a1,1,0,0,1,2,0v4h4a1,1,0,0,1,0,2Z"/><path class="uim-primary" d="M13.5,20.5h-5a.99974.99974,0,0,1-1-1v-4a1,1,0,0,1,2,0v3h4a1,1,0,0,1,0,2Z"/><path class="uim-tertiary" d="M11.833,11.5H4.5a3.00015,3.00015,0,0,1-.92676-5.85352,4.99963,4.99963,0,0,1,9.4502-1.27539A3.66322,3.66322,0,0,1,11.833,11.5Z"/><rect width="8" height="4" x="13.5" y="13.5" class="uim-quaternary" rx="1"/><rect width="8" height="4" x="13.5" y="17.5" class="uim-tertiary" rx="1"/></svg>