<svg xmlns="http://www.w3.org/2000/svg" viewBox="0 0 24 24"><path class="uim-tertiary" d="M16 5a.99974.99974 0 0 1-1-1V2a1 1 0 0 1 2 0V4A.99974.99974 0 0 1 16 5zM22 9H20a1 1 0 0 1 0-2h2a1 1 0 0 1 0 2zM18.83008 6.16992a1 1 0 0 1-.707-1.707L19.5332 3.05273A.9999.9999 0 0 1 20.94727 4.4668L19.53711 5.877A.99672.99672 0 0 1 18.83008 6.16992zM13.16992 6.16992a.99672.99672 0 0 1-.707-.293L11.05273 4.4668A.9999.9999 0 1 1 12.4668 3.05273L13.877 4.46289a1 1 0 0 1-.707 1.707zM20.24023 13.23926a.9968.9968 0 0 1-.707-.293l-1.41015-1.41016a.99989.99989 0 0 1 1.41406-1.41406l1.41016 1.41016a1 1 0 0 1-.707 1.707z"/><circle cx="16.009" cy="8" r="4.996" class="uim-primary"/><path class="uim-tertiary" d="M13.6665,19H4.5a3.50038,3.50038,0,0,1-.93652-6.873,5.99782,5.99782,0,0,1,11.40625-1.585A4.32866,4.32866,0,0,1,13.6665,19Z"/><path class="uim-primary" d="M7.5 23a.99974.99974 0 0 1-1-1V21a1 1 0 0 1 2 0v1A.99974.99974 0 0 1 7.5 23zM11.5 22a.99974.99974 0 0 1-1-1V20a1 1 0 0 1 2 0v1A.99974.99974 0 0 1 11.5 22zM11.5 17a.99974.99974 0 0 1-1-1V15a1 1 0 0 1 2 0v1A.99974.99974 0 0 1 11.5 17zM7.5 18a.99974.99974 0 0 1-1-1V16a1 1 0 0 1 2 0v1A.99974.99974 0 0 1 7.5 18z"/></svg>