<svg xmlns="http://www.w3.org/2000/svg" viewBox="0 0 24 24"><path class="uim-tertiary" d="M17,16H6a4.00043,4.00043,0,0,1-.94434-7.8877A6.99789,6.99789,0,0,1,18.418,6.21484,4.99453,4.99453,0,0,1,17,16Z"/><circle cx="5" cy="19" r="1" class="uim-primary"/><circle cx="11" cy="11" r="1" class="uim-primary"/><path class="uim-primary" d="M16 22a.99943.99943 0 0 1-1-1 1.01348 1.01348 0 0 0-1-1H9a1 1 0 0 1 0-2h5a3.00328 3.00328 0 0 1 3 3A.99943.99943 0 0 1 16 22zM19 12H15a1 1 0 0 1 0-2h4a1.01348 1.01348 0 0 0 1-1 1 1 0 0 1 2 0A3.00328 3.00328 0 0 1 19 12z"/><path class="uim-primary" d="M19,20a1,1,0,0,1,0-2,1,1,0,0,0,0-2H12a1,1,0,0,1,0-2h7a3,3,0,0,1,0,6Z"/></svg>