<svg xmlns="http://www.w3.org/2000/svg" data-name="Layer 1" viewBox="0 0 24 24"><path class="uim-tertiary" d="M18.42926,7.7542A6.99612,6.99612,0,0,0,5.06079,9.64433,3.994,3.994,0,0,0,6,17.52177H17A4.98638,4.98638,0,0,0,18.42926,7.7542Z"/><circle cx="12" cy="16.5" r="3" class="uim-quaternary"/><path class="uim-primary" d="M12,20.5a3.99957,3.99957,0,0,1-2.82812-6.82812,4.09412,4.09412,0,0,1,5.65624,0,3.99852,3.99852,0,0,1,0,5.65624h0A3.97182,3.97182,0,0,1,12,20.5Zm0-6a1.99978,1.99978,0,0,0-1.41406,3.41406,2.04706,2.04706,0,0,0,2.82812,0h0A2,2,0,0,0,12,14.5Z"/><path class="uim-primary" d="M9.87891,19.62109a1,1,0,0,1-.707-1.707l4.24218-4.24218a.99989.99989,0,0,1,1.41406,1.41406l-4.24218,4.24218A.99674.99674,0,0,1,9.87891,19.62109Z"/></svg>