<svg xmlns="http://www.w3.org/2000/svg" viewBox="0 0 24 24"><path class="uim-tertiary" d="M16 7.667a.99942.99942 0 0 1-1-1V5a1 1 0 0 1 2 0V6.667A.99942.99942 0 0 1 16 7.667zM21 11H19.333a1 1 0 0 1 0-2H21a1 1 0 0 1 0 2zM18.3584 8.6416a1 1 0 0 1-.707-1.707l1.1748-1.1748a.99989.99989 0 1 1 1.41406 1.41406l-1.1748 1.1748A.99672.99672 0 0 1 18.3584 8.6416zM13.6416 8.6416a.99672.99672 0 0 1-.707-.293l-1.1748-1.1748a.99989.99989 0 1 1 1.41406-1.41406l1.1748 1.1748a1 1 0 0 1-.707 1.707zM19.5332 14.5332a.99672.99672 0 0 1-.707-.293l-1.1748-1.1748a.99989.99989 0 0 1 1.41406-1.41406l1.1748 1.1748a1 1 0 0 1-.707 1.707z"/><path class="uim-primary" d="M15.95508,14.31a4.375,4.375,0,1,1,4.375-4.375A4.38,4.38,0,0,1,15.95508,14.31Z"/><path class="uim-tertiary" d="M14.6665,20H5.5a3.50038,3.50038,0,0,1-.93652-6.873,5.99782,5.99782,0,0,1,11.40625-1.585A4.32866,4.32866,0,0,1,14.6665,20Z"/></svg>