<svg xmlns="http://www.w3.org/2000/svg" viewBox="0 0 24 24"><path class="uim-tertiary" d="M16 6.584a.99973.99973 0 0 1-1-1V3.917a1 1 0 1 1 2 0V5.584A.99973.99973 0 0 1 16 6.584zM21 9.917H19.3335a1 1 0 0 1 0-2H21a1 1 0 0 1 0 2zM18.3584 7.55957a1.00025 1.00025 0 0 1-.70752-1.707l1.1748-1.17578a1.00024 1.00024 0 0 1 1.415 1.41406L19.06592 7.2666A.99788.99788 0 0 1 18.3584 7.55957zM13.6416 7.55957a.99788.99788 0 0 1-.70752-.293l-1.1748-1.17578a1.00024 1.00024 0 0 1 1.415-1.41406l1.1748 1.17578a1.00025 1.00025 0 0 1-.70752 1.707zM19.5332 13.45117a.99785.99785 0 0 1-.70752-.293l-1.1748-1.17578a1.00024 1.00024 0 0 1 1.415-1.41406l1.1748 1.17578a1.00025 1.00025 0 0 1-.70752 1.707z"/><path class="uim-primary" d="M15.94593,13.29247a4.375,4.375,0,1,1,4.375-4.375A4.38,4.38,0,0,1,15.94593,13.29247Z"/><path class="uim-tertiary" d="M14.6665,18.917H5.5a3.50038,3.50038,0,0,1-.93652-6.873,5.99782,5.99782,0,0,1,11.40625-1.585,4.32866,4.32866,0,0,1-1.30323,8.458Z"/><path class="uim-primary" d="M12.5,18.917h-5a1,1,0,0,1,0-2h5a1,1,0,0,1,0,2Z"/><path class="uim-primary" d="M11.251,21.083a1.00114,1.00114,0,0,1-.86719-.5l-2.5-4.33106a1.00016,1.00016,0,1,1,1.73242-1l2.5,4.33106a.99991.99991,0,0,1-.86523,1.5Z"/><path class="uim-primary" d="M8.749,21.083a.99991.99991,0,0,1-.86523-1.5l2.5-4.33106a1.00016,1.00016,0,0,1,1.73242,1l-2.5,4.33106A1.00114,1.00114,0,0,1,8.749,21.083Z"/></svg>