<svg xmlns="http://www.w3.org/2000/svg" data-name="Layer 1" viewBox="0 0 24 24"><path class="uim-tertiary" d="M18.42926,7.23242A6.99612,6.99612,0,0,0,5.06079,9.12256,3.994,3.994,0,0,0,6,17H17a4.98638,4.98638,0,0,0,1.42926-9.76758Z"/><path class="uim-quaternary" d="M10,16a.99974.99974,0,0,1-1-1V13a3.00328,3.00328,0,0,1,3-3,2.94443,2.94443,0,0,1,2.126.8916,2.73487,2.73487,0,0,1,.46.59033A1.00011,1.00011,0,1,1,12.875,12.51807a.915.915,0,0,0-.14355-.19385A1.00928,1.00928,0,0,0,11,13v2A.99974.99974,0,0,1,10,16Z"/><path class="uim-primary" d="M14,22H10a3,3,0,0,1-3-3V17a3,3,0,0,1,3-3h4a3,3,0,0,1,3,3v2A3,3,0,0,1,14,22Z"/></svg>