<svg xmlns="http://www.w3.org/2000/svg" viewBox="0 0 24 24"><path class="uim-primary" d="M14.5,17.917h-5a1,1,0,1,1,0-2h5a1,1,0,1,1,0,2Z"/><path class="uim-primary" d="M13.251,20.083a1.00114,1.00114,0,0,1-.86719-.5l-2.5-4.33106a1.00016,1.00016,0,1,1,1.73242-1l2.5,4.33106a.99991.99991,0,0,1-.86523,1.5Z"/><path class="uim-primary" d="M10.749,20.083a.99991.99991,0,0,1-.86523-1.5l2.5-4.33106a1.00016,1.00016,0,0,1,1.73242,1l-2.5,4.33106A1.00114,1.00114,0,0,1,10.749,20.083Z"/><path class="uim-primary" d="M17,17.88965H6A4.00024,4.00024,0,0,1,5.061,10.001,6.99871,6.99871,0,0,1,18.42139,8.13672,4.97669,4.97669,0,0,1,17,17.88965Z" opacity=".5"/></svg>