<svg xmlns="http://www.w3.org/2000/svg" viewBox="0 0 24 24"><path class="uim-tertiary" d="M16 5.666a.99974.99974 0 0 1-1-1V3a1 1 0 0 1 2 0V4.666A.99974.99974 0 0 1 16 5.666zM21 9H19.3335a1 1 0 0 1 0-2H21a1 1 0 0 1 0 2zM18.3584 6.6416a1.00025 1.00025 0 0 1-.70752-1.707l1.1748-1.17578a1.00024 1.00024 0 0 1 1.415 1.41406l-1.1748 1.17578A.99784.99784 0 0 1 18.3584 6.6416zM13.6416 6.6416a.99784.99784 0 0 1-.70752-.293l-1.1748-1.17578a1.00024 1.00024 0 0 1 1.415-1.41406l1.1748 1.17578a1.00025 1.00025 0 0 1-.70752 1.707zM19.5332 12.5332a.99672.99672 0 0 1-.707-.293l-1.1748-1.1748a.99989.99989 0 0 1 1.41406-1.41406l1.1748 1.1748a1 1 0 0 1-.707 1.707z"/><path class="uim-primary" d="M15.95508,12.41992a4.375,4.375,0,1,1,4.375-4.375A4.38,4.38,0,0,1,15.95508,12.41992Z"/><path class="uim-tertiary" d="M14.6665,18H5.5a3.50038,3.50038,0,0,1-.93652-6.873A5.99782,5.99782,0,0,1,15.96973,9.542,4.32866,4.32866,0,0,1,14.6665,18Z"/><path class="uim-primary" d="M12.5 16a.84511.84511 0 0 1-.38037-.08008 1.1515 1.1515 0 0 1-.32959-.21A.98946.98946 0 0 1 11.5 15a1.05 1.05 0 0 1 .29-.71 1.03332 1.03332 0 0 1 1.41992 0 1.05232 1.05232 0 0 1 .29.71.99042.99042 0 0 1-1 1zM8.5 18a.99993.99993 0 0 1-.38037-.08008A1.1515 1.1515 0 0 1 7.79 17.71a.99108.99108 0 0 1-.21045-1.08984A1.14883 1.14883 0 0 1 7.79 16.29a1.03332 1.03332 0 0 1 1.41992 0 1.15772 1.15772 0 0 1 .21.33008A.83792.83792 0 0 1 9.5 17a.99147.99147 0 0 1-.29.71 1.15384 1.15384 0 0 1-.33008.21A.9994.9994 0 0 1 8.5 18zM8.5 22a.84511.84511 0 0 1-.38037-.08008A1.1515 1.1515 0 0 1 7.79 21.71a1.16213 1.16213 0 0 1-.21045-.33008.94637.94637 0 0 1 0-.75976A1.14883 1.14883 0 0 1 7.79 20.29a.93067.93067 0 0 1 .32959-.21A1.01673 1.01673 0 0 1 9.21 20.29a1.15772 1.15772 0 0 1 .21.33008A.83792.83792 0 0 1 9.5 21a.99147.99147 0 0 1-.29.71 1.15384 1.15384 0 0 1-.33008.21A.8444.8444 0 0 1 8.5 22zM12.5 20a.99075.99075 0 0 1-.92041-1.37988A1.14883 1.14883 0 0 1 11.79 18.29a1.01574 1.01574 0 0 1 1.08984-.21.93705.93705 0 0 1 .33008.21 1.15772 1.15772 0 0 1 .21.33008A.98919.98919 0 0 1 13.21 19.71a1.15384 1.15384 0 0 1-.33008.21A.9994.9994 0 0 1 12.5 20z"/></svg>