<svg xmlns="http://www.w3.org/2000/svg" viewBox="0 0 24 24"><path class="uim-primary" d="M17.11035,13.88965a4.40228,4.40228,0,0,1-.92187-.0918,1.00728,1.00728,0,0,1-.47461-.25l-3.18067-3a1.00585,1.00585,0,0,1-.28808-.50293,5.13983,5.13983,0,0,1-.13477-1.15527,4.9761,4.9761,0,0,1,3.88477-4.86426,1.00031,1.00031,0,0,1,1.19726,1.207,2.77625,2.77625,0,0,0-.082.65723,3.00328,3.00328,0,0,0,3,3,2.77625,2.77625,0,0,0,.65723-.082,1.00031,1.00031,0,0,1,1.207,1.19726A4.9761,4.9761,0,0,1,17.11035,13.88965Z"/><path class="uim-tertiary" d="M14.6665,20H5.5a3.50038,3.50038,0,0,1-.93652-6.873,5.99782,5.99782,0,0,1,11.40625-1.585A4.32866,4.32866,0,0,1,14.6665,20Z"/></svg>