<svg xmlns="http://www.w3.org/2000/svg" viewBox="0 0 24 24"><path class="uim-tertiary" d="M16 5.666a.99974.99974 0 0 1-1-1V3a1 1 0 0 1 2 0V4.666A.99974.99974 0 0 1 16 5.666zM21 9H19.3335a1 1 0 0 1 0-2H21a1 1 0 0 1 0 2zM18.3584 6.6416a1.00025 1.00025 0 0 1-.70752-1.707l1.1748-1.17578a1.00024 1.00024 0 0 1 1.415 1.41406l-1.1748 1.17578A.99784.99784 0 0 1 18.3584 6.6416zM13.6416 6.6416a.99784.99784 0 0 1-.70752-.293l-1.1748-1.17578a1.00024 1.00024 0 0 1 1.415-1.41406l1.1748 1.17578a1.00025 1.00025 0 0 1-.70752 1.707zM19.5332 12.5332a.99672.99672 0 0 1-.707-.293l-1.1748-1.1748a.99989.99989 0 0 1 1.41406-1.41406l1.1748 1.1748a1 1 0 0 1-.707 1.707z"/><path class="uim-primary" d="M15.95508,12.41992a4.375,4.375,0,1,1,4.375-4.375A4.38,4.38,0,0,1,15.95508,12.41992Z"/><path class="uim-tertiary" d="M14.6665,18H5.5a3.50038,3.50038,0,0,1-.93652-6.873A5.99782,5.99782,0,0,1,15.96973,9.542,4.32866,4.32866,0,0,1,14.6665,18Z"/><path class="uim-primary" d="M12.5 16a.99974.99974 0 0 1-1-1V14a1 1 0 0 1 2 0v1A.99974.99974 0 0 1 12.5 16zM8.5 17a.99974.99974 0 0 1-1-1V15a1 1 0 0 1 2 0v1A.99974.99974 0 0 1 8.5 17zM8.5 22a.99974.99974 0 0 1-1-1V20a1 1 0 0 1 2 0v1A.99974.99974 0 0 1 8.5 22zM12.5 21a.99974.99974 0 0 1-1-1V19a1 1 0 0 1 2 0v1A.99974.99974 0 0 1 12.5 21z"/></svg>