<svg xmlns="http://www.w3.org/2000/svg" viewBox="0 0 24 24"><path class="uim-primary" d="M19 11H17a.99974.99974 0 0 1-1-1V6a.99974.99974 0 0 1 1-1h2a3 3 0 0 1 0 6zM18 9h1a1 1 0 0 0 0-2H18zM21 21H3a1 1 0 0 1 0-2H21a1 1 0 0 1 0 2z"/><path class="uim-primary" d="M13,17H9a5.00588,5.00588,0,0,1-5-5V4A.99974.99974,0,0,1,5,3H17a.99974.99974,0,0,1,1,1v8A5.00588,5.00588,0,0,1,13,17ZM6,5v7a3.00328,3.00328,0,0,0,3,3h4a3.00328,3.00328,0,0,0,3-3V5Z"/><path class="uim-tertiary" d="M13,17H9a5.00588,5.00588,0,0,1-5-5V4A.99974.99974,0,0,1,5,3H17a.99974.99974,0,0,1,1,1v8A5.00588,5.00588,0,0,1,13,17Z"/></svg>