<svg xmlns="http://www.w3.org/2000/svg" data-name="Layer 1" viewBox="0 0 24 24"><rect width="10" height="4" x="3" y="4" class="uim-primary" rx="2"/><rect width="10" height="4" x="3" y="8" class="uim-tertiary" rx="2"/><rect width="10" height="4" x="3" y="12" class="uim-primary" rx="2"/><rect width="10" height="4" x="3" y="16" class="uim-tertiary" rx="2"/><path class="uim-primary" d="M19,16H13a1.97948,1.97948,0,0,0-1,.2774,1.98368,1.98368,0,0,1,0,3.4452A1.97948,1.97948,0,0,0,13,20h6a2,2,0,0,0,0-4Z"/><path class="uim-tertiary" d="M19,12H13a1.97948,1.97948,0,0,0-1,.2774,1.98368,1.98368,0,0,1,0,3.4452A1.97948,1.97948,0,0,0,13,16h6a2,2,0,0,0,0-4Z"/><path class="uim-primary" d="M19,8H13a1.97948,1.97948,0,0,0-1,.2774,1.98368,1.98368,0,0,1,0,3.4452A1.97948,1.97948,0,0,0,13,12h6a2,2,0,0,0,0-4Z"/></svg>