<svg xmlns="http://www.w3.org/2000/svg" viewBox="0 0 24 24"><path class="uim-tertiary" d="M21,22a.99576.99576,0,0,1-.67822-.26562L17.35889,19H9a3.00328,3.00328,0,0,1-3-3V9A3.00328,3.00328,0,0,1,9,6H19a3.00328,3.00328,0,0,1,3,3V21a1.00032,1.00032,0,0,1-1,1Z"/><circle cx="7" cy="7" r="4" class="uim-quaternary"/><path class="uim-primary" d="M10.53564,3.46484A4.99935,4.99935,0,1,0,12,7,5.00644,5.00644,0,0,0,10.53564,3.46484ZM4.87842,4.87891a2.96532,2.96532,0,0,1,3.40564-.57666L4.3,8.28564a2.9658,2.9658,0,0,1,.57843-3.40673ZM9.12158,9.12109a2.99693,2.99693,0,0,1-3.4057.57666L9.7,5.71436a2.9658,2.9658,0,0,1-.57843,3.40673Z"/></svg>