<svg xmlns="http://www.w3.org/2000/svg" viewBox="0 0 24 24"><path class="uim-tertiary" d="M21.5,22.5a.99576.99576,0,0,1-.67822-.26562L17.85889,19.5H9.5a3.00328,3.00328,0,0,1-3-3v-7a3.00328,3.00328,0,0,1,3-3h10a3.00328,3.00328,0,0,1,3,3v12a1.00032,1.00032,0,0,1-1,1Z"/><path class="uim-tertiary" d="M21.5,22.5a.99576.99576,0,0,1-.67822-.26562L17.85889,19.5H9.5a3.00328,3.00328,0,0,1-3-3v-7a3.00328,3.00328,0,0,1,3-3h10a3.00328,3.00328,0,0,1,3,3v12a1.00032,1.00032,0,0,1-1,1Z"/><path class="uim-primary" d="M9.5,7.5a1.9834,1.9834,0,0,0-1.17889.3916L6.5719,7.08691l1.90552-.87658A1.99609,1.99609,0,1,0,7.50433,4.457l-1.903.87537A2.00536,2.00536,0,1,0,5.428,8.76172l2.09467.96362A1.9953,1.9953,0,1,0,9.5,7.5Z"/></svg>