<svg xmlns="http://www.w3.org/2000/svg" viewBox="0 0 24 24"><path class="uim-tertiary" d="M21,22a.99893.99893,0,0,1-.707-.293L16.58594,18H5a3.00328,3.00328,0,0,1-3-3V5A3.00328,3.00328,0,0,1,5,2H19a3.00328,3.00328,0,0,1,3,3V21a1,1,0,0,1-1,1Z"/><path class="uim-quaternary" d="M5,18H6.57745l.28876-.27246c.00684-.00684.01465-.01367.02149-.02149L11.708,12.876a.99965.99965,0,0,0-.00293-1.415l-1.583-1.57422a3.05059,3.05059,0,0,0-4.23828-.00488L2,13.75513V15A3.00328,3.00328,0,0,0,5,18Z"/><path class="uim-primary" d="M18.12207,7.88672a3.054,3.054,0,0,0-4.2334-.00977L3.843,17.76685A2.98266,2.98266,0,0,0,5,18H16.58594l3.707,3.707A.99991.99991,0,0,0,22,21V12.16992a.99839.99839,0,0,0-.29395-.708Z"/></svg>