<svg xmlns="http://www.w3.org/2000/svg" viewBox="0 0 24 24"><path class="uim-tertiary" d="M22,12A10.00643,10.00643,0,0,1,12,22H3a.98718.98718,0,0,1-.92-.62,1.0022,1.0022,0,0,1,.21-1.09l1.97-1.97A9.98456,9.98456,0,0,1,2,12a10,10,0,0,1,20,0Z"/><path class="uim-tertiary" d="M12.00011,22h-9a.99991.99991,0,0,1-.707-1.707L4.257,18.3291A10.00061,10.00061,0,1,1,12.00011,22Z"/><path class="uim-quaternary" d="M10.53,13.46l-.71-.7-.88-.87a3.04618,3.04618,0,0,0-4.24-.01l-2.43,2.42a9.804,9.804,0,0,0,1.99,4.02L2.29,20.29a1.0022,1.0022,0,0,0-.21,1.09A.98718.98718,0,0,0,3,22h.41L10.53,14.88a1.0073,1.0073,0,0,0,.29-.71008A1.03251,1.03251,0,0,0,10.53,13.46Z"/><path class="uim-primary" d="M16.94,9.89a3.04618,3.04618,0,0,0-4.24-.01L4.26,18.32007,2.29,20.29a1.0022,1.0022,0,0,0-.21,1.09A.98718.98718,0,0,0,3,22h9a10.02522,10.02522,0,0,0,9.66-7.42Z"/></svg>