<svg xmlns="http://www.w3.org/2000/svg" viewBox="0 0 24 24"><path class="uim-tertiary" d="M9,7H5A.99943.99943,0,0,1,4,6V4a3,3,0,0,1,6,0V6A.99943.99943,0,0,1,9,7ZM6,5H8V4A1,1,0,0,0,6,4Z"/><path class="uim-tertiary" d="M21,23a.99576.99576,0,0,1-.67822-.26562L17.35889,20H9a3.00328,3.00328,0,0,1-3-3V10A3.00328,3.00328,0,0,1,9,7H19a3.00328,3.00328,0,0,1,3,3V22a1.00032,1.00032,0,0,1-1,1Z"/><path class="uim-primary" d="M9,13H5a3.00328,3.00328,0,0,1-3-3V8A3.00328,3.00328,0,0,1,5,5H9a3.00328,3.00328,0,0,1,3,3v2A3.00328,3.00328,0,0,1,9,13Z"/></svg>