<svg xmlns="http://www.w3.org/2000/svg" viewBox="0 0 24 24"><path class="uim-tertiary" d="M10.99978,22h-8a.99991.99991,0,0,1-.707-1.707l1.67481-1.67481A9.00076,9.00076,0,1,1,10.99978,22Z"/><path class="uim-quaternary" d="M20.54,10.54a5.00764,5.00764,0,0,1-6.29.63989h-.01A5.13952,5.13952,0,0,1,12.82,9.76a5.00963,5.00963,0,0,1,6.94-6.93994A5.13952,5.13952,0,0,1,21.18,4.24v.01A5.00768,5.00768,0,0,1,20.54,10.54Z"/><path class="uim-primary" d="M20.53516,3.46484a4.99947,4.99947,0,1,0-7.07032,7.07032,4.99947,4.99947,0,1,0,7.07032-7.07032ZM14.87891,4.87891a2.96473,2.96473,0,0,1,3.40289-.58069L14.29822,8.28174a2.96464,2.96464,0,0,1,.58069-3.40283Zm4.24218,4.24218a3.07613,3.07613,0,0,1-3.38568.57349l3.96985-3.96985a2.96576,2.96576,0,0,1-.58417,3.39636Z"/></svg>