<svg xmlns="http://www.w3.org/2000/svg" viewBox="0 0 24 24"><path class="uim-tertiary" d="M21,22a.99576.99576,0,0,1-.67822-.26562L17.35889,19H9a3.00328,3.00328,0,0,1-3-3V9A3.00328,3.00328,0,0,1,9,6H19a3.00328,3.00328,0,0,1,3,3V21a1.00032,1.00032,0,0,1-1,1Z"/><circle cx="6.314" cy="6.314" r="3.314" class="uim-quaternary"/><path class="uim-primary" d="M11,12a.99676.99676,0,0,1-.707-.293L7.94971,9.36426A.99989.99989,0,1,1,9.36377,7.9502L11.707,10.293A1,1,0,0,1,11,12Z"/><path class="uim-quaternary" d="M6.31348,10.626A4.30018,4.30018,0,0,1,3.26367,9.36426h0A4.31742,4.31742,0,1,1,6.31348,10.626ZM4.67773,7.9502A2.314,2.314,0,1,0,4,6.31348,2.31491,2.31491,0,0,0,4.67773,7.9502Z"/></svg>