<svg xmlns="http://www.w3.org/2000/svg" viewBox="0 0 24 24"><path class="uim-quaternary" d="M21.95,11A10.0301,10.0301,0,0,0,13,2.05005C12.67,2.02,12.34,2,12,2s-.67.02-1,.05005A10.0301,10.0301,0,0,0,2.05,11c-.03.33-.05.65991-.05,1s.02.66992.05,1A10.0301,10.0301,0,0,0,11,21.95c.33.03.66.05,1,.05s.67-.02,1-.05A10.0301,10.0301,0,0,0,21.95,13c.03-.33008.05-.66.05-1S21.98,11.33,21.95,11Z"/><path class="uim-tertiary" d="M13 19v2.95c-.33.03-.66.05-1 .05s-.67-.02-1-.05V19a1 1 0 0 1 2 0zM13 2.05005V5a1 1 0 0 1-2 0V2.05005C11.33 2.02 11.66 2 12 2S12.67 2.02 13 2.05005zM6 12a1.00291 1.00291 0 0 1-1 1H2.05c-.03-.33008-.05-.66-.05-1s.02-.67.05-1H5A1.00291 1.00291 0 0 1 6 12zM22 12c0 .34-.02.66992-.05 1H19a1 1 0 0 1 0-2h2.95C21.98 11.33 22 11.65991 22 12z"/><path class="uim-primary" d="M8.46484,16.53516A.99981.99981,0,0,1,7.5459,15.1416L9.667,10.19238a.99462.99462,0,0,1,.52539-.52539L15.1416,7.5459a.99954.99954,0,0,1,1.3125,1.3125L14.333,13.80762a.99462.99462,0,0,1-.52539.52539L8.8584,16.4541A.99319.99319,0,0,1,8.46484,16.53516Z"/></svg>