<svg xmlns="http://www.w3.org/2000/svg" viewBox="0 0 24 24"><path class="uim-primary" d="M12,11a.99676.99676,0,0,1-.707-.293l-2.5-2.5A.99989.99989,0,0,1,10.207,6.793L12,8.58594l1.793-1.793A.99989.99989,0,0,1,15.207,8.207l-2.5,2.5A.99676.99676,0,0,1,12,11Z"/><path class="uim-primary" d="M12 11a.99943.99943 0 0 1-1-1V3a1 1 0 0 1 2 0v7A.99943.99943 0 0 1 12 11zM14.5 17.5a.99676.99676 0 0 1-.707-.293L12 15.41406l-1.793 1.793A.99989.99989 0 0 1 8.793 15.793l2.5-2.5a.99962.99962 0 0 1 1.41406 0l2.5 2.5A1 1 0 0 1 14.5 17.5z"/><path class="uim-primary" d="M12,22a.99943.99943,0,0,1-1-1V14a1,1,0,0,1,2,0v7A.99943.99943,0,0,1,12,22Z"/></svg>