<svg xmlns="http://www.w3.org/2000/svg" data-name="Layer 1" viewBox="0 0 24 24"><path class="uim-quaternary" d="M19,11h0a2,2,0,0,1,2,2h0a2,2,0,0,1-2,2H5a2,2,0,0,1-2-2H3a2,2,0,0,1,2-2H5v-.71057A7.19139,7.19139,0,0,1,11.793,3.003,6.99525,6.99525,0,0,1,19,10Z"/><path class="uim-tertiary" d="M21,13a2.01467,2.01467,0,0,1-2,2H5a2.00591,2.00591,0,0,1-2-2,2.01456,2.01456,0,0,1,2-2v-.71A7.35932,7.35932,0,0,1,9,3.71a6.48978,6.48978,0,0,1,2-.63A5.161,5.161,0,0,1,11.79,3,6.05841,6.05841,0,0,1,13,3.08a6.44492,6.44492,0,0,1,2,.6A6.98146,6.98146,0,0,1,19,10v1A2.00587,2.00587,0,0,1,21,13Z"/><path class="uim-primary" d="M11 3.08V7A1 1 0 0 1 9 7V3.71A6.48978 6.48978 0 0 1 11 3.08zM15 3.68V7a1 1 0 0 1-2 0V3.08A6.44492 6.44492 0 0 1 15 3.68z"/><rect width="18" height="4" x="3" y="11" class="uim-secondary" rx="2"/><path class="uim-quaternary" d="M5,14.9986a6.99881,6.99881,0,0,0,7.21,7,7.1731,7.1731,0,0,0,6.78-7"/></svg>