<svg xmlns="http://www.w3.org/2000/svg" data-name="Layer 1" viewBox="0 0 24 24"><circle cx="12" cy="12" r="10" class="uim-quaternary"/><path class="uim-tertiary" d="M12,22A10,10,0,1,1,22,12,10.01114,10.01114,0,0,1,12,22ZM12,4a8,8,0,1,0,8,8A8.00917,8.00917,0,0,0,12,4Z"/><path class="uim-primary" d="M13,17H11a3.00328,3.00328,0,0,1-3-3V10a3.00328,3.00328,0,0,1,3-3h2a3.00328,3.00328,0,0,1,3,3,1,1,0,0,1-2,0,1.0013,1.0013,0,0,0-1-1H11a1.0013,1.0013,0,0,0-1,1v4a1.0013,1.0013,0,0,0,1,1h2a1.0013,1.0013,0,0,0,1-1,1,1,0,0,1,2,0A3.00328,3.00328,0,0,1,13,17Z"/><path class="uim-tertiary" d="M18.35986,19.35986a.99672.99672,0,0,1-.707-.293L4.93311,6.34717A.99989.99989,0,0,1,6.34717,4.93311L19.06689,17.65283a1,1,0,0,1-.707,1.707Z"/></svg>