<svg xmlns="http://www.w3.org/2000/svg" viewBox="0 0 24 24"><path class="uim-primary" d="M7,22a.99943.99943,0,0,1-1-1V3A1,1,0,0,1,8,3V21A.99943.99943,0,0,1,7,22Z"/><path class="uim-primary" d="M7,12a.99632.99632,0,0,1-.55469-.168l-3-2A1.00028,1.00028,0,0,1,3,9V3A1,1,0,0,1,5,3V8.46484l2,1.333,2-1.333V3a1,1,0,0,1,2,0V9a1.00028,1.00028,0,0,1-.44531.832l-3,2A.99632.99632,0,0,1,7,12Z"/><path class="uim-tertiary" d="M17,14a.99943.99943,0,0,1-1-1V3a1,1,0,0,1,2,0V13A.99943.99943,0,0,1,17,14Z"/><path class="uim-tertiary" d="M17,22c-2.48145,0-4-3.75488-4-5.7998A4.10787,4.10787,0,0,1,17,12a4.10787,4.10787,0,0,1,4,4.2002C21,18.24512,19.48145,22,17,22Z"/></svg>