<svg xmlns="http://www.w3.org/2000/svg" viewBox="0 0 24 24"><path class="uim-tertiary" d="M18,16a.99974.99974,0,0,1-1-1V6H8A1,1,0,0,1,8,4H18a.99974.99974,0,0,1,1,1V15A.99974.99974,0,0,1,18,16Z"/><path class="uim-tertiary" d="M20,14H10a.99974.99974,0,0,1-1-1V3a1,1,0,0,1,2,0v9h9a1,1,0,0,1,0,2Z"/><path class="uim-primary" d="M11.707,18.293l-2-2A.99989.99989,0,0,0,8.293,17.707l.293.293H8a3.00328,3.00328,0,0,1-3-3V13a1,1,0,0,0-2,0v2a5.00588,5.00588,0,0,0,5,5h.58594l-.293.293A.99989.99989,0,1,0,9.707,21.707l2-2A.99962.99962,0,0,0,11.707,18.293Z"/></svg>