<svg xmlns="http://www.w3.org/2000/svg" viewBox="0 0 24 24"><path class="uim-tertiary" d="M16,20H6a.99974.99974,0,0,1-1-1V9A1,1,0,0,1,7,9v9h9a1,1,0,0,1,0,2Z"/><path class="uim-tertiary" d="M14,22a.99974.99974,0,0,1-1-1V12H4a1,1,0,0,1,0-2H14a.99974.99974,0,0,1,1,1V21A.99974.99974,0,0,1,14,22Z"/><path class="uim-primary" d="M16,4h-.58594l.293-.293A.99989.99989,0,1,0,14.293,2.293l-2,2a.99962.99962,0,0,0,0,1.41406l2,2A.99989.99989,0,0,0,15.707,6.293L15.41406,6H16a3.00328,3.00328,0,0,1,3,3v2a1,1,0,0,0,2,0V9A5.00588,5.00588,0,0,0,16,4Z"/></svg>