<svg xmlns="http://www.w3.org/2000/svg" viewBox="0 0 24 24"><path class="uim-quaternary" d="M21.95,11a9.98051,9.98051,0,0,0-2.21-5.33,11.73278,11.73278,0,0,0-1.41-1.41A9.9807,9.9807,0,0,0,13,2.05c-.33-.03-.66-.05-1-.05s-.67.02-1,.05A9.9807,9.9807,0,0,0,5.67,4.26,11.73278,11.73278,0,0,0,4.26,5.67,9.98051,9.98051,0,0,0,2.05,11c-.03.33-.05.66-.05,1s.02.67.05,1a10.00015,10.00015,0,0,0,19.9,0c.03-.33.05-.66.05-1S21.98,11.33,21.95,11Z"/><path class="uim-tertiary" d="M2.84082,16a9.99088,9.99088,0,0,0,18.31836,0Z"/><path class="uim-primary" d="M12,15a.99974.99974,0,0,1-1-1V7a1,1,0,0,1,2,0v7A.99974.99974,0,0,1,12,15Z"/><path class="uim-tertiary" d="M19.74 5.67a11.73278 11.73278 0 0 0-1.41-1.41l-.00251-.00177-.67065.67065A1 1 0 0 0 19.071 6.34314l.67072-.67072zM12 4a1.003 1.003 0 0 0 1-1V2.05c-.33-.03-.66-.05-1-.05s-.67.02-1 .05V3A1.003 1.003 0 0 0 12 4zM4 12a1.003 1.003 0 0 0-1-1H2.05c-.03.33-.05.66-.05 1s.02.67.05 1H3A1.003 1.003 0 0 0 4 12zM4.929 6.34314A1 1 0 1 0 6.34314 4.92889l-.67065-.67065L5.67 4.26A11.73278 11.73278 0 0 0 4.26 5.67l-.00177.00244zM21.95 11H21a1 1 0 0 0 0 2h.95c.03-.33.05-.66.05-1S21.98 11.33 21.95 11z"/><path class="uim-primary" d="M12,17.5A2.5,2.5,0,1,1,14.5,15,2.50273,2.50273,0,0,1,12,17.5Z"/></svg>