<svg xmlns="http://www.w3.org/2000/svg" data-name="Layer 1" viewBox="0 0 24 24"><path class="uim-primary" d="M5 12a.99974.99974 0 0 1-1-1V7A3.00328 3.00328 0 0 1 7 4h5a1 1 0 0 1 0 2H7A1.001 1.001 0 0 0 6 7v4A.99974.99974 0 0 1 5 12zM17 20H14a1 1 0 0 1 0-2h3a1.001 1.001 0 0 0 1-1V14a1 1 0 0 1 2 0v3A3.00328 3.00328 0 0 1 17 20z"/><path class="uim-tertiary" d="M19.333 11H12a3.00015 3.00015 0 0 1-.92676-5.85352 4.99846 4.99846 0 0 1 9.44824-1.27587A3.66311 3.66311 0 0 1 19.333 11zM11.333 23H4a3.00015 3.00015 0 0 1-.92676-5.85352 4.99846 4.99846 0 0 1 9.44824-1.27587A3.66311 3.66311 0 0 1 11.333 23z"/></svg>