<svg xmlns="http://www.w3.org/2000/svg" viewBox="0 0 24 24"><path class="uim-tertiary" d="M16,22H8a4.004,4.004,0,0,1-4-4V12a.99943.99943,0,0,1,1-1H19a.99943.99943,0,0,1,1,1v6A4.004,4.004,0,0,1,16,22Z"/><path class="uim-quaternary" d="M16,16H8a4.004,4.004,0,0,1-4-4V6A.99943.99943,0,0,1,5,5H19a.99943.99943,0,0,1,1,1v6A4.004,4.004,0,0,1,16,16Z"/><circle cx="8" cy="13" r="1" class="uim-primary"/><circle cx="8" cy="19" r="1" class="uim-primary"/><path class="uim-tertiary" d="M16,10H8A4,4,0,0,1,8,2h8a4,4,0,0,1,0,8Z"/></svg>