<svg xmlns="http://www.w3.org/2000/svg" viewBox="0 0 24 24"><path class="uim-tertiary" d="M12,22c-3.97559,0-8-1.374-8-4V12a.99943.99943,0,0,1,1-1H19a.99943.99943,0,0,1,1,1v6C20,20.626,15.97559,22,12,22Z"/><path class="uim-quaternary" d="M12,16c-3.97559,0-8-1.374-8-4V6A.99943.99943,0,0,1,5,5H19a.99943.99943,0,0,1,1,1v6C20,14.626,15.97559,16,12,16Z"/><circle cx="8" cy="18.5" r="1" class="uim-primary"/><circle cx="8" cy="12.5" r="1" class="uim-primary"/><path class="uim-tertiary" d="M12,10C8.02441,10,4,8.626,4,6s4.02441-4,8-4,8,1.374,8,4S15.97559,10,12,10Z"/></svg>