<svg xmlns="http://www.w3.org/2000/svg" data-name="Layer 1" viewBox="0 0 24 24"><path class="uim-primary" d="M17,20H7a1,1,0,0,1,0-2H17a1,1,0,0,1,0,2Z"/><path class="uim-primary" d="M12,20a.99974.99974,0,0,1-1-1V15a1,1,0,0,1,2,0v4A.99974.99974,0,0,1,12,20Z"/><path class="uim-tertiary" d="M18,16H6a3.00328,3.00328,0,0,1-3-3V7A3.00328,3.00328,0,0,1,6,4H18a3.00328,3.00328,0,0,1,3,3v6A3.00328,3.00328,0,0,1,18,16Z"/><path class="uim-primary" d="M21,22a.99676.99676,0,0,1-.707-.293l-18-18A.99989.99989,0,0,1,3.707,2.293l18,18A1,1,0,0,1,21,22Z"/></svg>