<svg xmlns="http://www.w3.org/2000/svg" data-name="Layer 1" viewBox="0 0 24 24"><rect width="8" height="6" x="8" y="16" class="uim-tertiary"/><rect width="20" height="16" x="2" y="2" class="uim-tertiary" rx="3"/><path class="uim-primary" d="M2,13H22a0,0,0,0,1,0,0v2a3,3,0,0,1-3,3H5a3,3,0,0,1-3-3V13A0,0,0,0,1,2,13Z"/><path class="uim-quaternary" d="M10,10H4.5a2.50014,2.50014,0,0,1-.91406-4.82715,3.99971,3.99971,0,0,1,7.48633-.9707A2.99764,2.99764,0,0,1,10,10Z"/><path class="uim-primary" d="M19,22H5a1,1,0,0,1,0-2H19a1,1,0,0,1,0,2Z"/></svg>