<svg xmlns="http://www.w3.org/2000/svg" data-name="Layer 1" viewBox="0 0 24 24"><path class="uim-tertiary" d="M14,21H10a.99943.99943,0,0,1-1-1V16a.99943.99943,0,0,1,1-1h4a.99943.99943,0,0,1,1,1v4A.99943.99943,0,0,1,14,21Z"/><path class="uim-quaternary" d="M18,17H6a3.00328,3.00328,0,0,1-3-3V6A3.00328,3.00328,0,0,1,6,3H18a3.00328,3.00328,0,0,1,3,3v8A3.00328,3.00328,0,0,1,18,17Z"/><path class="uim-secondary" d="M18 17H6a3 3 0 0 1-3-3V12H21v2A3 3 0 0 1 18 17zM18 21H6a1 1 0 0 1 0-2H18a1 1 0 0 1 0 2z"/><path class="uim-primary" d="M21,22a.99676.99676,0,0,1-.707-.293l-18-18A.99989.99989,0,0,1,3.707,2.293l18,18A1,1,0,0,1,21,22Z"/></svg>