<svg xmlns="http://www.w3.org/2000/svg" data-name="Layer 1" viewBox="0 0 24 24"><path class="uim-primary" d="M7.00439,21.99854a.99985.99985,0,0,1-1-.99756L6,19.00391a.99985.99985,0,0,1,.99805-1.00245H7A.99985.99985,0,0,1,8,18.999l.00439,1.99707a.99974.99974,0,0,1-.99755,1.00245Z"/><path class="uim-tertiary" d="M17,20.00146H5a1,1,0,0,1-1-1v-16a1.00005,1.00005,0,0,1,1-1H17a3.00328,3.00328,0,0,1,3,3v12A3.00328,3.00328,0,0,1,17,20.00146Z"/><rect width="2" height="18" x="14" y="2.001" class="uim-quaternary"/></svg>