<svg xmlns="http://www.w3.org/2000/svg" viewBox="0 0 24 24"><g data-name="Brand Logos"><circle cx="11.97" cy="11.97" r="9" class="uim-tertiary"/><path class="uim-primary" d="M2,12A9.79609,9.79609,0,0,1,3.34,6.98,9.92911,9.92911,0,0,1,6.98,3.34,9.79594,9.79594,0,0,1,12,2a9.79584,9.79584,0,0,1,5.02,1.34,9.92881,9.92881,0,0,1,3.64,3.64A9.79589,9.79589,0,0,1,22,12a9.79589,9.79589,0,0,1-1.34,5.02,9.92881,9.92881,0,0,1-3.64,3.64A9.79584,9.79584,0,0,1,12,22a9.79594,9.79594,0,0,1-5.02-1.34,9.92911,9.92911,0,0,1-3.64-3.64A9.79609,9.79609,0,0,1,2,12Zm1.66,0a8.06394,8.06394,0,0,0,2.1,5.5A11.44516,11.44516,0,0,1,8.8,13.92a9.94249,9.94249,0,0,1,4.06-2.14q-.3-.7-.58-1.26a24.30053,24.30053,0,0,1-7.44,1.1q-.78,0-1.16-.02,0,.08-.01.2T3.66,12Zm.26-2.06q.44.04,1.3.04a21.94962,21.94962,0,0,0,6.34-.9,20.25135,20.25135,0,0,0-3.34-4.5A8.11915,8.11915,0,0,0,5.51,6.8,8.53884,8.53884,0,0,0,3.92,9.94ZM6.9,18.58a8.17264,8.17264,0,0,0,8.04,1.2,29.36773,29.36773,0,0,0-1.56-6.62,8.52967,8.52967,0,0,0-3.71,2.02A11.34515,11.34515,0,0,0,6.9,18.58ZM9.96,3.94a21.25371,21.25371,0,0,1,3.26,4.54,9.96041,9.96041,0,0,0,4.1-2.9A8.1072,8.1072,0,0,0,12,3.66,7.67671,7.67671,0,0,0,9.96,3.94ZM13.94,9.9q.3.64.68,1.62,1.48-.14,3.22-.14,1.24,0,2.46.06A8.0295,8.0295,0,0,0,18.34,6.6,9.896,9.896,0,0,1,13.94,9.9Zm1.18,3.02A28.70665,28.70665,0,0,1,16.5,19a8.34463,8.34463,0,0,0,2.58-2.62,8.078,8.078,0,0,0,1.2-3.46q-1.46-.1-2.66-.1Q16.52,12.82,15.12,12.92Z"/></g></svg>