<svg xmlns="http://www.w3.org/2000/svg" data-name="Layer 1" viewBox="0 0 24 24"><path class="uim-primary" d="M9,9H3A1,1,0,0,1,3,7H9A1,1,0,0,1,9,9Z"/><path class="uim-tertiary" d="M9 14a.99943.99943 0 0 1-1-1V7a1 1 0 0 1 2 0v6A.99943.99943 0 0 1 9 14zM17 20H15a.99943.99943 0 0 1-1-1V11a.99943.99943 0 0 1 1-1h4a.99943.99943 0 0 1 1 1v6A3.00328 3.00328 0 0 1 17 20z"/><path class="uim-quaternary" d="M19,12H9a.99943.99943,0,0,1-1-1V5A.99943.99943,0,0,1,9,4H19a3.00328,3.00328,0,0,1,3,3V9A3.00328,3.00328,0,0,1,19,12Z"/><path class="uim-tertiary" d="M16,4V7a1,1,0,0,0,2,0V4Z"/></svg>