<svg xmlns="http://www.w3.org/2000/svg" viewBox="0 0 24 24"><path class="uim-primary" d="M4.41181,20.58819a1,1,0,0,1-.707-1.707L18.88116,3.70478a.99989.99989,0,0,1,1.41406,1.41406L5.11884,20.29522A.99672.99672,0,0,1,4.41181,20.58819Z"/><path class="uim-quaternary" d="M7.24283,20.58579a.99676.99676,0,0,1-.707-.293L3.70718,17.46469a.99989.99989,0,0,1,1.41406-1.41406l2.82862,2.82813a1,1,0,0,1-.707,1.707Z"/><path class="uim-tertiary" d="M10.07129,20.58594a.99676.99676,0,0,1-.707-.293L3.707,14.63574a.99989.99989,0,1,1,1.41406-1.41406l5.65723,5.65723a1,1,0,0,1-.707,1.707Z"/><path class="uim-quaternary" d="M19.58579,8.24234a.99676.99676,0,0,1-.707-.293L16.05014,5.12124A.99989.99989,0,0,1,17.4642,3.70718l2.82862,2.82813a1,1,0,0,1-.707,1.707Z"/><path class="uim-tertiary" d="M19.58594,11.07129a.99676.99676,0,0,1-.707-.293L13.22168,5.12109A.99989.99989,0,1,1,14.63574,3.707L20.293,9.36426a1,1,0,0,1-.707,1.707Z"/></svg>