<svg xmlns="http://www.w3.org/2000/svg" data-name="Layer 1" viewBox="0 0 24 24"><path class="uim-quaternary" d="M21.2,6.71A2.99174,2.99174,0,0,0,18.5,5H4.5A2.99174,2.99174,0,0,0,1.8,6.71,2.94761,2.94761,0,0,0,1.5,8V18a3.00887,3.00887,0,0,0,3,3h14a3.00887,3.00887,0,0,0,3-3V8A2.94761,2.94761,0,0,0,21.2,6.71Z"/><path class="uim-tertiary" d="M21.2,6.71,13.62,14.29a2.99392,2.99392,0,0,1-4.24,0L1.8,6.71A2.99174,2.99174,0,0,1,4.5,5h14A2.99174,2.99174,0,0,1,21.2,6.71Z"/><path class="uim-primary" d="M17.67188,12a.99929.99929,0,0,1-.707-.293L13.793,8.53613a3.24324,3.24324,0,0,1,3.87793-5.123,3.3161,3.3161,0,0,1,3.8789.53662,3.24586,3.24586,0,0,1,0,4.58593L18.37891,11.707A.9993.9993,0,0,1,17.67188,12Z"/></svg>