<svg xmlns="http://www.w3.org/2000/svg" data-name="Layer 1" viewBox="0 0 24 24"><path class="uim-quaternary" d="M21.7,5.71A2.99174,2.99174,0,0,0,19,4H5A2.99174,2.99174,0,0,0,2.3,5.71,2.94761,2.94761,0,0,0,2,7V17a3.00887,3.00887,0,0,0,3,3H19a3.00887,3.00887,0,0,0,3-3V7A2.94761,2.94761,0,0,0,21.7,5.71Z"/><path class="uim-tertiary" d="M21.7,5.71,14.12,13.29a2.99392,2.99392,0,0,1-4.24,0L2.3,5.71A2.99174,2.99174,0,0,1,5,4H19A2.99174,2.99174,0,0,1,21.7,5.71Z"/><path class="uim-primary" d="M21,6H17a1,1,0,0,1,0-2h4a1,1,0,0,1,0,2Z"/></svg>