<svg xmlns="http://www.w3.org/2000/svg" data-name="Layer 1" viewBox="0 0 24 24"><path class="uim-quaternary" d="M21.7,7.96774a2.99174,2.99174,0,0,0-2.7-1.71H5a2.99174,2.99174,0,0,0-2.7,1.71,2.94761,2.94761,0,0,0-.3,1.29v10a3.00887,3.00887,0,0,0,3,3H19a3.00887,3.00887,0,0,0,3-3v-10A2.94761,2.94761,0,0,0,21.7,7.96774Z"/><path class="uim-tertiary" d="M21.7,7.96774l-7.58,7.58008a2.99392,2.99392,0,0,1-4.24,0L2.3,7.96774a2.99174,2.99174,0,0,1,2.7-1.71H19A2.99174,2.99174,0,0,1,21.7,7.96774Z"/><path class="uim-primary" d="M21,13.25781a.999.999,0,0,1-.58691-.19043L18.5,11.78516l-1.93164,1.29492A1.0019,1.0019,0,0,1,15,12.25781v-8a.99974.99974,0,0,1,1-1h5a.99974.99974,0,0,1,1,1v8a1.00011,1.00011,0,0,1-1,1Z"/></svg>