<svg xmlns="http://www.w3.org/2000/svg" data-name="Layer 1" viewBox="0 0 24 24"><path class="uim-quaternary" d="M21.7,7.96774a2.99174,2.99174,0,0,0-2.7-1.71H5a2.99174,2.99174,0,0,0-2.7,1.71,2.94761,2.94761,0,0,0-.3,1.29v10a3.00887,3.00887,0,0,0,3,3H19a3.00887,3.00887,0,0,0,3-3v-10A2.94761,2.94761,0,0,0,21.7,7.96774Z"/><path class="uim-tertiary" d="M21.7,7.96774l-7.58,7.58008a2.99392,2.99392,0,0,1-4.24,0L2.3,7.96774a2.99174,2.99174,0,0,1,2.7-1.71H19A2.99174,2.99174,0,0,1,21.7,7.96774Z"/><path class="uim-primary" d="M14.8418,13.25781a1.48791,1.48791,0,0,1-.86133-.27588,1.53141,1.53141,0,0,1-.627-1.50927l.28515-1.73243L12.44043,8.52051a1.53976,1.53976,0,0,1-.36035-1.57324,1.50893,1.50893,0,0,1,1.206-1.02393l1.6211-.24609.73144-1.54981A1.49974,1.49974,0,0,1,18.36035,4.126l.73242,1.55127,1.6211.24609a1.50893,1.50893,0,0,1,1.20605,1.02393,1.53809,1.53809,0,0,1-.36133,1.57324L20.36133,9.74023l.28418,1.73194a1.52933,1.52933,0,0,1-.626,1.50976,1.47984,1.47984,0,0,1-1.58105.08985L17,12.28223l-1.43848.78955A1.4918,1.4918,0,0,1,14.8418,13.25781Zm1.9209-1.98633h0Z"/></svg>