<svg xmlns="http://www.w3.org/2000/svg" data-name="Layer 1" viewBox="0 0 24 24"><path class="uim-quaternary" d="M21.7,7.21A2.99174,2.99174,0,0,0,19,5.5H5A2.99174,2.99174,0,0,0,2.3,7.21,2.94761,2.94761,0,0,0,2,8.5v10a3.00887,3.00887,0,0,0,3,3H19a3.00887,3.00887,0,0,0,3-3V8.5A2.94761,2.94761,0,0,0,21.7,7.21Z"/><path class="uim-tertiary" d="M21.7,7.21,14.12,14.79a2.99392,2.99392,0,0,1-4.24,0L2.3,7.21A2.99174,2.99174,0,0,1,5,5.5H19A2.99174,2.99174,0,0,1,21.7,7.21Z"/><path class="uim-primary" d="M21 11.5a.99974.99974 0 0 1-1-1v-4a1 1 0 0 1 2 0v4A.99974.99974 0 0 1 21 11.5zM21 4.5a1.05232 1.05232 0 0 1-.71-.29 1.01394 1.01394 0 0 1 0-1.41992 1.04669 1.04669 0 0 1 1.41992 0A1.05234 1.05234 0 0 1 22 3.5a1.2596 1.2596 0 0 1-.02051.19971.61936.61936 0 0 1-.05957.18017.56235.56235 0 0 1-.08984.16992c-.04.06006-.08008.10987-.12012.16016A1.05421 1.05421 0 0 1 21 4.5z"/></svg>