<svg xmlns="http://www.w3.org/2000/svg" data-name="Layer 1" viewBox="0 0 24 24"><path class="uim-quaternary" d="M21.7,7.21A2.99174,2.99174,0,0,0,19,5.5H5A2.99174,2.99174,0,0,0,2.3,7.21,2.94761,2.94761,0,0,0,2,8.5v10a3.00887,3.00887,0,0,0,3,3H19a3.00887,3.00887,0,0,0,3-3V8.5A2.94761,2.94761,0,0,0,21.7,7.21Z"/><path class="uim-tertiary" d="M21.7,7.21,14.12,14.79a2.99392,2.99392,0,0,1-4.24,0L2.3,7.21A2.99174,2.99174,0,0,1,5,5.5H19A2.99174,2.99174,0,0,1,21.7,7.21Z"/><path class="uim-quaternary" d="M21.7,7.21A2.99174,2.99174,0,0,0,19,5.5H5A2.99174,2.99174,0,0,0,2.3,7.21,2.94761,2.94761,0,0,0,2,8.5v10a3.00887,3.00887,0,0,0,3,3H19a3.00887,3.00887,0,0,0,3-3V8.5A2.94761,2.94761,0,0,0,21.7,7.21Z"/><path class="uim-tertiary" d="M21.7,7.21,14.12,14.79a2.99392,2.99392,0,0,1-4.24,0L2.3,7.21A2.99174,2.99174,0,0,1,5,5.5H19A2.99174,2.99174,0,0,1,21.7,7.21Z"/><path class="uim-primary" d="M19 8.5a1 1 0 0 1 0-2 1 1 0 1 0-.86719-1.49951.99956.99956 0 1 1-1.73047-1.001A3 3 0 1 1 19 8.5zM19 11.5a1.39 1.39 0 0 1-.2002-.02.64867.64867 0 0 1-.17968-.06006.762.762 0 0 1-.18067-.09033A1.52675 1.52675 0 0 1 18.29 11.21a1.01394 1.01394 0 1 1 .71.29z"/></svg>