<svg xmlns="http://www.w3.org/2000/svg" data-name="Layer 1" viewBox="0 0 24 24"><path class="uim-quaternary" d="M21.2,7.71A2.99174,2.99174,0,0,0,18.5,6H4.5A2.99174,2.99174,0,0,0,1.8,7.71,2.94761,2.94761,0,0,0,1.5,9V19a3.00887,3.00887,0,0,0,3,3h14a3.00887,3.00887,0,0,0,3-3V9A2.94761,2.94761,0,0,0,21.2,7.71Z"/><path class="uim-tertiary" d="M21.2,7.71,13.62,15.29a2.99392,2.99392,0,0,1-4.24,0L1.8,7.71A2.99174,2.99174,0,0,1,4.5,6h14A2.99174,2.99174,0,0,1,21.2,7.71Z"/><path class="uim-primary" d="M18.5,12a1,1,0,0,1-1-1V3a1,1,0,0,1,2,0v8A1,1,0,0,1,18.5,12Z"/><path class="uim-primary" d="M21.5,7a.99676.99676,0,0,1-.707-.293L18.5,4.41406,16.207,6.707A.99989.99989,0,0,1,14.793,5.293l3-3a.99962.99962,0,0,1,1.41406,0l3,3A1,1,0,0,1,21.5,7Z"/></svg>