<svg xmlns="http://www.w3.org/2000/svg" data-name="Layer 1" viewBox="0 0 24 24"><path class="uim-quaternary" d="M21.7,7.21A2.99174,2.99174,0,0,0,19,5.5H5A2.99174,2.99174,0,0,0,2.3,7.21,2.94761,2.94761,0,0,0,2,8.5v10a3.00887,3.00887,0,0,0,3,3H19a3.00887,3.00887,0,0,0,3-3V8.5A2.94761,2.94761,0,0,0,21.7,7.21Z"/><path class="uim-tertiary" d="M21.7,7.21,14.12,14.79a2.99392,2.99392,0,0,1-4.24,0L2.3,7.21A2.99174,2.99174,0,0,1,5,5.5H19A2.99174,2.99174,0,0,1,21.7,7.21Z"/><path class="uim-primary" d="M21 8.5a.99974.99974 0 0 1-1-1v-4a1 1 0 0 1 2 0v4A.99974.99974 0 0 1 21 8.5zM21 11.5a1.05232 1.05232 0 0 1-.71-.29 1.68289 1.68289 0 0 1-.12012-.1499.73875.73875 0 0 1-.08984-.18018.61772.61772 0 0 1-.06055-.18994A1.25354 1.25354 0 0 1 20 10.5a1.0478 1.0478 0 0 1 .29-.71l.14941-.12012a.762.762 0 0 1 .18067-.09033A.63174.63174 0 0 1 20.7998 9.52.99333.99333 0 0 1 22 10.5a1.14133 1.14133 0 0 1-.02051.18994.5911.5911 0 0 1-.05957.18994.77556.77556 0 0 1-.08984.18018c-.04.0498-.08008.09961-.12012.1499A1.05421 1.05421 0 0 1 21 11.5z"/></svg>