<svg xmlns="http://www.w3.org/2000/svg" data-name="Layer 1" viewBox="0 0 24 24"><path class="uim-quaternary" d="M16,22H8a3.00328,3.00328,0,0,1-3-3V14a3.00328,3.00328,0,0,1,3-3h8a3.00328,3.00328,0,0,1,3,3v5A3.00328,3.00328,0,0,1,16,22Z"/><path class="uim-primary" d="M12,9a1,1,0,0,1-1-1V3a1,1,0,0,1,2,0V8A1,1,0,0,1,12,9Z"/><path class="uim-primary" d="M14,6a.99676.99676,0,0,1-.707-.293L12,4.41406,10.707,5.707A.99989.99989,0,0,1,9.293,4.293l2-2a.99962.99962,0,0,1,1.41406,0l2,2A1,1,0,0,1,14,6Z"/><path class="uim-tertiary" d="M16,11H8a3.02828,3.02828,0,0,0-2.65,1.59l4.53,4.52A2.98246,2.98246,0,0,0,12,18a3.01465,3.01465,0,0,0,2.12-.88l4.53-4.53A3.02828,3.02828,0,0,0,16,11Z"/></svg>