<svg xmlns="http://www.w3.org/2000/svg" data-name="Layer 1" viewBox="0 0 24 24"><path class="uim-quaternary" d="M21.2,7.71A2.99174,2.99174,0,0,0,18.5,6H4.5A2.99174,2.99174,0,0,0,1.8,7.71,2.94761,2.94761,0,0,0,1.5,9V19a3.00887,3.00887,0,0,0,3,3h14a3.00887,3.00887,0,0,0,3-3V9A2.94761,2.94761,0,0,0,21.2,7.71Z"/><path class="uim-tertiary" d="M21.2,7.71,13.62,15.29a2.99392,2.99392,0,0,1-4.24,0L1.8,7.71A2.99174,2.99174,0,0,1,4.5,6h14A2.99174,2.99174,0,0,1,21.2,7.71Z"/><path class="uim-primary" d="M18.5,12a1,1,0,0,1-1-1V3a1,1,0,0,1,2,0v8A1,1,0,0,1,18.5,12Z"/><path class="uim-primary" d="M18.5,12a.99676.99676,0,0,1-.707-.293l-3-3A.99989.99989,0,0,1,16.207,7.293l2.293,2.293,2.293-2.293A.99989.99989,0,0,1,22.207,8.707l-3,3A.99676.99676,0,0,1,18.5,12Z"/></svg>