<svg xmlns="http://www.w3.org/2000/svg" data-name="Layer 1" viewBox="0 0 24 24"><path class="uim-quaternary" d="M21.2,7.96774a2.99174,2.99174,0,0,0-2.7-1.71H4.5a2.99174,2.99174,0,0,0-2.7,1.71,2.94761,2.94761,0,0,0-.3,1.29v10a3.00887,3.00887,0,0,0,3,3h14a3.00887,3.00887,0,0,0,3-3v-10A2.94761,2.94761,0,0,0,21.2,7.96774Z"/><path class="uim-tertiary" d="M21.2,7.96774l-7.58,7.58008a2.99392,2.99392,0,0,1-4.24,0L1.8,7.96774a2.99174,2.99174,0,0,1,2.7-1.71h14A2.99174,2.99174,0,0,1,21.2,7.96774Z"/><path class="uim-quaternary" d="M19.5,9.25781h-4a.99974.99974,0,0,1-1-1v-2a3,3,0,1,1,6,0v2A.99974.99974,0,0,1,19.5,9.25781Zm-3-2h2v-1a1,1,0,1,0-2,0Z"/><path class="uim-primary" d="M19.5,15.25781h-4a3.00328,3.00328,0,0,1-3-3v-2a3.00328,3.00328,0,0,1,3-3h4a3.00328,3.00328,0,0,1,3,3v2A3.00328,3.00328,0,0,1,19.5,15.25781Z"/></svg>