<svg xmlns="http://www.w3.org/2000/svg" data-name="Layer 1" viewBox="0 0 24 24"><path class="uim-quaternary" d="M21.7,7.19845a2.99175,2.99175,0,0,0-2.7-1.71H5a2.99175,2.99175,0,0,0-2.7,1.71,2.94761,2.94761,0,0,0-.3,1.29v10a3.00886,3.00886,0,0,0,3,3H19a3.00886,3.00886,0,0,0,3-3v-10A2.94761,2.94761,0,0,0,21.7,7.19845Z"/><path class="uim-tertiary" d="M21.7,7.19845l-7.58,7.58008a2.9939,2.9939,0,0,1-4.24,0L2.3,7.19845a2.99175,2.99175,0,0,1,2.7-1.71H19A2.99175,2.99175,0,0,1,21.7,7.19845Z"/><path class="uim-primary" d="M16.41992,11.51172H14a1.00005,1.00005,0,0,1-1-1V8.09131a1.00012,1.00012,0,0,1,.293-.707l4.58008-4.57959a.99962.99962,0,0,1,1.41406,0L21.707,5.22461a.99962.99962,0,0,1,0,1.41406L17.127,11.21875A1.00012,1.00012,0,0,1,16.41992,11.51172Z"/></svg>