<svg xmlns="http://www.w3.org/2000/svg" data-name="Layer 1" viewBox="0 0 24 24"><path class="uim-quaternary" d="M20.7,7.71A2.99174,2.99174,0,0,0,18,6H4A2.99174,2.99174,0,0,0,1.3,7.71,2.94761,2.94761,0,0,0,1,9V19a3.00887,3.00887,0,0,0,3,3H18a3.00887,3.00887,0,0,0,3-3V9A2.94761,2.94761,0,0,0,20.7,7.71Z"/><path class="uim-tertiary" d="M20.7,7.71,13.12,15.29a2.99392,2.99392,0,0,1-4.24,0L1.3,7.71A2.99174,2.99174,0,0,1,4,6H18A2.99174,2.99174,0,0,1,20.7,7.71Z"/><path class="uim-primary" d="M14.68066,8.59082a1.00019,1.00019,0,0,1-.41894-1.90869l4.50683-2.07324a1.00021,1.00021,0,0,1,.83594,1.81738L15.09766,8.49951A1.00039,1.00039,0,0,1,14.68066,8.59082Z"/><path class="uim-primary" d="M19.18555,10.66406a1.00023,1.00023,0,0,1-.417-.09131L14.26172,8.49951a1.00021,1.00021,0,0,1,.83594-1.81738l4.50683,2.07324a1.00019,1.00019,0,0,1-.41894,1.90869Z"/><circle cx="20" cy="5" r="2" class="uim-primary"/><circle cx="15" cy="7.5" r="2" class="uim-primary"/><circle cx="20" cy="10" r="2" class="uim-primary"/></svg>