<svg xmlns="http://www.w3.org/2000/svg" data-name="Layer 1" viewBox="0 0 24 24"><path class="uim-quaternary" d="M21.7,7.96774a2.99174,2.99174,0,0,0-2.7-1.71H5a2.99174,2.99174,0,0,0-2.7,1.71,2.94761,2.94761,0,0,0-.3,1.29v10a3.00887,3.00887,0,0,0,3,3H19a3.00887,3.00887,0,0,0,3-3v-10A2.94761,2.94761,0,0,0,21.7,7.96774Z"/><path class="uim-tertiary" d="M21.7,7.96774l-7.58,7.58008a2.99392,2.99392,0,0,1-4.24,0L2.3,7.96774a2.99174,2.99174,0,0,1,2.7-1.71H19A2.99174,2.99174,0,0,1,21.7,7.96774Z"/><path class="uim-primary" d="M18,14.26562a.99809.99809,0,0,1-.59473-.19628l-1.56445-1.1587A4.6087,4.6087,0,0,1,14,9.21387V5.8999a1.00026,1.00026,0,0,1,1.21191-.97754,2.74369,2.74369,0,0,0,2.20118-.46679,1.00278,1.00278,0,0,1,1.17382,0,2.7374,2.7374,0,0,0,2.20118.46679A1.00026,1.00026,0,0,1,22,5.8999v3.314a4.609,4.609,0,0,1-1.83984,3.69629l-1.56543,1.15918A.99809.99809,0,0,1,18,14.26562Z"/></svg>