<svg xmlns="http://www.w3.org/2000/svg" data-name="Layer 1" viewBox="0 0 24 24"><path class="uim-quaternary" d="M21.2,7.71A2.99174,2.99174,0,0,0,18.5,6H4.5A2.99174,2.99174,0,0,0,1.8,7.71,2.94761,2.94761,0,0,0,1.5,9V19a3.00887,3.00887,0,0,0,3,3h14a3.00887,3.00887,0,0,0,3-3V9A2.94761,2.94761,0,0,0,21.2,7.71Z"/><path class="uim-tertiary" d="M21.2,7.71,13.62,15.29a2.99392,2.99392,0,0,1-4.24,0L1.8,7.71A2.99174,2.99174,0,0,1,4.5,6h14A2.99174,2.99174,0,0,1,21.2,7.71Z"/><path class="uim-primary" d="M16.81348,10.62744a4.28484,4.28484,0,0,1-3.04981-1.26367h0a4.3127,4.3127,0,1,1,3.04981,1.26367Zm0-6.62744a2.31364,2.31364,0,0,0-1.63575,3.94971h0a2.36829,2.36829,0,0,0,3.272,0A2.31372,2.31372,0,0,0,16.81348,4Z"/><path class="uim-primary" d="M21.5,12a.99676.99676,0,0,1-.707-.293L18.44971,9.36377a.99989.99989,0,1,1,1.41406-1.41406L22.207,10.293A1,1,0,0,1,21.5,12Z"/></svg>