<svg xmlns="http://www.w3.org/2000/svg" data-name="Layer 1" viewBox="0 0 24 24"><path class="uim-quaternary" d="M18.78076,10.21973a1,1,0,0,1,1.38965-1.43848A2.66579,2.66579,0,0,1,21,10.71v8.5752A2.7499,2.7499,0,0,1,18.22217,22H5.77783A2.7499,2.7499,0,0,1,3,19.28516V10.71a2.63511,2.63511,0,0,1,.83984-1.93848,1,1,0,1,1,1.36914,1.458"/><path class="uim-tertiary" d="M15.91992 18.56982a.99732.99732 0 0 1-.69433-.28027l-2.39991-2.31543a1.00006 1.00006 0 1 1 1.38868-1.43945l2.3999 2.31543a1 1 0 0 1-.69434 1.71972zM8.08008 18.56982a1 1 0 0 1-.69287-1.7207L9.7959 14.53369a.99974.99974 0 0 1 1.38574 1.44141L8.773 18.29053A.9959.9959 0 0 1 8.08008 18.56982z"/><path class="uim-tertiary" d="M12,16.99805a2.80308,2.80308,0,0,1-1.95166-.7793L3.83008,10.22021a1.00016,1.00016,0,0,1,0-1.43945l6.21875-5.99805a2.83386,2.83386,0,0,1,3.90283.00049l6.21826,5.99854a1.00016,1.00016,0,0,1,0,1.43945l-6.21875,5.998A2.80358,2.80358,0,0,1,12,16.99805Z"/><path class="uim-secondary" d="M3.52454,9.501a.99986.99986,0,0,0,.30554.71917l6.21826,5.99854a2.83353,2.83353,0,0,0,3.90283.00049l6.21875-5.998a1.00019,1.00019,0,0,0,.30567-.71973L20.47552,9.501Z"/></svg>