<svg xmlns="http://www.w3.org/2000/svg" data-name="Layer 1" viewBox="0 0 24 24"><path class="uim-tertiary" d="M21.7,7.338A2.99174,2.99174,0,0,0,19,5.628H5a2.99174,2.99174,0,0,0-2.7,1.71A2.94761,2.94761,0,0,0,2,8.628v10a3.00887,3.00887,0,0,0,3,3H19a3.00887,3.00887,0,0,0,3-3v-10A2.94761,2.94761,0,0,0,21.7,7.338Z"/><path class="uim-primary" d="M21.7,7.338,14.12,14.918a2.99392,2.99392,0,0,1-4.24,0L2.3,7.338A2.99174,2.99174,0,0,1,5,5.628H19A2.99174,2.99174,0,0,1,21.7,7.338Z"/><path class="uim-quaternary" d="M23.7,5.338A2.99174,2.99174,0,0,0,21,3.628H7a2.99174,2.99174,0,0,0-2.7,1.71A2.94761,2.94761,0,0,0,4,6.628v10a3.00887,3.00887,0,0,0,3,3H21a3.00887,3.00887,0,0,0,3-3v-10A2.94761,2.94761,0,0,0,23.7,5.338Z"/><path class="uim-tertiary" d="M23.7,5.338,16.12,12.918a2.99392,2.99392,0,0,1-4.24,0L4.3,5.338A2.99174,2.99174,0,0,1,7,3.628H21A2.99174,2.99174,0,0,1,23.7,5.338Z"/></svg>