<svg xmlns="http://www.w3.org/2000/svg" data-name="Layer 1" viewBox="0 0 24 24"><path class="uim-quaternary" d="M21.2,7.96774a2.99174,2.99174,0,0,0-2.7-1.71H4.5a2.99174,2.99174,0,0,0-2.7,1.71,2.94761,2.94761,0,0,0-.3,1.29v10a3.00887,3.00887,0,0,0,3,3h14a3.00887,3.00887,0,0,0,3-3v-10A2.94761,2.94761,0,0,0,21.2,7.96774Z"/><path class="uim-tertiary" d="M21.2,7.96774l-7.58,7.58008a2.99392,2.99392,0,0,1-4.24,0L1.8,7.96774a2.99174,2.99174,0,0,1,2.7-1.71h14A2.99174,2.99174,0,0,1,21.2,7.96774Z"/><circle cx="17.5" cy="8.258" r="5" class="uim-quaternary"/><path class="uim-primary" d="M17.5,13.25537a4.99756,4.99756,0,1,1,3.53564-1.46191h0A4.985,4.985,0,0,1,17.5,13.25537Zm0-7.99609a2.99853,2.99853,0,1,0,2.12158.87695A2.99217,2.99217,0,0,0,17.5,5.25928Zm2.82861,5.82715h0Z"/><path class="uim-primary" d="M14.67139,12.08643a1,1,0,0,1-.707-1.707l5.65722-5.65722a.99989.99989,0,1,1,1.41406,1.41406l-5.65722,5.65723A.99676.99676,0,0,1,14.67139,12.08643Z"/></svg>