<svg xmlns="http://www.w3.org/2000/svg" data-name="Layer 1" viewBox="0 0 24 24"><path class="uim-quaternary" d="M21.2,6.21A2.99174,2.99174,0,0,0,18.5,4.5H4.5A2.99174,2.99174,0,0,0,1.8,6.21,2.94761,2.94761,0,0,0,1.5,7.5v10a3.00887,3.00887,0,0,0,3,3h14a3.00887,3.00887,0,0,0,3-3V7.5A2.94761,2.94761,0,0,0,21.2,6.21Z"/><path class="uim-tertiary" d="M21.2,6.21,13.62,13.79a2.99392,2.99392,0,0,1-4.24,0L1.8,6.21A2.99174,2.99174,0,0,1,4.5,4.5h14A2.99174,2.99174,0,0,1,21.2,6.21Z"/><path class="uim-primary" d="M17.5,9.5a.99676.99676,0,0,1-.707-.293l-2-2A.99989.99989,0,0,1,16.207,5.793l1.293,1.293,3.293-3.293A.99989.99989,0,0,1,22.207,5.207l-4,4A.99676.99676,0,0,1,17.5,9.5Z"/></svg>