<svg xmlns="http://www.w3.org/2000/svg" data-name="Layer 1" viewBox="0 0 24 24"><path class="uim-quaternary" d="M21.2,7.96774a2.99174,2.99174,0,0,0-2.7-1.71H4.5a2.99174,2.99174,0,0,0-2.7,1.71,2.94761,2.94761,0,0,0-.3,1.29v10a3.00887,3.00887,0,0,0,3,3h14a3.00887,3.00887,0,0,0,3-3v-10A2.94761,2.94761,0,0,0,21.2,7.96774Z"/><path class="uim-tertiary" d="M21.2,7.96774l-7.58,7.58008a2.99392,2.99392,0,0,1-4.24,0L1.8,7.96774a2.99174,2.99174,0,0,1,2.7-1.71h14A2.99174,2.99174,0,0,1,21.2,7.96774Z"/><path class="uim-primary" d="M21.5,8.25781h-3a1,1,0,0,1,0-2h2v-2a1,1,0,1,1,2,0v3A1,1,0,0,1,21.5,8.25781Z"/><path class="uim-primary" d="M17.5,13.25781a5,5,0,1,1,4.83936-6.24658,1.00011,1.00011,0,0,1-1.93848.49316A2.9987,2.9987,0,1,0,17.5,11.25781a3.01984,3.01984,0,0,0,1.98242-.75293.99975.99975,0,1,1,1.31543,1.50586A5.01628,5.01628,0,0,1,17.5,13.25781Z"/></svg>