<svg xmlns="http://www.w3.org/2000/svg" data-name="Layer 1" viewBox="0 0 24 24"><path class="uim-quaternary" d="M16,21H8a3.00328,3.00328,0,0,1-3-3V13a3.00328,3.00328,0,0,1,3-3h8a3.00328,3.00328,0,0,1,3,3v5A3.00328,3.00328,0,0,1,16,21Z"/><path class="uim-tertiary" d="M16,10H8a3.02828,3.02828,0,0,0-2.65,1.59l4.53,4.52A2.98246,2.98246,0,0,0,12,17a3.01465,3.01465,0,0,0,2.12-.88l4.53-4.53A3.02828,3.02828,0,0,0,16,10Z"/><path class="uim-primary" d="M15,6H9A1,1,0,0,1,9,4h6a1,1,0,0,1,0,2Z"/><path class="uim-primary" d="M13,8a1,1,0,0,1-.707-1.707L13.58594,5,12.293,3.707A.99989.99989,0,0,1,13.707,2.293l2,2a.99962.99962,0,0,1,0,1.41406l-2,2A.99676.99676,0,0,1,13,8Z"/></svg>