<svg xmlns="http://www.w3.org/2000/svg" viewBox="0 0 24 24"><path class="uim-primary" d="M21,7.54H8.54a.99942.99942,0,0,0-1,1V21a.99942.99942,0,0,0,1,1H21a.99943.99943,0,0,0,1-1V8.54A.99942.99942,0,0,0,21,7.54Zm-5.53845,7.92151H8.53845V8.53845h6.9231Z"/><path class="uim-primary" d="M15.46,2H3A.99943.99943,0,0,0,2,3V15.46a.99942.99942,0,0,0,1,1H15.46a.99942.99942,0,0,0,1-1V3A.99942.99942,0,0,0,15.46,2Zm.00159,13.46155H8.53845V8.53845h6.9231Z"/><path class="uim-tertiary" d="M15.46191 16.46191a1.02139 1.02139 0 0 1-1.02539-1 .9926.9926 0 0 1 .59961-.92578.9649.9649 0 0 1 .42578-.09961.97808.97808 0 0 1 1 .97461A1.044 1.044 0 0 1 15.46191 16.46191zM15.46191 13a.96447.96447 0 0 1-1-.958v-.084a1 1 0 1 1 2 0A1.0361 1.0361 0 0 1 15.46191 13zM15.46191 9.56348a.9926.9926 0 0 1-.92578-.59961.9649.9649 0 0 1-.09961-.42578.97808.97808 0 0 1 .97461-1 1.044 1.044 0 0 1 1.05078 1A1.02139 1.02139 0 0 1 15.46191 9.56348zM12.042 9.53809h-.084a1 1 0 1 1 0-2 1.0361 1.0361 0 0 1 1.042 1A.96447.96447 0 0 1 12.042 9.53809zM8.53809 9.56348a.97808.97808 0 0 1-1-.97461 1.044 1.044 0 0 1 1-1.05078 1.02139 1.02139 0 0 1 1.02539 1 .9926.9926 0 0 1-.59961.92578A.9649.9649 0 0 1 8.53809 9.56348zM8.53809 13.042a.99942.99942 0 0 1-1-1 1.0361 1.0361 0 0 1 1-1.042.96447.96447 0 0 1 1 .958v.084A.99942.99942 0 0 1 8.53809 13.042zM8.58887 16.46191a1.044 1.044 0 0 1-1.05078-1 1.02139 1.02139 0 0 1 1-1.02539.9926.9926 0 0 1 .92578.59961.9649.9649 0 0 1 .09961.42578A.97808.97808 0 0 1 8.58887 16.46191zM12.042 16.46191a1.0361 1.0361 0 0 1-1.042-1 .96447.96447 0 0 1 .958-1h.084a1 1 0 1 1 0 2z"/></svg>