<svg xmlns="http://www.w3.org/2000/svg" viewBox="0 0 24 24"><path class="uim-primary" d="M10 11a.99676.99676 0 0 1-.707-.293l-7-7A.99989.99989 0 0 1 3.707 2.293l7 7A1 1 0 0 1 10 11zM21 22a.99676.99676 0 0 1-.707-.293l-7-7A.99989.99989 0 0 1 14.707 13.293l7 7A1 1 0 0 1 21 22z"/><path class="uim-primary" d="M21 22H17a1 1 0 0 1 0-2h3V17a1 1 0 0 1 2 0v4A.99943.99943 0 0 1 21 22zM3 8A.99943.99943 0 0 1 2 7V3A.99943.99943 0 0 1 3 2H7A1 1 0 0 1 7 4H4V7A.99943.99943 0 0 1 3 8zM14 11a1 1 0 0 1-.707-1.707l7-7A.99989.99989 0 1 1 21.707 3.707l-7 7A.99676.99676 0 0 1 14 11zM3 22a1 1 0 0 1-.707-1.707l7-7A.99989.99989 0 0 1 10.707 14.707l-7 7A.99676.99676 0 0 1 3 22z"/><path class="uim-primary" d="M7 22H3a.99943.99943 0 0 1-1-1V17a1 1 0 0 1 2 0v3H7a1 1 0 0 1 0 2zM21 8a.99943.99943 0 0 1-1-1V4H17a1 1 0 0 1 0-2h4a.99943.99943 0 0 1 1 1V7A.99943.99943 0 0 1 21 8z"/></svg>