<svg xmlns="http://www.w3.org/2000/svg" viewBox="0 0 24 24"><path class="uim-tertiary" d="M19,22H5a2.939,2.939,0,0,1-2.12646-.89258.99943.99943,0,0,1,.00927-1.4043L19.70312,2.88281A.99973.99973,0,0,1,21.1084,2.874,2.94443,2.94443,0,0,1,22,5V19A3.00328,3.00328,0,0,1,19,22Z"/><path class="uim-primary" d="M19 2H5A3.00328 3.00328 0 0 0 2 5V19a2.944 2.944 0 0 0 .88361 2.11646L21.11615 2.88379A2.93882 2.93882 0 0 0 19 2zM17 18H13a1 1 0 0 1 0-2h4a1 1 0 0 1 0 2z"/><path class="uim-tertiary" d="M11,7H10V6A1,1,0,0,0,8,6V7H7A1,1,0,0,0,7,9H8v1a1,1,0,0,0,2,0V9h1a1,1,0,0,0,0-2Z"/></svg>