<svg xmlns="http://www.w3.org/2000/svg" viewBox="0 0 24 24"><path class="uim-quaternary" d="M12,20.0003c-4.09863,0-7.89941-2.91407-9.91895-7.6045a1.00275,1.00275,0,0,1,0-.791C4.10059,6.91436,7.90137,4.0003,12,4.0003s7.89941,2.91406,9.91895,7.60449a1.00275,1.00275,0,0,1,0,.791C19.89941,17.08623,16.09863,20.0003,12,20.0003Z"/><path class="uim-tertiary" d="M12,16.0003a4,4,0,1,1,4-4A4.004,4.004,0,0,1,12,16.0003Z"/><path class="uim-primary" d="M21,22.0003a.99676.99676,0,0,1-.707-.293l-18-18A.99989.99989,0,1,1,3.707,2.29326l18,18A1,1,0,0,1,21,22.0003Z"/></svg>