<svg xmlns="http://www.w3.org/2000/svg" viewBox="0 0 24 24"><g data-name="Brand Logos"><path class="uim-primary" d="M12,2A9.651,9.651,0,0,0,1.99988,11.70032a9.48982,9.48982,0,0,0,3.14087,7.17511.8059.8059,0,0,1,.26965.56946l.05432,1.77868a.80137.80137,0,0,0,1.12274.70825l1.984-.87524a.79794.79794,0,0,1,.5332-.04028A10.876,10.876,0,0,0,12,21.40063,9.70481,9.70481,0,1,0,12,2Z"/><path class="uim-tertiary" d="M18.00409,9.46484l-2.93567,4.658a1.5013,1.5013,0,0,1-2.169.40039l-2.33606-1.7525a.60068.60068,0,0,0-.72235.002L6.684,15.16919a.47464.47464,0,0,1-.68811-.63184l2.93762-4.66a1.50147,1.50147,0,0,1,2.16907-.40039l2.33606,1.75256a.60068.60068,0,0,0,.72235-.002l3.155-2.39441A.47461.47461,0,0,1,18.00409,9.46484Z"/></g></svg>