<svg xmlns="http://www.w3.org/2000/svg" data-name="Layer 1" viewBox="0 0 24 24"><path class="uim-primary" d="M5.79492 8.5h-3a1 1 0 1 1 0-2h3a1 1 0 1 1 0 2zM4.79492 12.5h-2a1 1 0 1 1 0-2h2a1 1 0 1 1 0 2z"/><path class="uim-quaternary" d="M18.32324,17.5H10.38477a2.99944,2.99944,0,0,1-2.95459-3.52051L8.312,8.979A2.99519,2.99519,0,0,1,11.2666,6.5h7.938a2.99944,2.99944,0,0,1,2.95459,3.52051L21.27734,15.021A2.99506,2.99506,0,0,1,18.32324,17.5Z"/><path class="uim-tertiary" d="M21.50293,7.57129A2.9947,2.9947,0,0,0,19.20459,6.5h-7.938A2.99154,2.99154,0,0,0,8.64813,8.04315l3.9046,4.41583a2.97763,2.97763,0,0,0,4.14161.34766l5.32049-4.311A2.98458,2.98458,0,0,0,21.50293,7.57129Z"/></svg>