<svg xmlns="http://www.w3.org/2000/svg" data-name="Layer 1" viewBox="0 0 24 24"><path class="uim-primary" d="M21.20508 8.5h-3a1 1 0 0 1 0-2h3a1 1 0 0 1 0 2zM21.20508 12.5h-2a1 1 0 0 1 0-2h2a1 1 0 0 1 0 2z"/><path class="uim-quaternary" d="M2.72243,15.021l-.88184-5.00049A2.99944,2.99944,0,0,1,4.79518,6.5h7.938a2.99519,2.99519,0,0,1,2.95459,2.479l.88183,5.00049A2.99944,2.99944,0,0,1,13.615,17.5H5.67653A2.995,2.995,0,0,1,2.72243,15.021Z"/><path class="uim-tertiary" d="M2.49684,7.57129A2.9947,2.9947,0,0,1,4.79518,6.5h7.938a2.99154,2.99154,0,0,1,2.61847,1.54315L11.447,12.459a2.97761,2.97761,0,0,1-4.1416.34766l-5.32049-4.311A2.98458,2.98458,0,0,1,2.49684,7.57129Z"/></svg>