<svg xmlns="http://www.w3.org/2000/svg" viewBox="0 0 24 24"><path class="uim-tertiary" d="M20,8.99969l-7-7H7a3,3,0,0,0-3,3v14a3,3,0,0,0,3,3H17a3,3,0,0,0,3-3Z"/><path class="uim-primary" d="M20 8.99969H15a2 2 0 0 1-2-2v-5zM19 22a.99974.99974 0 0 1-1-1V19a1 1 0 0 1 2 0v2A.99974.99974 0 0 1 19 22zM19 17a1.03391 1.03391 0 0 1-.71-.29.99108.99108 0 0 1-.21045-1.08984A1.14883 1.14883 0 0 1 18.29 15.29a1.02673 1.02673 0 0 1 .32959-.21.91433.91433 0 0 1 .76025 0 1.03418 1.03418 0 0 1 .33008.21 1.15772 1.15772 0 0 1 .21.33008A.98919.98919 0 0 1 19.71 16.71a1.15384 1.15384 0 0 1-.33008.21A.9994.9994 0 0 1 19 17zM15 18H9a1 1 0 0 1 0-2h6a1 1 0 0 1 0 2zM15 14H9a1 1 0 0 1 0-2h6a1 1 0 0 1 0 2zM10 10H9A1 1 0 0 1 9 8h1a1 1 0 0 1 0 2z"/></svg>