<svg xmlns="http://www.w3.org/2000/svg" viewBox="0 0 24 24"><path class="uim-tertiary" d="M18,8.99969l-7-7H5a3,3,0,0,0-3,3v14a3,3,0,0,0,3,3H15a3,3,0,0,0,3-3Z"/><path class="uim-primary" d="M18,8.99969H13a2,2,0,0,1-2-2v-5Z"/><path class="uim-primary" d="M18 8.99969H13a2 2 0 0 1-2-2v-5zM21 22a.99676.99676 0 0 1-.707-.293l-1.75733-1.75781a.99989.99989 0 1 1 1.41407-1.41406L21.707 20.293A1 1 0 0 1 21 22z"/><path class="uim-quaternary" d="M17.48535,20.96973a3.48492,3.48492,0,1,1,2.46387-5.94922h.00049a3.48511,3.48511,0,0,1-2.46436,5.94922Z"/><path class="uim-primary" d="M11 18H7a1 1 0 0 1 0-2h4a1 1 0 0 1 0 2zM13 14H7a1 1 0 0 1 0-2h6a1 1 0 0 1 0 2zM8 10H7A1 1 0 0 1 7 8H8a1 1 0 0 1 0 2z"/></svg>