<svg xmlns="http://www.w3.org/2000/svg" viewBox="0 0 24 24"><path class="uim-quaternary" d="M14,13.99948a2,2,0,0,1-2-2v-5H4a2.996,2.996,0,0,0-3,3v8a2.996,2.996,0,0,0,3,3H16a2.996,2.996,0,0,0,3-3v-4Z"/><path class="uim-tertiary" d="M19,13.99948H14a2,2,0,0,1-2-2v-5Z"/><path class="uim-tertiary" d="M23,9.99948l-7-7H8a3,3,0,0,0-3,3v8a3,3,0,0,0,3,3H20a3,3,0,0,0,3-3Z"/><path class="uim-primary" d="M23 9.99948H18a2 2 0 0 1-2-2v-5zM14 13H10a1 1 0 0 1 0-2h4a1 1 0 0 1 0 2zM12 9H10a1 1 0 0 1 0-2h2a1 1 0 0 1 0 2z"/></svg>