<svg xmlns="http://www.w3.org/2000/svg" viewBox="0 0 24 24"><path class="uim-tertiary" d="M20,9,13,2H7A3,3,0,0,0,4,5V19a3,3,0,0,0,3,3H17a3,3,0,0,0,3-3Z"/><path class="uim-primary" d="M20 9H15a2 2 0 0 1-2-2V2zM11.86621 16.00031a1 1 0 1 1 0-2 1 1 0 0 0 0-2 1.00191 1.00191 0 0 0-.86621.5 1.00016 1.00016 0 0 1-1.73242-1 3.0002 3.0002 0 1 1 2.59863 4.5zM11.86963 19.00031a1.00819 1.00819 0 0 1-.38965-.08008.99075.99075 0 0 1-.32031-.21 1.19518 1.19518 0 0 1-.21973-.33008 1.06139 1.06139 0 0 1 0-.75976 1.0553 1.0553 0 0 1 .21973-.33008 1.03424 1.03424 0 0 1 1.41015 0 .91206.91206 0 0 1 .22022.33008.94637.94637 0 0 1 0 .75976 1.01335 1.01335 0 0 1-.22022.33008.98862.98862 0 0 1-.31982.21A.99993.99993 0 0 1 11.86963 19.00031z"/><path class="uim-primary" d="M19,10.00031H15a3.00328,3.00328,0,0,1-3-3v-4a.99991.99991,0,0,1,1.707-.707l6,6a.99991.99991,0,0,1-.707,1.707ZM14,5.41437V7.00031a1.001,1.001,0,0,0,1,1h1.58594Z"/></svg>