<svg xmlns="http://www.w3.org/2000/svg" viewBox="0 0 24 24"><path class="uim-primary" d="M19,8.99969H14a2,2,0,0,1-2-2v-5Z"/><path class="uim-tertiary" d="M19,8.99969l-7-7H6a3,3,0,0,0-3,3v14a3,3,0,0,0,3,3H16a3,3,0,0,0,3-3Z"/><path class="uim-primary" d="M19 8.99969H14a2 2 0 0 1-2-2v-5zM16.41992 22H14a.99943.99943 0 0 1-1-1V18.58008a.99927.99927 0 0 1 .293-.707L16.87305 14.293a.99962.99962 0 0 1 1.41406 0L20.707 16.71289a.99962.99962 0 0 1 0 1.41406L17.127 21.707A.99927.99927 0 0 1 16.41992 22zM10 18H8a1 1 0 0 1 0-2h2a1 1 0 0 1 0 2zM14 14H8a1 1 0 0 1 0-2h6a1 1 0 0 1 0 2zM9 10H8A1 1 0 0 1 8 8H9a1 1 0 0 1 0 2z"/></svg>