<svg xmlns="http://www.w3.org/2000/svg" viewBox="0 0 24 24"><path class="uim-tertiary" d="M20,9,13,2H7A3,3,0,0,0,4,5V19a3,3,0,0,0,3,3H17a3,3,0,0,0,3-3Z"/><path class="uim-primary" d="M20,9H15a2,2,0,0,1-2-2V2Z"/><path class="uim-primary" d="M19 10.00031H15a3.00328 3.00328 0 0 1-3-3v-4a.99991.99991 0 0 1 1.707-.707l6 6a.99991.99991 0 0 1-.707 1.707zM14 5.41437V7.00031a1.00067 1.00067 0 0 0 1 1h1.58594zM12 19.00031a.99676.99676 0 0 1-.707-.293L8.57422 15.98859A2.92221 2.92221 0 0 1 12 11.33527a2.92261 2.92261 0 0 1 3.42676 4.65332L12.707 18.70734A.99676.99676 0 0 1 12 19.00031z"/></svg>