<svg xmlns="http://www.w3.org/2000/svg" viewBox="0 0 24 24"><path class="uim-tertiary" d="M18,8.99969l-7-7H5a3,3,0,0,0-3,3v14a3,3,0,0,0,3,3H15a3,3,0,0,0,3-3Z"/><circle cx="18" cy="18" r="3" class="uim-quaternary"/><path class="uim-primary" d="M18 8.99969H13a2 2 0 0 1-2-2v-5zM18 22a3.99957 3.99957 0 0 1-2.82812-6.82812 4.09412 4.09412 0 0 1 5.65624 0 3.99852 3.99852 0 0 1 0 5.65624h0A3.971 3.971 0 0 1 18 22zm0-6a1.99978 1.99978 0 0 0-1.41406 3.41406 2.04706 2.04706 0 0 0 2.82812 0h0A2 2 0 0 0 18 16z"/><path class="uim-primary" d="M15.87891 21.12109a1 1 0 0 1-.707-1.707l4.24218-4.24218a.99989.99989 0 0 1 1.41406 1.41406l-4.24218 4.24218A.99674.99674 0 0 1 15.87891 21.12109zM11 18H7a1 1 0 0 1 0-2h4a1 1 0 0 1 0 2zM13 14H7a1 1 0 0 1 0-2h6a1 1 0 0 1 0 2zM8 10H7A1 1 0 0 1 7 8H8a1 1 0 0 1 0 2z"/></svg>