<svg xmlns="http://www.w3.org/2000/svg" viewBox="0 0 24 24"><path class="uim-tertiary" d="M18,8.99969l-7-7H5a3,3,0,0,0-3,3v14a3,3,0,0,0,3,3H15a3,3,0,0,0,3-3Z"/><path class="uim-primary" d="M18,8.99969H13a2,2,0,0,1-2-2v-5Z"/><path class="uim-quaternary" d="M19,17H15a.99974.99974,0,0,1-1-1V14a3,3,0,0,1,6,0v2A.99974.99974,0,0,1,19,17Zm-3-2h2V14a1,1,0,0,0-2,0Z"/><path class="uim-primary" d="M9 18H7a1 1 0 0 1 0-2H9a1 1 0 0 1 0 2zM12 14H7a1 1 0 0 1 0-2h5a1 1 0 0 1 0 2zM8 10H7A1 1 0 0 1 7 8H8a1 1 0 0 1 0 2zM19 22H15a3.00328 3.00328 0 0 1-3-3V18a3.00328 3.00328 0 0 1 3-3h4a3.00328 3.00328 0 0 1 3 3v1A3.00328 3.00328 0 0 1 19 22z"/></svg>