<svg xmlns="http://www.w3.org/2000/svg" data-name="Layer 1" viewBox="0 0 24 24"><path class="uim-primary" d="M11.93555,22a.99942.99942,0,0,1-1-1V15a1,1,0,0,1,2,0v6A.99943.99943,0,0,1,11.93555,22Z"/><path class="uim-primary" d="M20.93555,22h-18a1,1,0,1,1,0-2h18a1,1,0,0,1,0,2Z"/><circle cx="11.936" cy="21" r="2" class="uim-tertiary"/><path class="uim-tertiary" d="M14,8a2,2,0,0,1-2-2V1H8A2.996,2.996,0,0,0,5,4v9a2.996,2.996,0,0,0,3,3h8a2.996,2.996,0,0,0,3-3V8Z"/><path class="uim-primary" d="M19,8H14a2,2,0,0,1-2-2V1Z"/></svg>