<svg xmlns="http://www.w3.org/2000/svg" viewBox="0 0 24 24"><path class="uim-tertiary" d="M20,9,13,2H7A3,3,0,0,0,4,5V19a3,3,0,0,0,3,3H17a3,3,0,0,0,3-3Z"/><path class="uim-primary" d="M20 9H15a2 2 0 0 1-2-2V2zM12 18.00031a.99943.99943 0 0 1-1-1v-5a1 1 0 1 1 2 0v5A.99943.99943 0 0 1 12 18.00031z"/><path class="uim-primary" d="M12,18.00031a.99676.99676,0,0,1-.707-.293l-2-2A.99989.99989,0,1,1,10.707,14.29328L12,15.58625l1.293-1.293A.99989.99989,0,1,1,14.707,15.70734l-2,2A.99676.99676,0,0,1,12,18.00031Z"/></svg>