<svg xmlns="http://www.w3.org/2000/svg" viewBox="0 0 24 24"><path class="uim-tertiary" d="M20,21.99923H4a2,2,0,0,1-2-2v-16a2,2,0,0,1,2-2H20a2,2,0,0,1,2,2v16A2,2,0,0,1,20,21.99923Z"/><path class="uim-quaternary" d="M15,19.99923H9a1,1,0,0,1-1-1v-14a1,1,0,0,1,1-1h6a1,1,0,0,1,1,1v14A1,1,0,0,1,15,19.99923Z"/><path class="uim-primary" d="M6 6.99923H4v-3H6zM6 10.99923H4v-2H6zM4 17.99923H6v2H4zM4 12.99923H6v3H4zM20 6.99923H18v-3h2zM20 10.99923H18v-2h2zM18 17.99923h2v2H18zM18 12.99923h2v3H18z"/><path class="uim-tertiary" d="M17,12.99923H7v-2H17Z"/></svg>