<svg xmlns="http://www.w3.org/2000/svg" data-name="Layer 1" viewBox="0 0 24 24"><path class="uim-tertiary" d="M11.21973,22a1.00061,1.00061,0,0,1-1-1V17.21582l-5.90039-5.4834A.99766.99766,0,0,1,4,11V9A3.00328,3.00328,0,0,1,7,6H19a3.00328,3.00328,0,0,1,3,3v2a.99766.99766,0,0,1-.31934.73242l-5.90039,5.4834v2.00391a1.00039,1.00039,0,0,1-.55273.89453L11.667,21.89453A1.003,1.003,0,0,1,11.21973,22ZM21,11h0Z"/><path class="uim-secondary" d="M21,12H5a.99943.99943,0,0,1-1-1V9A3.00328,3.00328,0,0,1,7,6H19a3.00328,3.00328,0,0,1,3,3v2A.99943.99943,0,0,1,21,12Z"/><path class="uim-primary" d="M21,22a.99676.99676,0,0,1-.707-.293l-18-18A.99989.99989,0,0,1,3.707,2.293l18,18A1,1,0,0,1,21,22Z"/></svg>