<svg xmlns="http://www.w3.org/2000/svg" data-name="Layer 1" viewBox="0 0 24 24"><path class="uim-quaternary" d="M12,22A7.50423,7.50423,0,0,1,9,7.61914V3a.99974.99974,0,0,1,1-1h4a.99974.99974,0,0,1,1,1V7.61914A7.50423,7.50423,0,0,1,12,22Z"/><path class="uim-tertiary" d="M6.5,14.5A5.5,5.5,0,1,0,16.904,12H7.09607A5.519,5.519,0,0,0,6.5,14.5Z"/><circle cx="10" cy="16" r="1" class="uim-primary"/><circle cx="14" cy="17" r="1" class="uim-primary"/><path class="uim-quaternary" d="M16,4H8A1,1,0,0,1,8,2h8a1,1,0,0,1,0,2Z"/></svg>