<svg xmlns="http://www.w3.org/2000/svg" data-name="Layer 1" viewBox="0 0 24 24"><path class="uim-quaternary" d="M17.51758,22H6.48242A2.99976,2.99976,0,0,1,3.8916,17.48828L9,8.72949V3a.99974.99974,0,0,1,1-1h4a.99974.99974,0,0,1,1,1V8.72949l5.10938,8.75879A3.0006,3.0006,0,0,1,17.51758,22Z"/><path class="uim-tertiary" d="M5.61523,19.49805A.98121.98121,0,0,0,6.48242,20H17.51758a1.0004,1.0004,0,0,0,.86426-1.50391L14.592,12H9.40826L5.61914,18.49609A.981.981,0,0,0,5.61523,19.49805Z"/><path class="uim-quaternary" d="M17.51758,22H6.48242A2.99976,2.99976,0,0,1,3.8916,17.48828L9,8.72949V3a.99974.99974,0,0,1,1-1h4a.99974.99974,0,0,1,1,1V8.72949l5.10938,8.75879A3.0006,3.0006,0,0,1,17.51758,22ZM11,4V9a1.00244,1.00244,0,0,1-.13574.50391L5.61914,18.49609A.99955.99955,0,0,0,6.48242,20H17.51758a1.0004,1.0004,0,0,0,.86426-1.50391l-5.2461-8.99218A1.00244,1.00244,0,0,1,13,9V4Z"/><circle cx="14" cy="17" r="1" class="uim-primary"/><circle cx="10" cy="16" r="1" class="uim-primary"/><path class="uim-quaternary" d="M16,4H8A1,1,0,0,1,8,2h8a1,1,0,0,1,0,2Z"/></svg>