<svg xmlns="http://www.w3.org/2000/svg" data-name="Layer 1" viewBox="0 0 24 24"><path class="uim-primary" d="M21,20H3a1,1,0,0,1,0-2H21a1,1,0,0,1,0,2Z"/><path class="uim-primary" d="M12,20a.99943.99943,0,0,1-1-1V13a1,1,0,0,1,2,0v6A.99943.99943,0,0,1,12,20Z"/><circle cx="12" cy="19" r="2" class="uim-tertiary"/><path class="uim-tertiary" d="M16.66691,14.00043h-9.334a2.33623,2.33623,0,0,1-2.333-2.334v-7.333a2.336,2.336,0,0,1,2.333-2.333H10.372a2.33057,2.33057,0,0,1,2.21386,1.59473l.13477.40527h3.94629a2.336,2.336,0,0,1,2.333,2.333v5.333A2.33624,2.33624,0,0,1,16.66691,14.00043Z"/></svg>