<svg xmlns="http://www.w3.org/2000/svg" viewBox="0 0 24 24"><path class="uim-tertiary" d="M18,21H4a3.00328,3.00328,0,0,1-3-3V5A3.00328,3.00328,0,0,1,4,2H8.55859a2.99737,2.99737,0,0,1,2.8462,2.05078L11.7207,5H18a3.00328,3.00328,0,0,1,3,3V18A3.00328,3.00328,0,0,1,18,21Z"/><path class="uim-quaternary" d="M20,17H16a.99974.99974,0,0,1-1-1V14a3,3,0,0,1,6,0v2A.99974.99974,0,0,1,20,17Zm-3-2h2V14a1,1,0,0,0-2,0Z"/><path class="uim-primary" d="M20,23H16a3.00328,3.00328,0,0,1-3-3V18a3.00328,3.00328,0,0,1,3-3h4a3.00328,3.00328,0,0,1,3,3v2A3.00328,3.00328,0,0,1,20,23Z"/></svg>