<svg xmlns="http://www.w3.org/2000/svg" data-name="Layer 1" viewBox="0 0 24 24"><path class="uim-tertiary" d="M7.42969,21.90234A14.81411,14.81411,0,0,1,5.708,21.80176,3.99122,3.99122,0,0,1,2.19824,18.293,14.49265,14.49265,0,0,1,18.292,2.19824,3.99122,3.99122,0,0,1,21.80176,5.707v.001A14.49308,14.49308,0,0,1,7.42969,21.90234Z"/><path class="uim-quaternary" d="M14.82812 13a.9968.9968 0 0 1-.707-.293L11.293 9.87891A.99989.99989 0 1 1 12.707 8.46484L15.53516 11.293a1 1 0 0 1-.707 1.707zM12 15.82812a.99675.99675 0 0 1-.707-.293L8.46484 12.707A.99989.99989 0 1 1 9.87891 11.293L12.707 14.12109a1 1 0 0 1-.707 1.707z"/><rect width="14.83" height="2" x="4.585" y="11" class="uim-quaternary" transform="rotate(-45 12 12)"/><path class="uim-primary" d="M11.51227 3.02588l9.46222 9.46228a14.3327 14.3327 0 0 0 .62939-2.19873L13.71057 2.39612A14.34843 14.34843 0 0 0 11.51227 3.02588zM2.39612 13.71057l7.90356 7.90357a14.34826 14.34826 0 0 0 2.18805-.64L3.02551 11.51184A14.3327 14.3327 0 0 0 2.39612 13.71057z"/></svg>