<svg xmlns="http://www.w3.org/2000/svg" data-name="Layer 1" viewBox="0 0 24 24"><path class="uim-tertiary" d="M7.38,22a14.46,14.46,0,0,1-1.73-.1A4,4,0,0,1,2.1,18.36,14.65,14.65,0,0,1,18.35,2.1,4,4,0,0,1,21.9,5.65h0a14.56,14.56,0,0,1-4.19,12.06A14.51,14.51,0,0,1,7.38,22Z"/><path class="uim-quaternary" d="M19.94,2.65,2.65,19.94a4,4,0,0,0,1.41,1.41L21.35,4.06A4,4,0,0,0,19.94,2.65Z"/><path class="uim-primary" d="M12 15.83a1 1 0 0 1-.71-.3L8.46 12.71a1 1 0 0 1 1.42-1.42l2.83 2.83A1 1 0 0 1 12 15.83zM14.83 13a1 1 0 0 1-.71-.29L11.29 9.88a1 1 0 0 1 1.42-1.42l2.83 2.83a1 1 0 0 1 0 1.42A1 1 0 0 1 14.83 13z"/></svg>