<svg xmlns="http://www.w3.org/2000/svg" viewBox="0 0 24 24"><path class="uim-primary" d="M17.10986,12.38965a4.40421,4.40421,0,0,1-.92138-.0918,1.00273,1.00273,0,0,1-.47461-.25l-3.17969-3a.99639.99639,0,0,1-.2876-.5,5.08781,5.08781,0,0,1-.13672-1.1582,4.97646,4.97646,0,0,1,3.88575-4.86426,1,1,0,0,1,1.19628,1.21,2.73451,2.73451,0,0,0-.082.6543,3.00328,3.00328,0,0,0,3,3,2.77712,2.77712,0,0,0,.65772-.082,1.00031,1.00031,0,0,1,1.207,1.19726A4.97664,4.97664,0,0,1,17.10986,12.38965Z"/><path class="uim-tertiary" d="M14.6665,18.5H5.5a3.50038,3.50038,0,0,1-.93652-6.873,5.99782,5.99782,0,0,1,11.40625-1.585A4.32866,4.32866,0,0,1,14.6665,18.5Z"/><path class="uim-primary" d="M10.5,21.5a3.00328,3.00328,0,0,1-3-3c0-2.47461,2.33838-4.09277,2.438-4.16016a1.00314,1.00314,0,0,1,1.11719-.00488C11.15479,14.40234,13.5,15.99609,13.5,18.5A3.00328,3.00328,0,0,1,10.5,21.5Z"/></svg>