<svg xmlns="http://www.w3.org/2000/svg" viewBox="0 0 24 24"><path class="uim-primary" d="M4.667,18.5166A2.67548,2.67548,0,0,1,2,15.84961V8.15039A2.66672,2.66672,0,0,1,5.999,5.84375l5.5,3.16992A.99871.99871,0,0,1,12,9.87988v4.24024a.99871.99871,0,0,1-.501.86621l-5.5,3.16992A2.66134,2.66134,0,0,1,4.667,18.5166ZM11,14.12012h0Z"/><path class="uim-tertiary" d="M12.666,18.52051A2.67588,2.67588,0,0,1,10,15.85059V8.14941a2.66651,2.66651,0,0,1,4-2.30859l6.667,3.84961a2.66728,2.66728,0,0,1,0,4.61914h0L14,18.15918A2.6622,2.6622,0,0,1,12.666,18.52051Zm7.501-5.07715h0Z"/></svg>