<svg xmlns="http://www.w3.org/2000/svg" data-name="Layer 1" viewBox="0 0 24 24"><path class="uim-primary" d="M9 22a.99974.99974 0 0 1-1-1V20H4v1a1 1 0 0 1-2 0V19a.99974.99974 0 0 1 1-1H9a.99974.99974 0 0 1 1 1v2A.99974.99974 0 0 1 9 22zM21 22a.99974.99974 0 0 1-1-1V20H16v1a1 1 0 0 1-2 0V19a.99974.99974 0 0 1 1-1h6a.99974.99974 0 0 1 1 1v2A.99974.99974 0 0 1 21 22z"/><path class="uim-primary" d="M18,20a.99974.99974,0,0,1-1-1V16H7v3a1,1,0,0,1-2,0V15a.99974.99974,0,0,1,1-1H18a.99974.99974,0,0,1,1,1v4A.99974.99974,0,0,1,18,20Z"/><path class="uim-primary" d="M12,16a.99974.99974,0,0,1-1-1V10a1,1,0,0,1,2,0v5A.99974.99974,0,0,1,12,16Z"/><path class="uim-tertiary" d="M14.59912,12a.99748.99748,0,0,1-.46533-.11523L12,10.76367l-2.13379,1.1211A1.00012,1.00012,0,0,1,8.415,10.83105l.40771-2.376L7.09619,6.77148a.99934.99934,0,0,1,.5542-1.70507l2.38574-.34668L11.103,2.55762a1.041,1.041,0,0,1,1.79394,0l1.0669,2.16211,2.38574.34668a.99934.99934,0,0,1,.5542,1.70507l-1.72656,1.6836.40771,2.376A1.00081,1.00081,0,0,1,14.59912,12Z"/></svg>