<svg xmlns="http://www.w3.org/2000/svg" viewBox="0 0 24 24"><path class="uim-tertiary" d="M20,19a1,1,0,0,1-2,0V17a3.00328,3.00328,0,0,0-3-3H13v2h2a1.001,1.001,0,0,1,1,1v2a3,3,0,0,0,6,0V12.83008l-2-2Z"/><path class="uim-primary" d="M11,22H5a3.00328,3.00328,0,0,1-3-3V5A3.00328,3.00328,0,0,1,5,2h6a3.00328,3.00328,0,0,1,3,3V19A3.00328,3.00328,0,0,1,11,22Z"/><path class="uim-tertiary" d="M14,10H2V5A3,3,0,0,1,5,2h6a3,3,0,0,1,3,3Z"/><path class="uim-primary" d="M18.93777,4.76647,18.39,4.1499l-.8031-.80713a.99989.99989,0,0,0-1.41406,1.41407l1.5166,1.5166.43365.33917Z"/><path class="uim-quaternary" d="M22,9.83008v4l-4.25-4.25a1.99477,1.99477,0,0,1-.48-2.04L18.29,4.46l.1-.31006L19,4.75l1.54,1.54A4.99345,4.99345,0,0,1,22,9.83008Z"/></svg>