<svg xmlns="http://www.w3.org/2000/svg" viewBox="0 0 24 24"><path class="uim-tertiary" d="M17,22.0003H9a3.00328,3.00328,0,0,1-3-3v-7a.99942.99942,0,0,1,1-1H19a.99942.99942,0,0,1,1,1v7A3.00328,3.00328,0,0,1,17,22.0003Z"/><path class="uim-quaternary" d="M21,13.0003H5a.99943.99943,0,0,1-1-1v-1a3.00328,3.00328,0,0,1,3-3H19a3.00328,3.00328,0,0,1,3,3v1A.99943.99943,0,0,1,21,13.0003Z"/><path class="uim-primary" d="M15.5,2.0003A3.48536,3.48536,0,0,0,13,3.05865,3.49773,3.49773,0,1,0,10.5,9.0003H12v13h2v-13h1.5a3.5,3.5,0,1,0,0-7ZM9,5.5003a1.5,1.5,0,1,1,3,0v1.5H10.5A1.50164,1.50164,0,0,1,9,5.5003Zm6.5,1.5H14v-1.5a1.5,1.5,0,1,1,1.5,1.5Z"/></svg>