<svg xmlns="http://www.w3.org/2000/svg" viewBox="0 0 24 24"><g data-name="Brand Logos"><circle cx="12" cy="12.083" r="10" class="uim-primary"/><path class="uim-tertiary" d="M8.85431,21.5708a9.91043,9.91043,0,0,0,6.28949.00067.49305.49305,0,0,1-.6438-.47571c0-.33746.01251-1.41247.01251-2.75a2.36811,2.36811,0,0,0-.675-1.85c2.225-.25,4.5625-1.1,4.5625-4.9375a3.8692,3.8692,0,0,0-1.025-2.6875,3.59358,3.59358,0,0,0-.1-2.65s-.83753-.275-2.75,1.025a9.4272,9.4272,0,0,0-5,0c-1.91253-1.28748-2.75-1.025-2.75-1.025a3.59343,3.59343,0,0,0-.1,2.65,3.89167,3.89167,0,0,0-1.025,2.6875c0,3.825,2.325,4.6875,4.55,4.9375a2.10354,2.10354,0,0,0-.63752,1.33752A2.13747,2.13747,0,0,1,6.65,17.0083a2.00118,2.00118,0,0,0-1.53753-1.025c-.83747.01251-.33747.475.01251.66253A3.63685,3.63685,0,0,1,6.15,18.05829c.2.5625.85,1.63751,3.36249,1.175,0,.83752.01251,1.625.01251,1.86248C9.525,21.3548,9.3396,21.647,8.85431,21.5708Z"/></g></svg>