<svg xmlns="http://www.w3.org/2000/svg" data-name="Layer 1" viewBox="0 0 24 24"><path class="uim-primary" d="M17.25,22H6.75a1,1,0,0,1,0-2h10.5a1,1,0,0,1,0,2Z"/><path class="uim-primary" d="M12,21.4874a.99943.99943,0,0,1-1-1v-6.75a1,1,0,0,1,2,0v6.75A.99943.99943,0,0,1,12,21.4874Z"/><path class="uim-quaternary" d="M11.21875,16.3623a1.0013,1.0013,0,0,0,1.5625,0l7.004-8.75494a1,1,0,0,0-.78086-1.62469H4.99566A1,1,0,0,0,4.2148,7.60736Z"/><path class="uim-tertiary" d="M12,16.7373a1.02249,1.02249,0,0,0,.78-.37011L17.15869,10.89H6.84131L11.22,16.36719A1.02249,1.02249,0,0,0,12,16.7373Z"/><path class="uim-primary" d="M19,18a.99676.99676,0,0,1-.707-.293l-14-14A.99989.99989,0,0,1,5.707,2.293l14,14A1,1,0,0,1,19,18Z"/></svg>