<svg xmlns="http://www.w3.org/2000/svg" viewBox="0 0 24 24"><path class="uim-primary" d="M18.75,22H5.25a1,1,0,0,1,0-2h13.5a1,1,0,0,1,0,2Z"/><path class="uim-primary" d="M12,22a.99943.99943,0,0,1-1-1V14.25a1,1,0,0,1,2,0V21A.99943.99943,0,0,1,12,22Z"/><path class="uim-quaternary" d="M12,15.25a1.00129,1.00129,0,0,1-.78125-.375l-9-11.25A1.00025,1.00025,0,0,1,3,2H21a1.00025,1.00025,0,0,1,.78125,1.625l-9,11.25A1.00129,1.00129,0,0,1,12,15.25Z"/><path class="uim-tertiary" d="M5.72,8l5.5,6.87988a1.007,1.007,0,0,0,1.56006,0L18.28,8Z"/></svg>