<svg xmlns="http://www.w3.org/2000/svg" data-name="Layer 1" viewBox="0 0 24 24"><path class="uim-quaternary" d="M15.21,22H8.79a2.99643,2.99643,0,0,1-2.98145-2.66895l-1.55566-14A2.99941,2.99941,0,0,1,7.23438,2h9.53124a2.99941,2.99941,0,0,1,2.98145,3.33105l-1.55566,14A2.99643,2.99643,0,0,1,15.21,22Z"/><path class="uim-tertiary" d="M4.66064,9,5.80859,19.33105A2.99643,2.99643,0,0,0,8.79,22H15.21a2.99643,2.99643,0,0,0,2.98145-2.66895L19.33936,9Z"/><path class="uim-primary" d="M10 18a.99943.99943 0 0 1-1-1V13a1 1 0 0 1 2 0v4A.99943.99943 0 0 1 10 18zM14 18a.99943.99943 0 0 1-1-1V13a1 1 0 0 1 2 0v4A.99943.99943 0 0 1 14 18z"/></svg>