<svg xmlns="http://www.w3.org/2000/svg" viewBox="0 0 24 24"><path class="uim-primary" d="M20.86559,9.05505A8.50469,8.50469,0,0,0,18.69269,4.721a8.56551,8.56551,0,0,0-5.26262-2.66674A4.15,4.15,0,0,1,12.94917,2H11.81468c-.01228.02858-.03858.01815-.05945.02011-.29213.02575-.58284.059-.87116.11367A8.45306,8.45306,0,0,0,5.70763,5.23839,8.3579,8.3579,0,0,0,3.86837,9.94686a8.58707,8.58707,0,0,0,.18475,2.52871,8.14554,8.14554,0,0,0,.62424,1.79c.02446.04869.04858.09737.07347.14606A8.60211,8.60211,0,0,0,6.534,16.80835a8.53066,8.53066,0,0,0,5.76308,2.33244c.1002.00141.12748.02608.12683.12846-.00457.87355-.00261,1.74721-.00239,2.62088.0001.0339.00271.0677.00467.10987.02826-.01152.046-.018.063-.02608A17.98869,17.98869,0,0,0,16.97949,19.008q.4005-.36471.76889-.76249c.10531-.11335.20975-.22866.31528-.3419.163-.17432.30408-.36907.45775-.55263.17747-.2117.33679-.43677.49394-.66326a11.03292,11.03292,0,0,0,.91855-1.57441c.13193-.27887.25756-.55991.36874-.84758a.09647.09647,0,0,0,.01109-.01609,10.27494,10.27494,0,0,0,.60055-2.43906c.03608-.29125.05945-.58436.07423-.87725A8.142,8.142,0,0,0,20.8656,9.055Z"/><path class="uim-tertiary" d="M9.81816 14.31321a3.79545 3.79545 0 0 1-.44754.08488.21091.21091 0 0 1-.235-.15215l.00119-.9681c.00566-.095-.0326-.19682.04348-.28061a.266.266 0 0 1 .13813-.08434 1.77441 1.77441 0 0 0 .49415-.16845 1.13169 1.13169 0 0 0 .53807-.73173c.01217-.0501.0238-.10052.03543-.15084q-1.02081-.002-2.04141-.00337a.64958.64958 0 0 1-.17432-.018.4128.4128 0 0 1-.30647-.38526q-.00195-1.54345.00152-3.087a.46713.46713 0 0 1 .13835-.436.38682.38682 0 0 1 .25626-.102q1.5009-.00033 3.00179-.00055a.41615.41615 0 0 1 .39929.52763.38824.38824 0 0 1 .01663.153c.00021 1.12123.00652 2.2429-.00207 3.36413a2.505 2.505 0 0 1-.84 1.8773c-.02847.02641-.056.05391-.08379.08086a2.68348 2.68348 0 0 1-.93376.48068zM15.35378 14.2417l-.03815.01065-.02163.01228a4.60241 4.60241 0 0 1-.58881.12933.21583.21583 0 0 1-.26942-.21692c-.00152-.10738-.00228-.215-.00315-.32245l.00554-.5773c-.00086-.04249-.00239-.08466-.00228-.12693.00022-.14781.05706-.21019.24083-.25214a1.31866 1.31866 0 0 0 .6336-.2969 1.26373 1.26373 0 0 0 .37754-.73967l-1.88578-.00358c-.06835-.00011-.13682.00087-.20529-.00033a.41894.41894 0 0 1-.43243-.43982q.00049-1.52436.00239-3.04874L13.165 8.33984a.43454.43454 0 0 1 .20388-.45167.38949.38949 0 0 1 .21258-.05825q1.491-.00081 2.9819-.00087a.4163.4163 0 0 1 .39918.52774.39172.39172 0 0 1 .01652.15291q0 1.68478-.00033 3.36967a2.55682 2.55682 0 0 1-1.55649 2.32788c-.02336.01-.04564.02293-.06846.03445z"/></svg>