<svg xmlns="http://www.w3.org/2000/svg" viewBox="0 0 24 24"><g data-name="Brand Logos"><path class="uim-quaternary" d="M21.64,10.18182H12.22186V14.05h5.38178a4.60016,4.60016,0,0,1-1.99542,3.01819A6.01976,6.01976,0,0,1,6.62634,10.1l-.00012-.00013L6.62634,10.1A5.95965,5.95965,0,0,1,12.2218,5.97723a5.40224,5.40224,0,0,1,3.82276,1.49549l2.86816-2.86817A9.6104,9.6104,0,0,0,12.2218,2a10,10,0,1,0,.00006,20A9.54721,9.54721,0,0,0,18.84,19.57727a9.75284,9.75284,0,0,0,2.98181-7.35A11.49127,11.49127,0,0,0,21.64,10.18182Z"/><path class="uim-secondary" d="M12.22182,5.97728a5.40214,5.40214,0,0,1,3.82273,1.49545l2.86819-2.86818A9.61049,9.61049,0,0,0,12.22182,2,9.99624,9.99624,0,0,0,3.28544,7.5091L6.62636,10.1a5.95963,5.95963,0,0,1,5.59546-4.12273Z"/><path class="uim-primary" d="M3.28547,7.50908a10.01258,10.01258,0,0,0,0,8.98181L6.62634,13.9a5.91266,5.91266,0,0,1,0-3.8Z"/><path class="uim-tertiary" d="M15.60822,17.06822A6.033,6.033,0,0,1,6.62634,13.9L3.28547,16.49089A9.99614,9.99614,0,0,0,12.22185,22,9.54729,9.54729,0,0,0,18.84,19.57731Z"/></g></svg>