<svg xmlns="http://www.w3.org/2000/svg" data-name="Layer 1" viewBox="0 0 24 24"><path class="uim-quaternary" d="M3.625,22.999a1.36609,1.36609,0,0,1-.68652-.18066,1.43825,1.43825,0,0,1-.69434-1.27246V2.56055a1.51864,1.51864,0,0,1,.73828-1.36426,1.64389,1.64389,0,0,1,1.65625.05957L16.89355,8.33105l.00293.002c1.01172.58887,3.708,2.15332,4.02247,2.32324a1.47371,1.47371,0,0,1,.83691,1.27441,1.52352,1.52352,0,0,1-.8418,1.332L16.89355,15.585S4.84375,22.541,4.45508,22.7666A1.67327,1.67327,0,0,1,3.625,22.999Z"/><path class="uim-tertiary" d="M14.556,12.89526l2.57251,2.554,3.78552-2.18652a1.52352,1.52352,0,0,0,.8418-1.332,1.47371,1.47371,0,0,0-.83691-1.27441c-.31446-.16992-3.01075-1.73437-4.02247-2.32324l-.00293-.002L4.63867,1.25586a1.64389,1.64389,0,0,0-1.65625-.05957,1.42352,1.42352,0,0,0-.1427.11084Z"/><path class="uim-secondary" d="M20.919,10.65625c-.29426-.15894-2.65741-1.52954-3.791-2.18872l-2.59662,2.57788L2.78534,22.69849a1.30167,1.30167,0,0,0,.15314.11987A1.36609,1.36609,0,0,0,3.625,22.999a1.67327,1.67327,0,0,0,.83008-.23242C4.84375,22.541,16.89355,15.585,16.89355,15.585l4.02051-2.32226a1.52352,1.52352,0,0,0,.8418-1.332A1.47371,1.47371,0,0,0,20.919,10.65625Z"/><path class="uim-primary" d="M20.919,10.65625c-.74429-.40077-3.37006-1.94385-3.791-2.18872l-2.59656,2.57788-.92145.91406.94611.93579,2.57251,2.554,3.78552-2.18652a1.52352,1.52352,0,0,0,.8418-1.332A1.47371,1.47371,0,0,0,20.919,10.65625Z"/></svg>