<svg xmlns="http://www.w3.org/2000/svg" data-name="Layer 1" viewBox="0 0 24 24"><path class="uim-primary" d="M21,15.50048h0a1,1,0,0,1-1-1V10.5h1a1,1,0,0,1,1,1v3.00048A1,1,0,0,1,21,15.50048Z"/><path class="uim-primary" d="M22,11.94841v-.88592a1,1,0,0,0-.51306-.87343L18.16919,8.33941l-1.70789,1.339L20,10.88335v1.06506Z"/><path class="uim-tertiary" stroke="#b2b1ff" stroke-linecap="round" stroke-miterlimit="10" stroke-width="2" d="M17,12.17048v5.33a2,2,0,0,1-2,2H7a2,2,0,0,1-2-2v-5.33"/><path class="uim-primary" d="M20.4856,9.62628,11.48584,4.62646a1.0942,1.0942,0,0,0-.97168,0l-9,5a1,1,0,0,0,0,1.74805l9,5a1.01167,1.01167,0,0,0,.97168,0l8.99976-4.99988A1,1,0,0,0,20.4856,9.62628Z"/></svg>