<svg xmlns="http://www.w3.org/2000/svg" viewBox="0 0 24 24"><path class="uim-primary" d="M22,6H2V3A1,1,0,0,1,3,2H21a1,1,0,0,1,1,1Z"/><rect width="9" height="6" x="2" y="8" class="uim-tertiary"/><path class="uim-tertiary" d="M2,16h9a0,0,0,0,1,0,0v6a0,0,0,0,1,0,0H3a1,1,0,0,1-1-1V16A0,0,0,0,1,2,16Z"/><rect width="9" height="6" x="13" y="8" class="uim-tertiary"/><path class="uim-tertiary" d="M14,16h8a0,0,0,0,1,0,0v6a0,0,0,0,1,0,0H13a0,0,0,0,1,0,0V17A1,1,0,0,1,14,16Z" transform="rotate(-180 17.5 19)"/><polygon class="uim-quaternary" points="22 8 22 6 2 6 2 8 11 8 11 14 2 14 2 16 11 16 11 22 13 22 13 16 22 16 22 14 13 14 13 8 22 8"/></svg>