<svg xmlns="http://www.w3.org/2000/svg" data-name="Layer 1" viewBox="0 0 24 24"><circle cx="12" cy="12" r="10" class="uim-tertiary"/><path class="uim-primary" d="M9.91406,10.83594a.99676.99676,0,0,1-.707-.293,1.03323,1.03323,0,0,0-1.41406,0A.99989.99989,0,1,1,6.37891,9.12891a3.07249,3.07249,0,0,1,4.24218,0,1,1,0,0,1-.707,1.707Z"/><circle cx="15" cy="10" r="1" class="uim-primary"/><path class="uim-secondary" d="M12,14h0a2,2,0,0,1,2,2v1a0,0,0,0,1,0,0H10a0,0,0,0,1,0,0V16a2,2,0,0,1,2-2Z" transform="rotate(180 12 15.5)"/><path class="uim-secondary" d="M12,18a3.00328,3.00328,0,0,1-3-3V14a.99943.99943,0,0,1,1-1h4a.99943.99943,0,0,1,1,1v1A3.00328,3.00328,0,0,1,12,18Zm-1-3a1,1,0,0,0,2,0Z"/></svg>