<svg xmlns="http://www.w3.org/2000/svg" data-name="Layer 1" viewBox="0 0 24 24"><circle cx="12" cy="12" r="10" class="uim-tertiary"/><path class="uim-primary" d="M16.91406,10.83594a.99676.99676,0,0,1-.707-.293,1.03323,1.03323,0,0,0-1.41406,0,.99989.99989,0,0,1-1.41406-1.41406,3.07249,3.07249,0,0,1,4.24218,0,1,1,0,0,1-.707,1.707Z"/><circle cx="9" cy="10" r="1" class="uim-primary"/><path class="uim-secondary" d="M10,14h4a0,0,0,0,1,0,0v1a2,2,0,0,1-2,2h0a2,2,0,0,1-2-2V14A0,0,0,0,1,10,14Z"/><path class="uim-secondary" d="M12,18a3.00328,3.00328,0,0,1-3-3V14a.99943.99943,0,0,1,1-1h4a.99943.99943,0,0,1,1,1v1A3.00328,3.00328,0,0,1,12,18Zm-1-3a1,1,0,0,0,2,0Z"/></svg>