<svg xmlns="http://www.w3.org/2000/svg" data-name="Layer 1" viewBox="0 0 24 24"><path class="uim-tertiary" d="M11,6.37965h0a4.68627,4.68627,0,0,0-6.6274,0h0a4.68627,4.68627,0,0,0,0,6.6274l1.65686,1.65686L9.74292,18.3774a1.77777,1.77777,0,0,0,2.51416,0l5.37033-5.37033h0a4.68627,4.68627,0,0,0,0-6.62739l0,0a4.68627,4.68627,0,0,0-6.6274,0Z"/><path class="uim-tertiary" d="M11,19.897a2.76851,2.76851,0,0,1-1.96387-.8125L3.666,13.71387A5.68677,5.68677,0,0,1,11,5.0708a5.68682,5.68682,0,0,1,7.334,8.64356l-5.37011,5.37011A2.76851,2.76851,0,0,1,11,19.897ZM7.68652,6.00684a3.68572,3.68572,0,0,0-2.60644,6.29248l5.37012,5.37109a.7792.7792,0,0,0,1.0996,0l5.37012-5.37061a3.68438,3.68438,0,0,0,0-5.2124A3.77354,3.77354,0,0,0,11.707,7.08691a1.02932,1.02932,0,0,1-1.41406,0A3.66253,3.66253,0,0,0,7.68652,6.00684Z"/><path class="uim-primary" d="M16.5,14.41455l-.0332-.00049a1.00319,1.00319,0,0,1-.71973-.34082l-2.7959-3.1958L11.707,12.12158a.99928.99928,0,0,1-.707.293H9a1,1,0,0,1,0-2h1.58594l1.707-1.707A.98775.98775,0,0,1,13.0332,8.415a1.00323,1.00323,0,0,1,.71973.34082l2.7959,3.1958L17.793,10.70752a.99928.99928,0,0,1,.707-.293H21a1,1,0,0,1,0,2H18.91406l-1.707,1.707A.99891.99891,0,0,1,16.5,14.41455Z"/></svg>