<svg xmlns="http://www.w3.org/2000/svg" viewBox="0 0 24 24"><path class="uim-primary" d="M12 8a.99974.99974 0 0 1-1-1V3a1 1 0 0 1 2 0V7A.99974.99974 0 0 1 12 8zM12 22a.99974.99974 0 0 1-1-1V17a1 1 0 0 1 2 0v4A.99974.99974 0 0 1 12 22z"/><path class="uim-quaternary" d="M18,12H6a.99974.99974,0,0,1-1-1V7A.99974.99974,0,0,1,6,6H18a.99974.99974,0,0,1,1,1v4A.99974.99974,0,0,1,18,12Z"/><path class="uim-tertiary" d="M21,18H3a.99974.99974,0,0,1-1-1V11a.99974.99974,0,0,1,1-1H21a.99974.99974,0,0,1,1,1v6A.99974.99974,0,0,1,21,18Z"/></svg>