<svg xmlns="http://www.w3.org/2000/svg" viewBox="0 0 24 24"><path class="uim-primary" d="M17 22a.99943.99943 0 0 1-1-1V18a1 1 0 0 1 2 0v3A.99943.99943 0 0 1 17 22zM17 7a.99943.99943 0 0 1-1-1V3a1 1 0 0 1 2 0V6A.99943.99943 0 0 1 17 7zM8 22a.99943.99943 0 0 1-1-1V19a1 1 0 0 1 2 0v2A.99943.99943 0 0 1 8 22zM8 6A.99943.99943 0 0 1 7 5V3A1 1 0 0 1 9 3V5A.99943.99943 0 0 1 8 6z"/><path class="uim-tertiary" d="M11,20H5a.99943.99943,0,0,1-1-1V5A.99943.99943,0,0,1,5,4h6a.99943.99943,0,0,1,1,1V19A.99943.99943,0,0,1,11,20Z"/><path class="uim-quaternary" d="M19,19H15a.99943.99943,0,0,1-1-1V6a.99943.99943,0,0,1,1-1h4a.99943.99943,0,0,1,1,1V18A.99943.99943,0,0,1,19,19Z"/></svg>