<svg xmlns="http://www.w3.org/2000/svg" viewBox="0 0 24 24"><path class="uim-tertiary" d="M19,20H13a.99943.99943,0,0,1-1-1V5a.99943.99943,0,0,1,1-1h6a.99943.99943,0,0,1,1,1V19A.99943.99943,0,0,1,19,20Z"/><path class="uim-quaternary" d="M9,19H5a.99943.99943,0,0,1-1-1V6A.99943.99943,0,0,1,5,5H9a.99943.99943,0,0,1,1,1V18A.99943.99943,0,0,1,9,19Z"/><path class="uim-primary" d="M9 22a.99943.99943 0 0 1-1-1V3a1 1 0 0 1 2 0V21A.99943.99943 0 0 1 9 22zM19 22a.99943.99943 0 0 1-1-1V3a1 1 0 0 1 2 0V21A.99943.99943 0 0 1 19 22z"/></svg>