<svg xmlns="http://www.w3.org/2000/svg" viewBox="0 0 24 24"><path class="uim-tertiary" d="M11,20H5a.99943.99943,0,0,1-1-1V5A.99943.99943,0,0,1,5,4h6a.99943.99943,0,0,1,1,1V19A.99943.99943,0,0,1,11,20Z"/><path class="uim-quaternary" d="M19,19H15a.99943.99943,0,0,1-1-1V6a.99943.99943,0,0,1,1-1h4a.99943.99943,0,0,1,1,1V18A.99943.99943,0,0,1,19,19Z"/><path class="uim-primary" d="M15 22a.99943.99943 0 0 1-1-1V3a1 1 0 0 1 2 0V21A.99943.99943 0 0 1 15 22zM5 22a.99943.99943 0 0 1-1-1V3A1 1 0 0 1 6 3V21A.99943.99943 0 0 1 5 22z"/></svg>