<svg xmlns="http://www.w3.org/2000/svg" data-name="Layer 1" viewBox="0 0 24 24"><path class="uim-quaternary" d="M15,11.65723a2.97927,2.97927,0,0,1,.87793-2.1211l.65771-.65722A4.968,4.968,0,0,0,18,5.34277V2a.99974.99974,0,0,0-1-1H7A.99974.99974,0,0,0,6,2V5.34277A4.97035,4.97035,0,0,0,7.46484,8.87988l.65674.65528A2.98161,2.98161,0,0,1,9,11.65723V12.667a3.02145,3.02145,0,0,1-.59961,1.79981L6.99951,16.334A5.03039,5.03039,0,0,0,6,19.333V22a.99974.99974,0,0,0,1,1H17a.99974.99974,0,0,0,1-1V19.333a5.0276,5.0276,0,0,0-1-2.999L15.6001,14.4668A3.01866,3.01866,0,0,1,15,12.667V11.65723Z"/><path class="uim-tertiary" d="M13,12v-.34547a2.99475,2.99475,0,0,1,.87793-2.1184l.65771-.65722A4.94642,4.94642,0,0,0,15.93585,6H8.06415A4.94981,4.94981,0,0,0,9.46484,8.87988l.6534.65194A3.00244,3.00244,0,0,1,11,11.65723V12Z"/><path class="uim-primary" d="M19,3H5A1,1,0,0,1,5,1H19a1,1,0,0,1,0,2Z"/><path class="uim-tertiary" d="M15,23H9a.99974.99974,0,0,1-1-1V19.333a4.98574,4.98574,0,0,1,.28613-1.667A1,1,0,0,1,9.229,17h5.542a1,1,0,0,1,.94287.666A4.98574,4.98574,0,0,1,16,19.333V22A.99974.99974,0,0,1,15,23Z"/><path class="uim-primary" d="M19,23H5a1,1,0,0,1,0-2H19a1,1,0,0,1,0,2Z"/></svg>