<svg xmlns="http://www.w3.org/2000/svg" viewBox="0 0 24 24"><polygon class="uim-primary" points="3.195 2 4.797 19.994 11.989 22 19.201 19.987 20.805 2 3.195 2"/><polygon class="uim-tertiary" points="17.476 6.123 16.942 12.117 16.944 12.15 16.942 12.224 16.942 12.223 16.562 16.415 16.521 16.787 12 18.037 12 18.038 11.996 18.041 7.484 16.783 7.178 13.318 9.391 13.318 9.548 15.08 12.001 15.745 12 15.746 14.461 15.071 14.722 12.202 9.576 12.202 9.532 11.717 9.431 10.581 9.379 9.97 14.917 9.97 15.119 7.739 6.682 7.739 6.638 7.254 6.538 6.117 6.485 5.507 17.529 5.507 17.476 6.123"/></svg>