<svg xmlns="http://www.w3.org/2000/svg" data-name="Layer 1" viewBox="0 0 24 24"><path class="uim-tertiary" d="M19.49271,20h-14a3.00328,3.00328,0,0,1-3-3V7a3.00328,3.00328,0,0,1,3-3h14a3.00328,3.00328,0,0,1,3,3V17A3.00328,3.00328,0,0,1,19.49271,20Z"/><path class="uim-quaternary" d="M18.6143,11.88672a3.05066,3.05066,0,0,0-4.23682-.00586l-1.58985,1.58008a.99963.99963,0,0,0-.00292,1.415l4.6748,4.68457L17.63419,20h1.85852a3.00328,3.00328,0,0,0,3-3v-.83008a1.00043,1.00043,0,0,0-.29394-.708Z"/><path class="uim-secondary" d="M5.49271,20h14a2.96831,2.96831,0,0,0,1.03815-.19617L10.6143,9.88672a3.05,3.05,0,0,0-4.2378-.00488L2.78666,13.46191a1.00044,1.00044,0,0,0-.29395.708V17A3.00328,3.00328,0,0,0,5.49271,20Z"/><path class="uim-primary" d="M20.49316,22a.99678.99678,0,0,1-.707-.293l-18-18A.99989.99989,0,0,1,3.2002,2.293l18,18a1,1,0,0,1-.707,1.707Z"/></svg>