<svg xmlns="http://www.w3.org/2000/svg" viewBox="0 0 24 24"><path class="uim-tertiary" d="M19,20H5a3.00328,3.00328,0,0,1-3-3V7A3.00328,3.00328,0,0,1,5,4H19a3.00328,3.00328,0,0,1,3,3V17A3.00328,3.00328,0,0,1,19,20Z"/><path class="uim-quaternary" d="M18.12158,11.88672a3.05065,3.05065,0,0,0-4.23681-.00586l-1.58985,1.58008a.99965.99965,0,0,0-.00293,1.415l4.67481,4.68457L17.14148,20H19a3.00328,3.00328,0,0,0,3-3v-.83008a1.00044,1.00044,0,0,0-.29395-.708Z"/><path class="uim-primary" d="M5,20H19a2.96835,2.96835,0,0,0,1.03815-.19617L10.12158,9.88672a3.05,3.05,0,0,0-4.23779-.00488L2.294,13.46191a1.00044,1.00044,0,0,0-.294.708V17A3.00328,3.00328,0,0,0,5,20Z"/></svg>