<svg xmlns="http://www.w3.org/2000/svg" viewBox="0 0 24 24"><path class="uim-quaternary" d="M18,5H8A3.00879,3.00879,0,0,0,5,8V18a3.03979,3.03979,0,0,0,.68,1.8999,2.95645,2.95645,0,0,0,1.75,1.04A2.68706,2.68706,0,0,0,8,21H18a2.99606,2.99606,0,0,0,3-3V8A3.00879,3.00879,0,0,0,18,5Z"/><path class="uim-secondary" d="M14.1,12.89l-.71-.71008L12.58,11.37a2.92746,2.92746,0,0,0-4.12.02L5,15.01V18a3.03979,3.03979,0,0,0,.68,1.8999,2.95645,2.95645,0,0,0,1.75,1.04c.32-.29993.62-.58.65-.61l6.02-6.0199A1.008,1.008,0,0,0,14.1,12.89Z"/><path class="uim-tertiary" d="M17.92,11.27a2.55905,2.55905,0,0,0-3.62,0l-.91.90991-6.72,6.73-.99.99a2.95645,2.95645,0,0,0,1.75,1.04A2.68706,2.68706,0,0,0,8,21H18a2.99606,2.99606,0,0,0,3-3V14.36Z"/><path class="uim-tertiary" d="M15,2H5A3.00879,3.00879,0,0,0,2,5V15a3.03979,3.03979,0,0,0,.68,1.8999,2.95645,2.95645,0,0,0,1.75,1.04A2.68706,2.68706,0,0,0,5,18H15a2.99606,2.99606,0,0,0,3-3V5A3.00879,3.00879,0,0,0,15,2Z"/><path class="uim-quaternary" d="M11.1,9.89l-.71-.71008L9.58,8.37a2.92746,2.92746,0,0,0-4.12.02L2,12.01V15a3.03979,3.03979,0,0,0,.68,1.8999,2.95645,2.95645,0,0,0,1.75,1.04c.32-.29993.62-.58.65-.61l6.02-6.0199A1.008,1.008,0,0,0,11.1,9.89Z"/><path class="uim-primary" d="M14.92,8.27a2.55905,2.55905,0,0,0-3.62,0l-.91.90991-6.72,6.73-.99.99a2.95645,2.95645,0,0,0,1.75,1.04A2.68706,2.68706,0,0,0,5,18H15a2.99606,2.99606,0,0,0,3-3V11.36Z"/></svg>