<svg xmlns="http://www.w3.org/2000/svg" viewBox="0 0 24 24"><path class="uim-tertiary" d="M17,4H5A3.00879,3.00879,0,0,0,2,7V19a3.00887,3.00887,0,0,0,3,3H17a1.83787,1.83787,0,0,0,.41-.04,2.89446,2.89446,0,0,0,1.84-.99A2.95865,2.95865,0,0,0,20,19V7A3.00879,3.00879,0,0,0,17,4Z"/><path class="uim-quaternary" d="M16.52,12.90991a2.84547,2.84547,0,0,0-3.93,0l-1.41,1.41016a.96667.96667,0,0,0-.29.7.98952.98952,0,0,0,.29.71l6.23,6.23a2.89446,2.89446,0,0,0,1.84-.99A2.95865,2.95865,0,0,0,20,19V16.38Z"/><path class="uim-primary" d="M11.89 13.61L9.41 11.12a2.85519 2.85519 0 0 0-3.93 0L2 14.6V19a3.00887 3.00887 0 0 0 3 3H17a1.83787 1.83787 0 0 0 .41-.04 2.89446 2.89446 0 0 0 1.84-.99zM16.91992 8a.998.998 0 0 1-.70019-.28613L14.2998 5.83105a.99994.99994 0 1 1 1.4004-1.42773l1.21972 1.19629L20.2998 2.28613a.99995.99995 0 1 1 1.4004 1.42774l-4.08008 4A.998.998 0 0 1 16.91992 8z"/></svg>