<svg xmlns="http://www.w3.org/2000/svg" viewBox="0 0 24 24"><path class="uim-tertiary" d="M16.5,4.496H4.5a3.00879,3.00879,0,0,0-3,3v12a3.00886,3.00886,0,0,0,3,3h12a1.83787,1.83787,0,0,0,.41-.04,2.89446,2.89446,0,0,0,1.84-.99,2.95863,2.95863,0,0,0,.75-1.97v-12A3.00879,3.00879,0,0,0,16.5,4.496Z"/><path class="uim-quaternary" d="M16.02,13.40591a2.84545,2.84545,0,0,0-3.93,0l-1.41,1.41015a.96667.96667,0,0,0-.29.69995.98952.98952,0,0,0,.29.71l6.23,6.23a2.89446,2.89446,0,0,0,1.84-.99,2.95863,2.95863,0,0,0,.75-1.97v-2.62Z"/><path class="uim-primary" d="M11.39 14.106l-2.48-2.49a2.85519 2.85519 0 0 0-3.93 0L1.5 15.096v4.4a3.00886 3.00886 0 0 0 3 3h12a1.83787 1.83787 0 0 0 .41-.04 2.89446 2.89446 0 0 0 1.84-.99zM18.5 11.50391a.9981.9981 0 0 1-.59473-.19629l-1.56445-1.15821A4.61167 4.61167 0 0 1 14.5 6.45215V3.1377a.99873.99873 0 0 1 .37207-.77832 1.01027 1.01027 0 0 1 .83984-.19922 2.74649 2.74649 0 0 0 2.20118-.46582.99964.99964 0 0 1 1.17382 0 2.74492 2.74492 0 0 0 2.20118.46582A1.00026 1.00026 0 0 1 22.5 3.1377V6.45215a4.61038 4.61038 0 0 1-1.83984 3.69629l-1.56543 1.15918A.9981.9981 0 0 1 18.5 11.50391z"/></svg>