<svg xmlns="http://www.w3.org/2000/svg" viewBox="0 0 24 24"><path class="uim-tertiary" d="M19,2H5A3.00879,3.00879,0,0,0,2,5v8.86L5.88,9.98a3.07531,3.07531,0,0,1,4.24,0l2.87139,2.887.88752-.88751a3.00846,3.00846,0,0,1,4.24218,0L22,15.8584V5A3.00879,3.00879,0,0,0,19,2Z"/><path class="uim-primary" d="M10.12,9.98a3.07531,3.07531,0,0,0-4.24,0L2,13.86V19a3.00882,3.00882,0,0,0,3,3H19a2.9986,2.9986,0,0,0,2.16-.92Z"/><path class="uim-quaternary" d="M22,15.8584l-3.87891-3.87891a3.00849,3.00849,0,0,0-4.24218,0l-.88752.88751,8.16425,8.20856A2.96485,2.96485,0,0,0,22,19Z"/></svg>