<svg xmlns="http://www.w3.org/2000/svg" viewBox="0 0 24 24"><path class="uim-tertiary" d="M18,4H6A3.00879,3.00879,0,0,0,3,7V19a3.00887,3.00887,0,0,0,3,3H18a1.83787,1.83787,0,0,0,.41-.04,2.89446,2.89446,0,0,0,1.84-.99A2.95865,2.95865,0,0,0,21,19V7A3.00879,3.00879,0,0,0,18,4Z"/><path class="uim-quaternary" d="M17.52,12.90991a2.84547,2.84547,0,0,0-3.93,0l-1.41,1.41016a.96667.96667,0,0,0-.29.7.98952.98952,0,0,0,.29.71l6.23,6.23a2.89446,2.89446,0,0,0,1.84-.99A2.95865,2.95865,0,0,0,21,19V16.38Z"/><path class="uim-primary" d="M12.89 13.61l-2.48-2.49a2.85519 2.85519 0 0 0-3.93 0L3 14.6V19a3.00887 3.00887 0 0 0 3 3H18a1.83787 1.83787 0 0 0 .41-.04 2.89446 2.89446 0 0 0 1.84-.99zM20 11.00391a.99943.99943 0 0 1-1-1v-4a1 1 0 0 1 2 0v4A.99943.99943 0 0 1 20 11.00391zM20 4a.99042.99042 0 0 1-1-1 .83154.83154 0 0 1 .08008-.37988.98568.98568 0 0 1 .21-.32032 1.03671 1.03671 0 0 1 1.41992 0 .98568.98568 0 0 1 .21.32032A.99013.99013 0 0 1 20 4z"/></svg>