<svg xmlns="http://www.w3.org/2000/svg" viewBox="0 0 24 24"><path class="uim-tertiary" d="M17,4H5A3.00879,3.00879,0,0,0,2,7V19a3.00887,3.00887,0,0,0,3,3H17a1.83787,1.83787,0,0,0,.41-.04,2.89446,2.89446,0,0,0,1.84-.99A2.95865,2.95865,0,0,0,20,19V7A3.00879,3.00879,0,0,0,17,4Z"/><path class="uim-quaternary" d="M16.52,12.90991a2.84547,2.84547,0,0,0-3.93,0l-1.41,1.41016a.96667.96667,0,0,0-.29.7.98952.98952,0,0,0,.29.71l6.23,6.23a2.89446,2.89446,0,0,0,1.84-.99A2.95865,2.95865,0,0,0,20,19V16.38Z"/><path class="uim-primary" d="M11.89 13.61L9.41 11.12a2.85519 2.85519 0 0 0-3.93 0L2 14.6V19a3.00887 3.00887 0 0 0 3 3H17a1.83787 1.83787 0 0 0 .41-.04 2.89446 2.89446 0 0 0 1.84-.99zM14.68066 7.59082a.99979.99979 0 0 1-.41845-1.9082l4.50634-2.07324a.99976.99976 0 1 1 .83594 1.8164L15.09814 7.499A.99232.99232 0 0 1 14.68066 7.59082z"/><path class="uim-primary" d="M19.186,9.66406a.99238.99238,0,0,1-.41749-.09179L14.26221,7.499a.99976.99976,0,1,1,.83593-1.8164l4.50635,2.07324a.9998.9998,0,0,1-.41845,1.9082Z"/><circle cx="20" cy="4" r="2" class="uim-primary"/><circle cx="15" cy="6.5" r="2" class="uim-primary"/><circle cx="20" cy="9" r="2" class="uim-primary"/></svg>