<svg xmlns="http://www.w3.org/2000/svg" viewBox="0 0 24 24"><path class="uim-tertiary" d="M17,4H5A3.00879,3.00879,0,0,0,2,7V19a3.00887,3.00887,0,0,0,3,3H17a1.83787,1.83787,0,0,0,.41-.04,2.89446,2.89446,0,0,0,1.84-.99A2.95865,2.95865,0,0,0,20,19V7A3.00879,3.00879,0,0,0,17,4Z"/><path class="uim-quaternary" d="M11.89 13.61L9.41 11.12a2.85519 2.85519 0 0 0-3.93 0L2 14.6V19a3.00887 3.00887 0 0 0 3 3H17a1.83787 1.83787 0 0 0 .41-.04 2.89446 2.89446 0 0 0 1.84-.99zM19 7H15a.99943.99943 0 0 1-1-1V4a3 3 0 0 1 6 0V6A.99943.99943 0 0 1 19 7zM16 5h2V4a1 1 0 0 0-2 0z"/><path class="uim-primary" d="M19,13H15a3.00328,3.00328,0,0,1-3-3V8a3.00328,3.00328,0,0,1,3-3h4a3.00328,3.00328,0,0,1,3,3v2A3.00328,3.00328,0,0,1,19,13Z"/></svg>