<svg xmlns="http://www.w3.org/2000/svg" viewBox="0 0 24 24"><path class="uim-primary" d="M21 22h-.1001a1.00028 1.00028 0 0 1-.3247-1.94629A.93626.93626 0 0 1 21 19.9502a.95844.95844 0 0 1 1 .95019A1.08963 1.08963 0 0 1 21 22zM21 17.61133a.99974.99974 0 0 1-1-1v-.21485a1 1 0 1 1 2 0v.21485A.99974.99974 0 0 1 21 17.61133zm0-4.50391a.99973.99973 0 0 1-1-1v-.21387a1 1 0 1 1 2 0v.21387A.99973.99973 0 0 1 21 13.10742zm0-4.50293a.99973.99973 0 0 1-1-1V7.38965a1 1 0 0 1 2 0v.21484A.99973.99973 0 0 1 21 8.60449zM21 4.0498a1.04748 1.04748 0 0 1-.61426-.19238A.99982.99982 0 0 1 20.8999 2H21a.99974.99974 0 0 1 1 1A1.04345 1.04345 0 0 1 21 4.0498zM16.61084 4h-.21436a1 1 0 0 1 0-2h.21436a1 1 0 0 1 0 2zM12.10742 4h-.21484a1 1 0 0 1 0-2h.21484a1 1 0 0 1 0 2zM7.60352 4H7.38916a1 1 0 0 1 0-2h.21436a1 1 0 0 1 0 2zM3 4.0498a.95844.95844 0 0 1-1-.95019A1.08963 1.08963 0 0 1 3 2h.1001a1.00028 1.00028 0 0 1 .3247 1.94629A.93626.93626 0 0 1 3 4.0498zM3 17.61035a.99973.99973 0 0 1-1-1v-.21484a1 1 0 1 1 2 0v.21484A.99973.99973 0 0 1 3 17.61035zm0-4.5039a.99974.99974 0 0 1-1-1v-.21387a1 1 0 0 1 2 0v.21387A.99974.99974 0 0 1 3 13.10645zM3 8.60352a.99974.99974 0 0 1-1-1V7.38867a1 1 0 0 1 2 0v.21485A.99974.99974 0 0 1 3 8.60352zM3.1001 22H3a.99974.99974 0 0 1-1-1 1.04345 1.04345 0 0 1 1-1.0498 1.04748 1.04748 0 0 1 .61426.19238A.99982.99982 0 0 1 3.1001 22zM16.61084 22h-.21436a1 1 0 1 1 0-2h.21436a1 1 0 0 1 0 2zm-4.50342 0h-.21484a1 1 0 0 1 0-2h.21484a1 1 0 0 1 0 2zm-4.5039 0H7.38916a1 1 0 0 1 0-2h.21436a1 1 0 0 1 0 2z"/><path class="uim-tertiary" d="M13,22H3a.99974.99974,0,0,1-1-1V11a.99974.99974,0,0,1,1-1H13a.99974.99974,0,0,1,1,1V21A.99974.99974,0,0,1,13,22Z"/><path class="uim-primary" d="M11.31641,14.68262a2.33937,2.33937,0,0,0-3.30323,0L2,20.6958V21a.99974.99974,0,0,0,1,1H13a.99974.99974,0,0,0,1-1V17.78027a.99928.99928,0,0,0-.293-.707Z"/></svg>