<svg xmlns="http://www.w3.org/2000/svg" viewBox="0 0 24 24"><path class="uim-tertiary" d="M17,3.996H5a3.00879,3.00879,0,0,0-3,3v12a3.00886,3.00886,0,0,0,3,3H17a1.83787,1.83787,0,0,0,.41-.04,2.89446,2.89446,0,0,0,1.84-.99,2.95863,2.95863,0,0,0,.75-1.97v-12A3.00879,3.00879,0,0,0,17,3.996Z"/><path class="uim-quaternary" d="M16.52,12.90591a2.84545,2.84545,0,0,0-3.93,0l-1.41,1.41015a.96667.96667,0,0,0-.29.69995.98952.98952,0,0,0,.29.71l6.23,6.23a2.89446,2.89446,0,0,0,1.84-.99,2.95863,2.95863,0,0,0,.75-1.97v-2.62Z"/><path class="uim-primary" d="M11.89 13.606l-2.48-2.49a2.85519 2.85519 0 0 0-3.93 0L2 14.596v4.4a3.00886 3.00886 0 0 0 3 3H17a1.83787 1.83787 0 0 0 .41-.04 2.89446 2.89446 0 0 0 1.84-.99zM19 8.00391a1 1 0 0 1 0-2 1 1 0 1 0-.86719-1.499.9998.9998 0 0 1-1.73047-1.00195A3.00005 3.00005 0 1 1 19 8.00391zM19 11.00977a1.04 1.04 0 0 1-.71-.29981A.98946.98946 0 0 1 18 10a1.00622 1.00622 0 0 1 .29-.7002 1.77391 1.77391 0 0 1 .14941-.12988c.06055-.03027.12012-.06054.18067-.08984.05957-.02051.12011-.04.17968-.06055a1.03428 1.03428 0 0 1 .58008.06055A.99586.99586 0 0 1 20 10a1.03574 1.03574 0 0 1-.29.71 1.01181 1.01181 0 0 1-.33008.21973A.99959.99959 0 0 1 19 11.00977z"/></svg>