<svg xmlns="http://www.w3.org/2000/svg" viewBox="0 0 24 24"><path class="uim-tertiary" d="M17,4H5A3.00879,3.00879,0,0,0,2,7V19a3.00887,3.00887,0,0,0,3,3H17a1.83787,1.83787,0,0,0,.41-.04,2.89446,2.89446,0,0,0,1.84-.99A2.95865,2.95865,0,0,0,20,19V7A3.00879,3.00879,0,0,0,17,4Z"/><path class="uim-quaternary" d="M16.52,12.90991a2.84547,2.84547,0,0,0-3.93,0l-1.41,1.41016a.96667.96667,0,0,0-.29.7.98952.98952,0,0,0,.29.71l6.23,6.23a2.89446,2.89446,0,0,0,1.84-.99A2.95865,2.95865,0,0,0,20,19V16.38Z"/><path class="uim-primary" d="M11.89,13.61,9.41,11.12a2.85519,2.85519,0,0,0-3.93,0L2,14.6V19a3.00887,3.00887,0,0,0,3,3H17a1.83787,1.83787,0,0,0,.41-.04,2.89446,2.89446,0,0,0,1.84-.99Z"/><path class="uim-quaternary" d="M17,2a4.0109,4.0109,0,0,0-4,4.01963,4.00252,4.00252,0,0,0,1.17188,2.842,4.08221,4.08221,0,0,0,5.65624,0h0a4.0321,4.0321,0,0,0,0-5.684A3.9633,3.9633,0,0,0,17,2Z"/><path class="uim-primary" d="M17,11a4.99947,4.99947,0,0,1-3.53516-8.53516,4.99947,4.99947,0,1,1,7.07032,7.07032h0A4.96622,4.96622,0,0,1,17,11Zm0-8a2.99967,2.99967,0,0,0-2.12109,5.12109,3.07249,3.07249,0,0,0,4.24218,0h0A3,3,0,0,0,17,3Z"/><path class="uim-primary" d="M14.17188,9.82812a1,1,0,0,1-.707-1.707l5.65625-5.65625a.9999.9999,0,0,1,1.41407,1.41407L14.87891,9.53516A.99679.99679,0,0,1,14.17188,9.82812Z"/></svg>