<svg xmlns="http://www.w3.org/2000/svg" viewBox="0 0 24 24"><path class="uim-tertiary" d="M17,3H5A3.00879,3.00879,0,0,0,2,6V18a3.00887,3.00887,0,0,0,3,3H17a1.83787,1.83787,0,0,0,.41-.04,2.89446,2.89446,0,0,0,1.84-.99A2.95865,2.95865,0,0,0,20,18V6A3.00879,3.00879,0,0,0,17,3Z"/><path class="uim-quaternary" d="M16.52,11.90991a2.84547,2.84547,0,0,0-3.93,0l-1.41,1.41016a.96667.96667,0,0,0-.29.7.98952.98952,0,0,0,.29.71l6.23,6.23a2.89446,2.89446,0,0,0,1.84-.99A2.95865,2.95865,0,0,0,20,18V15.38Z"/><path class="uim-primary" d="M11.89 12.61L9.41 10.12a2.85519 2.85519 0 0 0-3.93 0L2 13.6V18a3.00887 3.00887 0 0 0 3 3H17a1.83787 1.83787 0 0 0 .41-.04 2.89446 2.89446 0 0 0 1.84-.99zM21 5.00781H17a1 1 0 0 1 0-2h4a1 1 0 0 1 0 2z"/></svg>