<svg xmlns="http://www.w3.org/2000/svg" viewBox="0 0 24 24"><path class="uim-tertiary" d="M16.5,4.496H4.5a3.00879,3.00879,0,0,0-3,3v12a3.00886,3.00886,0,0,0,3,3h12a1.83787,1.83787,0,0,0,.41-.04,2.89446,2.89446,0,0,0,1.84-.99,2.95863,2.95863,0,0,0,.75-1.97v-12A3.00879,3.00879,0,0,0,16.5,4.496Z"/><path class="uim-quaternary" d="M16.02,13.40591a2.84545,2.84545,0,0,0-3.93,0l-1.41,1.41015a.96667.96667,0,0,0-.29.69995.98952.98952,0,0,0,.29.71l6.23,6.23a2.89446,2.89446,0,0,0,1.84-.99,2.95863,2.95863,0,0,0,.75-1.97v-2.62Z"/><path class="uim-primary" d="M11.39 14.106l-2.48-2.49a2.85519 2.85519 0 0 0-3.93 0L1.5 15.096v4.4a3.00886 3.00886 0 0 0 3 3h12a1.83787 1.83787 0 0 0 .41-.04 2.89446 2.89446 0 0 0 1.84-.99zM21.5 1.50391a.99973.99973 0 0 0-1 1v.00488a4.99982 4.99982 0 1 0 .29785 7.74805A.99975.99975 0 1 0 19.48242 8.751a2.99912 2.99912 0 1 1 .25037-4.24707H18.5a1 1 0 0 0 0 2h3a.99974.99974 0 0 0 1-1v-3A.99973.99973 0 0 0 21.5 1.50391z"/></svg>