<svg xmlns="http://www.w3.org/2000/svg" viewBox="0 0 24 24"><path class="uim-primary" d="M12.09961 22.00781a1.04312 1.04312 0 0 1-1.04981-1 .95817.95817 0 0 1 .9502-1h.09961a1 1 0 0 1 0 2zM17.12012 22.00781h-.23926a1 1 0 1 1 0-2h.23926a1 1 0 0 1 0 2zM22 22.00781a1.04311 1.04311 0 0 1-1.0498-1 .98191.98191 0 0 1 .61035-.93847A.92611.92611 0 0 1 22 19.958a.95816.95816 0 0 1 1 .95019A1.08926 1.08926 0 0 1 22 22.00781zM22 17.61914a.99942.99942 0 0 1-1-1V16.4043a1 1 0 0 1 2 0v.21484A.99942.99942 0 0 1 22 17.61914zm0-4.50391a.99942.99942 0 0 1-1-1v-.21386a1 1 0 0 1 2 0v.21386A.99942.99942 0 0 1 22 13.11523zM22 8.6123a.99942.99942 0 0 1-1-1V7.39746a1 1 0 1 1 2 0V7.6123A.99942.99942 0 0 1 22 8.6123zM22 4.1084a.99931.99931 0 0 1-.94629-.67676.92145.92145 0 0 1-.10351-.42383.95816.95816 0 0 1 .95019-1 1.08927 1.08927 0 0 1 1.09961 1V3.1084A.99943.99943 0 0 1 22 4.1084zM18.09277 4.00781h-.19043a1 1 0 0 1 0-2h.19043a1 1 0 0 1 0 2zm-3.998 0H13.9043a1 1 0 0 1 0-2h.19043a1 1 0 0 1 0 2zm-3.99805 0H9.90625a1 1 0 0 1 0-2h.19043a1 1 0 0 1 0 2zm-3.998 0H5.9082a1 1 0 0 1 0-2h.19043a1 1 0 0 1 0 2zM2 4.1084a.99943.99943 0 0 1-1-1V3.00781a.99943.99943 0 0 1 1-1 1.04312 1.04312 0 0 1 1.0498 1 1.05025 1.05025 0 0 1-.19042.61231A.99973.99973 0 0 1 2 4.1084zM2 13.45605a.99942.99942 0 0 1-1-1V12.2334a1 1 0 0 1 2 0v.22265A.99942.99942 0 0 1 2 13.45605zM2 8.78223a.99943.99943 0 0 1-1-1V7.55957a1 1 0 0 1 2 0v.22266A.99943.99943 0 0 1 2 8.78223zM2 18.00781a.99942.99942 0 0 1-1-1A1.04312 1.04312 0 0 1 2 15.958a.95816.95816 0 0 1 1 .95019v.09961A.99942.99942 0 0 1 2 18.00781z"/><path class="uim-tertiary" d="M13,11.01H2a1.00291,1.00291,0,0,0-1,1v9a1.00291,1.00291,0,0,0,1,1H13a1.00291,1.00291,0,0,0,1-1v-9A1.00291,1.00291,0,0,0,13,11.01Z"/><path class="uim-primary" d="M13.71,19.09l-2.43-2.42a2.41056,2.41056,0,0,0-3.33,0L3.29,21.33A1.0257,1.0257,0,0,0,3,22.01H13a1.00291,1.00291,0,0,0,1-1v-1.21A1.033,1.033,0,0,0,13.71,19.09Z"/></svg>