<svg xmlns="http://www.w3.org/2000/svg" data-name="Layer 1" viewBox="0 0 24 24"><path class="uim-tertiary" d="M18,3H6A3.00879,3.00879,0,0,0,3,6V18a3.00887,3.00887,0,0,0,3,3H18a1.83787,1.83787,0,0,0,.41-.04,2.89446,2.89446,0,0,0,1.84-.99A2.95865,2.95865,0,0,0,21,18V6A3.00879,3.00879,0,0,0,18,3Z"/><path class="uim-quaternary" d="M17.52,11.90991a2.84547,2.84547,0,0,0-3.93,0l-1.41,1.41016a.96667.96667,0,0,0-.29.7.98952.98952,0,0,0,.29.71l6.23,6.23a2.89446,2.89446,0,0,0,1.84-.99A2.95865,2.95865,0,0,0,21,18V15.38Z"/><path class="uim-secondary" d="M12.89,12.61l-2.48-2.49a2.85519,2.85519,0,0,0-3.93,0L3,13.6V18a3.00887,3.00887,0,0,0,3,3H18a1.83787,1.83787,0,0,0,.41-.04,2.89446,2.89446,0,0,0,1.84-.99Z"/><path class="uim-primary" d="M21,22a.99676.99676,0,0,1-.707-.293l-18-18A.99989.99989,0,0,1,3.707,2.293l18,18A1,1,0,0,1,21,22Z"/></svg>