<svg xmlns="http://www.w3.org/2000/svg" viewBox="0 0 24 24"><g data-name="Brand Logos"><path class="uim-tertiary" d="M20.93633,7.56378A6.06051,6.06051,0,0,0,20.55868,5.525a3.40084,3.40084,0,0,0-.82117-1.26255A3.39847,3.39847,0,0,0,18.475,3.44132a6.09408,6.09408,0,0,0-2.03874-.37765C15.278,3.01176,14.93137,3,11.99973,3c-2.93055,0-3.27827.01071-4.43595.06367A6.06051,6.06051,0,0,0,5.525,3.44132a3.38967,3.38967,0,0,0-1.26255.82117,3.42523,3.42523,0,0,0-.82117,1.26305,6.096,6.096,0,0,0-.37765,2.03878C3.01176,8.7225,3,9.06918,3,12.00077s.01071,3.27881.06422,4.436a6.061,6.061,0,0,0,.37765,2.03879A3.385,3.385,0,0,0,4.263,19.73745a3.41011,3.41011,0,0,0,1.26255.82117,6.05852,6.05852,0,0,0,2.03873.37771C8.72146,20.98984,9.06918,21,11.99973,21c2.93164,0,3.27936-.01071,4.43649-.06367a6.05854,6.05854,0,0,0,2.03874-.37771,3.63526,3.63526,0,0,0,2.08372-2.08311,6.08985,6.08985,0,0,0,.37765-2.03879c.053-1.15818.06367-1.5059.06367-4.43645C21,9.06863,20.98929,8.722,20.93633,7.56378Z"/><path class="uim-primary" d="M17.79315,7.6178a2.45863,2.45863,0,0,0-1.4104-1.4104,4.132,4.132,0,0,0-1.37982-.25562c-.78381-.03564-1.01935-.04333-3.00262-.04333s-2.21857.0072-3.00177.04321a4.10022,4.10022,0,0,0-1.37977.25562,2.45858,2.45858,0,0,0-1.41046,1.4104,4.13386,4.13386,0,0,0-.25555,1.37976c-.03546.78387-.04321,1.01849-.04321,3.00268s.0072,2.21942.04321,3.00263a4.10261,4.10261,0,0,0,.25555,1.37982,2.46039,2.46039,0,0,0,1.41046,1.40979,4.10748,4.10748,0,0,0,1.37977.25561v.00013c.78295.036,1.01757.04321,3.00177.04321s2.21942-.0072,3.00262-.04321a4.10355,4.10355,0,0,0,1.37982-.25562,2.46044,2.46044,0,0,0,1.4104-1.40979,4.12339,4.12339,0,0,0,.25562-1.37982c.036-.78388.04321-1.01843.04321-3.00263s-.0072-2.21881-.04321-3.00268A4.10345,4.10345,0,0,0,17.79315,7.6178Zm-5.79284,8.19745A3.81515,3.81515,0,0,1,8.18506,12h.00006a3.81522,3.81522,0,1,1,3.81519,3.81525Zm3.966-6.88983a.89161.89161,0,0,1,.00036-1.78321H15.967a.89161.89161,0,1,1-.00073,1.78321Z"/><path class="uim-primary" d="M12.00031,9.52307A2.4769,2.4769,0,1,0,14.47717,12,2.47663,2.47663,0,0,0,12.00031,9.52307Z"/><path class="uim-primary" d="M21.92926,7.07086a6.73361,6.73361,0,0,0-.41962-2.26526,3.77863,3.77863,0,0,0-.91241-1.40283,3.776,3.776,0,0,0-1.40283-.91241,6.771,6.771,0,0,0-2.26526-.41962C15.64221,2.01306,15.25708,2,11.99969,2c-3.25616,0-3.64251.0119-4.92883.07074a6.73361,6.73361,0,0,0-2.26526.41962,3.76615,3.76615,0,0,0-1.40283.91241,3.80575,3.80575,0,0,0-.91241,1.40338,6.773,6.773,0,0,0-.41962,2.26532C2.01306,8.35834,2,8.74353,2,12.00085s.0119,3.64313.07135,4.92884A6.73442,6.73442,0,0,0,2.491,19.195a3.76111,3.76111,0,0,0,.91241,1.40216,3.78913,3.78913,0,0,0,1.40283.91241,6.73164,6.73164,0,0,0,2.26526.41968C8.35718,21.98871,8.74353,22,11.99969,22c3.25739,0,3.64374-.0119,4.92945-.07074a6.73164,6.73164,0,0,0,2.26526-.41968A4.03917,4.03917,0,0,0,21.50964,19.195a6.76615,6.76615,0,0,0,.41962-2.26532C21.9881,15.64282,22,15.25647,22,12.00031,22,8.74292,21.9881,8.35779,21.92926,7.07086Zm-2.54388,7.99237a5.43448,5.43448,0,0,1-.3451,1.80353A3.79936,3.79936,0,0,1,16.86707,19.04a5.44969,5.44969,0,0,1-1.80347.34509c-.79224.03662-1.04553.045-3.06329.045s-2.27063-.009-3.0633-.045A5.45339,5.45339,0,0,1,7.13354,19.04a3.79891,3.79891,0,0,1-2.17321-2.17322,5.45,5.45,0,0,1-.3451-1.80353c-.03662-.79217-.045-1.04547-.045-3.06323s.00842-2.27106.045-3.06329a5.44994,5.44994,0,0,1,.3451-1.80347A3.79845,3.79845,0,0,1,7.13354,4.96,5.44976,5.44976,0,0,1,8.937,4.61487h.00031c.79266-.03656,1.04638-.045,3.06384-.045s2.27069.00878,3.063.045A5.44245,5.44245,0,0,1,16.86768,4.96a3.80019,3.80019,0,0,1,2.1726,2.17322,5.44767,5.44767,0,0,1,.3451,1.80347c.036.79223.04443,1.04553.04443,3.06329S19.42139,14.27045,19.38538,15.06323Z"/></g></svg>