<svg xmlns="http://www.w3.org/2000/svg" viewBox="0 0 24 24"><g data-name="Brand Logos"><rect width="20" height="20" x="2" y="2" class="uim-primary" rx="2.5"/><path class="uim-tertiary" d="M19.33336 12.99594a.66672.66672 0 0 1-1.33336 0V7a.66672.66672 0 0 1 1.33336 0zM19.1007 17.16883A11.32822 11.32822 0 0 1 12 19.32937a11.32759 11.32759 0 0 1-7.10055-2.16062.66669.66669 0 0 1 .86625-1.01367 10.23077 10.23077 0 0 0 6.23438 1.84086 10.10187 10.10187 0 0 0 6.23265-1.83946.66675.66675 0 0 1 .868 1.01235zM4.66664 7A.66672.66672 0 0 1 6 7v5.99594a.66672.66672 0 0 1-1.33336 0V7zM8.00008 5.66664a.66672.66672 0 0 1 1.33328 0V14.573a.66672.66672 0 0 1-1.33328 0V5.66664zM11.33336 5.3293a.66655.66655 0 0 1 .66648-.66664H12a.66656.66656 0 0 1 .66672.6664v9.66688a.66672.66672 0 0 1-1.33336 0V5.3293zM14.66672 5.66664a.66672.66672 0 0 1 1.33328 0V14.573a.66672.66672 0 0 1-1.33328 0V5.66664z"/></g></svg>