<svg xmlns="http://www.w3.org/2000/svg" data-name="Layer 1" viewBox="0 0 24 24"><path class="uim-tertiary" d="M18,20V3a.99975.99975,0,0,0-1.49707-.86719L13.5,3.85352,10.49707,2.13281a.99978.99978,0,0,0-.99414,0L6.5,3.85352,3.49707,2.13281A.99975.99975,0,0,0,2,3V20a2,2,0,0,0,2,2H20A2,2,0,0,1,18,20Z"/><path class="uim-primary" d="M21.999 14v6a2 2 0 0 1-2 2h0a2 2 0 0 1-2-2V12h2A2 2 0 0 1 21.999 14zM11 10H9A1 1 0 0 1 9 8h2a1 1 0 0 1 0 2zM13 14H7a1 1 0 0 1 0-2h6a1 1 0 0 1 0 2zM13 18H7a1 1 0 0 1 0-2h6a1 1 0 0 1 0 2z"/></svg>