<svg xmlns="http://www.w3.org/2000/svg" data-name="Layer 1" viewBox="0 0 24 24"><path class="uim-quaternary" d="M8 7H3A1 1 0 0 1 3 5H8A1 1 0 0 1 8 7zM21 7H16a1 1 0 0 1 0-2h5a1 1 0 0 1 0 2z"/><path class="uim-primary" d="M12,22a.99943.99943,0,0,1-1-1V14a1,1,0,0,1,2,0v7A.99943.99943,0,0,1,12,22Z"/><path class="uim-tertiary" d="M13 15H11a2.0026 2.0026 0 0 1-2-2V11.8291A3.0062 3.0062 0 0 1 7 9V5a3.00328 3.00328 0 0 1 3-3h4a3.00328 3.00328 0 0 1 3 3V9a3.0062 3.0062 0 0 1-2 2.8291V13A2.0026 2.0026 0 0 1 13 15zM3 8A.99943.99943 0 0 1 2 7V5A1 1 0 0 1 4 5V7A.99943.99943 0 0 1 3 8z"/><path class="uim-primary" d="M12,9a.99943.99943,0,0,1-1-1V7a1,1,0,0,1,2,0V8A.99943.99943,0,0,1,12,9Z"/><path class="uim-tertiary" d="M21,8a.99943.99943,0,0,1-1-1V5a1,1,0,0,1,2,0V7A.99943.99943,0,0,1,21,8Z"/><path class="uim-quaternary" d="M16 22a1 1 0 0 1-.707-1.707l.7998-.79981-.26074-.07031a.99964.99964 0 0 1-.44922-1.67187l2.05371-2.0586a.9999.9999 0 0 1 1.416 1.41211l-.832.834.26172.07031a.99989.99989 0 0 1 .44824 1.67285L16.707 21.707A.99676.99676 0 0 1 16 22zM8 22a.99676.99676 0 0 1-.707-.293L5.26953 19.68164a.99989.99989 0 0 1 .44824-1.67285l.26172-.07031-.832-.834a.9999.9999 0 0 1 1.416-1.41211L8.61719 17.751A.99964.99964 0 0 1 8.168 19.42285l-.26074.07031.7998.79981A1 1 0 0 1 8 22z"/></svg>