<svg xmlns="http://www.w3.org/2000/svg" data-name="Layer 1" viewBox="0 0 24 24"><path class="uim-quaternary" d="M8.818,8.818a22.92962,22.92962,0,0,0-5.644,9.19015A2.19412,2.19412,0,0,0,5.99181,20.826,22.92962,22.92962,0,0,0,15.182,15.182a22.92984,22.92984,0,0,0,5.644-9.19018A2.19412,2.19412,0,0,0,18.00818,3.174,22.92987,22.92987,0,0,0,8.818,8.818Z"/><path class="uim-tertiary" d="M6.0921,12.0921l5.8158,5.8158A23.38264,23.38264,0,0,0,15.182,15.182a23.38909,23.38909,0,0,0,2.72589-3.27417L12.0921,6.0921a23.41316,23.41316,0,0,0-6,6Z"/><rect width="4" height="4" x="3" y="3" class="uim-primary" rx="2" transform="rotate(-45 5 5)"/><path class="uim-primary" d="M5,7.99805a2.99805,2.99805,0,1,1,2.12109-.877A2.989,2.989,0,0,1,5,7.99805ZM5,4.001a.999.999,0,1,0,.707.292A.99573.99573,0,0,0,5,4.001Z"/><rect width="4" height="4" x="17" y="17" class="uim-primary" rx="2" transform="rotate(-45 19 19)"/><path class="uim-primary" d="M19,21.99805a2.99805,2.99805,0,1,1,2.12109-.877A2.989,2.989,0,0,1,19,21.99805ZM19,18.001a.999.999,0,1,0,.707.292A.99573.99573,0,0,0,19,18.001Z"/><path class="uim-quaternary" d="M5.21582,21.95117a3.137,3.137,0,0,1-2.24219-.9248,3.21858,3.21858,0,0,1-.75195-3.32422A24.202,24.202,0,0,1,17.70117,2.22168a3.19344,3.19344,0,0,1,4.07715,4.07617,24.06581,24.06581,0,0,1-5.88965,9.59082,24.06906,24.06906,0,0,1-9.58984,5.88965A3.54245,3.54245,0,0,1,5.21582,21.95117ZM18.77734,4.0498a1.521,1.521,0,0,0-.46386.07618A22.1975,22.1975,0,0,0,4.126,18.31445,1.19657,1.19657,0,0,0,5.68652,19.874a22.0621,22.0621,0,0,0,8.78809-5.39941A22.05888,22.05888,0,0,0,19.874,5.68555,1.23909,1.23909,0,0,0,19.6123,4.3877,1.15993,1.15993,0,0,0,18.77734,4.0498Z"/><path class="uim-primary" d="M17.58984,18.58984a.99675.99675,0,0,1-.707-.293L5.70312,7.11719A.9999.9999,0,1,1,7.11719,5.70312L18.29688,16.88281a1,1,0,0,1-.707,1.707Z"/></svg>