<svg xmlns="http://www.w3.org/2000/svg" viewBox="0 0 24 24"><path class="uim-tertiary" d="M6.99927,12a5,5,0,1,0,5,5A5,5,0,0,0,6.99927,12ZM5.58453,19.41241a1,1,0,1,1,1-1A1.00114,1.00114,0,0,1,5.58453,19.41241Z"/><path class="uim-primary" d="M21.708,6.53418,20.29346,5.11963,21.70605,3.707A.99989.99989,0,1,0,20.292,2.293L9.75348,12.83148a5.0178,5.0178,0,0,1,1.41412,1.414L16.05078,9.3623l1.41406,1.41407A.9999.9999,0,0,0,18.87891,9.3623L17.46484,7.94824l1.41455-1.41455L20.294,7.94824A.99989.99989,0,0,0,21.708,6.53418Z"/></svg>