<svg xmlns="http://www.w3.org/2000/svg" viewBox="0 0 24 24"><path class="uim-tertiary" d="M7,12.00049a5,5,0,1,0,5,5A5,5,0,0,0,7,12.00049ZM5.58527,19.4129a1,1,0,1,1,1-1A1.00119,1.00119,0,0,1,5.58527,19.4129Z"/><path class="uim-primary" d="M21.00146,4.4126,21.707,3.707A.99989.99989,0,1,0,20.293,2.293L9.754,12.83191a5.01922,5.01922,0,0,1,1.41418,1.41394l5.591-5.59094,2.11975,2.12048A.99989.99989,0,0,0,20.293,9.36133L18.17322,7.24084,19.5874,5.82666l.70557.70557A.99989.99989,0,0,0,21.707,5.11816Z"/></svg>