<svg xmlns="http://www.w3.org/2000/svg" data-name="Layer 1" viewBox="0 0 24 24"><rect width="20" height="12" x="2" y="3" class="uim-tertiary" rx="2"/><line x1="14" x2="10" y1="11" y2="11" fill="none" stroke="#6563ff" stroke-linecap="round" stroke-linejoin="round" stroke-width="2"/><circle cx="6" cy="7" r="1" class="uim-primary"/><circle cx="10" cy="7" r="1" class="uim-primary"/><circle cx="14" cy="7" r="1" class="uim-primary"/><circle cx="18" cy="7" r="1" class="uim-primary"/><circle cx="18" cy="11" r="1" class="uim-primary"/><circle cx="6" cy="11" r="1" class="uim-primary"/><path class="uim-primary" d="M12,22a.99676.99676,0,0,1-.707-.293l-2-2A.99989.99989,0,0,1,10.707,18.293L12,19.58594l1.293-1.293A.99989.99989,0,0,1,14.707,19.707l-2,2A.99676.99676,0,0,1,12,22Z"/></svg>