<svg xmlns="http://www.w3.org/2000/svg" data-name="Layer 1" viewBox="0 0 24 24"><path class="uim-tertiary" d="M16.85986,22H7.14014a.99984.99984,0,0,1-.71289-1.70117A8.92821,8.92821,0,0,0,9,14a9.02746,9.02746,0,0,0-.18018-1.80029A1,1,0,0,1,9.7998,11h4.4004a1,1,0,0,1,.98,1.19971A9.02746,9.02746,0,0,0,15,14a8.92821,8.92821,0,0,0,2.57275,6.29883A.99984.99984,0,0,1,16.85986,22Z"/><path class="uim-primary" d="M17,16a1,1,0,0,1-1-1V12a1,1,0,0,1,2,0v3A1,1,0,0,1,17,16Z"/><path class="uim-quaternary" d="M19,13H5a.99976.99976,0,0,1-.97607-1.2168l2-9A.99987.99987,0,0,1,7,2H17a.99987.99987,0,0,1,.97607.7832l2,9A.99976.99976,0,0,1,19,13Z"/></svg>