<svg xmlns="http://www.w3.org/2000/svg" data-name="Layer 1" viewBox="0 0 24 24"><circle cx="12" cy="12" r="10" class="uim-tertiary"/><path class="uim-primary" d="M12 17.0918a5.67258 5.67258 0 0 1-3.64258-1.32618.99954.99954 0 1 1 1.28516-1.53124 3.76605 3.76605 0 0 0 4.71484 0 .99954.99954 0 1 1 1.28516 1.53124A5.67258 5.67258 0 0 1 12 17.0918zM9.87109 11a.99678.99678 0 0 1-.707-.293l-1.5-1.5A.99989.99989 0 0 1 9.07812 7.793l1.5 1.5A1 1 0 0 1 9.87109 11z"/><path class="uim-primary" d="M8.37109 12.5a1 1 0 0 1-.707-1.707l1.5-1.5A.99989.99989 0 0 1 10.57812 10.707l-1.5 1.5A.99676.99676 0 0 1 8.37109 12.5zM14.87109 12.5a.99678.99678 0 0 1-.707-.293l-1.5-1.5A.99989.99989 0 1 1 14.07812 9.293l1.5 1.5a1 1 0 0 1-.707 1.707z"/><path class="uim-primary" d="M13.37109,11a1,1,0,0,1-.707-1.707l1.5-1.5A.99989.99989,0,0,1,15.57812,9.207l-1.5,1.5A.99676.99676,0,0,1,13.37109,11Z"/></svg>