<svg xmlns="http://www.w3.org/2000/svg" data-name="Layer 1" viewBox="0 0 24 24"><path class="uim-tertiary" d="M12,21a1.00211,1.00211,0,0,1-.5-.13379L2.5,15.669a1.00033,1.00033,0,0,1,0-1.73243l9-5.19336a1.0044,1.0044,0,0,1,1,0l9,5.19336a1.00033,1.00033,0,0,1,0,1.73243l-9,5.19726A1.00211,1.00211,0,0,1,12,21Z"/><path class="uim-quaternary" d="M12,16.39026a1.00221,1.00221,0,0,1-.5-.13379l-9-5.19727a1.00032,1.00032,0,0,1,0-1.73242l9-5.19336a1.0044,1.0044,0,0,1,1,0l9,5.19336a1.00032,1.00032,0,0,1,0,1.73242l-9,5.19727A1.00221,1.00221,0,0,1,12,16.39026Z"/><path class="uim-primary" d="M21,22a.99676.99676,0,0,1-.707-.293l-18-18A.99989.99989,0,0,1,3.707,2.293l18,18A1,1,0,0,1,21,22Z"/></svg>