<svg xmlns="http://www.w3.org/2000/svg" data-name="Layer 1" viewBox="0 0 24 24"><path class="uim-tertiary" d="M12,20.49707a1.00211,1.00211,0,0,1-.5-.13379L2.5,15.166a1.00033,1.00033,0,0,1,0-1.73243l9-5.19336a1.0044,1.0044,0,0,1,1,0l9,5.19336a1.00033,1.00033,0,0,1,0,1.73243l-9,5.19726A1.00211,1.00211,0,0,1,12,20.49707Z"/><path class="uim-quaternary" d="M12,15.89355a1.0022,1.0022,0,0,1-.5-.13378l-9-5.19727a1.00032,1.00032,0,0,1,0-1.73242l9-5.19336a1.00435,1.00435,0,0,1,1,0l9,5.19336a1.00032,1.00032,0,0,1,0,1.73242l-9,5.19727A1.0022,1.0022,0,0,1,12,15.89355Z"/></svg>