<svg xmlns="http://www.w3.org/2000/svg" viewBox="0 0 24 24"><path class="uim-primary" d="M12,2A10,10,0,1,0,22,12,10.01087,10.01087,0,0,0,12,2Zm0,13a3,3,0,1,1,3-3A3.00328,3.00328,0,0,1,12,15Z"/><path class="uim-tertiary" d="M16.34 3L13.91 9.68994a2.98867 2.98867 0 0 0-3.81994 0L7.66 3A9.91793 9.91793 0 0 1 16.34 3zM16.34 21A9.91793 9.91793 0 0 1 7.66 21L10.09 14.31006a2.98867 2.98867 0 0 0 3.81994 0zM22 12a9.85044 9.85044 0 0 1-1 4.34l-6.69-2.43006a2.98847 2.98847 0 0 0 0-3.81994L21 7.65991A9.85134 9.85134 0 0 1 22 12zM9 12a2.99785 2.99785 0 0 0 .69 1.90991L3 16.34A9.91793 9.91793 0 0 1 3 7.65991L9.69 10.09A2.99843 2.99843 0 0 0 9 12z"/></svg>