<svg xmlns="http://www.w3.org/2000/svg" data-name="Layer 1" viewBox="0 0 24 24"><path class="uim-quaternary" d="M16,19H8a.99974.99974,0,0,1-1-1v-.99219a4.538,4.538,0,0,0-1.13574-2.87842,8.00042,8.00042,0,1,1,12.35937-.10791A5.127,5.127,0,0,0,17,17.19434V18A.99974.99974,0,0,1,16,19Z"/><path class="uim-primary" d="M12,19a.99974.99974,0,0,1-1-1V14a1,1,0,0,1,2,0v4A.99974.99974,0,0,1,12,19Z"/><path class="uim-tertiary" d="M8,18h8a0,0,0,0,1,0,0v2a2,2,0,0,1-2,2H10a2,2,0,0,1-2-2V18A0,0,0,0,1,8,18Z"/><path class="uim-tertiary" d="M14,23H10a3.00328,3.00328,0,0,1-3-3V18a.99974.99974,0,0,1,1-1h8a.99974.99974,0,0,1,1,1v2A3.00328,3.00328,0,0,1,14,23ZM9,19v1a1.001,1.001,0,0,0,1,1h4a1.001,1.001,0,0,0,1-1V19Z"/></svg>