<svg xmlns="http://www.w3.org/2000/svg" data-name="Layer 1" viewBox="0 0 24 24"><path class="uim-primary" d="M10 22.92871a.99974.99974 0 0 1-1-1v-2a1 1 0 0 1 2 0v2A.99974.99974 0 0 1 10 22.92871zM14 22.92871a.99974.99974 0 0 1-1-1v-2a1 1 0 1 1 2 0v2A.99974.99974 0 0 1 14 22.92871z"/><path class="uim-quaternary" d="M15.42871,16.92871H8.57129a.99973.99973,0,0,1-1-1v-.68457a4.74433,4.74433,0,0,0-1.08594-2.86523,6.99815,6.99815,0,0,1,9.92188-9.74659,6.99535,6.99535,0,0,1,1.03906,9.832,4.26337,4.26337,0,0,0-1.01758,2.63183v.83252A.99973.99973,0,0,1,15.42871,16.92871Z"/><rect width="8" height="4" x="8" y="15.929" class="uim-tertiary" rx="1"/><path class="uim-tertiary" d="M15,20.92871H9a2.00229,2.00229,0,0,1-2-2v-2a2.00229,2.00229,0,0,1,2-2h6a2.00229,2.00229,0,0,1,2,2v2A2.00229,2.00229,0,0,1,15,20.92871Zm-6-4v2h6.001l-.001-2Z"/></svg>