<svg xmlns="http://www.w3.org/2000/svg" viewBox="0 0 24 24"><g data-name="Brand Logos"><path class="uim-primary" d="M6.09326,2H17.90668A4.09332,4.09332,0,0,1,22,6.09332V17.90668A4.09332,4.09332,0,0,1,17.90668,22H6.09332A4.09332,4.09332,0,0,1,2,17.90668V6.09326A4.09326,4.09326,0,0,1,6.09326,2Z"/><path class="uim-tertiary" d="M18.22272,14.27783a1.52414,1.52414,0,0,1-.13587.16992l-.00427.00464a6.36,6.36,0,0,1-.798.79608c-2.02912,1.87555-5.369,4.10846-5.80976,3.764-.38324-.29944.63111-1.7641-.53912-2.00787-.08167-.0094-.16309-.01941-.24384-.03089l-.00152-.00006v-.00012c-3.43714-.48828-6.0473-2.89252-6.0473-5.785C4.643,7.94354,7.92816,5.313,11.98059,5.313s7.33759,2.63055,7.33759,5.87555A5.02144,5.02144,0,0,1,18.22272,14.27783Z"/><path class="uim-primary" d="M9.20319 12.26538H8.13794V9.84167A.38378.38378 0 0 0 7.75525 9.459H7.72333a.38378.38378 0 0 0-.38269.38269v2.83826a.38383.38383 0 0 0 .38269.38275H9.20319a.38383.38383 0 0 0 .38269-.38275V12.648A.38376.38376 0 0 0 9.20319 12.26538zM13.77545 9.45911h-.032a.38376.38376 0 0 0-.38263.38269v1.66607L11.97766 9.65259a.38345.38345 0 0 0-.33227-.19348h-.03193a.38383.38383 0 0 0-.38275.38269V12.68a.38384.38384 0 0 0 .38275.38275h.03193A.38382.38382 0 0 0 12.028 12.68v-1.6972l1.39318 1.90283a.40085.40085 0 0 0 .028.03833l.00006.00006a.32074.32074 0 0 0 .149.10986.37885.37885 0 0 0 .1452.02881h.03192a.3791.3791 0 0 0 .17877-.04467.26919.26919 0 0 0 .0932-.0694l.00013-.00018a.3816.3816 0 0 0 .11065-.26844V9.8418A.38378.38378 0 0 0 13.77545 9.45911zM10.27734 9.459h.03192a.38275.38275 0 0 1 .38275.38275v2.83813a.38275.38275 0 0 1-.38275.38275h-.03192A.38269.38269 0 0 1 9.89465 12.68V9.84174A.38269.38269 0 0 1 10.27734 9.459zM16.51062 9.46582H15.03076a.38378.38378 0 0 0-.38269.38269v2.83826a.38381.38381 0 0 0 .38269.38269h1.47986a.38387.38387 0 0 0 .38275-.38269v-.032a.38381.38381 0 0 0-.38275-.38263H15.44543v-.606h1.06519a.38369.38369 0 0 0 .38275-.38257v-.03192a.38383.38383 0 0 0-.38275-.38269H15.44543v-.6059h1.06519a.38383.38383 0 0 0 .38275-.38269V9.84851A.38383.38383 0 0 0 16.51062 9.46582z"/></g></svg>