<svg xmlns="http://www.w3.org/2000/svg" viewBox="0 0 24 24"><g data-name="Brand Logos"><path class="uim-primary" d="M20.46814,2H3.53186A1.45157,1.45157,0,0,0,2.06293,3.43268V20.56781A1.45115,1.45115,0,0,0,3.53186,22H20.46814a1.451,1.451,0,0,0,1.46893-1.43243V3.43268A1.45137,1.45137,0,0,0,20.46814,2Z"/><rect width="3.002" height="9.031" x="5.086" y="9.711" class="uim-tertiary"/><path class="uim-tertiary" d="M6.58716 8.478H6.56744a1.56459 1.56459 0 1 1 .03962-3.12061A1.56518 1.56518 0 1 1 6.58716 8.478zM18.91168 18.74194H15.91016V13.91113c0-1.21423-.43464-2.04229-1.52057-2.04229a1.64281 1.64281 0 0 0-1.54029 1.098 2.058 2.058 0 0 0-.09887.7323v5.04278H9.7489c0-.00268.03937-8.18371.00031-9.03082h3.00152v1.28a2.978 2.978 0 0 1 2.70532-1.49188c1.97492 0 3.45563 1.29077 3.45563 4.06463z"/></g></svg>