<svg xmlns="http://www.w3.org/2000/svg" viewBox="0 0 24 24"><path class="uim-tertiary" d="M8,11a.99943.99943,0,0,1-1-1V7a5.00224,5.00224,0,0,1,8.53223-3.542,5.07769,5.07769,0,0,1,1.30664,2.293,1.00024,1.00024,0,1,1-1.9375.498,3.0566,3.0566,0,0,0-.78516-1.3789A3.00247,3.00247,0,0,0,9,7v3A.99943.99943,0,0,1,8,11Z"/><rect width="16" height="13" x="4" y="9" class="uim-primary" rx="3"/><path class="uim-quinary" d="M12,18a.99943.99943,0,0,1-1-1V14a1,1,0,0,1,2,0v3A.99943.99943,0,0,1,12,18Z"/><circle cx="12" cy="14.5" r="1.5" class="uim-quinary"/></svg>