<svg xmlns="http://www.w3.org/2000/svg" viewBox="0 0 24 24"><path class="uim-tertiary" d="M14,12H10a.99943.99943,0,0,1-1-1V9a3,3,0,0,1,6,0v2A.99943.99943,0,0,1,14,12Zm-3-2h2V9a1,1,0,0,0-2,0Z"/><path class="uim-primary" d="M21 10a.99943.99943 0 0 1-1-1V4H15a1 1 0 0 1 0-2h6a.99943.99943 0 0 1 1 1V9A.99943.99943 0 0 1 21 10zM3 10A.99943.99943 0 0 1 2 9V3A.99943.99943 0 0 1 3 2H9A1 1 0 0 1 9 4H4V9A.99943.99943 0 0 1 3 10zM9 22H3a.99943.99943 0 0 1-1-1V15a1 1 0 0 1 2 0v5H9a1 1 0 0 1 0 2zM21 22H15a1 1 0 0 1 0-2h5V15a1 1 0 0 1 2 0v6A.99943.99943 0 0 1 21 22z"/><rect width="10" height="8" x="7" y="10" class="uim-tertiary" rx="2"/></svg>