<svg xmlns="http://www.w3.org/2000/svg" data-name="Layer 1" viewBox="0 0 24 24"><path fill="none" stroke="#d8d8ff" stroke-linecap="round" stroke-linejoin="round" stroke-width="2" d="M12,4h0a3,3,0,0,1,3,3v3.25a0,0,0,0,1,0,0H9a0,0,0,0,1,0,0V7A3,3,0,0,1,12,4Z"/><rect width="14" height="12" x="5" y="9" class="uim-tertiary" rx="3"/><line x1="12" x2="12" y1="14" y2="16" fill="none" stroke="#d8d8ff" stroke-linecap="round" stroke-linejoin="round" stroke-width="2"/><path class="uim-primary" d="M21,22a.99676.99676,0,0,1-.707-.293l-18-18A.99989.99989,0,0,1,3.707,2.293l18,18A1,1,0,0,1,21,22Z"/></svg>