<svg xmlns="http://www.w3.org/2000/svg" data-name="Layer 1" viewBox="0 0 24 24"><path class="uim-primary" d="M11 22a1 1 0 0 1-1-1V16a1 1 0 0 1 2 0v5A1 1 0 0 1 11 22zM11 8a1 1 0 0 1-1-1V3a1 1 0 0 1 1-1h2a1 1 0 0 1 0 2H12V7A1 1 0 0 1 11 8z"/><path class="uim-primary" d="M20,17H4a1,1,0,0,1-1-1V10A4.00458,4.00458,0,0,1,7,6H17a4.00458,4.00458,0,0,1,4,4v6A1,1,0,0,1,20,17ZM5,15H19V10a2.002,2.002,0,0,0-2-2H7a2.002,2.002,0,0,0-2,2Z"/><path class="uim-quaternary" d="M20,17H4a1,1,0,0,1-1-1V10A4.00458,4.00458,0,0,1,7,6H17a4.00458,4.00458,0,0,1,4,4v6A1,1,0,0,1,20,17Z"/><path class="uim-tertiary" d="M8,12H6a1,1,0,0,1,0-2H8a1,1,0,0,1,0,2Z"/><path class="uim-primary" d="M17,7h0a3,3,0,0,1,3,3v6a0,0,0,0,1,0,0H14a0,0,0,0,1,0,0V10A3,3,0,0,1,17,7Z"/><path class="uim-tertiary" d="M20,17H14a1,1,0,0,1-1-1V10a4,4,0,0,1,8,0v6A1,1,0,0,1,20,17Zm-5-2h4V10a2,2,0,0,0-4,0Z"/></svg>