<svg xmlns="http://www.w3.org/2000/svg" data-name="Layer 1" viewBox="0 0 24 24"><path class="uim-tertiary" d="M17 9H7A.99974.99974 0 0 1 6 8 6 6 0 0 1 18 8 .99974.99974 0 0 1 17 9zM17 22H7a.99974.99974 0 0 1-1-1V17a.99974.99974 0 0 1 1-1H17a.99974.99974 0 0 1 1 1v4A.99974.99974 0 0 1 17 22z"/><path class="uim-quaternary" d="M18,17H6V8A1,1,0,0,1,7,7H17a1,1,0,0,1,1,1Z"/><path class="uim-primary" d="M19 22H5a1 1 0 0 1 0-2H19a1 1 0 0 1 0 2zM13 13H11a1 1 0 0 1 0-2h2a1 1 0 0 1 0 2zM19 9H5A1 1 0 0 1 5 7H19a1 1 0 0 1 0 2z"/></svg>