<svg xmlns="http://www.w3.org/2000/svg" viewBox="0 0 24 24"><path class="uim-tertiary" d="M12,22c-4.48633,0-8-2.19629-8-5,0-1.73535,1.35742-3.30957,3.63184-4.21a.99993.99993,0,1,1,.73632,1.85937C6.90723,15.22754,6,16.12891,6,17c0,1.41895,2.46387,3,6,3s6-1.58105,6-3c0-.87109-.90723-1.77246-2.36816-2.35059A.99993.99993,0,1,1,16.36816,12.79C18.64258,13.69043,20,15.26465,20,17,20,19.80371,16.48633,22,12,22Z"/><path class="uim-primary" d="M12,18a.99943.99943,0,0,1-1-1V9a1,1,0,0,1,2,0v8A.99943.99943,0,0,1,12,18Z"/><circle cx="12" cy="6" r="4" class="uim-tertiary"/></svg>