<svg xmlns="http://www.w3.org/2000/svg" data-name="Layer 1" viewBox="0 0 24 24"><path class="uim-tertiary" d="M12,22.23321a.94126.94126,0,0,1-.66767-.27666L6.32388,16.949h0a8.02719,8.02719,0,1,1,11.35224,0l-5.00845,5.00753A.94126.94126,0,0,1,12,22.23321Z"/><path class="uim-quaternary" d="M12,15.28074a4,4,0,1,1,4-4A4.00484,4.00484,0,0,1,12,15.28074Z"/><path class="uim-primary" d="M21,21.76465a.99676.99676,0,0,1-.707-.293l-18-18A.99989.99989,0,0,1,3.707,2.05762l18,18a1,1,0,0,1-.707,1.707Z"/></svg>