<svg xmlns="http://www.w3.org/2000/svg" viewBox="0 0 24 24"><path class="uim-quaternary" d="M21.32,5.05005l-6-2a1.04807,1.04807,0,0,0-.64,0L9,4.93994,3.32,3.05005a.9949.9949,0,0,0-.9.13989A.98273.98273,0,0,0,2,4V18a1.01346,1.01346,0,0,0,.68.95l6,2a1.04807,1.04807,0,0,0,.64,0L15,19.06006,20.68,20.95A1.1841,1.1841,0,0,0,21,21a.93934.93934,0,0,0,.58-.18994A.98273.98273,0,0,0,22,20V6A1.01346,1.01346,0,0,0,21.32,5.05005Z"/><path class="uim-tertiary" d="M3.32,3.05005a.9949.9949,0,0,0-.9.13989A.98273.98273,0,0,0,2,4V18a1.01346,1.01346,0,0,0,.68.95l6,2A1.1841,1.1841,0,0,0,9,21V4.93994Z"/><path class="uim-primary" d="M14.68,3.05005,9,4.93994V21a1.1841,1.1841,0,0,0,.32-.05L15,19.06006V3A1.12629,1.12629,0,0,0,14.68,3.05005Z"/></svg>