<svg xmlns="http://www.w3.org/2000/svg" viewBox="0 0 24 24"><path class="uim-primary" d="M21,22a.99676.99676,0,0,1-.707-.293l-7.5-7.5A.99989.99989,0,0,1,14.207,12.793l7.5,7.5A1,1,0,0,1,21,22Z"/><path class="uim-primary" d="M21 22H17a1 1 0 0 1 0-2h3V17a1 1 0 0 1 2 0v4A.99974.99974 0 0 1 21 22zM3 8A.99974.99974 0 0 1 2 7V3A.99974.99974 0 0 1 3 2H7A1 1 0 0 1 7 4H4V7A.99974.99974 0 0 1 3 8z"/><path class="uim-primary" d="M10.5,11.5a.99676.99676,0,0,1-.707-.293l-7.5-7.5A.99989.99989,0,0,1,3.707,2.293l7.5,7.5A1,1,0,0,1,10.5,11.5Z"/></svg>