<svg xmlns="http://www.w3.org/2000/svg" data-name="Layer 1" viewBox="0 0 24 24"><polygon class="uim-quaternary" points="10 8.575 13.21 3.015 18.41 6.015 14.23 13.255 10 8.575"/><path class="uim-quaternary" d="M14.23047,14.25488a1.0014,1.0014,0,0,1-.74219-.3291L9.25781,9.24609a1.00073,1.00073,0,0,1-.124-1.17089l3.21-5.56055A.99919.99919,0,0,1,13.71,2.14844l5.2002,3a1.00081,1.00081,0,0,1,.36621,1.36621l-4.17969,7.24023a.99741.99741,0,0,1-.76074.49414A.95359.95359,0,0,1,14.23047,14.25488Zm-3-5.81054,2.82031,3.12109L17.044,6.38086l-3.46778-2Z"/><polygon class="uim-tertiary" points="11.41 11.005 11.04 10.375 10 8.575 6.79 3.015 1.59 6.015 5.81 13.325 11.41 11.005"/><path class="uim-tertiary" d="M5.80957,14.3252a1.00107,1.00107,0,0,1-.86621-.5L.72363,6.51465a1.00081,1.00081,0,0,1,.36621-1.36621l5.2002-3a.99971.99971,0,0,1,1.36621.36621l4.61621,7.9834a1.00042,1.00042,0,0,1-.47949,1.43066L6.19238,14.249A.99864.99864,0,0,1,5.80957,14.3252ZM2.95605,6.38086,6.2373,12.06543l3.73145-1.5459L6.42383,4.38086Z"/><circle cx="10" cy="16" r="6" class="uim-primary"/></svg>