<svg xmlns="http://www.w3.org/2000/svg" data-name="Layer 1" viewBox="0 0 24 24"><rect width="18" height="18" x="3" y="3" class="uim-tertiary" rx="2"/><path class="uim-tertiary" d="M19,22H5a3.00328,3.00328,0,0,1-3-3V5A3.00328,3.00328,0,0,1,5,2H19a3.00328,3.00328,0,0,1,3,3V19A3.00328,3.00328,0,0,1,19,22ZM5,4A1.0013,1.0013,0,0,0,4,5V19a1.0013,1.0013,0,0,0,1,1H19a1.0013,1.0013,0,0,0,1-1V5a1.0013,1.0013,0,0,0-1-1Z"/><polygon class="uim-primary" points="17 10 14 10 14 7 10 7 10 10 7 10 7 14 10 14 10 17 14 17 14 14 17 14 17 10"/><path class="uim-primary" d="M14,18H10a1,1,0,0,1-1-1V15H7a1,1,0,0,1-1-1V10A1,1,0,0,1,7,9H9V7a1,1,0,0,1,1-1h4a1,1,0,0,1,1,1V9h2a1,1,0,0,1,1,1v4a1,1,0,0,1-1,1H15v2A1,1,0,0,1,14,18Zm-3-2h2V14a1,1,0,0,1,1-1h2V11H14a1,1,0,0,1-1-1V8H11v2a1,1,0,0,1-1,1H8v2h2a1,1,0,0,1,1,1Z"/></svg>