<svg xmlns="http://www.w3.org/2000/svg" data-name="Layer 1" viewBox="0 0 24 24"><path class="uim-primary" d="M14,22a.99974.99974,0,0,1-1-1V19a1,1,0,0,1,2,0v2A.99974.99974,0,0,1,14,22Z"/><path class="uim-tertiary" d="M17,6H11A3.00879,3.00879,0,0,0,8,9v4.93a2.99291,2.99291,0,0,0,1.34,2.5L11,17.54V18a2.00591,2.00591,0,0,0,2,2h2a2.00591,2.00591,0,0,0,2-2v-.46l1.66-1.11A2.99664,2.99664,0,0,0,20,14V9A3.00879,3.00879,0,0,0,17,6Z"/><path class="uim-primary" d="M20 12v2H17a1 1 0 0 1 0-2zM20 9v2H16a1 1 0 0 1 0-2zM14 8a.99974.99974 0 0 1-1-1V3a1 1 0 0 1 2 0V7A.99974.99974 0 0 1 14 8z"/><path class="uim-primary" d="M5,22a.99974.99974,0,0,1-1-1V7A5.00588,5.00588,0,0,1,9,2h8a1,1,0,0,1,0,2H9A3.00328,3.00328,0,0,0,6,7V21A.99974.99974,0,0,1,5,22Z"/></svg>