<svg xmlns="http://www.w3.org/2000/svg" data-name="Layer 1" viewBox="0 0 24 24"><path class="uim-primary" d="M16,8H8A.99974.99974,0,0,1,7,7V5a3.00328,3.00328,0,0,1,3-3h4a3.00328,3.00328,0,0,1,3,3V7A.99974.99974,0,0,1,16,8ZM9,6h6V5a1.001,1.001,0,0,0-1-1H10A1.001,1.001,0,0,0,9,5Z"/><path class="uim-quaternary" d="M19,22H5a3.00328,3.00328,0,0,1-3-3V9A3.00328,3.00328,0,0,1,5,6H19a3.00328,3.00328,0,0,1,3,3V19A3.00328,3.00328,0,0,1,19,22Z"/><path class="uim-tertiary" d="M22,11H2V9A3,3,0,0,1,5,6H19a3,3,0,0,1,3,3Z"/><line x1="10" x2="14" y1="16" y2="16" fill="none" stroke="#6563ff" stroke-linecap="round" stroke-linejoin="round" stroke-width="2"/><line x1="12" x2="12" y1="14" y2="18" fill="none" stroke="#6563ff" stroke-linecap="round" stroke-linejoin="round" stroke-width="2"/></svg>