<svg xmlns="http://www.w3.org/2000/svg" data-name="Layer 1" viewBox="0 0 24 24"><path class="uim-primary" d="M12 6a1 1 0 0 1-1-1V3a1 1 0 0 1 2 0V5A1 1 0 0 1 12 6zM12 22a1 1 0 0 1-1-1V17a1 1 0 0 1 2 0v4A1 1 0 0 1 12 22z"/><path class="uim-primary" d="M16,22a.99676.99676,0,0,1-.707-.293l-4-4A.99989.99989,0,0,1,12.707,16.293l4,4A1,1,0,0,1,16,22Z"/><path class="uim-primary" d="M8,22a1,1,0,0,1-.707-1.707l4-4A.99989.99989,0,0,1,12.707,17.707l-4,4A.99676.99676,0,0,1,8,22Z"/><path class="uim-tertiary" d="M19,18H5a3.00328,3.00328,0,0,1-3-3V5A1,1,0,0,1,3,4H21a1,1,0,0,1,1,1V15A3.00328,3.00328,0,0,1,19,18Z"/><path class="uim-primary" d="M9 10H7A1 1 0 0 1 7 8H9a1 1 0 0 1 0 2zM13 14H7a1 1 0 0 1 0-2h6a1 1 0 0 1 0 2z"/></svg>