<svg xmlns="http://www.w3.org/2000/svg" data-name="Layer 1" viewBox="0 0 24 24"><path class="uim-quaternary" d="M9,22H5a.99932.99932,0,0,1-.91895-1.39355l3-7A.99856.99856,0,0,1,8,13h4a.99932.99932,0,0,1,.919,1.39355l-3,7A.99856.99856,0,0,1,9,22Z"/><path class="uim-tertiary" d="M21.00031,18.00069a1.00037,1.00037,0,0,1-1.80011.5999A9.04364,9.04364,0,0,0,12,15H8a.99943.99943,0,0,1-1-1V8A.99943.99943,0,0,1,8,7h4a9.04364,9.04364,0,0,0,7.2002-3.60059,1.00029,1.00029,0,0,1,1.8001.59752C21.00106,4.2071,21.00057,17.79129,21.00031,18.00069Z"/><path class="uim-primary" d="M9 15H6a3 3 0 0 1-3-3V10A3 3 0 0 1 6 7H9zM20 20a.99943.99943 0 0 1-1-1V3a1 1 0 0 1 2 0V19A.99943.99943 0 0 1 20 20z"/></svg>