<svg xmlns="http://www.w3.org/2000/svg" data-name="Layer 1" viewBox="0 0 24 24"><circle cx="12" cy="12" r="10" class="uim-tertiary"/><path class="uim-primary" d="M15 16H9a1 1 0 0 1 0-2h6a1 1 0 0 1 0 2zM9.91406 10.83594a.99676.99676 0 0 1-.707-.293 1.03323 1.03323 0 0 0-1.41406 0A.99989.99989 0 1 1 6.37891 9.12891a3.07249 3.07249 0 0 1 4.24218 0 1 1 0 0 1-.707 1.707zM16.91406 10.83594a.99676.99676 0 0 1-.707-.293 1.03323 1.03323 0 0 0-1.41406 0 .99989.99989 0 0 1-1.41406-1.41406 3.07249 3.07249 0 0 1 4.24218 0 1 1 0 0 1-.707 1.707z"/></svg>