<svg xmlns="http://www.w3.org/2000/svg" viewBox="0 0 24 24"><path class="uim-primary" d="M4 22a1 1 0 0 1-.707-1.707l2-2A.99989.99989 0 0 1 6.707 19.707l-2 2A.99676.99676 0 0 1 4 22zM20 22a.99676.99676 0 0 1-.707-.293l-2-2A.99989.99989 0 0 1 18.707 18.293l2 2A1 1 0 0 1 20 22z"/><path class="uim-tertiary" d="M16.18066,20H7.81934a4.99936,4.99936,0,0,1-4.91309-5.92188l1.5-8A5.00038,5.00038,0,0,1,9.31934,2h5.36132a5.00038,5.00038,0,0,1,4.91309,4.07812l1.5,8A4.99936,4.99936,0,0,1,16.18066,20Z"/><path class="uim-primary" d="M8 16a.99042.99042 0 0 1-1-1 1 1 0 0 1 1.71-.71A1.05232 1.05232 0 0 1 9 15a.99349.99349 0 0 1-.29.71 1.16044 1.16044 0 0 1-.33008.21A.9994.9994 0 0 1 8 16zM16 16a.9994.9994 0 0 1-.37988-.08008 1.14718 1.14718 0 0 1-.33008-.21 1.49885 1.49885 0 0 1-.2207-.33008A.98884.98884 0 0 1 15 15a.9994.9994 0 0 1 .08008-.37988 1.02883 1.02883 0 0 1 .21-.33008A1 1 0 0 1 17 15a1.01024 1.01024 0 0 1-.29.71 1.16044 1.16044 0 0 1-.33008.21A.9994.9994 0 0 1 16 16z"/><path class="uim-quaternary" d="M12,13A9.94261,9.94261,0,0,1,4.167,9.21094a.99785.99785,0,0,1-.19922-.80664l.43946-2.33008A4.99288,4.99288,0,0,1,9.32031,2h5.35938a4.99447,4.99447,0,0,1,4.91406,4.07715l.43848,2.32715a.99785.99785,0,0,1-.19922.80664A9.94261,9.94261,0,0,1,12,13Z"/></svg>