<svg xmlns="http://www.w3.org/2000/svg" viewBox="0 0 24 24"><path class="uim-tertiary" d="M15.46 16.46a1.02128 1.02128 0 0 1-1.0249-1 .99258.99258 0 0 1 .59961-.92578.96263.96263 0 0 1 .42529-.09961.97919.97919 0 0 1 1 .97559V15.46A.99973.99973 0 0 1 15.46 16.46zM11.35742 16.46h-.10107a1 1 0 1 1 0-2h.10107a1 1 0 1 1 0 2zm-4.15381 0H7.10254a1 1 0 1 1 0-2h.10107a1 1 0 0 1 0 2zM3.0498 16.46H3a.99973.99973 0 0 1-1-1 1.02172 1.02172 0 0 1 1-1.02539.9934.9934 0 0 1 .92578.60059.957.957 0 0 1 .09912.4248A.97879.97879 0 0 1 3.0498 16.46zM3 12.35742a.99973.99973 0 0 1-1-1v-.10156a1 1 0 0 1 2 0v.10156A.99973.99973 0 0 1 3 12.35742zM3 8.2041a.99973.99973 0 0 1-1-1V7.10254a1 1 0 0 1 2 0V7.2041A.99973.99973 0 0 1 3 8.2041zM3 4.02441A.97838.97838 0 0 1 2 3.0498V3A.99974.99974 0 0 1 3 2 1.02128 1.02128 0 0 1 4.0249 3a.99258.99258 0 0 1-.59961.92578A.96185.96185 0 0 1 3 4.02441zM11.35742 4h-.10107a1 1 0 0 1 0-2h.10107a1 1 0 0 1 0 2zM7.20361 4H7.10254a1 1 0 0 1 0-2h.10107a1 1 0 1 1 0 2zM15.46 4.02441a.99256.99256 0 0 1-.92578-.59961A.957.957 0 0 1 14.43506 3a.9788.9788 0 0 1 .9751-1H15.46a.99974.99974 0 0 1 1 1A1.02086 1.02086 0 0 1 15.46 4.02441zM15.46 12.35742a.99973.99973 0 0 1-1-1v-.10156a1 1 0 1 1 2 0v.10156A.99973.99973 0 0 1 15.46 12.35742zm0-4.15332a.99973.99973 0 0 1-1-1V7.10254a1 1 0 1 1 2 0V7.2041A.99973.99973 0 0 1 15.46 8.2041z"/><path class="uim-primary" d="M21,22H8.53857a.99974.99974,0,0,1-1-1V8.53809a.99974.99974,0,0,1,1-1H21a.99973.99973,0,0,1,1,1V21A.99974.99974,0,0,1,21,22Z"/><path class="uim-primary" d="M21,22H8.53857a.99974.99974,0,0,1-1-1V8.53809a.99974.99974,0,0,1,1-1H21a.99973.99973,0,0,1,1,1V21A.99974.99974,0,0,1,21,22ZM9.53857,20H20V9.53809H9.53857Z"/></svg>