<svg xmlns="http://www.w3.org/2000/svg" viewBox="0 0 24 24"><path class="uim-tertiary" d="M20,22H4a3.00328,3.00328,0,0,1-3-3V11A3.00328,3.00328,0,0,1,4,8H20a3.00328,3.00328,0,0,1,3,3v8A3.00328,3.00328,0,0,1,20,22Z"/><path class="uim-quaternary" d="M12,18a3,3,0,1,1,3-3A3.00328,3.00328,0,0,1,12,18Z"/><circle cx="6" cy="15" r="1" class="uim-primary"/><circle cx="18" cy="15" r="1" class="uim-primary"/><path class="uim-primary" d="M12,10a.99974.99974,0,0,1-1-1V3a1,1,0,0,1,2,0V9A.99974.99974,0,0,1,12,10Z"/><path class="uim-primary" d="M12,10a.99676.99676,0,0,1-.707-.293l-2.25-2.25A.99989.99989,0,0,1,10.457,6.043L12,7.58594l1.543-1.543A.99989.99989,0,0,1,14.957,7.457l-2.25,2.25A.99676.99676,0,0,1,12,10Z"/></svg>