<svg xmlns="http://www.w3.org/2000/svg" data-name="Layer 1" viewBox="0 0 24 24"><path class="uim-tertiary" d="M20,19H4a3.00328,3.00328,0,0,1-3-3V8A3.00328,3.00328,0,0,1,4,5H20a3.00328,3.00328,0,0,1,3,3v8A3.00328,3.00328,0,0,1,20,19Z"/><path class="uim-quaternary" d="M12.58784,14.94379a3.00191,3.00191,0,1,1,2.356-2.35595A3.006,3.006,0,0,1,12.58784,14.94379Z"/><circle cx="6" cy="12" r="1" class="uim-primary"/><circle cx="18" cy="12" r="1" class="uim-primary"/><path class="uim-primary" d="M21,22a.99676.99676,0,0,1-.707-.293l-18-18A.99989.99989,0,0,1,3.707,2.293l18,18A1,1,0,0,1,21,22Z"/></svg>