<svg xmlns="http://www.w3.org/2000/svg" viewBox="0 0 24 24"><path class="uim-tertiary" d="M20,22H4a3.00328,3.00328,0,0,1-3-3V11A3.00328,3.00328,0,0,1,4,8H20a3.00328,3.00328,0,0,1,3,3v8A3.00328,3.00328,0,0,1,20,22Z"/><path class="uim-primary" d="M12,10a.99974.99974,0,0,1-1-1V3a1,1,0,0,1,2,0V9A.99974.99974,0,0,1,12,10Z"/><path class="uim-primary" d="M14.25,6.25a.99676.99676,0,0,1-.707-.293L12,4.41406,10.457,5.957A.99989.99989,0,0,1,9.043,4.543l2.25-2.25a.99962.99962,0,0,1,1.41406,0l2.25,2.25A1,1,0,0,1,14.25,6.25Z"/><path class="uim-quaternary" d="M12,18a3,3,0,1,1,3-3A3.00328,3.00328,0,0,1,12,18Z"/><circle cx="6" cy="15" r="1" class="uim-primary"/><circle cx="18" cy="15" r="1" class="uim-primary"/></svg>