<svg xmlns="http://www.w3.org/2000/svg" viewBox="0 0 24 24"><path class="uim-tertiary" d="M20,23.00021H4a3.00328,3.00328,0,0,1-3-3v-8a3.00328,3.00328,0,0,1,3-3H20a3.00328,3.00328,0,0,1,3,3v8A3.00328,3.00328,0,0,1,20,23.00021Z"/><path class="uim-quaternary" d="M20,19.00021H4a3.00328,3.00328,0,0,1-3-3v-8a3.00328,3.00328,0,0,1,3-3H20a3.00328,3.00328,0,0,1,3,3v8A3.00328,3.00328,0,0,1,20,19.00021Z"/><path class="uim-tertiary" d="M20,15.00021H4a3.00328,3.00328,0,0,1-3-3v-8a3.00328,3.00328,0,0,1,3-3H20a3.00328,3.00328,0,0,1,3,3v8A3.00328,3.00328,0,0,1,20,15.00021Z"/><circle cx="12" cy="8" r="2" class="uim-quaternary"/><circle cx="6" cy="8" r="1" class="uim-primary"/><circle cx="18" cy="8" r="1" class="uim-primary"/></svg>