<svg xmlns="http://www.w3.org/2000/svg" viewBox="0 0 24 24"><rect width="22" height="10" x="1" y="2" class="uim-primary" rx="2"/><path class="uim-tertiary" d="M5,6H19a0,0,0,0,1,0,0V20a2,2,0,0,1-2,2H7a2,2,0,0,1-2-2V6A0,0,0,0,1,5,6Z"/><path class="uim-primary" d="M12,15a3,3,0,1,1,3-3A3.00328,3.00328,0,0,1,12,15Z"/><path class="uim-quaternary" d="M6.62425 18.06248A2.93354 2.93354 0 0 0 5 18.17993V20a2.00588 2.00588 0 0 0 2 2H8.82a2.87612 2.87612 0 0 0 .15559-1.38993A3.00974 3.00974 0 0 0 6.62425 18.06248zM17.37575 18.06248a3.00974 3.00974 0 0 0-2.35135 2.54759A2.87612 2.87612 0 0 0 15.18 22H17a2.00588 2.00588 0 0 0 2-2V18.17993A2.93354 2.93354 0 0 0 17.37575 18.06248z"/></svg>