<svg xmlns="http://www.w3.org/2000/svg" viewBox="0 0 24 24"><path class="uim-primary" d="M15,9H9A.99974.99974,0,0,1,8,8V6a3.00328,3.00328,0,0,1,3-3h2a3.00328,3.00328,0,0,1,3,3V8A.99974.99974,0,0,1,15,9ZM10,7h4V6a1.001,1.001,0,0,0-1-1H11a1.001,1.001,0,0,0-1,1Z"/><path class="uim-tertiary" d="M19,21H5a3.00328,3.00328,0,0,1-3-3V10A3.00328,3.00328,0,0,1,5,7H19a3.00328,3.00328,0,0,1,3,3v8A3.00328,3.00328,0,0,1,19,21Z"/><path class="uim-quaternary" d="M2 10v1.85425A3.79743 3.79743 0 0 0 3 12 4.00427 4.00427 0 0 0 7 8a3.79112 3.79112 0 0 0-.14636-1H5A3.00328 3.00328 0 0 0 2 10zM22 11.85425V10a3.00328 3.00328 0 0 0-3-3H17.14636A3.79112 3.79112 0 0 0 17 8a4.00427 4.00427 0 0 0 4 4A3.79743 3.79743 0 0 0 22 11.85425zM22 18V16.14575A3.79743 3.79743 0 0 0 21 16a4.00427 4.00427 0 0 0-4 4 3.79112 3.79112 0 0 0 .14636 1H19A3.00328 3.00328 0 0 0 22 18zM2 16.14575V18a3.00328 3.00328 0 0 0 3 3H6.85364A3.79112 3.79112 0 0 0 7 20a4.00427 4.00427 0 0 0-4-4A3.79743 3.79743 0 0 0 2 16.14575z"/><path class="uim-primary" d="M12,17a3,3,0,1,1,3-3A3.00328,3.00328,0,0,1,12,17Z"/></svg>