<svg xmlns="http://www.w3.org/2000/svg" viewBox="0 0 24 24"><path class="uim-primary" d="M15,8H9A.99974.99974,0,0,1,8,7V5a3.00328,3.00328,0,0,1,3-3h2a3.00328,3.00328,0,0,1,3,3V7A.99974.99974,0,0,1,15,8ZM10,6h4V5a1.001,1.001,0,0,0-1-1H11a1.001,1.001,0,0,0-1,1Z"/><path class="uim-tertiary" d="M19,22H5a3.00328,3.00328,0,0,1-3-3V9A3.00328,3.00328,0,0,1,5,6H19a3.00328,3.00328,0,0,1,3,3V19A3.00328,3.00328,0,0,1,19,22Z"/><path class="uim-primary" d="M12,17a3,3,0,1,1,3-3A3.00328,3.00328,0,0,1,12,17Z"/><path class="uim-quaternary" d="M3.316 17.01172a3.92141 3.92141 0 0 0-1.316.124V19a3.00328 3.00328 0 0 0 3 3H6.86261a3.90824 3.90824 0 0 0 .12317-1.3457A4.03861 4.03861 0 0 0 3.316 17.01172zM20.683 17.01172a3.92141 3.92141 0 0 1 1.316.124V19a3.00328 3.00328 0 0 1-3 3H17.13636a3.90824 3.90824 0 0 1-.12317-1.3457A4.03861 4.03861 0 0 1 20.683 17.01172zM20.683 10.98905a3.92167 3.92167 0 0 0 1.316-.124V9.00076a3.00328 3.00328 0 0 0-3-3H17.13636a3.9083 3.9083 0 0 0-.12317 1.34571A4.03862 4.03862 0 0 0 20.683 10.98905zM3.316 10.98905A3.92167 3.92167 0 0 1 2 10.865V9.00076a3.00328 3.00328 0 0 1 3-3H6.86261a3.9083 3.9083 0 0 1 .12317 1.34571A4.03862 4.03862 0 0 1 3.316 10.98905z"/></svg>