<svg xmlns="http://www.w3.org/2000/svg" viewBox="0 0 24 24"><path class="uim-tertiary" d="M20,23.00021H4a3.00328,3.00328,0,0,1-3-3v-8a3.00328,3.00328,0,0,1,3-3H20a3.00328,3.00328,0,0,1,3,3v8A3.00328,3.00328,0,0,1,20,23.00021Z"/><path class="uim-quaternary" d="M20,19.00021H4a3.00328,3.00328,0,0,1-3-3v-8a3.00328,3.00328,0,0,1,3-3H20a3.00328,3.00328,0,0,1,3,3v8A3.00328,3.00328,0,0,1,20,19.00021Z"/><path class="uim-tertiary" d="M20,15.00021H4a3.00328,3.00328,0,0,1-3-3v-8a3.00328,3.00328,0,0,1,3-3H20a3.00328,3.00328,0,0,1,3,3v8A3.00328,3.00328,0,0,1,20,15.00021Z"/><circle cx="6" cy="8" r="1" class="uim-primary"/><circle cx="18" cy="8" r="1" class="uim-primary"/><path class="uim-secondary" d="M15,23.00021H9a.99974.99974,0,0,1-1-1v-12a.99973.99973,0,0,1,1-1h6a.99973.99973,0,0,1,1,1v12A.99974.99974,0,0,1,15,23.00021Z"/><path class="uim-tertiary" d="M16,19.00021H8v-13a1,1,0,0,1,1-1h6a1,1,0,0,1,1,1Z"/><path class="uim-primary" d="M16,15.00021H8v-14h8Z"/></svg>