<svg xmlns="http://www.w3.org/2000/svg" data-name="Layer 1" viewBox="0 0 24 24"><path class="uim-quaternary" d="M5,3H19a2,2,0,0,1,2,2V15a0,0,0,0,1,0,0H3a0,0,0,0,1,0,0V5A2,2,0,0,1,5,3Z"/><path class="uim-primary" d="M13.5,12l-.0332-.00049a1.00041,1.00041,0,0,1-.71924-.34082L9.95117,8.46289,8.707,9.707A1.00012,1.00012,0,0,1,8,10H3A1,1,0,0,1,3,8H7.58594L9.293,6.293a.968.968,0,0,1,.74023-.29248,1.00041,1.00041,0,0,1,.71924.34082l2.79639,3.1958L14.793,8.293A1.00012,1.00012,0,0,1,15.5,8H21a1,1,0,0,1,0,2H15.91406l-1.707,1.707A.99976.99976,0,0,1,13.5,12Z"/><path class="uim-tertiary" d="M21,17H3a1,1,0,0,1-1-1V5A3.00328,3.00328,0,0,1,5,2H19a3.00328,3.00328,0,0,1,3,3V16A1,1,0,0,1,21,17ZM4,15H20V5a1.0013,1.0013,0,0,0-1-1H5A1.0013,1.0013,0,0,0,4,5Z"/><path class="uim-tertiary" d="M19,22H5a3.00328,3.00328,0,0,1-3-3V16a1,1,0,0,1,1-1H21a1,1,0,0,1,1,1v3A3.00328,3.00328,0,0,1,19,22Z"/><circle cx="5" cy="18" r="1" class="uim-primary"/><circle cx="9" cy="18" r="1" class="uim-primary"/></svg>