<svg xmlns="http://www.w3.org/2000/svg" data-name="Layer 1" viewBox="0 0 24 24"><path class="uim-tertiary" d="M4.76257,12,3.07784,6.84387A2,2,0,0,1,5.73971,4.37305l14.04605,5.7773a2,2,0,0,1,0,3.6993L5.73971,19.627a2,2,0,0,1-2.66187-2.47082Z"/><path class="uim-tertiary" d="M4.96826,20.78174A3.00669,3.00669,0,0,1,2.127,16.8457L3.71045,12,2.127,7.1543A3.00023,3.00023,0,0,1,6.12012,3.44824L20.166,9.22559a2.99987,2.99987,0,0,1,0,5.54882L6.12012,20.55176A3.028,3.028,0,0,1,4.96826,20.78174ZM4.97314,5.21826a1.02237,1.02237,0,0,0-.6748.27149.98653.98653,0,0,0-.27,1.04345l1.68506,5.15625a1.00006,1.00006,0,0,1,0,.6211L4.02832,17.4668a.99992.99992,0,0,0,1.33106,1.23535L19.40527,12.9248a.99995.99995,0,0,0,0-1.8496L5.35938,5.29785A1.01019,1.01019,0,0,0,4.97314,5.21826Z"/><path class="uim-primary" d="M21.0249,13H4.81934a1,1,0,0,1,0-2H21.0249a1,1,0,1,1,0,2Z"/></svg>