<svg xmlns="http://www.w3.org/2000/svg" viewBox="0 0 24 24"><rect width="11" height="13.333" x="2" y="7.556" class="uim-tertiary" rx="2"/><path class="uim-quaternary" d="M8.44444,3.11121a2,2,0,0,0-2,2V18.66677A2.22229,2.22229,0,0,1,4.22222,20.889H18.66667A3.33333,3.33333,0,0,0,22,17.55566V5.11121a2,2,0,0,0-2-2Z"/><path class="uim-primary" d="M17 9.0001H11a1 1 0 0 1 0-2h6a1 1 0 0 1 0 2zM17 13.0001H16a1 1 0 0 1 0-2h1a1 1 0 0 1 0 2zM12 13.0001H11a1 1 0 0 1 0-2h1a1 1 0 0 1 0 2zM17 17.0001H16a1 1 0 0 1 0-2h1a1 1 0 0 1 0 2zM12 17.0001H11a1 1 0 0 1 0-2h1a1 1 0 0 1 0 2z"/></svg>