<svg xmlns="http://www.w3.org/2000/svg" data-name="Layer 1" viewBox="0 0 24 24"><circle cx="12" cy="12" r="10" class="uim-primary"/><path class="uim-tertiary" d="M22,12H2A9.93425,9.93425,0,0,1,4.01,6H19.99A9.93425,9.93425,0,0,1,22,12Z"/><circle cx="14" cy="9" r="1" class="uim-primary"/><circle cx="8" cy="9" r="1" class="uim-primary"/><path class="uim-tertiary" d="M11.499,18.05957a1,1,0,0,1-.87109-1.48926A5.02317,5.02317,0,0,1,15,14a1,1,0,0,1,0,2,3.02239,3.02239,0,0,0-2.62793,1.54883A.9991.9991,0,0,1,11.499,18.05957Z"/></svg>