<svg xmlns="http://www.w3.org/2000/svg" data-name="Layer 1" viewBox="0 0 24 24"><path class="uim-quaternary" d="M19,21.99951H5a1.00023,1.00023,0,0,1-.96338-1.26758L8.5016,4.65857A3.63088,3.63088,0,0,1,12,1.99951h0a3.63088,3.63088,0,0,1,3.4984,2.65906l4.465,16.07336A1.00023,1.00023,0,0,1,19,21.99951Z"/><path class="uim-primary" d="M21,22.00049H3a1,1,0,0,1,0-2H21a1,1,0,0,1,0,2Z"/><polygon class="uim-tertiary" points="16.981 10 7.021 10 8.131 6 15.871 6 16.981 10"/><polygon class="uim-tertiary" points="6.184 13 5.073 17 18.927 17 17.816 13 6.184 13"/></svg>