<svg xmlns="http://www.w3.org/2000/svg" viewBox="0 0 24 24"><path class="uim-quaternary" d="M18,21H8a3.00328,3.00328,0,0,1-3-3V8A3.00328,3.00328,0,0,1,8,5H18a3.00328,3.00328,0,0,1,3,3V18A3.00328,3.00328,0,0,1,18,21Z"/><path class="uim-tertiary" d="M15,18H5a3.00328,3.00328,0,0,1-3-3V5A3.00328,3.00328,0,0,1,5,2H15a3.00328,3.00328,0,0,1,3,3V15A3.00328,3.00328,0,0,1,15,18Z"/><path class="uim-primary" d="M13,12a.99632.99632,0,0,1-.65088-.24121L11,10.62793,9.646,11.76367A1.00208,1.00208,0,0,1,8,11V2h6v9a1.00073,1.00073,0,0,1-1,1Z"/></svg>