<svg xmlns="http://www.w3.org/2000/svg" data-name="Layer 1" viewBox="0 0 24 24"><path class="uim-tertiary" d="M4,5H20V19a2,2,0,0,1-2,2H6a2,2,0,0,1-2-2V5H4"/><path class="uim-tertiary" d="M18,22H6a3.00328,3.00328,0,0,1-3-3V5A1,1,0,0,1,4,4H20a1,1,0,0,1,1,1V19A3.00328,3.00328,0,0,1,18,22ZM5,6V19a1.0013,1.0013,0,0,0,1,1H18a1.0013,1.0013,0,0,0,1-1V6Z"/><path class="uim-primary" d="M16 12H10a1 1 0 0 1 0-2h6a1 1 0 0 1 0 2zM12 8a1 1 0 0 1-1-1V3a1 1 0 0 1 2 0V7A1 1 0 0 1 12 8zM8 8A1 1 0 0 1 7 7V3A1 1 0 0 1 9 3V7A1 1 0 0 1 8 8zM16 8a1 1 0 0 1-1-1V3a1 1 0 0 1 2 0V7A1 1 0 0 1 16 8zM16 16H8a1 1 0 0 1 0-2h8a1 1 0 0 1 0 2z"/></svg>