<svg xmlns="http://www.w3.org/2000/svg" viewBox="0 0 24 24"><path class="uim-tertiary" d="M4 16a2 2 0 1 1 2-2A2.0026 2.0026 0 0 1 4 16zm0-2.002v0zM4 6A2 2 0 1 1 6 4 2.0026 2.0026 0 0 1 4 6zM4 3.99805v0zM14 6a2 2 0 1 1 2-2A2.0026 2.0026 0 0 1 14 6zm0-2.00195v0zM14 16a2 2 0 1 1 2-2A2.0026 2.0026 0 0 1 14 16zm0-2.002v0z"/><path class="uim-primary" d="M10 22a2 2 0 1 1 2-2A2.0026 2.0026 0 0 1 10 22zm0-2.002v0zM10 12a2 2 0 1 1 2-2A2.0026 2.0026 0 0 1 10 12zm0-2.002v0zM20 12a2 2 0 1 1 2-2A2.0026 2.0026 0 0 1 20 12zm0-2.002v0zM20 22a2 2 0 1 1 2-2A2.0026 2.0026 0 0 1 20 22zm0-2.002v0z"/><path class="uim-quaternary" d="M12.27832 5a1.93565 1.93565 0 0 1 0-2H5.72168a1.93565 1.93565 0 0 1 0 2zM4 12a1.97629 1.97629 0 0 1 1 .27832V5.72168a1.93565 1.93565 0 0 1-2 0v6.55664A1.97629 1.97629 0 0 1 4 12z"/><path class="uim-tertiary" d="M20 18a1.97629 1.97629 0 0 1 1 .27832V11.72168a1.93565 1.93565 0 0 1-2 0v6.55664A1.97629 1.97629 0 0 1 20 18zM10 18a1.97629 1.97629 0 0 1 1 .27832V11.72168a1.93565 1.93565 0 0 1-2 0v6.55664A1.97629 1.97629 0 0 1 10 18z"/><path class="uim-quaternary" d="M12.27832 13H11v2h1.27832a1.93565 1.93565 0 0 1 0-2zM9 15V13H5.72168a1.93565 1.93565 0 0 1 0 2z"/><path class="uim-tertiary" d="M18.27832 19H11.72168a1.93565 1.93565 0 0 1 0 2h6.55664a1.93565 1.93565 0 0 1 0-2zM18.27832 11a1.93565 1.93565 0 0 1 0-2H11.72168a1.93565 1.93565 0 0 1 0 2z"/><path class="uim-quaternary" d="M15 9V5.72168a1.93565 1.93565 0 0 1-2 0V9zM13 11v1.27832a1.93565 1.93565 0 0 1 2 0V11z"/></svg>