<svg xmlns="http://www.w3.org/2000/svg" enable-background="new 0 0 24 24" viewBox="0 0 24 24"><path class="uim-tertiary" d="M9 7c0-1.65686 1.34314-3 3-3s3 1.34314 3 3v2h2V7c0-2.76141-2.23859-5-5-5S7 4.23859 7 7v2h2V7zM12 18c-.55197.00031-.99969-.44689-1-.99886 0-.00038 0-.00076 0-.00114v-3c0-.55229.44771-1 1-1s1 .44771 1 1v3c.00031.55197-.44689.99969-.99886 1C12.00076 18 12.00038 18 12 18z"/><circle cx="12" cy="14.5" r="1.5" class="uim-tertiary"/><path class="uim-primary" d="M17,9H7c-1.65686,0-3,1.34314-3,3v7c0,1.65686,1.34314,3,3,3h10c1.65686,0,3-1.34314,3-3v-7C20,10.34314,18.65686,9,17,9z M13,15.61072V17c0.00031,0.55194-0.4469,0.99969-0.99884,1C12.00073,18,12.00037,18,12,18c-0.55194,0.00031-0.99969-0.4469-1-0.99884c0-0.00043,0-0.00079,0-0.00116v-1.38928c-0.30481-0.27454-0.5-0.66821-0.5-1.11072c0-0.82843,0.67157-1.5,1.5-1.5s1.5,0.67157,1.5,1.5C13.5,14.9425,13.30481,15.33618,13,15.61072z"/></svg>