<svg xmlns="http://www.w3.org/2000/svg" data-name="Layer 1" viewBox="0 0 24 24"><path class="uim-primary" d="M14,17a.99974.99974,0,0,1-1-1V14a1.001,1.001,0,0,0-1-1H6a3.00328,3.00328,0,0,1-3-3V7A3.00328,3.00328,0,0,1,6,4H8A1,1,0,0,1,8,6H6A1.001,1.001,0,0,0,5,7v3a1.001,1.001,0,0,0,1,1h6a3.00328,3.00328,0,0,1,3,3v2A.99974.99974,0,0,1,14,17Z"/><rect width="12" height="6" x="8" y="2" class="uim-tertiary" rx="2"/><path class="uim-tertiary" d="M18,9H10A3.00328,3.00328,0,0,1,7,6V4a3.00328,3.00328,0,0,1,3-3h8a3.00328,3.00328,0,0,1,3,3V6A3.00328,3.00328,0,0,1,18,9ZM10,3A1.001,1.001,0,0,0,9,4V6a1.001,1.001,0,0,0,1,1h8a1.001,1.001,0,0,0,1-1V4a1.001,1.001,0,0,0-1-1Z"/><rect width="6" height="4" x="11" y="17" class="uim-quaternary" rx="1" transform="rotate(90 14 19)"/><path class="uim-quaternary" d="M15,23H13a2.00229,2.00229,0,0,1-2-2V17a2.00229,2.00229,0,0,1,2-2h2a2.00229,2.00229,0,0,1,2,2v4A2.00229,2.00229,0,0,1,15,23Zm-2-6v4.001L15,21V17Z"/></svg>