<svg xmlns="http://www.w3.org/2000/svg" data-name="Layer 1" viewBox="0 0 24 24"><rect width="18" height="18" x="3" y="3" class="uim-tertiary" rx="2"/><path class="uim-tertiary" d="M19,22H5a3.00328,3.00328,0,0,1-3-3V5A3.00328,3.00328,0,0,1,5,2H19a3.00328,3.00328,0,0,1,3,3V19A3.00328,3.00328,0,0,1,19,22ZM5,4A1.001,1.001,0,0,0,4,5V19a1.001,1.001,0,0,0,1,1H19a1.001,1.001,0,0,0,1-1V5a1.001,1.001,0,0,0-1-1Z"/><polygon class="uim-primary" points="9.005 8.997 12 7.323 14.995 8.997 15 3 9 3 9.005 8.997"/><path class="uim-primary" d="M14.99512 9.99707a.99767.99767 0 0 1-.4878-.127L12 8.46875 9.49268 9.87012A1.00035 1.00035 0 0 1 8.00488 8.998L8 3.001A.99943.99943 0 0 1 9 2h6a.99943.99943 0 0 1 1 1.001L15.99512 8.998a1.00072 1.00072 0 0 1-1 .999zM12 6.32324a.99614.99614 0 0 1 .48779.127l1.50879.84277L13.999 4H10.001l.00244 3.293 1.50879-.84277A.99614.99614 0 0 1 12 6.32324zM13 18H7a1 1 0 0 1 0-2h6a1 1 0 0 1 0 2zM9 14H7a1 1 0 0 1 0-2H9a1 1 0 0 1 0 2z"/></svg>