<svg xmlns="http://www.w3.org/2000/svg" viewBox="0 0 24 24"><g data-name="Brand Logos"><path class="uim-primary" d="M11.32715,23H8.09277a1.46684,1.46684,0,0,1-1.44824-1.69629L7.8418,13.70508a1.88054,1.88054,0,0,1,1.86425-1.5957H11.5293c3.60254,0,5.58008-1.543,6.22558-4.85547V7.252c.02051-.10449.03711-.207.05371-.30859l.22559-1.376,1.23535.63086a4.09115,4.09115,0,0,1,1.167.90625,5.149,5.149,0,0,1,.877,4.57715c-.73438,3.76953-3.25293,5.7627-7.28516,5.7627h-.29883l-.01074.05468-.64063,4.03125A1.76032,1.76032,0,0,1,11.32715,23Zm-.2168-1.8252-.00293.01368Zm2.6543-3.918-.00293.01269Z"/><path class="uim-tertiary" d="M8.88188,19.94a1,1,0,0,1-.98764.84325H4.06249a1.53316,1.53316,0,0,1-1.51561-1.78515L5.13672,2.5918A1.89234,1.89234,0,0,1,7,1h6.21387c2.56054,0,4.4082.62012,5.49218,1.84277a4.95921,4.95921,0,0,1,1.08008,4.39551c-.02148.13477-.043.27051-.07519.418-.82324,4.21777-3.65528,6.457-8.18555,6.457H9.80664Zm-4.35942-.62843-.00195.00684Zm2.59082-16.415-.001.002Z"/></g></svg>