<svg xmlns="http://www.w3.org/2000/svg" viewBox="0 0 24 24"><circle cx="8.507" cy="13.478" r="1" class="uim-quinary"/><circle cx="8.507" cy="9" r="1" class="uim-secondary"/><path class="uim-quaternary" d="M12.00684,13a.99974.99974,0,0,1-1-1V11a1,1,0,0,1,2,0v1A.99974.99974,0,0,1,12.00684,13Z"/><path class="uim-tertiary" d="M17.78662,9.22363,5.50684,2.13379A1,1,0,0,0,4.00684,3V16.99023a.95428.95428,0,0,0,.04138.25367,1.9794,1.9794,0,0,1,1.01959-.251q.219.007.439.00708a13.47739,13.47739,0,0,0,11.75354-6.86084,1.91355,1.91355,0,0,1,.748-.73193A.98484.98484,0,0,0,17.78662,9.22363ZM8.50684,14.47778a1,1,0,1,1,1-1A.99985.99985,0,0,1,8.50684,14.47778Zm0-4.47778a1,1,0,1,1,1-1A1,1,0,0,1,8.50684,10Zm4.5,2a1,1,0,0,1-2,0V11a1,1,0,0,1,2,0Z"/><path class="uim-primary" d="M3.00681,18.98542a1.9929,1.9929,0,0,1,2.061-1.99251Q5.28678,17,5.50681,17a13.47733,13.47733,0,0,0,11.75357-6.86075,1.98262,1.98262,0,0,1,2.71827-.71893l.00241.00139a1.98491,1.98491,0,0,1,.766,2.67654A17.49511,17.49511,0,0,1,5.50681,21q-.275,0-.54831-.00837a2.00829,2.00829,0,0,1-1.95169-2.004Z"/></svg>