<svg xmlns="http://www.w3.org/2000/svg" data-name="Layer 1" viewBox="0 0 24 24"><path class="uim-primary" d="M9 8A.99943.99943 0 0 1 8 7V3a1 1 0 0 1 2 0V7A.99943.99943 0 0 1 9 8zM15 8a.99943.99943 0 0 1-1-1V3a1 1 0 0 1 2 0V7A.99943.99943 0 0 1 15 8z"/><rect width="4" height="5" x="10" y="16" class="uim-quaternary" stroke="#d8d8ff" stroke-linecap="round" stroke-linejoin="round" stroke-width="2"/><polygon class="uim-tertiary" points="17 13 14 16 10 16 7 13 7 7 17 7 17 13"/><path class="uim-tertiary" d="M14,17H10a.99928.99928,0,0,1-.707-.293l-3-3A.99928.99928,0,0,1,6,13V7A.99943.99943,0,0,1,7,6H17a.99943.99943,0,0,1,1,1v6a.99928.99928,0,0,1-.293.707l-3,3A.99928.99928,0,0,1,14,17Zm-3.58594-2h3.17188L16,12.58594V8H8v4.58594ZM17,13h0Z"/><line x1="5" x2="19" y1="7" y2="7" fill="none" stroke="#d8d8ff" stroke-linecap="round" stroke-linejoin="round" stroke-width="2"/><path class="uim-primary" d="M13,13H11a1,1,0,0,1,0-2h2a1,1,0,0,1,0,2Z"/></svg>