<svg xmlns="http://www.w3.org/2000/svg" data-name="Layer 1" viewBox="0 0 24 24"><path class="uim-tertiary" d="M7 8.75a1 1 0 0 1-1-1v-1a4.00458 4.00458 0 0 1 4-4h1a1 1 0 0 1 0 2H10a2.002 2.002 0 0 0-2 2v1A1 1 0 0 1 7 8.75zM15 22.25H9a.99966.99966 0 0 1-.99365-.88965l-1-9A.99956.99956 0 0 1 8 11.25h8a.99956.99956 0 0 1 .99365 1.11035l-1 9A.99966.99966 0 0 1 15 22.25z"/><path class="uim-quaternary" d="M16.43848,13.25h-8.877a2.9958,2.9958,0,0,1-2.91064-2.27246L4.02979,8.49268A1.00046,1.00046,0,0,1,5,7.25H19a1.00046,1.00046,0,0,1,.97021,1.24268l-.62109,2.48486A2.9958,2.9958,0,0,1,16.43848,13.25Z"/><path class="uim-primary" d="M17 22.25H7a1 1 0 0 1 0-2H17a1 1 0 0 1 0 2zM11.5 5.25h-1a1.5 1.5 0 0 1 0-3h1a1.5 1.5 0 0 1 0 3z"/></svg>