<svg xmlns="http://www.w3.org/2000/svg" data-name="Layer 1" viewBox="0 0 24 24"><path class="uim-tertiary" d="M4.5,22.5a1.5,1.5,0,0,1,3,0h3a1.5,1.5,0,0,1,3,0h3a1.5,1.5,0,0,1,3,0h3v-3a1.5,1.5,0,0,1,0-3v-3a1.5,1.5,0,0,1,0-3v-3a1.5,1.5,0,0,1,0-3v-3h-3a1.5,1.5,0,0,1-3,0h-3a1.5,1.5,0,0,1-3,0h-3a1.5,1.5,0,0,1-3,0h-3v3a1.5,1.5,0,0,1,0,3v3a1.5,1.5,0,0,1,0,3v3a1.5,1.5,0,0,1,0,3v3Z"/><path class="uim-tertiary" d="M22.5,23.5h-3a.99974.99974,0,0,1-1-1,.5.5,0,0,0-1,0,.99974.99974,0,0,1-1,1h-3a.99974.99974,0,0,1-1-1,.5.5,0,0,0-1,0,.99974.99974,0,0,1-1,1h-3a.99974.99974,0,0,1-1-1,.5.5,0,0,0-1,0,.99974.99974,0,0,1-1,1h-3a.99974.99974,0,0,1-1-1v-3a.99974.99974,0,0,1,1-1,.5.5,0,0,0,0-1,.99974.99974,0,0,1-1-1v-3a.99974.99974,0,0,1,1-1,.5.5,0,0,0,0-1,.99974.99974,0,0,1-1-1v-3a.99974.99974,0,0,1,1-1,.5.5,0,0,0,0-1,.99974.99974,0,0,1-1-1v-3a.99974.99974,0,0,1,1-1h3a.99974.99974,0,0,1,1,1,.5.5,0,0,0,1,0,.99974.99974,0,0,1,1-1h3a.99974.99974,0,0,1,1,1,.5.5,0,0,0,1,0,.99974.99974,0,0,1,1-1h3a.99974.99974,0,0,1,1,1,.5.5,0,0,0,1,0,.99974.99974,0,0,1,1-1h3a.99974.99974,0,0,1,1,1v3a.99974.99974,0,0,1-1,1,.5.5,0,0,0,0,1,.99974.99974,0,0,1,1,1v3a.99974.99974,0,0,1-1,1,.5.5,0,0,0,0,1,.99974.99974,0,0,1,1,1v3a.99974.99974,0,0,1-1,1,.5.5,0,0,0,0,1,.99974.99974,0,0,1,1,1v3A.99974.99974,0,0,1,22.5,23.5Zm-2.209-2H21.5V20.291a2.49959,2.49959,0,0,1,0-4.582V14.291a2.49959,2.49959,0,0,1,0-4.582V8.291a2.49959,2.49959,0,0,1,0-4.582V2.5H20.291a2.49959,2.49959,0,0,1-4.582,0H14.291a2.49959,2.49959,0,0,1-4.582,0H8.291a2.49959,2.49959,0,0,1-4.582,0H2.5V3.709a2.49959,2.49959,0,0,1,0,4.582V9.709a2.49959,2.49959,0,0,1,0,4.582v1.418a2.49959,2.49959,0,0,1,0,4.582V21.5H3.709a2.49959,2.49959,0,0,1,4.582,0H9.709a2.49959,2.49959,0,0,1,4.582,0h1.418a2.49959,2.49959,0,0,1,4.582,0Z"/><path class="uim-primary" d="M12,15.3335A3.3335,3.3335,0,1,1,15.333,12,3.33712,3.33712,0,0,1,12,15.3335Zm0-4.667A1.3335,1.3335,0,1,0,13.333,12,1.33452,1.33452,0,0,0,12,10.6665Z"/><path class="uim-primary" d="M12,19a7,7,0,1,1,7-7v.5a2.8335,2.8335,0,1,1-5.667,0V9.6665a1,1,0,0,1,2,0V12.5A.8335.8335,0,1,0,17,12.5V12a5.00011,5.00011,0,1,0-2.5,4.33008,1.00016,1.00016,0,0,1,1,1.73242A7.01524,7.01524,0,0,1,12,19Z"/></svg>