<svg xmlns="http://www.w3.org/2000/svg" data-name="Layer 1" viewBox="0 0 24 24"><rect width="20" height="14" x="2" y="5" class="uim-tertiary" transform="rotate(-180 12 12)"/><path class="uim-tertiary" d="M22,20H2a.99974.99974,0,0,1-1-1V5A.99974.99974,0,0,1,2,4H22a.99974.99974,0,0,1,1,1V19A.99974.99974,0,0,1,22,20ZM3,18H21V6H3Z"/><path class="uim-primary" d="M11 12H6a1 1 0 0 1 0-2h5a1 1 0 0 1 0 2zM11 16H6a1 1 0 0 1 0-2h5a1 1 0 0 1 0 2z"/><rect width="3" height="3" x="16" y="8" class="uim-primary" rx="1" transform="rotate(-180 17.5 9.5)"/></svg>