<svg xmlns="http://www.w3.org/2000/svg" viewBox="0 0 24 24"><path class="uim-tertiary" d="M19,16H5a.99974.99974,0,0,1-1-1V3A.99974.99974,0,0,1,5,2H19a.99974.99974,0,0,1,1,1V15A.99974.99974,0,0,1,19,16Z"/><path class="uim-primary" d="M21 4H3A1 1 0 0 1 3 2H21a1 1 0 0 1 0 2zM21 16H3a1 1 0 0 1 0-2H21a1 1 0 0 1 0 2z"/><path class="uim-primary" d="M12,22a.99974.99974,0,0,1-1-1V15a1,1,0,0,1,2,0v6A.99974.99974,0,0,1,12,22Z"/><path class="uim-primary" d="M16.999,22a.99564.99564,0,0,1-.55078-.166l-5-3.30957a1,1,0,1,1,1.10352-1.668l5,3.30957A1,1,0,0,1,16.999,22Z"/><path class="uim-primary" d="M7.001 22a1 1 0 0 1-.55274-1.834l5-3.30957a1 1 0 0 1 1.10352 1.668l-5 3.30957A.9945.9945 0 0 1 7.001 22zM10.48975 12.502a1.7631 1.7631 0 0 1-1.7544-1.75781V7.25586a1.75537 1.75537 0 0 1 2.63281-1.51953L14.3877 7.48047a1.755 1.755 0 0 1 0 3.03906l-3.02 1.74414A1.75543 1.75543 0 0 1 10.48975 12.502z"/></svg>