<svg xmlns="http://www.w3.org/2000/svg" viewBox="0 0 24 24"><path class="uim-tertiary" d="M19,16H5a.99943.99943,0,0,1-1-1V3A.99943.99943,0,0,1,5,2H19a.99943.99943,0,0,1,1,1V15A.99943.99943,0,0,1,19,16Z"/><path class="uim-primary" d="M10,12a1,1,0,0,1-.707-1.707l4-4A.99989.99989,0,0,1,14.707,7.707l-4,4A.99676.99676,0,0,1,10,12Z"/><path class="uim-primary" d="M14 12a.99676.99676 0 0 1-.707-.293l-4-4A.99989.99989 0 0 1 10.707 6.293l4 4A1 1 0 0 1 14 12zM21 4H3A1 1 0 0 1 3 2H21a1 1 0 0 1 0 2zM21 16H3a1 1 0 0 1 0-2H21a1 1 0 0 1 0 2z"/><path class="uim-primary" d="M12,22a.99943.99943,0,0,1-1-1V15a1,1,0,0,1,2,0v6A.99943.99943,0,0,1,12,22Z"/><path class="uim-primary" d="M16.999,22a.99564.99564,0,0,1-.55078-.166l-5-3.30957a1,1,0,1,1,1.10352-1.668l5,3.30957A1,1,0,0,1,16.999,22Z"/><path class="uim-primary" d="M7.001,22a1,1,0,0,1-.55274-1.834l5-3.30957a1,1,0,0,1,1.10352,1.668l-5,3.30957A.99564.99564,0,0,1,7.001,22Z"/></svg>