<svg xmlns="http://www.w3.org/2000/svg" data-name="Layer 1" viewBox="0 0 24 24"><path class="uim-quaternary" d="M17,8H7A.99943.99943,0,0,1,6,7V3A.99943.99943,0,0,1,7,2H17a.99943.99943,0,0,1,1,1V7A.99943.99943,0,0,1,17,8Z"/><path class="uim-tertiary" d="M19,18H5a3.00328,3.00328,0,0,1-3-3V9A3.00328,3.00328,0,0,1,5,6H19a3.00328,3.00328,0,0,1,3,3v6A3.00328,3.00328,0,0,1,19,18Z"/><path class="uim-secondary" d="M17,22H7a.99943.99943,0,0,1-1-1V15a.99943.99943,0,0,1,1-1H17a.99943.99943,0,0,1,1,1v6A.99943.99943,0,0,1,17,22Z"/><circle cx="7" cy="11" r="1" class="uim-primary"/><path class="uim-primary" d="M21,22a.99676.99676,0,0,1-.707-.293l-18-18A.99989.99989,0,0,1,3.707,2.293l18,18A1,1,0,0,1,21,22Z"/></svg>