<svg xmlns="http://www.w3.org/2000/svg" viewBox="0 0 24 24"><path class="uim-primary" d="M6 9H3A1 1 0 0 1 3 7H6A1 1 0 0 1 6 9zM6 13H3a1 1 0 0 1 0-2H6a1 1 0 0 1 0 2zM6 17H3a1 1 0 0 1 0-2H6a1 1 0 0 1 0 2zM21 9H18a1 1 0 0 1 0-2h3a1 1 0 0 1 0 2zM21 13H18a1 1 0 0 1 0-2h3a1 1 0 0 1 0 2zM21 17H18a1 1 0 0 1 0-2h3a1 1 0 0 1 0 2zM16 7a.99974.99974 0 0 1-1-1V3a1 1 0 0 1 2 0V6A.99974.99974 0 0 1 16 7zM12 7a.99974.99974 0 0 1-1-1V3a1 1 0 0 1 2 0V6A.99974.99974 0 0 1 12 7zM8 7A.99974.99974 0 0 1 7 6V3A1 1 0 0 1 9 3V6A.99974.99974 0 0 1 8 7zM16 22a.99974.99974 0 0 1-1-1V18a1 1 0 0 1 2 0v3A.99974.99974 0 0 1 16 22zM12 22a.99974.99974 0 0 1-1-1V18a1 1 0 0 1 2 0v3A.99974.99974 0 0 1 12 22zM8 22a.99974.99974 0 0 1-1-1V18a1 1 0 0 1 2 0v3A.99974.99974 0 0 1 8 22z"/><path class="uim-tertiary" d="M16,19H8a3.00328,3.00328,0,0,1-3-3V8A3.00328,3.00328,0,0,1,8,5h8a3.00328,3.00328,0,0,1,3,3v8A3.00328,3.00328,0,0,1,16,19Z"/><path class="uim-quaternary" d="M14,15H10a.99974.99974,0,0,1-1-1V10a.99974.99974,0,0,1,1-1h4a.99974.99974,0,0,1,1,1v4A.99974.99974,0,0,1,14,15Z"/></svg>