<svg xmlns="http://www.w3.org/2000/svg" viewBox="0 0 24 24"><path class="uim-primary" d="M19,20a.99943.99943,0,0,1-1-1A13.01505,13.01505,0,0,0,5,6,1,1,0,0,1,5,4,15.01641,15.01641,0,0,1,20,19,.99943.99943,0,0,1,19,20Z"/><path class="uim-primary" d="M15,20a.99943.99943,0,0,1-1-1,9.00984,9.00984,0,0,0-9-9A1,1,0,0,1,5,8,11.01245,11.01245,0,0,1,16,19,.99943.99943,0,0,1,15,20Z"/><path class="uim-primary" d="M11,20a.99943.99943,0,0,1-1-1,5.00588,5.00588,0,0,0-5-5,1,1,0,0,1,0-2,7.00848,7.00848,0,0,1,7,7A.99943.99943,0,0,1,11,20Z"/></svg>