<svg xmlns="http://www.w3.org/2000/svg" data-name="Layer 1" viewBox="0 0 24 24"><path class="uim-tertiary" d="M18,20V3a.99975.99975,0,0,0-1.49707-.86719L13.5,3.85352,10.49707,2.13281a.99978.99978,0,0,0-.99414,0L6.5,3.85352,3.49707,2.13281A.99975.99975,0,0,0,2,3V20a2,2,0,0,0,2,2H20A2,2,0,0,1,18,20Z"/><path class="uim-primary" d="M21.999 14v6a2 2 0 0 1-2 2h0a2 2 0 0 1-2-2V12h2A2 2 0 0 1 21.999 14zM12 10H8A1 1 0 0 1 8 8h4a1 1 0 0 1 0 2zM9 14H7a1 1 0 0 1 0-2H9a1 1 0 0 1 0 2zM9 18H7a1 1 0 0 1 0-2H9a1 1 0 0 1 0 2zM13 14a.98979.98979 0 0 1-.91992-1.37988A.97977.97977 0 0 1 13.7002 12.29a.91089.91089 0 0 1 .21972.33008A.9994.9994 0 0 1 14 13a1.00694 1.00694 0 0 1-1 1zM13 18a.9994.9994 0 0 1-.37988-.08008 1.14718 1.14718 0 0 1-.33008-.21 1.22083 1.22083 0 0 1-.2207-.33008A.98884.98884 0 0 1 12 17a1.04778 1.04778 0 0 1 .29-.71.99819.99819 0 0 1 .89941-.27051.62058.62058 0 0 1 .19043.06055.73594.73594 0 0 1 .17969.08984A1.61848 1.61848 0 0 1 13.71 16.29 1.05232 1.05232 0 0 1 14 17a.99349.99349 0 0 1-.29.71 1.16044 1.16044 0 0 1-.33008.21A.9994.9994 0 0 1 13 18z"/></svg>