<svg xmlns="http://www.w3.org/2000/svg" viewBox="0 0 24 24"><g data-name="Brand Logos"><path class="uim-quaternary" d="M2.57031 14.69043a.99674.99674 0 0 1-.72168-.30762 3.77735 3.77735 0 1 1 6.208-4.09082.99979.99979 0 0 1-.36816 1.23438l-4.56934 3A.99605.99605 0 0 1 2.57031 14.69043zM21.03027 14.69043a.996.996 0 0 1-.54882-.16406l-4.57032-3A.99979.99979 0 0 1 15.543 10.292a3.77894 3.77894 0 1 1 6.209 4.08985A.99776.99776 0 0 1 21.03027 14.69043zM11.80078 11a1.122 1.122 0 0 1-.14941-.01074 1.0009 1.0009 0 0 1-.84082-1.1377l1.20019-8a.999.999 0 0 1 1.31153-.79785l4 1.36035a.99966.99966 0 1 1-.64454 1.89258L13.81152 3.332l-1.02246 6.81641A1.00061 1.00061 0 0 1 11.80078 11z"/><path class="uim-tertiary" d="M18.89258 7a3.01439 3.01439 0 0 1-3-3.02246 3.00021 3.00021 0 0 1 6-.02246v.02246A3.01439 3.01439 0 0 1 18.89258 7zM11.7998 23c-6.168 0-11-3.0752-11-7s4.832-7 11-7 11 3.0752 11 7S17.96777 23 11.7998 23z"/><path class="uim-primary" d="M11.8418 19.5a5.11051 5.11051 0 0 1-3.78125-1.21777 1.00058 1.00058 0 1 1 1.416-1.41407A3.36832 3.36832 0 0 0 11.8418 17.5 3.375 3.375 0 0 0 14.21 16.86719a1.00058 1.00058 0 1 1 1.41406 1.416A5.12 5.12 0 0 1 11.8418 19.5zM10 14.00207a1 1 0 1 0-.99969.99969A1.00119 1.00119 0 0 0 10 14.00207zM16 14.00207a1 1 0 1 0-.99969.99969A1.00119 1.00119 0 0 0 16 14.00207z"/></g></svg>