<svg xmlns="http://www.w3.org/2000/svg" viewBox="0 0 24 24"><path class="uim-primary" d="M11.4978,22a.99676.99676,0,0,1-.707-.293l-2.5-2.5a.99964.99964,0,0,1,0-1.41406l2.5-2.5A.99989.99989,0,0,1,12.20483,16.707l-1.793,1.793,1.793,1.793A1,1,0,0,1,11.4978,22Z"/><path class="uim-tertiary" d="M21,4.5H19a1,1,0,0,0,0,2h1v11H11.41187l-1,1,1,1H21a.99974.99974,0,0,0,1-1V5.5A.99974.99974,0,0,0,21,4.5Z"/><path class="uim-primary" d="M12.5,2a.99676.99676,0,0,1,.707.293l2.5,2.5a.99962.99962,0,0,1,0,1.41406l-2.5,2.5A.99989.99989,0,0,1,11.793,7.293l1.793-1.793L11.793,3.707A1,1,0,0,1,12.5,2Z"/><path class="uim-tertiary" d="M5,17.5H4V6.5h8.58594l1-1-1-1H3a.99974.99974,0,0,0-1,1v13a.99974.99974,0,0,0,1,1H5a1,1,0,0,0,0-2Z"/></svg>