<svg xmlns="http://www.w3.org/2000/svg" data-name="Layer 1" viewBox="0 0 24 24"><path class="uim-quaternary" d="M12,9a.99974.99974,0,0,1-1-1V5a1,1,0,0,1,2,0V8A.99974.99974,0,0,1,12,9Z"/><circle cx="12" cy="4" r="2" class="uim-tertiary"/><path class="uim-tertiary" d="M17,22H7a3.00328,3.00328,0,0,1-3-3V10A3.00328,3.00328,0,0,1,7,7H17a3.00328,3.00328,0,0,1,3,3v9A3.00328,3.00328,0,0,1,17,22Z"/><path class="uim-primary" d="M14.97013,12.24254,16.28076,7H7.71924l1.31063,5.24254A1,1,0,0,0,10,13h4A1,1,0,0,0,14.97013,12.24254Z"/><path class="uim-quaternary" d="M2 18a.99974.99974 0 0 1-1-1V15a1 1 0 0 1 2 0v2A.99974.99974 0 0 1 2 18zM22 18a.99974.99974 0 0 1-1-1V15a1 1 0 0 1 2 0v2A.99974.99974 0 0 1 22 18z"/><circle cx="9" cy="16" r="1" class="uim-primary"/><circle cx="15" cy="16" r="1" class="uim-primary"/></svg>