<svg xmlns="http://www.w3.org/2000/svg" viewBox="0 0 24 24"><path class="uim-primary" d="M17.625,4H6.375a1,1,0,0,1,0-2h11.25a1,1,0,0,1,0,2Z"/><path class="uim-primary" d="M12,8.5a.99943.99943,0,0,1-1-1V3a1,1,0,0,1,2,0V7.5A.99943.99943,0,0,1,12,8.5Z"/><path class="uim-quaternary" d="M19,22H5a3.00328,3.00328,0,0,1-3-3V9.5a3.00328,3.00328,0,0,1,3-3H19a3.00328,3.00328,0,0,1,3,3V19A3.00328,3.00328,0,0,1,19,22Z"/><path class="uim-tertiary" d="M2 19a3.00328 3.00328 0 0 0 3 3h7V14.25H2zM22 19a3.00328 3.00328 0 0 1-3 3H12V14.25H22z"/><rect width="2" height="7.75" x="11" y="14.25" class="uim-primary"/></svg>