<svg xmlns="http://www.w3.org/2000/svg" viewBox="0 0 24 24"><path class="uim-primary" d="M5,22a2.99975,2.99975,0,0,1-2.12109-5.12109,3.0731,3.0731,0,0,1,4.24267,0,3.00376,3.00376,0,0,1,0,4.24218H7.12109A2.98066,2.98066,0,0,1,5,22Z"/><path class="uim-tertiary" d="M11,20a.99974.99974,0,0,1-1-1,5.00588,5.00588,0,0,0-5-5,1,1,0,0,1,0-2,7.00818,7.00818,0,0,1,7,7A.99974.99974,0,0,1,11,20Z"/><path class="uim-quaternary" d="M15,20a.99974.99974,0,0,1-1-1,9.01016,9.01016,0,0,0-9-9A1,1,0,0,1,5,8,11.01245,11.01245,0,0,1,16,19,.99974.99974,0,0,1,15,20Z"/></svg>