<svg xmlns="http://www.w3.org/2000/svg" data-name="Layer 1" viewBox="0 0 24 24"><rect width="20" height="16" x="2" y="4" class="uim-quaternary" rx="3"/><rect width="12" height="8" x="6" y="8" class="uim-secondary" rx="2"/><circle cx="3" cy="19" r="1" class="uim-primary"/><path class="uim-primary" d="M7,20a.99943.99943,0,0,1-1-1,3.00328,3.00328,0,0,0-3-3,1,1,0,0,1,0-2,5.00588,5.00588,0,0,1,5,5A.99943.99943,0,0,1,7,20Z"/><path class="uim-primary" d="M11,20a.99943.99943,0,0,1-1-1,7.00848,7.00848,0,0,0-7-7,1,1,0,0,1,0-2,9.00984,9.00984,0,0,1,9,9A.99943.99943,0,0,1,11,20Z"/><path class="uim-tertiary" d="M19,20H15a1,1,0,0,1,0-2h4a1.00067,1.00067,0,0,0,1-1V7a1.00067,1.00067,0,0,0-1-1H5A1.00067,1.00067,0,0,0,4,7,1,1,0,0,1,2,7,3.00328,3.00328,0,0,1,5,4H19a3.00328,3.00328,0,0,1,3,3V17A3.00328,3.00328,0,0,1,19,20Z"/></svg>