<svg xmlns="http://www.w3.org/2000/svg" data-name="Layer 1" viewBox="0 0 24 24"><circle cx="12" cy="12" r="10" class="uim-tertiary"/><path class="uim-primary" d="M14.99951,17.0918a.99473.99473,0,0,1-.64209-.23438,3.766,3.766,0,0,0-4.71484,0,.99955.99955,0,1,1-1.28516-1.53125,5.81162,5.81162,0,0,1,7.28516,0,.99974.99974,0,0,1-.64307,1.76563Z"/><path class="uim-quaternary" d="M9 21.48047a.99974.99974 0 0 1-1-1V10a1 1 0 0 1 2 0V20.48047A.99974.99974 0 0 1 9 21.48047zM15 21.48047a.99974.99974 0 0 1-1-1V10a1 1 0 0 1 2 0V20.48047A.99974.99974 0 0 1 15 21.48047z"/><path class="uim-primary" d="M16 11H14a1 1 0 0 1 0-2h2a1 1 0 0 1 0 2zM10 11H8A1 1 0 0 1 8 9h2a1 1 0 0 1 0 2z"/></svg>