<svg xmlns="http://www.w3.org/2000/svg" viewBox="0 0 24 24"><path class="uim-primary" d="M21 22H17a1 1 0 0 1 0-2h3V17a1 1 0 0 1 2 0v4A.99974.99974 0 0 1 21 22zM3 8A.99974.99974 0 0 1 2 7V3A.99974.99974 0 0 1 3 2H7A1 1 0 0 1 7 4H4V7A.99974.99974 0 0 1 3 8z"/><path class="uim-primary" d="M21,22a.99676.99676,0,0,1-.707-.293l-18-18A.99989.99989,0,0,1,3.707,2.293l18,18A1,1,0,0,1,21,22Z"/><path class="uim-tertiary" d="M9.17139,15.82812a1,1,0,0,1-.707-1.707l5.65722-5.65625a.99989.99989,0,1,1,1.41406,1.41407L9.87842,15.53516A.99675.99675,0,0,1,9.17139,15.82812Z"/></svg>