<svg xmlns="http://www.w3.org/2000/svg" viewBox="0 0 24 24"><path class="uim-tertiary" d="M7 5.99976a.99943.99943 0 0 1-1-1v-2a1 1 0 0 1 2 0v2A.99943.99943 0 0 1 7 5.99976zM17 5.99976a.99943.99943 0 0 1-1-1v-2a1 1 0 1 1 2 0v2A.99943.99943 0 0 1 17 5.99976z"/><path class="uim-primary" d="M19,4.00024H18v.99952a1,1,0,1,1-2,0V4.00024H8v.99952a1,1,0,0,1-2,0V4.00024H5a3,3,0,0,0-3,3v2H22v-2A3,3,0,0,0,19,4.00024Z"/><circle cx="7" cy="13" r="1" class="uim-primary"/><circle cx="7" cy="17" r="1" class="uim-primary"/><circle cx="12" cy="13" r="1" class="uim-primary"/><circle cx="12" cy="17" r="1" class="uim-primary"/><circle cx="17" cy="13" r="1" class="uim-primary"/><circle cx="17" cy="17" r="1" class="uim-primary"/><path class="uim-tertiary" d="M2,9.00024v10a3,3,0,0,0,3,3H19a3,3,0,0,0,3-3v-10Zm5,9a1,1,0,1,1,1-1A1,1,0,0,1,7,18.00024Zm0-4a1,1,0,1,1,1-1A1,1,0,0,1,7,14.00024Zm5,4a1,1,0,1,1,1-1A1,1,0,0,1,12,18.00024Zm0-4a1,1,0,1,1,1-1A1,1,0,0,1,12,14.00024Zm5,4a1,1,0,1,1,1-1A1,1,0,0,1,17,18.00024Zm0-4a1,1,0,1,1,1-1A1,1,0,0,1,17,14.00024Z"/></svg>