<svg xmlns="http://www.w3.org/2000/svg" data-name="Layer 1" viewBox="0 0 24 24"><path class="uim-primary" d="M15.41406,16.41406a.99672.99672,0,0,1-.707-.293L12.58594,14A.99989.99989,0,0,1,14,12.58594L16.12109,14.707a1,1,0,0,1-.707,1.707Z"/><rect width="4" height="8.214" x="15.995" y="13.888" class="uim-secondary" rx="2" transform="rotate(-45 17.995 17.995)"/><path class="uim-secondary" d="M19.48438,21.98389a2.49281,2.49281,0,0,1-1.76758-.731l-2.9795-2.98047a2.49974,2.49974,0,0,1,3.53516-3.53516l2.98047,2.98a2.49968,2.49968,0,0,1,0,3.53564h0A2.49339,2.49339,0,0,1,19.48438,21.98389Zm-2.9795-6.978a1.49914,1.49914,0,0,0-1.06054,2.55957l2.97949,2.98047a1.50036,1.50036,0,1,0,2.12207-2.12158l-2.98047-2.98A1.49451,1.49451,0,0,0,16.50488,15.00586Zm4.39453,5.89355h0Z"/><circle cx="9" cy="9" r="7" class="uim-tertiary"/><circle cx="9.05" cy="9.05" r="5" class="uim-quaternary"/></svg>