<svg xmlns="http://www.w3.org/2000/svg" viewBox="0 0 24 24"><path class="uim-quaternary" d="M16,22H8a3.00328,3.00328,0,0,1-3-3V5A3.00328,3.00328,0,0,1,8,2h8a3.00328,3.00328,0,0,1,3,3V19A3.00328,3.00328,0,0,1,16,22Z"/><path class="uim-tertiary" d="M16,19H8a.99974.99974,0,0,1-1-1,5,5,0,0,1,10,0A.99974.99974,0,0,1,16,19Z"/><circle cx="12" cy="5" r="1" class="uim-primary"/><path class="uim-quinary" d="M12,15a3,3,0,1,1,3-3A3.00328,3.00328,0,0,1,12,15Z"/><path class="uim-primary" d="M16,22H8a3,3,0,0,1-3-3V18H19v1A3,3,0,0,1,16,22Z"/></svg>