<svg xmlns="http://www.w3.org/2000/svg" data-name="Layer 1" viewBox="0 0 24 24"><path class="uim-secondary" d="M18,6h2a2.00588,2.00588,0,0,1,2,2v2a2.00588,2.00588,0,0,1-2,2H4a2.00588,2.00588,0,0,1-2-2V8A2.00588,2.00588,0,0,1,4,6H18Z"/><path class="uim-primary" d="M18,12h2a2.00588,2.00588,0,0,1,2,2v2a2.00588,2.00588,0,0,1-2,2H4a2.00588,2.00588,0,0,1-2-2V14a2.00588,2.00588,0,0,1,2-2H18Z"/><rect width="12" height="6" x="6" y="3" class="uim-quaternary" rx="2"/><rect width="12" height="6" x="6" y="9" class="uim-tertiary" rx="2"/><rect width="12" height="6" x="6" y="15" class="uim-quaternary" rx="2"/><circle cx="15" cy="6" r="1" class="uim-primary"/><circle cx="15" cy="12" r="1" class="uim-primary"/><circle cx="15" cy="18" r="1" class="uim-primary"/><path class="uim-primary" d="M11 7H9A1 1 0 0 1 9 5h2a1 1 0 0 1 0 2zM11 13H9a1 1 0 0 1 0-2h2a1 1 0 0 1 0 2zM11 19H9a1 1 0 0 1 0-2h2a1 1 0 0 1 0 2z"/></svg>