<svg xmlns="http://www.w3.org/2000/svg" data-name="Layer 1" viewBox="0 0 24 24"><path class="uim-primary" d="M12,20a1,1,0,0,1-1-1V13a1,1,0,0,1,2,0v6A1,1,0,0,1,12,20Z"/><rect width="14" height="6" x="5" y="2" class="uim-quaternary" rx="2"/><rect width="14" height="6" x="5" y="8" class="uim-tertiary" rx="2"/><path class="uim-primary" d="M21,21H3a1,1,0,0,1,0-2H21a1,1,0,0,1,0,2Z"/><circle cx="16" cy="5" r="1" class="uim-primary"/><circle cx="16" cy="11" r="1" class="uim-primary"/><circle cx="12" cy="20" r="2" class="uim-tertiary"/><path class="uim-primary" d="M11 6H8A1 1 0 0 1 8 4h3a1 1 0 0 1 0 2zM11 12H8a1 1 0 0 1 0-2h3a1 1 0 0 1 0 2z"/></svg>