<svg xmlns="http://www.w3.org/2000/svg" viewBox="0 0 24 24"><path class="uim-primary" d="M21,21H13V18a1,1,0,0,0-2,0v3H3a1,1,0,0,0,0,2H21a1,1,0,0,0,0-2Z"/><path class="uim-quaternary" d="M19,11H5A3.00328,3.00328,0,0,1,2,8V6A3.00328,3.00328,0,0,1,5,3H19a3.00328,3.00328,0,0,1,3,3V8A3.00328,3.00328,0,0,1,19,11Z"/><circle cx="7" cy="7" r="1" class="uim-primary"/><circle cx="11" cy="7" r="1" class="uim-primary"/><path class="uim-tertiary" d="M19,19H5a3.00328,3.00328,0,0,1-3-3V14a3.00328,3.00328,0,0,1,3-3H19a3.00328,3.00328,0,0,1,3,3v2A3.00328,3.00328,0,0,1,19,19Z"/><circle cx="7" cy="15" r="1" class="uim-primary"/><circle cx="11" cy="15" r="1" class="uim-primary"/></svg>