<svg xmlns="http://www.w3.org/2000/svg" data-name="Layer 1" viewBox="0 0 24 24"><rect width="18" height="6" x="3" y="3" class="uim-quaternary" rx="2"/><rect width="18" height="6" x="3" y="9" class="uim-tertiary" rx="2"/><rect width="18" height="6" x="3" y="15" class="uim-quaternary" rx="2"/><circle cx="18" cy="6" r="1" class="uim-primary"/><circle cx="18" cy="12" r="1" class="uim-primary"/><circle cx="18" cy="18" r="1" class="uim-primary"/><circle cx="15" cy="6" r="1" class="uim-primary"/><circle cx="15" cy="12" r="1" class="uim-primary"/><circle cx="15" cy="18" r="1" class="uim-primary"/><path class="uim-primary" d="M9 7H6A1 1 0 0 1 6 5H9A1 1 0 0 1 9 7zM9 13H6a1 1 0 0 1 0-2H9a1 1 0 0 1 0 2zM9 19H6a1 1 0 0 1 0-2H9a1 1 0 0 1 0 2z"/></svg>