<svg xmlns="http://www.w3.org/2000/svg" viewBox="0 0 24 24"><path class="uim-primary" d="M8.52051 11.37012a.99993.99993 0 0 1-.41846-1.90821l6.75977-3.11035A.99977.99977 0 1 1 15.69775 8.168L8.938 11.27832A.99238.99238 0 0 1 8.52051 11.37012zM15.2793 17.74023a.9923.9923 0 0 1-.41748-.09179L8.10205 14.53809A.99977.99977 0 0 1 8.938 12.72168L15.69775 15.832a.99992.99992 0 0 1-.41845 1.9082z"/><path class="uim-tertiary" d="M18 10a4 4 0 1 1 4-4A4.00427 4.00427 0 0 1 18 10zM18 22a4 4 0 1 1 4-4A4.00427 4.00427 0 0 1 18 22zM6 16a4 4 0 1 1 4-4A4.00427 4.00427 0 0 1 6 16z"/></svg>