<svg xmlns="http://www.w3.org/2000/svg" viewBox="0 0 24 24"><path class="uim-tertiary" d="M12,22a.9986.9986,0,0,1-.581-.18652l-3.6504-2.60743A9.01643,9.01643,0,0,1,4,11.88281v-7.457a1.00039,1.00039,0,0,1,1.20605-.97851,8.00089,8.00089,0,0,0,6.22168-1.26758.99888.99888,0,0,1,1.14454,0A7.99842,7.99842,0,0,0,18.794,3.44727,1.00039,1.00039,0,0,1,20,4.42578v7.457a9.01643,9.01643,0,0,1-3.76855,7.32324l-3.6504,2.60743A.9986.9986,0,0,1,12,22Z"/><path class="uim-primary" d="M12 13.36426a1 1 0 0 1 0-2 1 1 0 1 0-.86719-1.499.9998.9998 0 1 1-1.73047-1.002A3.00005 3.00005 0 1 1 12 13.36426zM12 16.35938a.97521.97521 0 0 1-.91992-.60938A1.04972 1.04972 0 0 1 11 15.35938a1.00387 1.00387 0 0 1 .29-.69922 1.027 1.027 0 0 1 1.41992 0 1.00811 1.00811 0 0 1 .29.69922.99042.99042 0 0 1-1 1z"/></svg>