<svg xmlns="http://www.w3.org/2000/svg" viewBox="0 0 24 24"><path class="uim-quaternary" d="M14,8H10A.99943.99943,0,0,1,9,7V3a.99943.99943,0,0,1,1-1h4a.99943.99943,0,0,1,1,1V7A.99943.99943,0,0,1,14,8Z"/><path class="uim-primary" d="M17,12.88965H7a.99943.99943,0,0,1-1-1V7A.99943.99943,0,0,1,7,6H17a.99943.99943,0,0,1,1,1v4.88965A.99943.99943,0,0,1,17,12.88965Z"/><path class="uim-quaternary" d="M19.4502,17.91016H4.5498a.99956.99956,0,0,1-.92968-.63184L2.07031,13.36816a.99963.99963,0,0,1,.71289-1.34472l9-2a1.01443,1.01443,0,0,1,.4336,0l9,2a.99963.99963,0,0,1,.71289,1.34472l-1.54981,3.91016A.99956.99956,0,0,1,19.4502,17.91016Z"/><path class="uim-tertiary" d="M21.88,12.53a1.00284,1.00284,0,0,0-.66-.51l-9-2A.85654.85654,0,0,0,12,10v7.90991h7.45a.99992.99992,0,0,0,.93-.62988l1.55-3.90991A.99061.99061,0,0,0,21.88,12.53Z"/><path class="uim-primary" d="M5.30469,22.00293a3.93464,3.93464,0,0,1-2.02246-.55762,2.55961,2.55961,0,0,0-.56836-.24511.99983.99983,0,1,1,.57226-1.916,4.50135,4.50135,0,0,1,1.01856.44238,2.065,2.065,0,0,0,2.09277-.02441,4.63763,4.63763,0,0,1,4.53906.002,2.13311,2.13311,0,0,0,2.125.001,4.63639,4.63639,0,0,1,4.541-.00293,2.06677,2.06677,0,0,0,2.09375.02441,4.47475,4.47475,0,0,1,1.01758-.44238.99983.99983,0,1,1,.57226,1.916,2.53192,2.53192,0,0,0-.56738.24511,4.04834,4.04834,0,0,1-4.10254-.00293,2.61588,2.61588,0,0,0-2.55664-.0039,4.13214,4.13214,0,0,1-4.12109-.001,2.61717,2.61717,0,0,0-2.55469.00488A4.22454,4.22454,0,0,1,5.30469,22.00293Z"/></svg>