<svg xmlns="http://www.w3.org/2000/svg" viewBox="0 0 24 24"><path class="uim-quaternary" d="M4,8V21a1,1,0,0,0,1,1H19a1,1,0,0,0,1-1V8Z"/><path class="uim-primary" d="M20 4H4.30273a1 1 0 0 1 0-2H20a1 1 0 0 1 0 2zM15 19v3H9V19a3 3 0 0 1 3-3h0A3 3 0 0 1 15 19zM4 12H4a2 2 0 0 1-2-2V7A1 1 0 0 1 3 6H6v4A2 2 0 0 1 4 12z"/><path class="uim-tertiary" d="M8,12H8a2,2,0,0,1-2-2V6h4v4A2,2,0,0,1,8,12Z"/><path class="uim-primary" d="M12,12h0a2,2,0,0,1-2-2V6h4v4A2,2,0,0,1,12,12Z"/><path class="uim-tertiary" d="M16,12h0a2,2,0,0,1-2-2V6h4v4A2,2,0,0,1,16,12Z"/><path class="uim-primary" d="M20,12h0a2,2,0,0,1-2-2V6h3a1,1,0,0,1,1,1v3A2,2,0,0,1,20,12Z"/></svg>