<svg xmlns="http://www.w3.org/2000/svg" viewBox="0 0 24 24"><path class="uim-tertiary" d="M9.5 22a2 2 0 1 1 2-2A2.00219 2.00219 0 0 1 9.5 22zM17.5 22a2 2 0 1 1 2-2A2.00219 2.00219 0 0 1 17.5 22z"/><path class="uim-primary" d="M8.18018,14a.99984.99984,0,0,1-.96577-.741L4.73291,4l-1.23245.00054A.99979.99979,0,0,1,2.50024,3.001h0a.99978.99978,0,0,1,.99978-1h2a.99984.99984,0,0,1,.96576.741L8.94727,12H18.5a3,3,0,0,1,0,6H5.5a1,1,0,0,1,0-2h13a1,1,0,0,0,0-2Z"/><path class="uim-quaternary" d="M8.94727,12H18.5a2.97522,2.97522,0,0,1,1.10443.2168l1.86139-6.958A.99914.99914,0,0,0,20.5,4H6.803Z"/></svg>