<svg xmlns="http://www.w3.org/2000/svg" data-name="Layer 1" viewBox="0 0 24 24"><path class="uim-tertiary" d="M16.19,21H7.81A2,2,0,0,1,5.8199,19.199L5,11H19l-.8199,8.199A2,2,0,0,1,16.19,21Z"/><path class="uim-tertiary" d="M16.18994,22H7.81006a2.99113,2.99113,0,0,1-2.98535-2.70117l-.81983-8.19922A1.00065,1.00065,0,0,1,5,10H19a1.00065,1.00065,0,0,1,.99512,1.09961l-.81983,8.19922A2.99113,2.99113,0,0,1,16.18994,22ZM6.105,12l.71,7.09961A.99645.99645,0,0,0,7.81006,20h8.37988a.99645.99645,0,0,0,.99512-.90039L17.895,12Z"/><path class="uim-primary" d="M14 18a.99974.99974 0 0 1-1-1V15a1 1 0 0 1 2 0v2A.99974.99974 0 0 1 14 18zM10 18a.99974.99974 0 0 1-1-1V15a1 1 0 0 1 2 0v2A.99974.99974 0 0 1 10 18zM6.999 8a.99991.99991 0 0 1-.89355-1.44727l2-4a1.00012 1.00012 0 1 1 1.78906.89454l-2 4A.99957.99957 0 0 1 6.999 8zM17.001 8a.99957.99957 0 0 1-.89551-.55273l-2-4a1.00012 1.00012 0 0 1 1.78906-.89454l2 4A.99991.99991 0 0 1 17.001 8z"/><path class="uim-quaternary" d="M19,12H5A3,3,0,0,1,5,6H19a3,3,0,0,1,0,6Z"/></svg>