<svg xmlns="http://www.w3.org/2000/svg" data-name="Layer 1" viewBox="0 0 24 24"><path class="uim-primary" d="M17.43845,13H8L6,5H21l-1.62127,6.48507A2,2,0,0,1,17.43845,13Z"/><path class="uim-primary" d="M17.43848,14H8a1.00016,1.00016,0,0,1-.97021-.75781l-2-8A1.0003,1.0003,0,0,1,6,4H21a1.0003,1.0003,0,0,1,.97021,1.24219l-1.62109,6.48535A2.99664,2.99664,0,0,1,17.43848,14ZM8.78076,12h8.65772a.99867.99867,0,0,0,.97021-.75781L19.71924,6H7.28076Z"/><path class="uim-tertiary" d="M21,18H7a3,3,0,0,1,0-6H8a1,1,0,0,1,0,2H7a1,1,0,0,0,0,2H21a1,1,0,0,1,0,2Z"/><circle cx="17" cy="20" r="2" class="uim-primary"/><circle cx="9" cy="20" r="2" class="uim-primary"/><path class="uim-tertiary" d="M7.999,14a1,1,0,0,1-.96923-.75781L4.90869,4.75684A.99887.99887,0,0,0,3.93848,4H3A1,1,0,0,1,3,2h.93848A2.99684,2.99684,0,0,1,6.84912,4.27148l2.12109,8.48633A1.00128,1.00128,0,0,1,7.999,14Z"/></svg>