<svg xmlns="http://www.w3.org/2000/svg" data-name="Layer 1" viewBox="0 0 24 24"><path class="uim-quaternary" d="M9.83,21.76A10,10,0,0,0,20.66,17h0A10,10,0,0,0,19.37,5.24Z"/><path class="uim-tertiary" d="M9.83,2.24A10,10,0,0,1,20.66,7h0a10,10,0,0,1-1.29,11.76Z"/><path class="uim-primary" d="M21.54,9A10,10,0,0,0,12,2h0A10,10,0,0,0,2.46,9Z"/><path class="uim-quaternary" d="M14.17,2.24A10,10,0,0,0,3.34,7h0A10,10,0,0,0,4.63,18.76Z"/><path class="uim-tertiary" d="M14.17,21.76A10,10,0,0,1,3.34,17h0A10,10,0,0,1,4.63,5.24Z"/><path class="uim-primary" d="M16,15H2.46A10,10,0,0,0,12,22h0a9.92,9.92,0,0,0,4-.84Z"/><path class="uim-quaternary" d="M15.89,14H14.31L9.83,21.76a10,10,0,0,0,9.07-2.53Z"/></svg>