<svg xmlns="http://www.w3.org/2000/svg" data-name="Layer 1" viewBox="0 0 24 24"><path class="uim-tertiary" d="M12,2A10,10,0,1,0,22,12,10,10,0,0,0,12,2Zm3,11.24L13.24,15H10.76L9,13.24V10.76L10.76,9h2.48L15,10.76Z"/><path class="uim-quaternary" d="M15 13.24h0L7.38 20.86h0a9.81 9.81 0 0 0 7.62.66zM9 10.76H9l7.62-7.62h0A9.81 9.81 0 0 0 9 2.48z"/><path class="uim-primary" d="M10.76 9H21.53a9.85 9.85 0 0 0-2.46-4.07 10 10 0 0 0-2.46-1.79zM13.24 15H2.46a9.85 9.85 0 0 0 4.93 5.85z"/><path class="uim-secondary" d="M13.24 9h0l7.62 7.62h0A9.81 9.81 0 0 0 21.52 9zM10.76 15h0L3.14 7.38h0A9.81 9.81 0 0 0 2.48 15z"/><path class="uim-tertiary" d="M15 10.76h0V21.53h0a9.85 9.85 0 0 0 4.07-2.46 10 10 0 0 0 1.78-2.46zM9 13.24H9V2.47H9A9.92 9.92 0 0 0 3.14 7.39z"/></svg>