<svg xmlns="http://www.w3.org/2000/svg" data-name="Layer 1" viewBox="0 0 24 24"><path class="uim-tertiary" d="M4.21808,10.62464,2.21871,8.12543a1.00048,1.00048,0,0,1,0-1.25l2-2.5a.9992.9992,0,0,1,.78024-.375H12v7H5A1.0013,1.0013,0,0,1,4.21808,10.62464Z"/><path class="uim-tertiary" d="M19.781,9.37543l2,2.5a1.00051,1.00051,0,0,1,0,1.25L19.7816,15.62464a1.0013,1.0013,0,0,1-.78188.37579h-7v-7h7.001A.9992.9992,0,0,1,19.781,9.37543Z"/><path class="uim-primary" d="M12,22a.99943.99943,0,0,1-1-1V3a1,1,0,0,1,2,0V21A.99943.99943,0,0,1,12,22Z"/><path class="uim-primary" d="M15,22H9a1,1,0,0,1,0-2h6a1,1,0,0,1,0,2Z"/></svg>