<svg xmlns="http://www.w3.org/2000/svg" data-name="Layer 1" viewBox="0 0 24 24"><path class="uim-primary" d="M9.99992,22a.99942.99942,0,0,1-1-1V3a1,1,0,0,1,2,0V21A.99943.99943,0,0,1,9.99992,22Z"/><path class="uim-primary" d="M12.99992,22h-6a1,1,0,1,1,0-2h6a1,1,0,1,1,0,2Z"/><path class="uim-tertiary" d="M15.99992,12.00043h-10a.99942.99942,0,0,1-1-1v-5a.99942.99942,0,0,1,1-1h10a1.00126,1.00126,0,0,1,.78125.375l2,2.5a1.00136,1.00136,0,0,1,0,1.25l-2,2.5A1.00129,1.00129,0,0,1,15.99992,12.00043Z"/></svg>