<svg xmlns="http://www.w3.org/2000/svg" data-name="Layer 1" viewBox="0 0 24 24"><path class="uim-primary" d="M13.99992,22a.99942.99942,0,0,1-1-1V3a1,1,0,0,1,2,0V21A.99943.99943,0,0,1,13.99992,22Z"/><path class="uim-primary" d="M16.99992,22h-6a1,1,0,0,1,0-2h6a1,1,0,1,1,0,2Z"/><path class="uim-tertiary" d="M7.21891,11.62543l-2-2.5a1.00136,1.00136,0,0,1,0-1.25l2-2.5a1.00126,1.00126,0,0,1,.78125-.375h10a.99942.99942,0,0,1,1,1v5a.99943.99943,0,0,1-1,1h-10A1.00129,1.00129,0,0,1,7.21891,11.62543Z"/></svg>