<svg xmlns="http://www.w3.org/2000/svg" viewBox="0 0 24 24"><path class="uim-primary" d="M5 8A.99974.99974 0 0 1 4 7V3A1 1 0 0 1 6 3V7A.99974.99974 0 0 1 5 8zM12 22a.99974.99974 0 0 1-1-1V19a1 1 0 0 1 2 0v2A.99974.99974 0 0 1 12 22zM19 22a.99974.99974 0 0 1-1-1V15a1 1 0 0 1 2 0v6A.99974.99974 0 0 1 19 22zM5 22a.99974.99974 0 0 1-1-1V11a1 1 0 0 1 2 0V21A.99974.99974 0 0 1 5 22zM12 16a.99974.99974 0 0 1-1-1V3a1 1 0 0 1 2 0V15A.99974.99974 0 0 1 12 16zM19 12a.99974.99974 0 0 1-1-1V3a1 1 0 0 1 2 0v8A.99974.99974 0 0 1 19 12z"/><path class="uim-tertiary" d="M7 8H3A1 1 0 0 1 3 6H7A1 1 0 0 1 7 8zM14 16H10a1 1 0 0 1 0-2h4a1 1 0 0 1 0 2zM21 12H17a1 1 0 0 1 0-2h4a1 1 0 0 1 0 2z"/></svg>