<svg xmlns="http://www.w3.org/2000/svg" data-name="Layer 1" viewBox="0 0 24 24"><circle cx="12" cy="12" r="10" class="uim-tertiary"/><path class="uim-primary" d="M12 17.0918a5.67258 5.67258 0 0 1-3.64258-1.32618.99954.99954 0 1 1 1.28516-1.53124 3.76605 3.76605 0 0 0 4.71484 0 .99954.99954 0 1 1 1.28516 1.53124A5.67258 5.67258 0 0 1 12 17.0918zM8.25 12a1 1 0 0 1-.707-1.707l.293-.293-.293-.293A.99989.99989 0 0 1 8.957 8.293l1 1a.99962.99962 0 0 1 0 1.41406l-1 1A.99676.99676 0 0 1 8.25 12z"/><path class="uim-primary" d="M10.25 12a.99676.99676 0 0 1-.707-.293l-1-1a.99962.99962 0 0 1 0-1.41406l1-1A.99989.99989 0 0 1 10.957 9.707l-.293.293.293.293A1 1 0 0 1 10.25 12zM14.25 12a1 1 0 0 1-.707-1.707l.293-.293-.293-.293A.99989.99989 0 0 1 14.957 8.293l1 1a.99962.99962 0 0 1 0 1.41406l-1 1A.99676.99676 0 0 1 14.25 12z"/><path class="uim-primary" d="M16.25,12a.99676.99676,0,0,1-.707-.293l-1-1a.99962.99962,0,0,1,0-1.41406l1-1A.99989.99989,0,0,1,16.957,9.707l-.293.293.293.293A1,1,0,0,1,16.25,12Z"/></svg>