<svg xmlns="http://www.w3.org/2000/svg" viewBox="0 0 24 24"><g data-name="Brand Logos"><rect width="20" height="20" x="2.008" y="2" class="uim-primary" rx="4.5"/><path class="uim-tertiary" d="M19.17365,15.65173A4.52238,4.52238,0,0,1,16.09534,13.07l-.004-.00861a.78359.78359,0,0,1-.07483-.65723c.14093-.33209.60724-.4801.91626-.57818.07709-.02448.15009-.04761.20728-.07025.55853-.22064.67211-.449.66937-.60181a.485.485,0,0,0-.36719-.39807l-.00409-.00159a.69414.69414,0,0,0-.26092-.04992.55227.55227,0,0,0-.22913.04547,1.85974,1.85974,0,0,1-.6994.19482.60229.60229,0,0,1-.38782-.12976c.00678-.12445.01471-.25281.02332-.38843l.003-.04779a7.39771,7.39771,0,0,0-.17639-2.95422,3.84306,3.84306,0,0,0-3.56824-2.29871l-.29468.00275A3.83671,3.83671,0,0,0,8.28607,7.42572a7.38812,7.38812,0,0,0-.17663,2.95166q.01419.21871.02636.43768a.62144.62144,0,0,1-.42749.13062,1.79643,1.79643,0,0,1-.74243-.196.42052.42052,0,0,0-.17963-.03588.6107.6107,0,0,0-.59356.39c-.05994.31531.3902.54376.66394.65186.05786.023.13049.046.20727.07031.30878.098.77546.246.91639.57831a.78492.78492,0,0,1-.07483.65741l-.004.00842a5.145,5.145,0,0,1-.7829,1.217,3.8182,3.8182,0,0,1-2.29535,1.36481.17561.17561,0,0,0-.14679.1831.27773.27773,0,0,0,.02271.095c.12866.301.77484.54956,1.86853.71833.10223.0158.14551.18249.2052.45556.02386.10932.04858.22278.08307.33991a.21421.21421,0,0,0,.2337.16754,1.82073,1.82073,0,0,0,.31116-.04462,4.04744,4.04744,0,0,1,.82031-.09283,3.63334,3.63334,0,0,1,.59149.05,2.83977,2.83977,0,0,1,1.124.57422,3.25323,3.25323,0,0,0,1.96948.77619c.02472,0,.04938-.00086.0733-.00293.03009.00146.0697.00293.11121.00293a3.25673,3.25673,0,0,0,1.97064-.77674,2.836,2.836,0,0,1,1.12286-.57354,3.63726,3.63726,0,0,1,.59162-.05,4.09738,4.09738,0,0,1,.82037.08685,1.74575,1.74575,0,0,0,.31122.03937h.01715a.20428.20428,0,0,0,.21631-.1618c.03406-.11561.059-.22559.08343-.33777.05915-.27167.10242-.43763.20508-.45349,1.09393-.16895,1.74005-.41718,1.86792-.71656a.28042.28042,0,0,0,.02319-.09576A.17581.17581,0,0,0,19.17365,15.65173Z"/></g></svg>