<svg xmlns="http://www.w3.org/2000/svg" viewBox="0 0 24 24"><path class="uim-primary" d="M21.16016,16.13379l-1.99878-1.15405.88989-.23853a.99989.99989,0,1,0-.51758-1.93164l-2.82129.75635L14.00031,12l2.71209-1.56592,2.82129.75635a.99989.99989,0,0,0,.51758-1.93164l-.88989-.23853,1.99878-1.15405a1.00016,1.00016,0,0,0-1-1.73242L18.01971,7.36963l.29816-1.11279a.99989.99989,0,0,0-1.93164-.51758L15.5705,8.78369,13,10.26782V7.13623l2.06543-2.06494a.99989.99989,0,1,0-1.41406-1.41406L13,4.30835V2a1,1,0,0,0-2,0V4.47168l-.81494-.81445A.99989.99989,0,1,0,8.771,5.07129L11,7.29932v2.9685L8.4295,8.78369,7.61377,5.73926a.99989.99989,0,0,0-1.93164.51758l.29816,1.11279L3.83984,6.13379a1.00016,1.00016,0,1,0-1,1.73242L4.83862,9.02026l-.88989.23853a.99989.99989,0,1,0,.51758,1.93164l2.82129-.75635L9.99969,12,7.2876,13.56592l-2.82129-.75635a.99989.99989,0,1,0-.51758,1.93164l.88989.23853L2.83984,16.13379a1.00016,1.00016,0,0,0,1,1.73242l2.14045-1.23584-.29816,1.11279a.99989.99989,0,1,0,1.93164.51758l.81573-3.04443L11,13.73218v3.13159L8.93457,18.92871a.99989.99989,0,1,0,1.41406,1.41406L11,19.69165V22a1,1,0,0,0,2,0V19.52832l.81494.81445A.99989.99989,0,0,0,15.229,18.92871L13,16.70068v-2.9685l2.5705,1.48413.81573,3.04443a.99989.99989,0,1,0,1.93164-.51758l-.29816-1.11279,2.14045,1.23584a1.00016,1.00016,0,0,0,1-1.73242Z"/></svg>