<svg xmlns="http://www.w3.org/2000/svg" data-name="Layer 1" viewBox="0 0 24 24"><path class="uim-tertiary" d="M20.99992 8h-10a1 1 0 0 1 0-2h10a1 1 0 0 1 0 2zM20.99992 13h-10a1 1 0 0 1 0-2h10a1 1 0 1 1 0 2z"/><path class="uim-primary" d="M4.99992,18a.99942.99942,0,0,1-1-1V7a1,1,0,0,1,2,0V17A.99943.99943,0,0,1,4.99992,18Z"/><path class="uim-tertiary" d="M20.99992,18h-10a1,1,0,0,1,0-2h10a1,1,0,1,1,0,2Z"/><path class="uim-primary" d="M4.99992,18a.9968.9968,0,0,1-.707-.293l-2-2A.99989.99989,0,0,1,3.707,14.293l1.293,1.293,1.293-1.293A.99989.99989,0,0,1,7.707,15.707l-2,2A.99678.99678,0,0,1,4.99992,18Z"/></svg>