<svg xmlns="http://www.w3.org/2000/svg" data-name="Layer 1" viewBox="0 0 24 24"><ellipse cx="6" cy="6" class="uim-tertiary" rx="2.65" ry="3.313" transform="rotate(-45 6 6)"/><path class="uim-tertiary" d="M20.82812,21.98535a.96865.96865,0,0,1-.874-.54,2.74415,2.74415,0,0,1-.167-.45263,2.52851,2.52851,0,0,0-1.8418-1.84815,5.14354,5.14354,0,0,1-3.59082-3.606,2.62109,2.62109,0,0,0-1.83887-1.834,5.11114,5.11114,0,0,1-3.59277-3.59766,2.56724,2.56724,0,0,0-.8916-1.353A1.00025,1.00025,0,0,1,9.248,7.166a4.59222,4.59222,0,0,1,1.60547,2.418A3.10833,3.10833,0,0,0,13.04,11.77441a4.63058,4.63058,0,0,1,3.24609,3.2461,3.0948,3.0948,0,0,0,.80078,1.38281,3.14949,3.14949,0,0,0,1.39258.814,4.47063,4.47063,0,0,1,3.23145,3.23144.96023.96023,0,0,0,.03515.10889,1.01756,1.01756,0,0,1-.47949,1.32861A1.03108,1.03108,0,0,1,20.82812,21.98535Z"/><ellipse cx="5.264" cy="15.264" class="uim-tertiary" rx="2" ry="2.5" transform="rotate(-45 5.264 15.264)"/><path class="uim-tertiary" d="M10.61914,22a.99934.99934,0,0,1-.43555-.1001,4.287,4.287,0,0,1-1.20312-.876,4.50369,4.50369,0,0,1-1.17578-2.02149,2.02426,2.02426,0,0,0-1.02735-1.30615.99969.99969,0,1,1,.88477-1.793,4.01953,4.01953,0,0,1,2.07324,2.57617,2.55179,2.55179,0,0,0,.67188,1.14356,2.30926,2.30926,0,0,0,.64941.47705A1.00019,1.00019,0,0,1,10.61914,22Z"/><ellipse cx="15.264" cy="5.264" class="uim-tertiary" rx="2" ry="2.5" transform="rotate(-45 15.264 5.264)"/><path class="uim-tertiary" d="M21,12.16064a.99852.99852,0,0,1-.31641-.05175,4.228,4.228,0,0,1-1.70019-1.08106,4.516,4.516,0,0,1-1.17871-2.02539,2.02426,2.02426,0,0,0-1.02735-1.30615.99969.99969,0,1,1,.88477-1.793,4.01953,4.01953,0,0,1,2.07324,2.57617A2.55179,2.55179,0,0,0,20.40723,9.623a2.26275,2.26275,0,0,0,.90918.58838A1.00042,1.00042,0,0,1,21,12.16064Z"/></svg>