<svg xmlns="http://www.w3.org/2000/svg" data-name="Layer 1" viewBox="0 0 24 24"><circle cx="12" cy="12" r="10" class="uim-tertiary"/><path class="uim-primary" d="M8.37109 12.5a1 1 0 0 1-.707-1.707L8.457 10l-.793-.793A.99989.99989 0 0 1 9.07812 7.793l1.5 1.5a.99962.99962 0 0 1 0 1.41406l-1.5 1.5A.99676.99676 0 0 1 8.37109 12.5zM15.87109 12.5a.99678.99678 0 0 1-.707-.293l-1.5-1.5a.99964.99964 0 0 1 0-1.41406l1.5-1.5A.99989.99989 0 0 1 16.57812 9.207l-.793.793.793.793a1 1 0 0 1-.707 1.707zM15 16H9a1 1 0 0 1 0-2h6a1 1 0 0 1 0 2z"/></svg>