<svg xmlns="http://www.w3.org/2000/svg" viewBox="0 0 24 24"><path class="uim-primary" d="M17.5625,21.55957a1.00277,1.00277,0,0,1-.46533-.11475L12,18.76514,6.90283,21.44482a1.00019,1.00019,0,0,1-1.45117-1.0542l.97363-5.67578-4.12353-4.019a1.00033,1.00033,0,0,1,.5542-1.706l5.69873-.82813L11.103,2.99805a1.04173,1.04173,0,0,1,1.79394,0l2.54834,5.16357,5.69873.82813a1.00033,1.00033,0,0,1,.5542,1.706l-4.12353,4.019.97363,5.67578a1,1,0,0,1-.98584,1.169Z"/><path class="uim-tertiary" d="M21.95117,9.67041a1.00048,1.00048,0,0,0-.80713-.68066l-5.69873-.82813L12.897,2.99805a.97815.97815,0,0,0-.897-.512V18.76514l5.09717,2.67968a1.00019,1.00019,0,0,0,1.45117-1.0542l-.97363-5.67578,4.12353-4.019A1.00062,1.00062,0,0,0,21.95117,9.67041Z"/></svg>