<svg xmlns="http://www.w3.org/2000/svg" viewBox="0 0 24 24"><path class="uim-primary" d="M16.93994 9.54a1 1 0 0 1-.707-1.707L17.793 6.27344A.99989.99989 0 0 1 19.207 7.6875L17.647 9.24707A.99676.99676 0 0 1 16.93994 9.54zM7.0498 9.5498a.99679.99679 0 0 1-.707-.293L4.773 7.6875A.99989.99989 0 0 1 6.187 6.27344L7.75684 7.84277a1 1 0 0 1-.707 1.707z"/><circle cx="12" cy="13.5" r="8" class="uim-tertiary"/><path class="uim-primary" d="M14,4.5H10a1,1,0,0,1,0-2h4a1,1,0,0,1,0,2Z"/><path class="uim-quaternary" d="M12,14.5a.99974.99974,0,0,1-1-1v-3a1,1,0,0,1,2,0v3A.99974.99974,0,0,1,12,14.5Z"/><circle cx="12" cy="13.5" r="1.5" class="uim-primary"/></svg>