<svg xmlns="http://www.w3.org/2000/svg" viewBox="0 0 24 24"><path class="uim-primary" d="M7.0498,9.5498a.99679.99679,0,0,1-.707-.293L4.773,7.6875A.99989.99989,0,0,1,6.187,6.27344L7.75684,7.84277a1,1,0,0,1-.707,1.707Z"/><path class="uim-primary" d="M7.0498 9.5498a.99679.99679 0 0 1-.707-.293L4.773 7.6875A.99989.99989 0 0 1 6.187 6.27344L7.75684 7.84277a1 1 0 0 1-.707 1.707zM16.93994 9.54a1 1 0 0 1-.707-1.707L17.793 6.27344A.99989.99989 0 0 1 19.207 7.6875L17.647 9.24707A.99676.99676 0 0 1 16.93994 9.54z"/><path class="uim-primary" d="M16.93994,9.54a1,1,0,0,1-.707-1.707L17.793,6.27344A.99989.99989,0,0,1,19.207,7.6875L17.647,9.24707A.99676.99676,0,0,1,16.93994,9.54Z"/><circle cx="12" cy="13.5" r="8" class="uim-tertiary"/><path class="uim-quaternary" d="M12,14.5a1,1,0,0,1-.707-1.707l2.12109-2.12109a.99989.99989,0,0,1,1.41406,1.41406L12.707,14.207A.99676.99676,0,0,1,12,14.5Z"/><path class="uim-primary" d="M14,4.5H10a1,1,0,0,1,0-2h4a1,1,0,0,1,0,2Z"/><circle cx="12" cy="13.5" r="1.5" class="uim-primary"/><path class="uim-primary" d="M14 4.5H10a1 1 0 0 1 0-2h4a1 1 0 0 1 0 2zM19 21.5a.99676.99676 0 0 1-.707-.293l-14-14A.99989.99989 0 0 1 5.707 5.793l14 14A1 1 0 0 1 19 21.5z"/></svg>