<svg xmlns="http://www.w3.org/2000/svg" viewBox="0 0 24 24"><path class="uim-quaternary" d="M20,22a.99943.99943,0,0,0,1-1V6.81567H3V21a.99943.99943,0,0,0,1,1Z"/><path class="uim-primary" d="M16,22H8V16.17736a4.1207,4.1207,0,0,1,3.60125-4.15792A4.004,4.004,0,0,1,16,16Z"/><path class="uim-tertiary" d="M22,2H2A.99943.99943,0,0,0,1,3V7A2.98694,2.98694,0,0,0,6,9.21973a2.95335,2.95335,0,0,0,4,0,2.95335,2.95335,0,0,0,4,0,2.95335,2.95335,0,0,0,4,0A2.98694,2.98694,0,0,0,23,7V3A.99943.99943,0,0,0,22,2Z"/></svg>