<svg xmlns="http://www.w3.org/2000/svg" viewBox="0 0 24 24"><path class="uim-quaternary" d="M19,22H5a.99974.99974,0,0,1-1-1V9A.99974.99974,0,0,1,5,8H19a.99974.99974,0,0,1,1,1V21A.99974.99974,0,0,1,19,22Z"/><path class="uim-primary" d="M15,22H9V15a1,1,0,0,1,1-1h4a1,1,0,0,1,1,1Z"/><path class="uim-tertiary" d="M18,12a3.99047,3.99047,0,0,1-3-1.35742,3.99382,3.99382,0,0,1-6,0A3.99808,3.99808,0,0,1,2,8a1.00685,1.00685,0,0,1,.07129-.37109l2-5A1.00094,1.00094,0,0,1,5,2H19a1.00094,1.00094,0,0,1,.92871.62891l2,5A1.00685,1.00685,0,0,1,22,8,4.00427,4.00427,0,0,1,18,12Z"/></svg>