<svg xmlns="http://www.w3.org/2000/svg" data-name="Layer 1" viewBox="0 0 24 24"><path class="uim-tertiary" d="M3,12a9.00612,9.00612,0,0,0,.23071,2H7a2.996,2.996,0,0,1,3,3v3.76929a8.78425,8.78425,0,0,0,4,0V17a2.996,2.996,0,0,1,3-3h3.76929a8.78425,8.78425,0,0,0,0-4H3.23071A9.00612,9.00612,0,0,0,3,12Z"/><circle cx="12" cy="12" r="9" fill="none" stroke="#b2b1ff" stroke-linecap="round" stroke-linejoin="round" stroke-width="2"/><circle cx="12" cy="13" r="1" class="uim-primary"/><path class="uim-quaternary" d="M7 15a.99943.99943 0 0 1-1-1V10a1 1 0 0 1 2 0v4A.99943.99943 0 0 1 7 15zM17 15a.99943.99943 0 0 1-1-1V10a1 1 0 0 1 2 0v4A.99943.99943 0 0 1 17 15zM14 18H10a1 1 0 0 1 0-2h4a1 1 0 0 1 0 2z"/><circle cx="12" cy="12" r="9" fill="none" stroke="#b2b1ff" stroke-linecap="round" stroke-linejoin="round" stroke-width="2"/></svg>