<svg xmlns="http://www.w3.org/2000/svg" data-name="Layer 1" viewBox="0 0 24 24"><path class="uim-tertiary" d="M3.90137,20.06006a1,1,0,0,1-.44825-1.89453l15.10937-7.56006a1.00012,1.00012,0,1,1,.89454,1.78906L4.34766,19.95459A.99456.99456,0,0,1,3.90137,20.06006Z"/><path class="uim-tertiary" d="M19.89941,20.06006a.99456.99456,0,0,1-.44629-.10547L4.34277,12.39453a1.00011,1.00011,0,0,1,.89453-1.78906l15.11036,7.56006a1,1,0,0,1-.44825,1.89453Z"/><path class="uim-quaternary" d="M21,12.5H3a.99974.99974,0,0,1-1-1v-4a.99974.99974,0,0,1,1-1H21a.99974.99974,0,0,1,1,1v4A.99974.99974,0,0,1,21,12.5Z"/><path class="uim-tertiary" d="M21,4.5H18a1,1,0,0,1,0-2h3a1,1,0,0,1,0,2Z"/><circle cx="4.5" cy="19" r="2.5" class="uim-primary"/><circle cx="19.5" cy="19" r="2.5" class="uim-primary"/></svg>