<svg xmlns="http://www.w3.org/2000/svg" viewBox="0 0 24 24"><path class="uim-primary" d="M4 22a1 1 0 0 1-.707-1.707l2-2A.99989.99989 0 0 1 6.707 19.707l-2 2A.99676.99676 0 0 1 4 22zM20 22a.99676.99676 0 0 1-.707-.293l-2-2A.99989.99989 0 0 1 18.707 18.293l2 2A1 1 0 0 1 20 22z"/><path class="uim-tertiary" d="M18,20H6a3.00328,3.00328,0,0,1-3-3V5A3.00328,3.00328,0,0,1,6,2H18a3.00328,3.00328,0,0,1,3,3V17A3.00328,3.00328,0,0,1,18,20Z"/><path class="uim-tertiary" d="M20,14H4a.99974.99974,0,0,1-1-1V5A3.00328,3.00328,0,0,1,6,2H18a3.00328,3.00328,0,0,1,3,3v8A.99974.99974,0,0,1,20,14Z"/><path class="uim-primary" d="M8 17a.96246.96246 0 0 1-.71-.2998A.99253.99253 0 0 1 7 16a1.325 1.325 0 0 1 .02-.2002.63174.63174 0 0 1 .05957-.17968.762.762 0 0 1 .09033-.18067L7.29 15.29a1.1515 1.1515 0 0 1 .32959-.21.99537.99537 0 0 1 .76025 0 1.15384 1.15384 0 0 1 .33008.21c.04.0498.08008.09961.11963.14941a.762.762 0 0 1 .09033.18067A.64867.64867 0 0 1 8.98 15.7998 1.39 1.39 0 0 1 9 16a1.00694 1.00694 0 0 1-1 1zM16 17a.96246.96246 0 0 1-.71-.2998A.95131.95131 0 0 1 15 16a1.325 1.325 0 0 1 .02-.2002.63174.63174 0 0 1 .05957-.17968.762.762 0 0 1 .09033-.18067L15.29 15.29a1.1515 1.1515 0 0 1 .32959-.21.99537.99537 0 0 1 .76025 0 1.15384 1.15384 0 0 1 .33008.21c.04.0498.08008.09961.11963.14941a.762.762 0 0 1 .09033.18067.64867.64867 0 0 1 .06006.17968A1.39 1.39 0 0 1 17 16a1.00694 1.00694 0 0 1-1 1z"/><rect width="18" height="7" x="3" y="7" class="uim-quaternary"/><path class="uim-tertiary" d="M12,15a.99974.99974,0,0,1-1-1V7a1,1,0,0,1,2,0v7A.99974.99974,0,0,1,12,15Z"/></svg>