<svg xmlns="http://www.w3.org/2000/svg" viewBox="0 0 24 24"><path class="uim-primary" d="M4 22a1 1 0 0 1-.707-1.707l2-2A.99989.99989 0 0 1 6.707 19.707l-2 2A.99676.99676 0 0 1 4 22zM20 22a.99676.99676 0 0 1-.707-.293l-2-2A.99989.99989 0 0 1 18.707 18.293l2 2A1 1 0 0 1 20 22zM12 8a.99943.99943 0 0 1-1-1V3a1 1 0 0 1 2 0V7A.99943.99943 0 0 1 12 8z"/><path class="uim-quaternary" d="M18,20H6a3.00328,3.00328,0,0,1-3-3V9A3.00328,3.00328,0,0,1,6,6H18a3.00328,3.00328,0,0,1,3,3v8A3.00328,3.00328,0,0,1,18,20Z"/><path class="uim-tertiary" d="M12 13V6H6A3.00328 3.00328 0 0 0 3 9v4zM12 13V6h6a3.00328 3.00328 0 0 1 3 3v4z"/><path class="uim-primary" d="M9 17H8a1 1 0 0 1 0-2H9a1 1 0 0 1 0 2zM16 17H15a1 1 0 0 1 0-2h1a1 1 0 0 1 0 2zM17 4H7A1 1 0 0 1 7 2H17a1 1 0 0 1 0 2z"/><rect width="18" height="2" x="3" y="12" class="uim-primary"/><rect width="2" height="7" x="11" y="6" class="uim-primary"/></svg>