<svg xmlns="http://www.w3.org/2000/svg" viewBox="0 0 24 24"><path class="uim-quaternary" d="M19,21.5H5a3.00328,3.00328,0,0,1-3-3v-9a3.00328,3.00328,0,0,1,3-3H19a3.00328,3.00328,0,0,1,3,3v9A3.00328,3.00328,0,0,1,19,21.5Z"/><path class="uim-primary" d="M15 8.5H9a.99974.99974 0 0 1-1-1v-2a3.00328 3.00328 0 0 1 3-3h2a3.00328 3.00328 0 0 1 3 3v2A.99974.99974 0 0 1 15 8.5zm-5-2h4v-1a1.001 1.001 0 0 0-1-1H11a1.001 1.001 0 0 0-1 1zM16 15.5a.99974.99974 0 0 1-1-1v-2a1 1 0 0 1 2 0v2A.99974.99974 0 0 1 16 15.5zM8 15.5a.99974.99974 0 0 1-1-1v-2a1 1 0 0 1 2 0v2A.99974.99974 0 0 1 8 15.5z"/><path class="uim-tertiary" d="M21,13.45215h0l-18-.001a.99973.99973,0,0,1-1-1V9.5a3.00328,3.00328,0,0,1,3-3H19a3.00328,3.00328,0,0,1,3,3v2.95215a1.00026,1.00026,0,0,1-1,1Z"/></svg>