<svg xmlns="http://www.w3.org/2000/svg" data-name="Layer 1" viewBox="0 0 24 24"><path class="uim-primary" d="M15,8H9A.99943.99943,0,0,1,8,7V5a2.0026,2.0026,0,0,1,2-2h4a2.0026,2.0026,0,0,1,2,2V7A.99943.99943,0,0,1,15,8ZM10,6h4V5H10Z"/><path class="uim-quaternary" d="M19,21H5a3.00328,3.00328,0,0,1-3-3V9A3.00328,3.00328,0,0,1,5,6H19a3.00328,3.00328,0,0,1,3,3v9A3.00328,3.00328,0,0,1,19,21Z"/><path class="uim-tertiary" d="M22,13H2V9A3,3,0,0,1,5,6H19a3,3,0,0,1,3,3Z"/><path class="uim-primary" d="M9 15a.99943.99943 0 0 1-1-1V12a1 1 0 0 1 2 0v2A.99943.99943 0 0 1 9 15zM15 15a.99943.99943 0 0 1-1-1V12a1 1 0 0 1 2 0v2A.99943.99943 0 0 1 15 15z"/></svg>