<svg xmlns="http://www.w3.org/2000/svg" viewBox="0 0 24 24"><path class="uim-primary" d="M16.65723,12H19a3.00328,3.00328,0,0,1,3,3v4a3.00328,3.00328,0,0,1-3,3H7a.99943.99943,0,0,1-1-1C6,20.44727,16.10449,12,16.65723,12Z"/><path class="uim-tertiary" d="M11,19.65723a1,1,0,0,1-1-1V7.34277a.99928.99928,0,0,1,.293-.707L13.22168,3.707a3.00363,3.00363,0,0,1,4.24316,0L20.293,6.53516a3.00363,3.00363,0,0,1,0,4.24316L11.707,19.36426A.9998.9998,0,0,1,11,19.65723Z"/><path class="uim-quaternary" d="M9,22H5a3.00328,3.00328,0,0,1-3-3V5A3.00328,3.00328,0,0,1,5,2H9a3.00328,3.00328,0,0,1,3,3V19A3.00328,3.00328,0,0,1,9,22Z"/><circle cx="7" cy="17" r="1" class="uim-primary"/></svg>