<svg xmlns="http://www.w3.org/2000/svg" viewBox="0 0 24 24"><path class="uim-tertiary" d="M8.625 8.5h-4.5a1 1 0 0 1-1-1V3a1 1 0 0 1 2 0V6.5h3.5a1 1 0 0 1 0 2zM19.875 22a1 1 0 0 1-1-1V17.5h-3.5a1 1 0 0 1 0-2h4.5a1 1 0 0 1 1 1V21A1 1 0 0 1 19.875 22zM19.36676 8.88171A7.95505 7.95505 0 0 1 20 12a1 1 0 0 0 2 0 9.93 9.93 0 0 0-1.13708-4.61444z"/><path class="uim-tertiary" d="M20.28711,15.63477a.9995.9995,0,0,0-1.36621.36425A7.98846,7.98846,0,0,1,8.88171,19.36676L7.38556,20.86292A9.93,9.93,0,0,0,12,22a10.03332,10.03332,0,0,0,8.65137-4.999A.99962.99962,0,0,0,20.28711,15.63477Z"/><path class="uim-primary" d="M3,22a1,1,0,0,1-.707-1.707l18-18A.99989.99989,0,1,1,21.707,3.707l-18,18A.99676.99676,0,0,1,3,22Z"/><path class="uim-tertiary" d="M5.69373 16.89221A7.92653 7.92653 0 0 1 4 12a1 1 0 0 0-2 0 9.93883 9.93883 0 0 0 2.26685 6.31909zM3.71289 8.36523A.99993.99993 0 0 0 5.0791 8.001 8.0284 8.0284 0 0 1 12 4a7.92653 7.92653 0 0 1 4.89221 1.69373l1.42688-1.42688A9.96852 9.96852 0 0 0 3.34863 6.999.99962.99962 0 0 0 3.71289 8.36523z"/></svg>