<svg xmlns="http://www.w3.org/2000/svg" data-name="Layer 1" viewBox="0 0 24 24"><path class="uim-tertiary" d="M13.18986,5.14988l-5.63,5.62994,5.675,5.64178,5.63-5.63Z"/><path class="uim-quaternary" d="M20.293,6.53564,17.46484,3.707a.99964.99964,0,0,0-1.41406,0L14.63605,5.1214l-.70734-.70734a.99964.99964,0,0,0-1.41406,0L4.0293,12.89941a.99964.99964,0,0,0,0,1.41407L9.68652,19.9707a.99964.99964,0,0,0,1.41407,0l8.48535-8.48535a.99964.99964,0,0,0,0-1.41406L18.87866,9.364,20.293,7.94971A.99965.99965,0,0,0,20.293,6.53564Zm-9.89942,11.314L6.15039,13.60645l7.07129-7.07129,4.24316,4.24316Z"/><rect width="3.976" height="8.001" x="6.996" y="11.016" class="uim-quaternary" transform="rotate(-45 8.984 15.016)"/><path class="uim-primary" d="M18.17188,6.82861a1,1,0,0,1-.707-1.707L20.293,2.293A.99989.99989,0,1,1,21.707,3.707L18.87891,6.53564A.99676.99676,0,0,1,18.17188,6.82861Z"/><path class="uim-quaternary" d="M17.46484,10.36377a.99676.99676,0,0,1-.707-.293l-2.8291-2.82812a.99964.99964,0,0,1,0-1.41407L16.05078,3.707a.99964.99964,0,0,1,1.41406,0L20.293,6.53564a.99965.99965,0,0,1,0,1.41407L18.17188,10.0708A.9968.9968,0,0,1,17.46484,10.36377Zm-1.415-3.82813,1.415,1.41407.707-.707L16.75781,5.82812Z"/><path class="uim-tertiary" d="M16.0498,6.53564l1.415,1.41407.707-.707L16.75781,5.82812Z"/><path class="uim-primary" d="M11.0957,12.90234a.99876.99876,0,0,0-1.41406.001l-5.26337,5.2724L3.707,17.46436A.99989.99989,0,0,0,2.293,18.87842L5.12109,21.707A.99989.99989,0,1,0,6.53516,20.293l-.70246-.70258,5.265-5.274A.99965.99965,0,0,0,11.0957,12.90234Z"/><path class="uim-quaternary" d="M11.80762,21.67773a.99675.99675,0,0,1-.707-.293L2.61523,12.89941A.99989.99989,0,0,1,4.0293,11.48535l8.48535,8.48535a1,1,0,0,1-.707,1.707Z"/><path class="uim-quaternary" d="M11.80762,21.67773a.99675.99675,0,0,1-.707-.293L2.61523,12.89941A.99989.99989,0,0,1,4.0293,11.48535l8.48535,8.48535a1,1,0,0,1-.707,1.707Z"/><path class="uim-tertiary" d="M8.98083,16.43689l2.11683-2.12048a1.00024,1.00024,0,0,0-1.416-1.41309l-2.11536,2.119Z"/><rect width="2" height="7.999" x="9.394" y="9.607" class="uim-quaternary" transform="rotate(-44.998 10.394 13.607)"/></svg>