<svg xmlns="http://www.w3.org/2000/svg" data-name="Layer 1" viewBox="0 0 24 24"><circle cx="17" cy="7" r="5" class="uim-quaternary"/><circle cx="8" cy="16" r="6" class="uim-tertiary"/><path class="uim-primary" d="M11.48584,20.50488a.97461.97461,0,0,1-.69287-.28808l-7-7A.99989.99989,0,0,1,5.207,11.80273L12.1875,18.7832a1.0049,1.0049,0,0,1-.70166,1.72168Z"/><path class="uim-tertiary" d="M14.17139,10.82861a1,1,0,0,1-.707-1.707l5.65722-5.65722a.99989.99989,0,0,1,1.41406,1.41406l-5.65722,5.65722A.99672.99672,0,0,1,14.17139,10.82861Z"/></svg>