<svg xmlns="http://www.w3.org/2000/svg" data-name="Layer 1" viewBox="0 0 24 24"><path class="uim-tertiary" d="M16.68786,7.10368l-1.591-1.591a6.75,6.75,0,0,0-9.54593,0h0a6.75,6.75,0,0,0,0,9.54594l1.591,1.591.35355.35356a5.01482,5.01482,0,0,0,5.26088,1.15965l.5374-.24042a1.98468,1.98468,0,0,1,1.9799.495l1.32229,1.32229a2.34407,2.34407,0,0,0,3.1042.24749,2.25578,2.25578,0,0,0,.1697-3.33755l-1.41421-1.41421a1.98468,1.98468,0,0,1-.495-1.9799l.24042-.5374a5.01482,5.01482,0,0,0-1.15965-5.26088Z"/><path class="uim-primary" d="M19.70013,19.98706a2.25564,2.25564,0,0,0,.16974-3.3374l-1.41424-1.41431a1.98465,1.98465,0,0,1-.495-1.97986l.24042-.53747a5.03891,5.03891,0,0,0-.26428-4.03491L8.72144,17.89844a5.03915,5.03915,0,0,0,4.03491.2644l.53741-.24048a1.98439,1.98439,0,0,1,1.97986.495l1.32233,1.32239A2.3441,2.3441,0,0,0,19.70013,19.98706Z"/><circle cx="5.473" cy="15.491" r="2" class="uim-quaternary" stroke="#d8d8ff" stroke-miterlimit="10" stroke-width="2"/></svg>