<svg xmlns="http://www.w3.org/2000/svg" data-name="Layer 1" viewBox="0 0 24 24"><path class="uim-primary" d="M2.5 21a.99974.99974 0 0 1-1-1V18a.99974.99974 0 0 1 1-1h8a1 1 0 0 1 0 2h-7v1A.99974.99974 0 0 1 2.5 21zM7.5 15h-2a1 1 0 0 1 0-2h2a1 1 0 0 1 0 2z"/><path class="uim-tertiary" d="M15.5,19h-8a.99974.99974,0,0,1-1-1V10a7.00818,7.00818,0,0,1,7-7h2a7.00818,7.00818,0,0,1,7,7v2A7.00818,7.00818,0,0,1,15.5,19Z"/><circle cx="14.5" cy="11" r="3" class="uim-quaternary"/><path class="uim-quaternary" d="M14.5,15a4,4,0,1,1,4-4A4.00427,4.00427,0,0,1,14.5,15Zm0-6a2,2,0,1,0,2,2A2.00229,2.00229,0,0,0,14.5,9Z"/></svg>