<svg xmlns="http://www.w3.org/2000/svg" viewBox="0 0 24 24"><path class="uim-primary" d="M15.5,6.5h-7a1.00015,1.00015,0,0,1-.94873-1.31641l1-3A1,1,0,0,1,9.5,1.5h5a1,1,0,0,1,.94873.68359l1,3A1.00015,1.00015,0,0,1,15.5,6.5Z"/><path class="uim-quaternary" d="M19,12.5H5a.99974.99974,0,0,1-1-1v-4a3.00328,3.00328,0,0,1,3-3H17a3.00328,3.00328,0,0,1,3,3v4A.99974.99974,0,0,1,19,12.5Z"/><path class="uim-primary" d="M5 22.5a.99974.99974 0 0 1-1-1v-2a1 1 0 0 1 2 0v2A.99974.99974 0 0 1 5 22.5zM19 22.5a.99974.99974 0 0 1-1-1v-2a1 1 0 0 1 2 0v2A.99974.99974 0 0 1 19 22.5z"/><path class="uim-tertiary" d="M21,20.5H3a.99974.99974,0,0,1-1-1v-6a3.00328,3.00328,0,0,1,3-3H19a3.00328,3.00328,0,0,1,3,3v6A.99974.99974,0,0,1,21,20.5Z"/><path class="uim-primary" d="M13 16.5H11a1 1 0 0 1 0-2h2a1 1 0 0 1 0 2zM7 16.5a.99042.99042 0 0 1-1-1 1.05 1.05 0 0 1 .29-.71 1.02673 1.02673 0 0 1 .32959-.21A1.002 1.002 0 0 1 7.71 14.79 1.05232 1.05232 0 0 1 8 15.5a.99147.99147 0 0 1-.29.71 1.18822 1.18822 0 0 1-.33008.21973A.98989.98989 0 0 1 7 16.5zM17 16.5a.99067.99067 0 0 1-.38037-.07031A1.18589 1.18589 0 0 1 16.29 16.21.98946.98946 0 0 1 16 15.5a1.05 1.05 0 0 1 .29-.71 1.55316 1.55316 0 0 1 .1499-.12012.74467.74467 0 0 1 .17969-.08984.62276.62276 0 0 1 .18017-.06055.95554.95554 0 0 1 .58008.06055.93705.93705 0 0 1 .33008.21 1.05232 1.05232 0 0 1 .29.71.83792.83792 0 0 1-.08008.37988 1.17124 1.17124 0 0 1-.21.33008A.99183.99183 0 0 1 17 16.5z"/></svg>