<svg xmlns="http://www.w3.org/2000/svg" data-name="Layer 1" viewBox="0 0 24 24"><path class="uim-tertiary" d="M12.01465,22.5a.99973.99973,0,0,1-1-1v-7a1,1,0,0,1,2,0v7A.99974.99974,0,0,1,12.01465,22.5Z"/><path class="uim-tertiary" d="M19.01465 20.5a.99676.99676 0 0 1-.707-.293l-5.58985-5.58984a.9999.9999 0 1 1 1.41407-1.41407L19.72168 18.793a1 1 0 0 1-.707 1.707zM5.01465 20.5a1 1 0 0 1-.707-1.707l5.59082-5.58985a.99989.99989 0 1 1 1.41406 1.41407L5.72168 20.207A.99676.99676 0 0 1 5.01465 20.5z"/><path class="uim-quaternary" d="M14.01853,9.77V13.5a2,2,0,0,1-4,0V10.85Z"/><path class="uim-primary" d="M2.99414,11.58057a1.0002,1.0002,0,0,1-.25391-1.96729l1.96973-.52a.99983.99983,0,1,1,.50977,1.9336l-1.96973.52A1.001,1.001,0,0,1,2.99414,11.58057Z"/><path class="uim-tertiary" d="M5.48145,12.98779a.99915.99915,0,0,1-.96583-.74121L3.48047,8.38281a1.00026,1.00026,0,0,1,.707-1.22461L15.77832,4.05225a.99924.99924,0,0,1,1.22461.707L18.03809,8.623a1.00027,1.00027,0,0,1-.707,1.22461l-11.59082,3.106A.99144.99144,0,0,1,5.48145,12.98779Z"/><path class="uim-primary" d="M17.58887,11.814a.99976.99976,0,0,1-.96485-.74169L14.55371,3.34521a1.00025,1.00025,0,0,1,.707-1.2246L17.19238,1.603a3.007,3.007,0,0,1,3.67481,2.1206l1.03515,3.86426a2.99975,2.99975,0,0,1-2.12109,3.67383h0l-1.93262.51758A.99543.99543,0,0,1,17.58887,11.814Zm1.93359-1.51806h0Z"/></svg>