<svg xmlns="http://www.w3.org/2000/svg" viewBox="0 0 24 24"><rect width="4" height="4" x="4" y="4" class="uim-quaternary"/><rect width="4" height="4" x="10" y="4" class="uim-quaternary"/><rect width="4" height="4" x="16" y="4" class="uim-quaternary"/><rect width="4" height="4" x="10" y="10" class="uim-quaternary"/><rect width="4" height="4" x="16" y="10" class="uim-quaternary"/><rect width="4" height="4" x="10" y="16" class="uim-quaternary"/><rect width="4" height="4" x="16" y="16" class="uim-quaternary"/><path class="uim-tertiary" d="M21,2H3A.99974.99974,0,0,0,2,3V21a.99974.99974,0,0,0,1,1H21a.99974.99974,0,0,0,1-1V3A.99974.99974,0,0,0,21,2ZM10,14V10h4v4Zm4,2v4H10V16ZM4,10H8v4H4Zm6-2V4h4V8Zm6,2h4v4H16Zm4-2H16V4h4ZM8,4V8H4V4ZM4,16H8v4H4Zm12,4V16h4v4Z"/><path class="uim-primary" d="M22,23a.99676.99676,0,0,1-.707-.293l-20-20A.99989.99989,0,0,1,2.707,1.293l20,20A1,1,0,0,1,22,23Z"/><rect width="4" height="4" x="4" y="16" class="uim-quaternary"/><rect width="4" height="4" x="4" y="10" class="uim-quaternary"/></svg>