<svg xmlns="http://www.w3.org/2000/svg" data-name="Layer 1" viewBox="0 0 24 24"><path class="uim-tertiary" d="M20.09992,21.00043h-16.2a.89948.89948,0,0,1-.9-.9v-16.2a.89948.89948,0,0,1,.9-.9h16.2a.89948.89948,0,0,1,.9.9v16.2A.89948.89948,0,0,1,20.09992,21.00043Z"/><path class="uim-primary" d="M20.93555,22h-18a.99942.99942,0,0,1-1-1V3a.99942.99942,0,0,1,1-1h18a.99943.99943,0,0,1,1,1V21A.99943.99943,0,0,1,20.93555,22Zm-17-2h16V4h-16Z"/><rect width="2" height="18" x="10.936" y="3" class="uim-primary"/><rect width="18" height="2" x="2.936" y="11" class="uim-primary"/></svg>