<svg xmlns="http://www.w3.org/2000/svg" data-name="Layer 1" viewBox="0 0 24 24"><path class="uim-quaternary" d="M19.82843,9.82843a4,4,0,0,0-5.65686-5.65686L12.341,6.00215,6.00215,12.39123v5.60662h5.60662L17.99785,11.659Z"/><path class="uim-tertiary" d="M3,22a1,1,0,0,1-.707-1.707l3-3A.99989.99989,0,0,1,6.707,18.707l-3,3A.99676.99676,0,0,1,3,22Z"/><path class="uim-primary" d="M10,15a1,1,0,0,1-.707-1.707l7-7A.99989.99989,0,0,1,17.707,7.707l-7,7A.99676.99676,0,0,1,10,15Z"/><path class="uim-tertiary" d="M11.60889,18.99805H6.002a1.00006,1.00006,0,0,1-1-1V12.39111a1.00048,1.00048,0,0,1,.29-.7041l8.17237-8.22265a5.00015,5.00015,0,0,1,7.07128,7.07128h0L12.313,18.708A1.00048,1.00048,0,0,1,11.60889,18.99805Zm-4.60694-2h4.19483l7.9248-7.87647a3.00037,3.00037,0,0,0-4.24316-4.24316L7.002,12.80322ZM19.82861,9.82861h0Z"/></svg>