<svg xmlns="http://www.w3.org/2000/svg" viewBox="0 0 24 24"><path class="uim-primary" d="M17.10986,12.38965a4.40421,4.40421,0,0,1-.92138-.0918,1.00273,1.00273,0,0,1-.47461-.25l-3.17969-3a.99639.99639,0,0,1-.2876-.5,5.08781,5.08781,0,0,1-.13672-1.1582,4.97646,4.97646,0,0,1,3.88575-4.86426,1,1,0,0,1,1.19628,1.21,2.73451,2.73451,0,0,0-.082.6543,3.00328,3.00328,0,0,0,3,3,2.77712,2.77712,0,0,0,.65772-.082,1.00031,1.00031,0,0,1,1.207,1.19726A4.97664,4.97664,0,0,1,17.10986,12.38965Z"/><path class="uim-tertiary" d="M14.6665,18.5H5.5a3.50038,3.50038,0,0,1-.93652-6.873,5.99782,5.99782,0,0,1,11.40625-1.585A4.32866,4.32866,0,0,1,14.6665,18.5Z"/><path class="uim-primary" d="M9.8501,21.5A.99991.99991,0,0,1,8.98486,20l.86621-1.5H8.5835A1,1,0,0,1,7.71729,17l1.73193-3a1.00016,1.00016,0,0,1,1.73242,1l-.86621,1.5H11.5835a1,1,0,0,1,.86621,1.5l-1.73242,3A.99908.99908,0,0,1,9.8501,21.5Z"/></svg>