<svg xmlns="http://www.w3.org/2000/svg" viewBox="0 0 24 24"><path class="uim-tertiary" d="M16 6.167a.99973.99973 0 0 1-1-1V3.5a1 1 0 0 1 2 0V5.167A.99973.99973 0 0 1 16 6.167zM21 9.5H19.3335a1 1 0 0 1 0-2H21a1 1 0 0 1 0 2zM18.3584 7.1416a1 1 0 0 1-.707-1.707l1.1748-1.1748a.99989.99989 0 1 1 1.41406 1.41406l-1.1748 1.1748A.99672.99672 0 0 1 18.3584 7.1416zM13.6416 7.1416a.99672.99672 0 0 1-.707-.293l-1.1748-1.1748a.99989.99989 0 1 1 1.41406-1.41406l1.1748 1.1748a1 1 0 0 1-.707 1.707zM19.5332 13.0332a.99672.99672 0 0 1-.707-.293l-1.1748-1.1748a.99989.99989 0 0 1 1.41406-1.41406l1.1748 1.1748a1 1 0 0 1-.707 1.707z"/><path class="uim-primary" d="M15.95508,12.91992a4.375,4.375,0,1,1,4.375-4.375A4.38,4.38,0,0,1,15.95508,12.91992Z"/><path class="uim-tertiary" d="M14.6665,18.5H5.5a3.50038,3.50038,0,0,1-.93652-6.873,5.99782,5.99782,0,0,1,11.40625-1.585A4.32866,4.32866,0,0,1,14.6665,18.5Z"/><path class="uim-primary" d="M9.8501,21.5A.99991.99991,0,0,1,8.98486,20l.86621-1.5H8.5835A1,1,0,0,1,7.71729,17l1.73193-3a1.00016,1.00016,0,0,1,1.73242,1l-.86621,1.5H11.5835a1,1,0,0,1,.86621,1.5l-1.73242,3A.99908.99908,0,0,1,9.8501,21.5Z"/></svg>