<svg xmlns="http://www.w3.org/2000/svg" viewBox="0 0 24 24"><path class="uim-quaternary" d="M21,19.0001H3a.99942.99942,0,0,1-1-1v-4a.99943.99943,0,0,1,1-1,1,1,0,0,0,0-2,.99942.99942,0,0,1-1-1v-4a.99943.99943,0,0,1,1-1H21a.99943.99943,0,0,1,1,1v4a.99942.99942,0,0,1-1,1,1,1,0,0,0,0,2,.99943.99943,0,0,1,1,1v4A.99942.99942,0,0,1,21,19.0001Z"/><path class="uim-tertiary" d="M9,5.0001H3a1,1,0,0,0-1,1v4a.992.992,0,0,0,.989,1,1.00006,1.00006,0,1,1,0,2,.992.992,0,0,0-.989,1v4a1,1,0,0,0,1,1H9Z"/><path class="uim-primary" d="M9 19.0001a.99942.99942 0 0 1-1-1v-1a1 1 0 0 1 2 0v1A.99942.99942 0 0 1 9 19.0001zM9 8.0001a.99942.99942 0 0 1-1-1v-1a1 1 0 0 1 2 0v1A.99942.99942 0 0 1 9 8.0001zM9 14.0001a.99942.99942 0 0 1-1-1v-2a1 1 0 0 1 2 0v2A.99942.99942 0 0 1 9 14.0001z"/></svg>