<svg xmlns="http://www.w3.org/2000/svg" data-name="Layer 1" viewBox="0 0 24 24"><path class="uim-primary" d="M5 21a1 1 0 0 1-1-1V12a1 1 0 0 1 2 0v8A1 1 0 0 1 5 21zM19 21a1 1 0 0 1-1-1V12a1 1 0 0 1 2 0v8A1 1 0 0 1 19 21zM5 7A1 1 0 0 1 4 6V4A1 1 0 0 1 6 4V6A1 1 0 0 1 5 7zM19 7a1 1 0 0 1-1-1V4a1 1 0 0 1 2 0V6A1 1 0 0 1 19 7z"/><path class="uim-tertiary" d="M21,13H3a1,1,0,0,1-1-1V6A1,1,0,0,1,3,5H21a1,1,0,0,1,1,1v6A1,1,0,0,1,21,13Z"/><path class="uim-tertiary" d="M21,5H3A1.003,1.003,0,0,0,2,6v6a1.003,1.003,0,0,0,1,1H21a1.003,1.003,0,0,0,1-1V6A1.003,1.003,0,0,0,21,5Z"/><path class="uim-primary" d="M13.08 5l-8 8H3a1.003 1.003 0 0 1-1-1V9.92L6.92 5zM22 6V8.08L17.08 13H10.92l8-8H21A1.003 1.003 0 0 1 22 6z"/></svg>