<svg xmlns="http://www.w3.org/2000/svg" viewBox="0 0 24 24"><path class="uim-primary" d="M7,21.5a6.0007,6.0007,0,0,1-6-6,.99974.99974,0,0,1,1-1H7a.99974.99974,0,0,1,1,1v5A.99974.99974,0,0,1,7,21.5Z"/><path class="uim-quaternary" d="M7,15.5a6.0007,6.0007,0,0,1-6-6,.99974.99974,0,0,1,1-1H7a.99974.99974,0,0,1,1,1v5A.99974.99974,0,0,1,7,15.5Z"/><path class="uim-primary" d="M7 9.5a6.0007 6.0007 0 0 1-6-6 .99974.99974 0 0 1 1-1H7a.99974.99974 0 0 1 1 1v5A.99974.99974 0 0 1 7 9.5zM16 20.5v-5a.99974.99974 0 0 1 1-1h5a.99974.99974 0 0 1 1 1 6.0007 6.0007 0 0 1-6 6A.99974.99974 0 0 1 16 20.5z"/><path class="uim-quaternary" d="M16,14.5v-5a.99974.99974,0,0,1,1-1h5a.99974.99974,0,0,1,1,1,6.0007,6.0007,0,0,1-6,6A.99974.99974,0,0,1,16,14.5Z"/><path class="uim-primary" d="M16,8.5v-5a.99974.99974,0,0,1,1-1h5a.99974.99974,0,0,1,1,1,6.0007,6.0007,0,0,1-6,6A.99974.99974,0,0,1,16,8.5Z"/><path class="uim-tertiary" d="M15,22.5H9a3.00328,3.00328,0,0,1-3-3V4.5a3.00328,3.00328,0,0,1,3-3h6a3.00328,3.00328,0,0,1,3,3v15A3.00328,3.00328,0,0,1,15,22.5Z"/><circle cx="12" cy="7" r="1.5" class="uim-primary"/><circle cx="12" cy="12" r="1.5" class="uim-primary"/><circle cx="12" cy="17" r="1.5" class="uim-primary"/></svg>