<svg xmlns="http://www.w3.org/2000/svg" viewBox="0 0 24 24"><path class="uim-primary" d="M8.5 22a.99943.99943 0 0 1-1-1V13a1 1 0 0 1 2 0v8A.99943.99943 0 0 1 8.5 22zM16.5 22a.99943.99943 0 0 1-1-1V13a1 1 0 0 1 2 0v8A.99943.99943 0 0 1 16.5 22z"/><path class="uim-tertiary" d="M16.5,5a5.00588,5.00588,0,0,0-5,5v4a5.00822,5.00822,0,0,0,4,4.89893V13a1,1,0,0,1,2,0v5.89893A5.00822,5.00822,0,0,0,21.5,14V10A5.00588,5.00588,0,0,0,16.5,5Z"/><path class="uim-quaternary" d="M12.26514,16.6333A4.9524,4.9524,0,0,1,11.5,14V10a4.98345,4.98345,0,0,1,2.51874-4.31445A6.05139,6.05139,0,0,0,12.74316,3.749,6.00628,6.00628,0,0,0,2.5,8v4a6.00438,6.00438,0,0,0,5,5.90967V13a1,1,0,0,1,2,0v4.90527A6.035,6.035,0,0,0,12.26514,16.6333Z"/></svg>