<svg xmlns="http://www.w3.org/2000/svg" data-name="Layer 1" viewBox="0 0 24 24"><path class="uim-tertiary" d="M4.99609,21.99805a3.00216,3.00216,0,0,1-2.83886-3.9502l2.66162-7.98437A3.00034,3.00034,0,0,1,9.78613,8.89062h0l5.32325,5.32325a3.00044,3.00044,0,0,1-1.17286,4.96777L5.95215,21.8418A3.00656,3.00656,0,0,1,4.99609,21.99805Z"/><path class="uim-primary" d="M10.16992,14.83008a1,1,0,0,1-.707-1.707l5-5A.99989.99989,0,1,1,15.877,9.53711l-5,5A.99676.99676,0,0,1,10.16992,14.83008Z"/><path class="uim-quaternary" d="M16.58594,10.41211a2.99009,2.99009,0,0,1-2.12158-.877h0A3.00067,3.00067,0,0,1,14.46387,5.293l2.415-2.41406a3.0731,3.0731,0,0,1,4.24267,0,3.00287,3.00287,0,0,1-.00049,4.24218L18.707,9.53516A2.98983,2.98983,0,0,1,16.58594,10.41211Z"/></svg>