<svg xmlns="http://www.w3.org/2000/svg" viewBox="0 0 24 24"><path class="uim-quaternary" d="M22,18.5H15a.99974.99974,0,0,1-1-1v-9a.99974.99974,0,0,1,1-1h3a3.01539,3.01539,0,0,1,2.39941,1.19922l2.40039,3.20117A.99713.99713,0,0,1,23,12.5v5A.99974.99974,0,0,1,22,18.5Z"/><path class="uim-primary" d="M22.8,11.8999,20.4,8.7A3.01217,3.01217,0,0,0,18,7.5H15a1.00291,1.00291,0,0,0-1,1v4h9A.985.985,0,0,0,22.8,11.8999Z"/><path class="uim-tertiary" d="M15,18.5H2a.99974.99974,0,0,1-1-1V5.5a3.00328,3.00328,0,0,1,3-3h9a3.00328,3.00328,0,0,1,3,3v12A.99974.99974,0,0,1,15,18.5Z"/><path class="uim-primary" d="M6 21.5a3 3 0 1 1 3-3A3.00328 3.00328 0 0 1 6 21.5zM18 21.5a3 3 0 1 1 3-3A3.00328 3.00328 0 0 1 18 21.5z"/></svg>