<svg xmlns="http://www.w3.org/2000/svg" viewBox="0 0 24 24"><path class="uim-primary" d="M11.731,8a1.00055,1.00055,0,0,1-.86719-.5l-1.73-3a1.00016,1.00016,0,0,1,1.73242-1l1.73,3A1.00024,1.00024,0,0,1,11.731,8Z"/><path class="uim-primary" d="M12 8a1 1 0 0 1-.707-1.707l4-4A.99989.99989 0 1 1 16.707 3.707l-4 4A.99676.99676 0 0 1 12 8zM17 22a.99974.99974 0 0 1-1-1V19a1 1 0 0 1 2 0v2A.99974.99974 0 0 1 17 22zM7 22a.99974.99974 0 0 1-1-1V19a1 1 0 0 1 2 0v2A.99974.99974 0 0 1 7 22z"/><path class="uim-tertiary" d="M18,20H6a3.00328,3.00328,0,0,1-3-3V9A3.00328,3.00328,0,0,1,6,6H18a3.00328,3.00328,0,0,1,3,3v8A3.00328,3.00328,0,0,1,18,20Z"/></svg>