<svg xmlns="http://www.w3.org/2000/svg" data-name="Layer 1" viewBox="0 0 24 24"><path class="uim-primary" d="M17 21.99957a.99973.99973 0 0 1-1-1v-2a1 1 0 0 1 2 0v2A.99973.99973 0 0 1 17 21.99957zM7 21.99957a.99973.99973 0 0 1-1-1v-2a1 1 0 0 1 2 0v2A.99973.99973 0 0 1 7 21.99957zM11.731 7.99957a1.00053 1.00053 0 0 1-.86719-.5l-1.73-3a1.00016 1.00016 0 0 1 1.73242-1l1.73 3a1.00024 1.00024 0 0 1-.86523 1.5z"/><path class="uim-primary" d="M12,7.99957a1,1,0,0,1-.707-1.707l4-4A.99989.99989,0,1,1,16.707,3.7066l-4,4A.99672.99672,0,0,1,12,7.99957Z"/><path class="uim-tertiary" d="M18,19.99957H6a3.00328,3.00328,0,0,1-3-3v-8a3.00328,3.00328,0,0,1,3-3H18a3.00328,3.00328,0,0,1,3,3v8A3.00328,3.00328,0,0,1,18,19.99957Z"/><path class="uim-primary" d="M21,22a.99676.99676,0,0,1-.707-.293l-18-18A.99989.99989,0,0,1,3.707,2.293l18,18A1,1,0,0,1,21,22Z"/></svg>