<svg xmlns="http://www.w3.org/2000/svg" data-name="Layer 1" viewBox="0 0 24 24"><rect width="15" height="9" x="4" y="8" class="uim-quaternary"/><polyline class="uim-primary" points="8 8 8 17 4 17 4 8"/><polyline class="uim-primary" points="19 8 19 17 15 17 15 8"/><path class="uim-tertiary" d="M20.65039 9h-18a.99974.99974 0 0 1-1-1V5A.9989.9989 0 0 1 2.334 4.05176l9-3a1.002 1.002 0 0 1 .63282 0l9 3A.9989.9989 0 0 1 21.65039 5V8A.99974.99974 0 0 1 20.65039 9zM20.65039 22h-18a.99974.99974 0 0 1-1-1V19a3.00328 3.00328 0 0 1 3-3h14a3.00328 3.00328 0 0 1 3 3v2A.99974.99974 0 0 1 20.65039 22z"/></svg>