<svg xmlns="http://www.w3.org/2000/svg" viewBox="0 0 24 24"><path class="uim-primary" d="M19,22H5a3.00328,3.00328,0,0,1-3-3V5A3.00328,3.00328,0,0,1,5,2H19a3.00328,3.00328,0,0,1,3,3V19A3.00328,3.00328,0,0,1,19,22Z"/><path class="uim-tertiary" d="M6.9248,17.99414a1.00036,1.00036,0,0,1-.88574-1.10254,5.99754,5.99754,0,0,1,11.92188,0,1.00036,1.00036,0,0,1-.88574,1.10254A1.03894,1.03894,0,0,1,16.96582,18Z"/><path class="uim-quaternary" d="M12,13.55566a3.77783,3.77783,0,1,1,3.77734-3.77832A3.78223,3.78223,0,0,1,12,13.55566Z"/></svg>