<svg xmlns="http://www.w3.org/2000/svg" viewBox="0 0 24 24"><path class="uim-primary" d="M19.75 10.5a.99974.99974 0 0 1-1-1v-2a1 1 0 0 1 2 0v2A.99974.99974 0 0 1 19.75 10.5zM19.75 13.5a.99993.99993 0 0 1-.38037-.08008 1.1515 1.1515 0 0 1-.32959-.21.98946.98946 0 0 1-.29-.71 1 1 0 1 1 2 0 .83792.83792 0 0 1-.08008.37988 1.17124 1.17124 0 0 1-.21.33008 1.15384 1.15384 0 0 1-.33008.21A.9994.9994 0 0 1 19.75 13.5z"/><path class="uim-tertiary" d="M18.25,20.5h-14a.99974.99974,0,0,1-1-1,8,8,0,0,1,16,0A.99974.99974,0,0,1,18.25,20.5Z"/><path class="uim-quaternary" d="M11.25,13.5a5,5,0,1,1,5-5A5.00588,5.00588,0,0,1,11.25,13.5Z"/></svg>