<svg xmlns="http://www.w3.org/2000/svg" viewBox="0 0 24 24"><path class="uim-tertiary" d="M10,11.5a8.00917,8.00917,0,0,0-8,8,.99943.99943,0,0,0,1,1H17a.99943.99943,0,0,0,1-1A8.00917,8.00917,0,0,0,10,11.5Z"/><circle cx="10" cy="8.5" r="5" class="uim-quaternary"/><path class="uim-primary" d="M18,14.5a1,1,0,0,1-.707-1.707l3-3A.99989.99989,0,0,1,21.707,11.207l-3,3A.99676.99676,0,0,1,18,14.5Z"/><path class="uim-primary" d="M21,14.5a.99676.99676,0,0,1-.707-.293l-3-3A.99989.99989,0,0,1,18.707,9.793l3,3A1,1,0,0,1,21,14.5Z"/></svg>