<svg xmlns="http://www.w3.org/2000/svg" viewBox="0 0 24 24"><path class="uim-primary" d="M16,22a.99974.99974,0,0,1-1-1V3a1,1,0,0,1,2,0V21A.99974.99974,0,0,1,16,22Z"/><path class="uim-primary" d="M16 12a.99632.99632 0 0 1-.55469-.168l-3-2A1.00028 1.00028 0 0 1 12 9V3a1 1 0 0 1 2 0V8.46484l2 1.333 2-1.333V3a1 1 0 0 1 2 0V9a1.00028 1.00028 0 0 1-.44531.832l-3 2A.99632.99632 0 0 1 16 12zM9 22a.99974.99974 0 0 1-1-1V12a1 1 0 0 1 2 0v9A.99974.99974 0 0 1 9 22z"/><path class="uim-tertiary" d="M9,14H5a.99974.99974,0,0,1-1-1V7.00488A5.01227,5.01227,0,0,1,8.99854,2H9a.99942.99942,0,0,1,1,1V13A.99974.99974,0,0,1,9,14Z"/></svg>