<svg xmlns="http://www.w3.org/2000/svg" viewBox="0 0 24 24"><path class="uim-primary" d="M21 8H18a1 1 0 0 1 0-2h3a1 1 0 0 1 0 2zM6 8H3A1 1 0 0 1 3 6H6A1 1 0 0 1 6 8zM21 17H19a1 1 0 0 1 0-2h2a1 1 0 0 1 0 2zM5 17H3a1 1 0 0 1 0-2H5a1 1 0 0 1 0 2z"/><path class="uim-tertiary" d="M19,20H5a.99974.99974,0,0,1-1-1V13a.99974.99974,0,0,1,1-1H19a.99974.99974,0,0,1,1,1v6A.99974.99974,0,0,1,19,20Z"/><path class="uim-quaternary" d="M18,10H6A.99974.99974,0,0,1,5,9V5A.99974.99974,0,0,1,6,4H18a.99974.99974,0,0,1,1,1V9A.99974.99974,0,0,1,18,10Z"/></svg>