<svg xmlns="http://www.w3.org/2000/svg" viewBox="0 0 24 24"><path class="uim-tertiary" d="M15.0625,23H8.92725C2.77783,23,1,21.21973,1,15.0625V8.92676C1,2.77832,2.78027,1,8.9375,1h6.13525C21.22217,1,23,2.78027,23,8.9375v6.13574C23,21.22168,21.21973,23,15.0625,23Z"/><path class="uim-primary" d="M11.6543,17.002a1.004,1.004,0,0,1-.58594-.18945A13.33371,13.33371,0,0,1,5.66846,8.169a.99988.99988,0,1,1,1.97168-.334,11.30727,11.30727,0,0,0,3.01416,5.98926V8.002a1,1,0,1,1,2,0v8a.99954.99954,0,0,1-1,1Z"/><path class="uim-primary" d="M16.65479,17.002a.99831.99831,0,0,1-.73731-.32422l-1.64795-1.79687A3.55144,3.55144,0,0,0,12.65479,13.876l-.00049,2.126a.99974.99974,0,0,1-1,1h0a.99973.99973,0,0,1-1-1v-3.2705a.99973.99973,0,0,1,1-1,5.56156,5.56156,0,0,1,4.08935,1.79785l1.64746,1.79687a.99972.99972,0,0,1-.73632,1.67578Z"/><path class="uim-primary" d="M11.6499,14.96a.99974.99974,0,0,1-1-1V8.04a1,1,0,0,1,2,0V13.96A.99973.99973,0,0,1,11.6499,14.96Z"/><path class="uim-primary" d="M12.57031 13.83008a1.00022 1.00022 0 0 1-.37939-1.92578 5.8607 5.8607 0 0 0 3.48388-4.126 1 1 0 1 1 1.9502.44336 7.86454 7.86454 0 0 1-4.67627 5.53418A.99649.99649 0 0 1 12.57031 13.83008zM11.6543 9.002h-.00293L10.99707 9A1.00068 1.00068 0 0 1 10 7.99707 1.0296 1.0296 0 0 1 11.00293 7l.6543.00195a1 1 0 0 1-.00293 2z"/></svg>