<svg xmlns="http://www.w3.org/2000/svg" viewBox="0 0 24 24"><path class="uim-primary" d="M15.07294,2H8.93748C3.33331,2,2,3.33331,2,8.92706V15.0625C2,20.66663,3.32294,22,8.92706,22h6.13542C20.66669,22,22,20.67706,22,15.07288V8.9375C22,3.33331,20.67706,2,15.07294,2Z"/><path class="uim-tertiary" d="M18.14581,16.27081H16.68748c-.552,0-.71873-.44793-1.70829-1.4375-.86463-.83331-1.22919-.9375-1.44794-.9375-.30206,0-.38544.08332-.38544.5v1.3125c0,.35419-.11456.5625-1.04162.5625a5.69211,5.69211,0,0,1-4.44794-2.66668A11.62611,11.62611,0,0,1,5.35419,8.77081c0-.21875.08329-.41668.5-.41668H7.31248c.375,0,.51046.16668.65627.55212.70831,2.08331,1.91669,3.89581,2.40625,3.89581.18748,0,.27081-.08331.27081-.55206V10.10413c-.0625-.97913-.58333-1.0625-.58333-1.41663a.36009.36009,0,0,1,.375-.33337h2.29171c.3125,0,.41662.15625.41662.53125v2.89587c0,.3125.13544.41663.22919.41663.18748,0,.33331-.10413.67706-.44788a11.99877,11.99877,0,0,0,1.79169-2.97919.62816.62816,0,0,1,.63544-.41668h1.45829c.43752,0,.53127.21875.43752.53125A18.20507,18.20507,0,0,1,16.41669,12.25c-.15625.23956-.21875.36456,0,.64581.14579.21875.65625.64582,1,1.05207a6.48553,6.48553,0,0,1,1.22912,1.70837C18.77081,16.0625,18.56248,16.27081,18.14581,16.27081Z"/></svg>