<svg xmlns="http://www.w3.org/2000/svg" viewBox="0 0 24 24"><path class="uim-primary" d="M14,20a1.00061,1.00061,0,0,1-.625-.21875L8.64941,16H5a.99943.99943,0,0,1-1-1V9A.99943.99943,0,0,1,5,8H8.64941L13.375,4.21875A1.00025,1.00025,0,0,1,15,5V19a.9993.9993,0,0,1-1,1Z"/><path class="uim-tertiary" d="M17.92969,15.29785a1,1,0,0,1-.64356-1.7666A1.99114,1.99114,0,0,0,18,12a2.01438,2.01438,0,0,0-.58594-1.41406.99989.99989,0,0,1,1.41406-1.41406,3.99974,3.99974,0,0,1-.25683,5.89257A.99968.99968,0,0,1,17.92969,15.29785Z"/></svg>