<svg xmlns="http://www.w3.org/2000/svg" viewBox="0 0 24 24"><path class="uim-tertiary" d="M12.01953,21.56641a1.00068,1.00068,0,0,1-.86279-.49414L1.13721,3.9668a.99989.99989,0,0,1,.85742-1.50586l4.97314-.02735h.00537a1.00083,1.00083,0,0,1,.85743.48536L12.01611,9.8916l4.14405-6.96777a.9989.9989,0,0,1,.85937-.48926h.001l4.98047.00391a1.00039,1.00039,0,0,1,.86328,1.5039L12.88379,21.07031a1.00062,1.00062,0,0,1-.86328.4961Z"/><path class="uim-primary" d="M6.97592,3.43329l3.64623.00129,1.38355,1.956,1.3743-1.956,3.64334-.00074L12.02381,11.8404Z"/><path class="uim-primary" d="M14.59955,2.43a1,1,0,0,0-.81824.425L12,5.39l-1.7912-2.5368A.99985.99985,0,0,0,9.39191,2.43H6.38L9.93,8.35l2.1,3.5,2.07-3.5,3.52-5.92Z"/></svg>