<svg xmlns="http://www.w3.org/2000/svg" data-name="Layer 1" viewBox="0 0 24 24"><rect width="2" height="4" x="3" y="16" class="uim-quaternary"/><rect width="6" height="4" x="5" y="16" class="uim-tertiary"/><rect width="6" height="4" x="11" y="16" class="uim-secondary"/><rect width="4" height="4" x="17" y="16" class="uim-quaternary"/><rect width="2" height="4" x="3" y="8" class="uim-quaternary"/><rect width="6" height="4" x="5" y="8" class="uim-tertiary"/><rect width="6" height="4" x="11" y="8" class="uim-secondary"/><rect width="4" height="4" x="17" y="8" class="uim-quaternary"/><rect width="4" height="4" x="3" y="4" class="uim-secondary"/><rect width="6" height="4" x="7" y="4" class="uim-quaternary"/><rect width="6" height="4" x="13" y="4" class="uim-tertiary"/><rect width="2" height="4" x="19" y="4" class="uim-quaternary"/><rect width="4" height="4" x="3" y="12" class="uim-secondary"/><rect width="6" height="4" x="7" y="12" class="uim-quaternary"/><rect width="6" height="4" x="13" y="12" class="uim-tertiary"/><rect width="2" height="4" x="19" y="12" class="uim-secondary"/><path class="uim-primary" d="M7 9A1 1 0 0 1 6 8V4A1 1 0 0 1 8 4V8A1 1 0 0 1 7 9zM13 9a1 1 0 0 1-1-1V4a1 1 0 0 1 2 0V8A1 1 0 0 1 13 9zM19 9a1 1 0 0 1-1-1V4a1 1 0 0 1 2 0V8A1 1 0 0 1 19 9zM5 13a1 1 0 0 1-1-1V8A1 1 0 0 1 6 8v4A1 1 0 0 1 5 13zM11 13a1 1 0 0 1-1-1V8a1 1 0 0 1 2 0v4A1 1 0 0 1 11 13zM17 13a1 1 0 0 1-1-1V8a1 1 0 0 1 2 0v4A1 1 0 0 1 17 13zM7 17a1 1 0 0 1-1-1V12a1 1 0 0 1 2 0v4A1 1 0 0 1 7 17zM13 17a1 1 0 0 1-1-1V12a1 1 0 0 1 2 0v4A1 1 0 0 1 13 17z"/><path class="uim-primary" d="M7 17a1 1 0 0 1-1-1V12a1 1 0 0 1 2 0v4A1 1 0 0 1 7 17zM19 17a1 1 0 0 1-1-1V12a1 1 0 0 1 2 0v4A1 1 0 0 1 19 17zM11 21a1 1 0 0 1-1-1V16a1 1 0 0 1 2 0v4A1 1 0 0 1 11 21zM5 21a1 1 0 0 1-1-1V16a1 1 0 0 1 2 0v4A1 1 0 0 1 5 21zM17 21a1 1 0 0 1-1-1V16a1 1 0 0 1 2 0v4A1 1 0 0 1 17 21zM21 9H3A1 1 0 0 1 3 7H21a1 1 0 0 1 0 2z"/><path class="uim-primary" d="M21 21H3a1 1 0 0 1 0-2H21a1 1 0 0 1 0 2zM21 5H3A1 1 0 0 1 3 3H21a1 1 0 0 1 0 2zM21 13H3a1 1 0 0 1 0-2H21a1 1 0 0 1 0 2zM21 17H3a1 1 0 0 1 0-2H21a1 1 0 0 1 0 2z"/></svg>