<svg xmlns="http://www.w3.org/2000/svg" viewBox="0 0 24 24"><path class="uim-tertiary" d="M17.55556,9.55556V5.11111a2,2,0,0,0-2-2H4a2,2,0,0,0-2,2V9.55556Z"/><path class="uim-quaternary" d="M2,5.33333H2A2.22222,2.22222,0,0,0,4.22222,7.55556H19.77778A2.22222,2.22222,0,0,1,22,9.77778v8.88889a2.22222,2.22222,0,0,1-2.22222,2.22222H4.22222A2.22222,2.22222,0,0,1,2,18.66667V5.33333"/><path class="uim-primary" d="M22,17.0001H19.11842A3.07977,3.07977,0,0,1,16.05816,14.598,3.00484,3.00484,0,0,1,19,11.0001h3Z"/></svg>