<svg xmlns="http://www.w3.org/2000/svg" viewBox="0 0 24 24"><path class="uim-primary" d="M18.69629 13.45117a4.22012 4.22012 0 0 1-2.07861-.55957 2.6115 2.6115 0 0 0-2.55567-.00488 4.1469 4.1469 0 0 1-4.12256.001 2.60927 2.60927 0 0 0-2.55713.0039 4.04376 4.04376 0 0 1-4.10009.00293 2.45014 2.45014 0 0 0-.56446-.24414.99965.99965 0 1 1 .56446-1.918 4.47414 4.47414 0 0 1 1.022.44336A2.06907 2.06907 0 0 0 6.398 11.15137a4.62944 4.62944 0 0 1 4.54.00293 2.134 2.134 0 0 0 2.12549-.001 4.6316 4.6316 0 0 1 4.53857-.002 2.06817 2.06817 0 0 0 2.09326.02441 4.48719 4.48719 0 0 1 1.02246-.44336.99965.99965 0 1 1 .56446 1.918 2.46285 2.46285 0 0 0-.56494.24414A3.93792 3.93792 0 0 1 18.69629 13.45117zM18.69629 18.45117a4.22012 4.22012 0 0 1-2.07861-.55957 2.6115 2.6115 0 0 0-2.55567-.00488 4.1469 4.1469 0 0 1-4.12256.001 2.60927 2.60927 0 0 0-2.55713.0039 4.04376 4.04376 0 0 1-4.10009.00293 2.45014 2.45014 0 0 0-.56446-.24414.99965.99965 0 1 1 .56446-1.918 4.47414 4.47414 0 0 1 1.022.44336A2.06907 2.06907 0 0 0 6.398 16.15137a4.62446 4.62446 0 0 1 4.54.00293 2.134 2.134 0 0 0 2.12549-.001 4.62661 4.62661 0 0 1 4.53857-.002 2.06817 2.06817 0 0 0 2.09326.02441 4.48719 4.48719 0 0 1 1.02246-.44336.99965.99965 0 1 1 .56446 1.918 2.46285 2.46285 0 0 0-.56494.24414A3.93792 3.93792 0 0 1 18.69629 18.45117zM18.69629 8.45117a4.22012 4.22012 0 0 1-2.07861-.55957A2.6115 2.6115 0 0 0 14.062 7.88672a4.1469 4.1469 0 0 1-4.12256.001 2.60927 2.60927 0 0 0-2.55713.0039 4.04376 4.04376 0 0 1-4.10009.00293 2.45014 2.45014 0 0 0-.56446-.24414.99965.99965 0 1 1 .56446-1.918 4.47414 4.47414 0 0 1 1.022.44336A2.06907 2.06907 0 0 0 6.398 6.15137a4.62446 4.62446 0 0 1 4.54.00293 2.134 2.134 0 0 0 2.12549-.001A4.62661 4.62661 0 0 1 17.602 6.15137a2.06817 2.06817 0 0 0 2.09326.02441 4.48719 4.48719 0 0 1 1.02246-.44336.99965.99965 0 1 1 .56446 1.918 2.46285 2.46285 0 0 0-.56494.24414A3.93792 3.93792 0 0 1 18.69629 8.45117z"/></svg>