<svg xmlns="http://www.w3.org/2000/svg" viewBox="0 0 24 24"><polygon class="uim-quaternary" points="2 13 14 13 14 22 16 22 16 13 16 13 16 11 16 11 16 2 14 2 14 11 2 11 2 13"/><path class="uim-primary" d="M17,2h5a0,0,0,0,1,0,0V22a0,0,0,0,1,0,0H17a1,1,0,0,1-1-1V3a1,1,0,0,1,1-1Z" transform="rotate(180 19 12)"/><path class="uim-tertiary" d="M2,13H13a1,1,0,0,1,1,1v8a0,0,0,0,1,0,0H2a0,0,0,0,1,0,0V13A0,0,0,0,1,2,13Z" transform="rotate(180 8 17.5)"/><path class="uim-tertiary" d="M2,2H14a0,0,0,0,1,0,0v8a1,1,0,0,1-1,1H2a0,0,0,0,1,0,0V2A0,0,0,0,1,2,2Z" transform="rotate(180 8 6.5)"/></svg>