<svg xmlns="http://www.w3.org/2000/svg" data-name="Layer 1" viewBox="0 0 24 24"><path class="uim-tertiary" d="M19,22H5a3.00328,3.00328,0,0,1-3-3V7A3.00328,3.00328,0,0,1,5,4H19a3.00328,3.00328,0,0,1,3,3V19A3.00328,3.00328,0,0,1,19,22Z"/><path class="uim-quaternary" d="M14.23438,12H9.76562A3.0044,3.0044,0,0,1,6.78906,9.37207l-.5-4A2.99969,2.99969,0,0,1,9.26562,2h5.46876a2.99969,2.99969,0,0,1,2.97656,3.37207l-.5,4A3.0044,3.0044,0,0,1,14.23438,12Z"/><path class="uim-primary" d="M14 18H10a1 1 0 0 1 0-2h4a1 1 0 0 1 0 2zM10.99951 12a1 1 0 0 1-.90185-1.43115l1.82861-3.82862a1.00006 1.00006 0 1 1 1.80469.86231l-1.82862 3.82861A1.0001 1.0001 0 0 1 10.99951 12z"/><path class="uim-secondary" d="M14.23438,12H9.76562A3.0044,3.0044,0,0,1,6.78906,9.37207l-.5-4A2.99969,2.99969,0,0,1,9.26562,2h5.46876a2.99969,2.99969,0,0,1,2.97656,3.37207l-.5,4A3.0044,3.0044,0,0,1,14.23438,12ZM9.26562,4a1.00034,1.00034,0,0,0-.99218,1.124l.5,4A1.00132,1.00132,0,0,0,9.76562,10h4.46876a1.00132,1.00132,0,0,0,.99218-.876l.5-4A1.00034,1.00034,0,0,0,14.73438,4Z"/></svg>