<svg xmlns="http://www.w3.org/2000/svg" data-name="Layer 1" viewBox="0 0 24 24"><rect width="20" height="20" x="2" y="2" class="uim-primary" rx="4"/><path class="uim-tertiary" d="M12.2254,18.97327h-.00293a7.16922,7.16922,0,0,1-3.42724-.87268l-3.80188.99694L6.0108,15.38232a7.17227,7.17227,0,1,1,6.2146,3.59095Z"/><path class="uim-primary" d="M12.22772,5.83984a5.962,5.962,0,0,0-5.052,9.13l.14178.22546-.60223,2.199,2.2561-.59168.21772.12915a5.95284,5.95284,0,0,0,3.03387.83063h.00244a5.96128,5.96128,0,0,0,.00232-11.92255ZM15.734,14.36047a1.84531,1.84531,0,0,1-1.20953.85181,2.45765,2.45765,0,0,1-1.12873-.07092,10.31067,10.31067,0,0,1-1.0216-.37738,7.98751,7.98751,0,0,1-3.06122-2.705,3.484,3.484,0,0,1-.73169-1.85315,2.00886,2.00886,0,0,1,.6272-1.49445.65822.65822,0,0,1,.47784-.22418c.11945,0,.239.0011.34344.00629.11.00549.25776-.04181.4032.30756.14929.35864.50769,1.24041.55249,1.33007a.32976.32976,0,0,1,.015.31385,1.22169,1.22169,0,0,1-.1792.29889c-.0896.10461-.18817.23358-.2688.31384-.08972.08935-.18311.18628-.07855.3656a5.39664,5.39664,0,0,0,.99688,1.241,4.89509,4.89509,0,0,0,1.441.88916c.1792.08966.28376.0747.38825-.04486s.448-.52308.56744-.7024.23895-.14947.4032-.08966,1.04523.49317,1.22449.58283.29864.13452.34344.20923A1.49694,1.49694,0,0,1,15.734,14.36047Z"/></svg>