<svg xmlns="http://www.w3.org/2000/svg" enable-background="new 0 0 24 24" viewBox="0 0 24 24"><path class="uim-tertiary" d="M12.2254,18.97327h-0.00293c-1.19736-0.00013-2.37563-0.30015-3.42724-0.87268l-3.80188,0.99694l1.01745-3.71521c-1.97791-3.43198-0.79915-7.81756,2.63283-9.79547s7.81756-0.79915,9.79547,2.63283s0.79915,7.81756-2.63283,9.79547C14.71722,18.64278,13.48236,18.97319,12.2254,18.97327z"/><path class="uim-primary" d="M18,2H6C3.79083,2,2,3.79083,2,6v12c0,2.20917,1.79083,4,4,4h12c2.20917,0,4-1.79083,4-4V6C22,3.79083,20.20917,2,18,2z M15.80627,18.01514c-1.08905,0.62762-2.32391,0.95807-3.58087,0.95813h-0.00293c-1.19739-0.00012-2.37561-0.30017-3.42725-0.87268l-3.80188,0.99695l1.01746-3.71521C4.0329,11.95032,5.21167,7.56476,8.64362,5.58685c3.43201-1.97791,7.81757-0.79913,9.79547,2.63281C20.41699,11.65167,19.23822,16.03723,15.80627,18.01514z"/><path class="uim-primary" d="M12.22772,5.83984C8.935,5.8391,6.26512,8.50778,6.26439,11.8005C6.26413,12.92162,6.58,14.02009,7.17572,14.96984L7.3175,15.1953l-0.60223,2.199l2.2561-0.59168l0.21772,0.12915c0.91852,0.54389,1.9664,0.83078,3.03387,0.83063h0.00244c3.29232-0.00349,5.95845-2.67527,5.95496-5.96759C18.17688,8.50832,15.5142,5.84461,12.22772,5.83984z M15.734,14.36047c-0.26674,0.4402-0.7052,0.74898-1.20953,0.85181c-0.37664,0.06443-0.76312,0.04014-1.12873-0.07092c-0.34694-0.10771-0.68795-0.23368-1.0216-0.37738c-1.23763-0.62108-2.29253-1.55323-3.06122-2.705c-0.41909-0.53332-0.67338-1.17738-0.73169-1.85315c-0.01008-0.56412,0.21754-1.10648,0.6272-1.49445C9.32946,8.57327,9.50269,8.492,9.68627,8.4872c0.11945,0,0.239,0.0011,0.34344,0.00629c0.11,0.00549,0.25776-0.04181,0.4032,0.30756c0.14929,0.35864,0.50769,1.24041,0.55249,1.33007c0.05772,0.09536,0.06337,0.21342,0.015,0.31385c-0.04514,0.10768-0.10549,0.20833-0.1792,0.29889c-0.0896,0.10461-0.18817,0.23358-0.2688,0.31384c-0.08972,0.08935-0.18311,0.18628-0.07855,0.3656c0.26912,0.46067,0.60507,0.87888,0.99688,1.241c0.42504,0.37784,0.91266,0.67873,1.441,0.88916c0.1792,0.08966,0.28376,0.0747,0.38825-0.04486s0.448-0.52308,0.56744-0.7024s0.23895-0.14947,0.4032-0.08966s1.04523,0.49317,1.22449,0.58283s0.29864,0.13452,0.34344,0.20923C15.8876,13.79668,15.85125,14.09281,15.734,14.36047z"/></svg>