<svg xmlns="http://www.w3.org/2000/svg" data-name="Layer 1" viewBox="0 0 24 24"><rect width="11" height="8" x="6" y="6" class="uim-quaternary"/><path class="uim-tertiary" d="M19,7H6A1,1,0,0,1,6,5H19a1,1,0,0,1,0,2Z"/><path class="uim-tertiary" d="M17,15a.99974.99974,0,0,1-1-1V6a1,1,0,0,1,2,0v8A.99974.99974,0,0,1,17,15Z"/><path class="uim-tertiary" d="M17,11H6A1,1,0,0,1,6,9H17a1,1,0,0,1,0,2Z"/><path class="uim-tertiary" d="M6 14a.99974.99974 0 0 1-1-1V5A1.001 1.001 0 0 0 4 4H3A1 1 0 0 1 3 2H4A3.00328 3.00328 0 0 1 7 5v8A.99974.99974 0 0 1 6 14zM19 18a.99974.99974 0 0 1-1-1V16a1.001 1.001 0 0 0-1-1H10a1 1 0 0 1 0-2h7a3.00328 3.00328 0 0 1 3 3v1A.99974.99974 0 0 1 19 18z"/><circle cx="7" cy="17" r="4" class="uim-primary"/><path class="uim-primary" d="M7,22a5,5,0,1,1,5-5A5.00588,5.00588,0,0,1,7,22Zm0-8a3,3,0,1,0,3,3A3.00328,3.00328,0,0,0,7,14Z"/><circle cx="7" cy="17" r="1" class="uim-tertiary"/><circle cx="19" cy="19" r="2" class="uim-primary"/><path class="uim-primary" d="M19,22a3,3,0,1,1,3-3A3.00328,3.00328,0,0,1,19,22Zm0-4a1,1,0,1,0,1,1A1.001,1.001,0,0,0,19,18Z"/><circle cx="19" cy="19" r="1" class="uim-tertiary"/></svg>