<svg xmlns="http://www.w3.org/2000/svg" data-name="Layer 1" viewBox="0 0 24 24"><path class="uim-tertiary" d="M19.5 22.5h-2a1 1 0 0 1 0-2h2a1 1 0 0 1 0 2zM11.5 16.5a.99974.99974 0 0 1-1-1v-7a1 1 0 0 1 2 0v7A.99974.99974 0 0 1 11.5 16.5z"/><path class="uim-tertiary" d="M17.5 22.5a.99974.99974 0 0 1-1-1v-5h-5a1 1 0 0 1 0-2h6a.99974.99974 0 0 1 1 1v6A.99974.99974 0 0 1 17.5 22.5zM17.5 12.5h-6a1 1 0 0 1 0-2h6a1 1 0 0 1 0 2z"/><path class="uim-primary" d="M9.5,22.5A5.99844,5.99844,0,0,1,7.10352,11.002a.99993.99993,0,0,1,.793,1.83594A3.99854,3.99854,0,0,0,9.5,20.5a4.02911,4.02911,0,0,0,3.20117-1.60107.99971.99971,0,1,1,1.59766,1.20214A6.03691,6.03691,0,0,1,9.5,22.5Z"/><circle cx="12" cy="4.5" r="2" class="uim-tertiary"/></svg>