<svg xmlns="http://www.w3.org/2000/svg" viewBox="0 0 24 24"><path class="uim-primary" d="M15.90186,16.001a.99974.99974,0,0,1-1-1v-4a1,1,0,1,1,2,0v4A.99974.99974,0,0,1,15.90186,16.001Z"/><path class="uim-tertiary" d="M17.90186,22h-13a3.00328,3.00328,0,0,1-3-3V17a3.00328,3.00328,0,0,1,3-3h13a3.00328,3.00328,0,0,1,3,3v2A3.00328,3.00328,0,0,1,17.90186,22Z"/><circle cx="5.902" cy="18" r="1" class="uim-primary"/><circle cx="8.902" cy="18" r="1" class="uim-primary"/><circle cx="11.902" cy="18" r="1" class="uim-primary"/><path class="uim-primary" d="M17.63477,9a1.00055,1.00055,0,0,1-.86719-.5,1.0401,1.0401,0,0,0-1.73145,0,1.00016,1.00016,0,0,1-1.73242-1A3.00012,3.00012,0,0,1,18.5,7.5,1.00024,1.00024,0,0,1,17.63477,9Z"/><path class="uim-primary" d="M10.70459,7a.99991.99991,0,0,1-.86523-1.5,7.00056,7.00056,0,0,1,12.125,0,1.00016,1.00016,0,0,1-1.73243,1,4.99991,4.99991,0,0,0-8.66015,0A1.00115,1.00115,0,0,1,10.70459,7Z"/></svg>