<svg xmlns="http://www.w3.org/2000/svg" viewBox="0 0 24 24"><path class="uim-quaternary" d="M19,18.0001H9a3.00328,3.00328,0,0,1-3-3v-10a3.00328,3.00328,0,0,1,3-3H19a3.00328,3.00328,0,0,1,3,3v10A3.00328,3.00328,0,0,1,19,18.0001Z"/><path class="uim-tertiary" d="M15,22.0001H5a3.00328,3.00328,0,0,1-3-3v-10a3.00328,3.00328,0,0,1,3-3H15a3.00328,3.00328,0,0,1,3,3v10A3.00328,3.00328,0,0,1,15,22.0001Z"/><path class="uim-primary" d="M18,10.0001H2v-1a3,3,0,0,1,3-3H15a3,3,0,0,1,3,3Z"/><path class="uim-tertiary" d="M22,6.0001H6v-1a3,3,0,0,1,3-3H19a3,3,0,0,1,3,3Z"/></svg>