<svg xmlns="http://www.w3.org/2000/svg" viewBox="0 0 24 24"><circle cx="11" cy="11.5" r="5.5" class="uim-tertiary" data-name="Layer 1"/><path class="uim-primary" d="M11 4.5a.99943.99943 0 0 1-1-1v-1a1 1 0 0 1 2 0v1A.99943.99943 0 0 1 11 4.5zM3 12.5H2a1 1 0 0 1 0-2H3a1 1 0 0 1 0 2zM16.65723 6.84277a1 1 0 0 1-.707-1.707l.707-.707a.99989.99989 0 1 1 1.41406 1.41406l-.707.707A.99672.99672 0 0 1 16.65723 6.84277zM4.63574 18.86426a1 1 0 0 1-.707-1.707l.707-.707A.99989.99989 0 1 1 6.0498 17.86426l-.707.707A.99676.99676 0 0 1 4.63574 18.86426zM5.34277 6.84277a.99672.99672 0 0 1-.707-.293l-.707-.707A.99989.99989 0 0 1 5.34277 4.42871l.707.707a1 1 0 0 1-.707 1.707z"/><path class="uim-primary" d="M16.65723,6.84277a1,1,0,0,1-.707-1.707l.707-.707a.99989.99989,0,1,1,1.41406,1.41406l-.707.707A.99672.99672,0,0,1,16.65723,6.84277Z"/><circle cx="9" cy="20" r="1" class="uim-quaternary"/><path class="uim-quaternary" d="M17 23a.99943.99943 0 0 1-1-1 1.01348 1.01348 0 0 0-1-1H13a1 1 0 0 1 0-2h2a3.00328 3.00328 0 0 1 3 3A.99943.99943 0 0 1 17 23zM19 13H14a1 1 0 0 1 0-2h5a1.01348 1.01348 0 0 0 1-1 1 1 0 0 1 2 0A3.00328 3.00328 0 0 1 19 13zM20 21a1 1 0 0 1 0-2 1 1 0 0 0 0-2H15a1 1 0 0 1 0-2h5a3 3 0 0 1 0 6z"/></svg>