<svg xmlns="http://www.w3.org/2000/svg" viewBox="0 0 24 24"><path class="uim-tertiary" d="M15.6802,16.99976h-9.25a1.00338,1.00338,0,0,1-.65185-.24121A8.04149,8.04149,0,0,1,8.49075,3.05249.9994.9994,0,0,1,9.79837,4.1521,7.036,7.036,0,0,0,9.70022,5.2a6.06148,6.06148,0,0,0,6.05957,6.04981,5.97144,5.97144,0,0,0,1.91992-.31738.99988.99988,0,0,1,1.30567,1.11621,8.04481,8.04481,0,0,1-2.6499,4.707A1.00293,1.00293,0,0,1,15.6802,16.99976Z"/><circle cx="14" cy="8" r="1" class="uim-quaternary"/><path class="uim-quaternary" d="M3 21a1.0321 1.0321 0 0 1-.71-.29A.98946.98946 0 0 1 2 20a1.04778 1.04778 0 0 1 .29-.71 1.04666 1.04666 0 0 1 1.41992 0A1.05232 1.05232 0 0 1 4 20a.99349.99349 0 0 1-.29.71A1.03574 1.03574 0 0 1 3 21zM14 23a.99943.99943 0 0 1-1-1 1.01348 1.01348 0 0 0-1-1H7a1 1 0 0 1 0-2h5a3.00328 3.00328 0 0 1 3 3A.99943.99943 0 0 1 14 23zM20 9H18a1 1 0 0 1 0-2h2a1.01348 1.01348 0 0 0 1-1 1 1 0 0 1 2 0A3.00328 3.00328 0 0 1 20 9zM20 21a1 1 0 0 1 0-2 1 1 0 0 0 0-2H12a1 1 0 0 1 0-2h8a3 3 0 0 1 0 6zM8 17H3a1 1 0 0 1 0-2H8a1 1 0 0 1 0 2z"/></svg>