<svg xmlns="http://www.w3.org/2000/svg" viewBox="0 0 24 24"><path class="uim-tertiary" d="M18.08,5,15,4.74l-1-.08008-4-.33984L9,4.24,6.08,4a1.01328,1.01328,0,0,0-.76.26A1.02892,1.02892,0,0,0,5,5v8a1.02892,1.02892,0,0,0,.32.74A1.01445,1.01445,0,0,0,6,14h.08L9,13.76l1-.08008,4-.34,1-.08L18.08,13A1.00956,1.00956,0,0,0,19,12V6A1.00956,1.00956,0,0,0,18.08,5Z"/><path class="uim-primary" d="M6,22a.99974.99974,0,0,1-1-1V3A1,1,0,0,1,7,3V21A.99974.99974,0,0,1,6,22Z"/><polygon class="uim-primary" points="14 4.66 14 13.34 10 13.68 10 4.32 14 4.66"/></svg>