<svg xmlns="http://www.w3.org/2000/svg" data-name="Layer 1" viewBox="0 0 24 24"><path class="uim-primary" d="M10.11149,19.706a44.69246,44.69246,0,0,1-6.50013-.32775A2.85715,2.85715,0,0,1,2.12,18.6028a3.13942,3.13942,0,0,1-.70691-1.36239,8.91014,8.91014,0,0,1-.30162-1.99992,47.50455,47.50455,0,0,1,0-6.483c.13469-1.1975.2-2.61908,1.09464-3.44843a2.93487,2.93487,0,0,1,1.46566-.74119,80.93188,80.93188,0,0,1,8.33637-.29305,81.08059,81.08059,0,0,1,8.33678.29305A2.86786,2.86786,0,0,1,22.06036,5.585a8.53869,8.53869,0,0,1,.91343,4.12962c.03428.59507.03428,3.97411,0,4.56919A10.44187,10.44187,0,0,1,22.4481,17.68a2.50378,2.50378,0,0,1-.60365.96567,2.89172,2.89172,0,0,1-1.53463.78446c-3.62555.27264-6.7042.33182-10.19833.2759Zm5.552-7.93109c-2.017-1.07792-3.9484-2.07746-5.9226-3.11211v6.18993c2.07746-1.12933,4.26757-2.164,5.93117-3.08639l-.00857.00857Z"/><path class="uim-tertiary" d="M15.66349,11.77493c-2.017-1.07792-3.9484-2.07746-5.9226-3.11211v6.18993c2.07746-1.12933,4.26757-2.164,5.93117-3.08639l-.00857.00857Z"/></svg>